<svg xmlns="http://www.w3.org/2000/svg" xmlns:xlink="http://www.w3.org/1999/xlink" width="118" height="118" viewBox="0 0 118 118">
  <defs>
    <filter id="Elipse_12115" x="0" y="0" width="118" height="118" filterUnits="userSpaceOnUse">
      <feOffset dy="3" input="SourceAlpha"/>
      <feGaussianBlur stdDeviation="3" result="blur"/>
      <feFlood flood-opacity="0.161"/>
      <feComposite operator="in" in2="blur"/>
      <feComposite in="SourceGraphic"/>
    </filter>
  </defs>
  <g id="Grupo_1189365" data-name="Grupo 1189365" transform="translate(-745.781 -3846)">
    <g id="Grupo_1181949" data-name="Grupo 1181949" transform="translate(-54 1303)">
      <g transform="matrix(1, 0, 0, 1, 799.78, 2543)" filter="url(#Elipse_12115)">
        <g id="Elipse_12115-2" data-name="Elipse 12115" transform="translate(9 6)" fill="#f6bc1c" stroke="#ab8212" stroke-width="1.5">
          <circle cx="50" cy="50" r="50" stroke="none"/>
          <circle cx="50" cy="50" r="49.25" fill="none"/>
        </g>
      </g>
    </g>
    <g id="_06._xls_Microsoft_Excel_Spreadsheet_" data-name="06. xls (Microsoft Excel Spreadsheet)" transform="translate(771.265 3865.438)">
      <path id="Trazado_1263190" data-name="Trazado 1263190" d="M7,8.046V63.555A5.046,5.046,0,0,0,12.046,68.6H47.37a5.046,5.046,0,0,0,5.046-5.046V18.139L37.277,3H12.046A5.046,5.046,0,0,0,7,8.046Z" transform="translate(3.808 0.762)" fill="#fff"/>
      <path id="Trazado_1263191" data-name="Trazado 1263191" d="M7,21H52.416v2.523H7Z" transform="translate(3.808 28.178)" fill="gray"/>
      <path id="Trazado_1263192" data-name="Trazado 1263192" d="M5,20v7.569l5.046,2.523V22.523Z" transform="translate(0.762 26.654)" fill="#006837"/>
      <path id="Trazado_1263193" data-name="Trazado 1263193" d="M30.046,20v7.569L25,30.092V22.523Z" transform="translate(31.224 26.654)" fill="#006837"/>
      <rect id="Rectángulo_411034" data-name="Rectángulo 411034" width="55.508" height="25.231" rx="2" transform="translate(5.762 23.946)" fill="#22b573"/>
      <path id="Trazado_1263194" data-name="Trazado 1263194" d="M18,3V18.139a2.523,2.523,0,0,0,2.523,2.523H35.662V18.139L20.523,3Z" transform="translate(20.562 0.762)" fill="gray"/>
      <path id="Trazado_1263195" data-name="Trazado 1263195" d="M19,3,34.139,18.139H21.523A2.523,2.523,0,0,1,19,15.616Z" transform="translate(22.085 0.762)" fill="#22b573"/>
      <path id="Trazado_1263196" data-name="Trazado 1263196" d="M14.592,11.331a1.262,1.262,0,0,1,1.262-1.262H28.47a1.262,1.262,0,1,1,0,2.523H15.854A1.262,1.262,0,0,1,14.592,11.331Zm18.923,6.308H15.854a1.262,1.262,0,1,0,0,2.523H33.516a1.262,1.262,0,0,0,0-2.523ZM15.854,55.485H38.562a1.262,1.262,0,0,0,0-2.523H15.854a1.262,1.262,0,1,0,0,2.523Zm35.324-2.523H43.608a1.262,1.262,0,1,0,0,2.523h7.569a1.262,1.262,0,0,0,0-2.523Zm-5.046,7.569H15.854a1.262,1.262,0,1,0,0,2.523H46.131a1.262,1.262,0,1,0,0-2.523Zm16.4-31.539V51.7a6.308,6.308,0,0,1-5.047,6.182v6.434a6.308,6.308,0,0,1-6.308,6.308H15.854a6.308,6.308,0,0,1-6.308-6.308V57.882A6.308,6.308,0,0,1,4.5,51.7V28.993a6.308,6.308,0,0,1,5.047-6.182v-14A6.308,6.308,0,0,1,15.854,2.5H41.413a1.009,1.009,0,0,1,.555.3L57.107,17.941a1.009,1.009,0,0,1,.3.555,1.612,1.612,0,0,1,0,.177v4.062a6.308,6.308,0,0,1,5.122,6.257ZM42.347,6.815v9.563a1.262,1.262,0,0,0,1.262,1.262h9.563ZM12.069,22.685H54.962V20.162H43.608a3.785,3.785,0,0,1-3.785-3.785V5.023H15.854a3.785,3.785,0,0,0-3.785,3.785ZM7.023,44.131a3.785,3.785,0,0,0,3.785,3.785H56.224a3.785,3.785,0,0,0,3.785-3.785V28.993a3.785,3.785,0,0,0-3.785-3.785H10.808a3.785,3.785,0,0,0-3.785,3.785ZM9.546,55.258V50.212a6.409,6.409,0,0,1-2.523-1.161v2.523a3.81,3.81,0,0,0,2.523,3.684Zm45.416-4.819H12.069V64.316A3.785,3.785,0,0,0,15.854,68.1H51.178a3.785,3.785,0,0,0,3.785-3.785ZM60.008,51.7V49.178a6.409,6.409,0,0,1-2.523,1.161v5.046A3.81,3.81,0,0,0,60.008,51.7ZM44.239,41.608H42.977a1.918,1.918,0,0,1-1.892-1.892,1.262,1.262,0,1,0-2.523,0,4.441,4.441,0,0,0,4.415,4.415h1.262a4.415,4.415,0,1,0,0-8.831H42.977a1.892,1.892,0,1,1,0-3.785h1.262a1.918,1.918,0,0,1,1.892,1.892,1.262,1.262,0,1,0,2.523,0,4.441,4.441,0,0,0-4.415-4.415H42.977a4.415,4.415,0,0,0,0,8.831h1.262a1.892,1.892,0,0,1,0,3.785ZM19.008,43.955a1.211,1.211,0,0,0,.656.177,1.312,1.312,0,0,0,1.085-.606l2.674-4.441,2.7,4.516a1.312,1.312,0,0,0,1.085.606,1.211,1.211,0,0,0,.656-.177,1.287,1.287,0,0,0,.429-1.741l-3.406-5.727,3.406-5.652a1.268,1.268,0,0,0-2.17-1.312l-2.7,4.441-2.7-4.516a1.268,1.268,0,1,0-2.17,1.312l3.406,5.727-3.406,5.652a1.287,1.287,0,0,0,.429,1.741Zm14.508.177a1.262,1.262,0,0,0,1.262-1.262V30.254a1.262,1.262,0,0,0-2.523,0V42.87A1.262,1.262,0,0,0,33.516,44.131Z" transform="translate(0)"/>
    </g>
  </g>
</svg>
