<svg xmlns="http://www.w3.org/2000/svg" xmlns:xlink="http://www.w3.org/1999/xlink" width="283" height="198" viewBox="0 0 283 198">
  <defs>
    <clipPath id="clip-path">
      <rect id="Rectángulo_411878" data-name="Rectángulo 411878" width="174.677" height="176.99" fill="none"/>
    </clipPath>
    <clipPath id="clip-path-3">
      <rect id="Rectángulo_411849" data-name="Rectángulo 411849" width="162.392" height="109.64" fill="none"/>
    </clipPath>
  </defs>
  <g id="Grupo_1191310" data-name="Grupo 1191310" transform="translate(-446.051 -3456)">
    <g id="Grupo_1191302" data-name="Grupo 1191302" transform="translate(502.661 3467)">
      <g id="Grupo_1191301" data-name="Grupo 1191301" clip-path="url(#clip-path)">
        <g id="Grupo_1191300" data-name="Grupo 1191300">
          <g id="Grupo_1191299" data-name="Grupo 1191299" clip-path="url(#clip-path)">
            <path id="Trazado_1279173" data-name="Trazado 1279173" d="M170.071,4.511H12.937a8.426,8.426,0,0,0-8.426,8.426V115.654a8.426,8.426,0,0,0,8.426,8.426H170.071a8.426,8.426,0,0,0,8.426-8.426V12.937a8.426,8.426,0,0,0-8.426-8.426" transform="translate(-4.165 -4.165)" fill="#9fa4d5"/>
            <path id="Trazado_1279174" data-name="Trazado 1279174" d="M165.906,120.266a8.787,8.787,0,0,0,8.772-8.772V8.772A8.786,8.786,0,0,0,165.906,0H8.772A8.786,8.786,0,0,0,0,8.772V111.489a8.787,8.787,0,0,0,8.772,8.772ZM.7,111.494V8.772A8.084,8.084,0,0,1,8.766.7H165.9a8.084,8.084,0,0,1,8.07,8.07V111.489a8.083,8.083,0,0,1-8.07,8.07H8.772A8.084,8.084,0,0,1,.7,111.489Z"/>
            <g id="Grupo_1191298" data-name="Grupo 1191298" transform="translate(6.024 5.31)" opacity="0.7" style="isolation: isolate">
              <g id="Grupo_1191297" data-name="Grupo 1191297">
                <g id="Grupo_1191296" data-name="Grupo 1191296" clip-path="url(#clip-path-3)">
                  <path id="Trazado_1279175" data-name="Trazado 1279175" d="M232.6,69.311H87.058a8.426,8.426,0,0,0-8.426,8.426v92.788a8.426,8.426,0,0,0,8.426,8.426H232.6a8.426,8.426,0,0,0,8.426-8.426V77.737a8.426,8.426,0,0,0-8.426-8.426" transform="translate(-78.632 -69.311)" fill="#fff"/>
                </g>
              </g>
            </g>
            <path id="Trazado_1279176" data-name="Trazado 1279176" d="M231.541,178.046a8.522,8.522,0,0,0,8.514-8.514V76.745a8.523,8.523,0,0,0-8.514-8.509H86a8.523,8.523,0,0,0-8.514,8.514v92.783A8.523,8.523,0,0,0,86,178.046ZM77.662,169.532V76.745A8.347,8.347,0,0,1,86,68.411h145.54a8.347,8.347,0,0,1,8.338,8.338v92.783a8.347,8.347,0,0,1-8.338,8.338H86a8.347,8.347,0,0,1-8.338-8.338" transform="translate(-71.55 -63.008)"/>
            <path id="Trazado_1279177" data-name="Trazado 1279177" d="M228.433,175.138a8.789,8.789,0,0,0,8.772-8.772V73.573a8.786,8.786,0,0,0-8.772-8.772H82.894a8.786,8.786,0,0,0-8.772,8.772v92.788a8.787,8.787,0,0,0,8.772,8.772ZM74.819,166.366V73.573a8.084,8.084,0,0,1,8.07-8.07h145.54a8.084,8.084,0,0,1,8.07,8.07v92.788a8.083,8.083,0,0,1-8.07,8.07H82.894a8.084,8.084,0,0,1-8.075-8.07Z" transform="translate(-68.443 -59.836)"/>
            <path id="Trazado_1279178" data-name="Trazado 1279178" d="M228.433,175.138a8.789,8.789,0,0,0,8.772-8.772V73.573a8.786,8.786,0,0,0-8.772-8.772H82.894a8.786,8.786,0,0,0-8.772,8.772v92.788a8.787,8.787,0,0,0,8.772,8.772ZM74.818,166.366V73.573a8.084,8.084,0,0,1,8.07-8.07h145.54a8.085,8.085,0,0,1,8.07,8.07v92.788a8.084,8.084,0,0,1-8.07,8.07H82.894a8.084,8.084,0,0,1-8.075-8.07Z" transform="translate(-68.443 -59.836)"/>
            <path id="Trazado_1279179" data-name="Trazado 1279179" d="M504.006,1777.06H422.651a6.865,6.865,0,0,0-6.865,6.865v12.959a6.864,6.864,0,0,0,6.865,6.865h81.355a6.865,6.865,0,0,0,6.865-6.865v-12.959a6.865,6.865,0,0,0-6.865-6.865" transform="translate(-383.93 -1640.91)" fill="#ace3be"/>
            <path id="Trazado_1279180" data-name="Trazado 1279180" d="M499.778,1799.869a7.222,7.222,0,0,0,7.214-7.214v-12.961a7.224,7.224,0,0,0-7.214-7.214H418.422a7.222,7.222,0,0,0-7.216,7.214v12.961a7.224,7.224,0,0,0,7.216,7.214Zm-87.87-7.214v-12.961a6.519,6.519,0,0,1,6.514-6.512h81.356a6.52,6.52,0,0,1,6.512,6.512v12.961a6.52,6.52,0,0,1-6.512,6.512H418.422a6.52,6.52,0,0,1-6.514-6.512" transform="translate(-379.701 -1636.681)"/>
            <path id="Trazado_1279181" data-name="Trazado 1279181" d="M1265.956,2004.263c3.435.414,7.16-.662,7.649-1.2a2.006,2.006,0,0,0,.656-1.778c-.081-.828-3.611-2.172-5.721-3.7a49.145,49.145,0,0,1-3.66-3.4c-1.309-1.269-2.967-3.158-2.967-3.158a3.745,3.745,0,0,0-2.235-1.393c-1.084-.083-2.094.849-3.684.877-1.146.014-3.8-1.267-4.807-1.324-1.146-.067-2.251.847-2.328,2.938-.033.9-.7,1.642-.893,3.062a9.406,9.406,0,0,0,.067,2.444,37.514,37.514,0,0,1,6.505,1.965c2.7,1.2,7.98,4.261,11.417,4.676" transform="translate(-1152.308 -1836.774)" fill="#b6b6b6"/>
            <path id="Trazado_1279182" data-name="Trazado 1279182" d="M1243.771,1993.914a36.757,36.757,0,0,1,6.432,1.942c.67.3,1.486.7,2.429,1.174,2.874,1.431,6.449,3.212,9.086,3.53a13.948,13.948,0,0,0,1.653.095c2.944,0,5.774-.833,6.3-1.4a2.34,2.34,0,0,0,.746-2.051c-.065-.639-1.035-1.191-2.893-2.191a27.535,27.535,0,0,1-2.97-1.754,34.67,34.67,0,0,1-2.9-2.663l-.724-.7c-1.284-1.246-2.932-3.114-2.949-3.133a4.03,4.03,0,0,0-2.47-1.507,3.955,3.955,0,0,0-1.732.389,5.558,5.558,0,0,1-1.982.479h-.016a10.606,10.606,0,0,1-2.567-.7,10.478,10.478,0,0,0-2.2-.623,2.258,2.258,0,0,0-1.661.59,3.635,3.635,0,0,0-1.039,2.688,3.516,3.516,0,0,1-.339,1.156,7,7,0,0,0-.552,1.872,9.689,9.689,0,0,0,.07,2.549.34.34,0,0,0,.1.174.345.345,0,0,0,.177.093m.351-2.742a6.413,6.413,0,0,1,.5-1.7,4.046,4.046,0,0,0,.392-1.4,3.03,3.03,0,0,1,.809-2.2,1.527,1.527,0,0,1,1.147-.407,10.278,10.278,0,0,1,2.009.585,10.623,10.623,0,0,0,2.825.74,6.127,6.127,0,0,0,2.223-.526,3.609,3.609,0,0,1,1.428-.351,3.42,3.42,0,0,1,2,1.275c.058.067,1.7,1.93,2.983,3.17l.721.7a35.013,35.013,0,0,0,2.983,2.732,27.967,27.967,0,0,0,3.051,1.808c1.011.544,2.456,1.323,2.526,1.644a1.657,1.657,0,0,1-.564,1.507c-.393.43-4,1.491-7.349,1.089-2.518-.3-6.181-2.128-8.858-3.461-.951-.473-1.774-.877-2.456-1.187a34.893,34.893,0,0,0-6.337-1.93,8.776,8.776,0,0,1-.037-2.093Z" transform="translate(-1148.112 -1832.724)"/>
            <path id="Trazado_1279183" data-name="Trazado 1279183" d="M1339.377,1997.943c1.525,1.18,2.25,1.324,5,3.282,2.455,1.745,3.975,2.826,5.121,2.821a3.8,3.8,0,0,0,2.28-.909,19.465,19.465,0,0,1-1.707-1.5c-.66-.632-1.356-1.326-1.952-1.9-.745-.722-1.6-1.646-2.207-2.305-.417-.46-.722-.8-.8-.876a3.711,3.711,0,0,0-2.2-1.353c-1.085-.083-2.095.849-3.684.877a4.484,4.484,0,0,1-1.175-.216,3.2,3.2,0,0,0,.721,1.591,2.5,2.5,0,0,0,.6.493" transform="translate(-1235.544 -1842.33)"/>
            <path id="Trazado_1279184" data-name="Trazado 1279184" d="M1334.918,1993.941a17.646,17.646,0,0,0,1.981,1.314c.714.428,1.6.958,3.016,1.965,2.53,1.8,4.057,2.886,5.317,2.886a4,4,0,0,0,2.579-1.079.35.35,0,0,0-.094-.465,18.323,18.323,0,0,1-1.672-1.472c-.4-.385-.82-.793-1.218-1.185l-.725-.713c-.744-.721-1.6-1.643-2.193-2.291-.415-.458-.719-.8-.8-.887a4.018,4.018,0,0,0-2.432-1.465,3.964,3.964,0,0,0-1.732.39,5.568,5.568,0,0,1-1.981.479,4.12,4.12,0,0,1-1.076-.2.341.341,0,0,0-.173,0,.35.35,0,0,0-.269.4,3.545,3.545,0,0,0,.8,1.767,2.814,2.814,0,0,0,.667.566m.059-1.823a6.14,6.14,0,0,0,2.223-.526,3.616,3.616,0,0,1,1.428-.351,3.407,3.407,0,0,1,1.961,1.228c.074.084.38.428.8.889.6.657,1.465,1.59,2.221,2.323l.73.712c.4.393.819.806,1.227,1.191.583.558,1.035.969,1.393,1.262a4.01,4.01,0,0,1-1.722.546c-1.037,0-2.579-1.1-4.913-2.757-1.437-1.022-2.338-1.561-3.063-1.994a17.148,17.148,0,0,1-1.929-1.281.237.237,0,0,0-.035-.022,2.087,2.087,0,0,1-.511-.437,2.754,2.754,0,0,1-.505-.876,3.363,3.363,0,0,0,.693.094" transform="translate(-1231.283 -1838.039)"/>
            <path id="Trazado_1279185" data-name="Trazado 1279185" d="M1249.252,2032.88h.054l.175.039h.012c.434.094,1.265.284,2.252.554h.011c.167.046.339.094.512.144l.04.011.5.149.059.018.158.049.226.016s.818-1.035,1.431-1.779-2.147-3.825-3.2-4.319a4.507,4.507,0,0,0-1.495-.421,24.143,24.143,0,0,1-.821,2.644v.068c-.06,1.179,0,2.793,0,2.793l.082.016Z" transform="translate(-1153.44 -1872.015)"/>
            <path id="Trazado_1279186" data-name="Trazado 1279186" d="M1244.922,2029.11l.08.018.209.046h.021c.409.089,1.243.279,2.246.554l.509.143.041.012c.163.045.33.094.5.146l.226.07a.383.383,0,0,0,.077.014l.224.014h.023a.352.352,0,0,0,.276-.134c0-.01.823-1.04,1.428-1.773a.876.876,0,0,0,.133-.791c-.284-1.261-2.5-3.617-3.46-4.068a4.867,4.867,0,0,0-1.612-.453.351.351,0,0,0-.14.018.354.354,0,0,0-.122.071.359.359,0,0,0-.085.112.355.355,0,0,0-.034.137,3.561,3.561,0,0,1-.339,1.157,7.976,7.976,0,0,0-.474,1.425.208.208,0,0,0,0,.052v.072c-.062,1.168,0,2.756,0,2.823a.35.35,0,0,0,.275.337m.419-3.117v-.039a7.2,7.2,0,0,1,.432-1.281,5.591,5.591,0,0,0,.351-1.016,4.47,4.47,0,0,1,1.042.351,9.013,9.013,0,0,1,3.048,3.509c.064.208.032.275.032.275-.472.575-1.074,1.328-1.322,1.64l-.185-.056-.509-.151-.039-.011-.526-.149c-1.008-.276-1.856-.469-2.28-.562h-.044c-.022-.531-.045-1.643,0-2.51Z" transform="translate(-1149.263 -1867.92)"/>
            <path id="Trazado_1279187" data-name="Trazado 1279187" d="M1259.41,2106.07c-3.437-.415-8.716-3.476-11.416-4.676a37.514,37.514,0,0,0-6.505-1.965s-1.381,2.2-.152,3.538c1.728,1.879,3.963,1.24,5.614,1.862a55.573,55.573,0,0,0,10.984,2.689,19.87,19.87,0,0,0,6.791-.7c1.514-.456,3.52-1.614,2.982-3.724a2,2,0,0,1-.656,1.779c-.491.536-4.207,1.612-7.642,1.2" transform="translate(-1145.761 -1938.582)" fill="#fff"/>
            <path id="Trazado_1279188" data-name="Trazado 1279188" d="M1255.243,2101.49c-2.517-.3-6.182-2.128-8.857-3.462-.951-.473-1.774-.877-2.456-1.187a37.355,37.355,0,0,0-6.578-1.987.345.345,0,0,0-.208.021.352.352,0,0,0-.158.136c-.061.1-1.507,2.456-.116,3.961a5.63,5.63,0,0,0,4,1.628,7.211,7.211,0,0,1,1.755.325,55.376,55.376,0,0,0,11.082,2.71c.46.035.921.053,1.378.053a20.32,20.32,0,0,0,5.542-.77c1.919-.577,3.773-1.968,3.226-4.146a.351.351,0,0,0-.4-.26.351.351,0,0,0-.288.381,1.657,1.657,0,0,1-.565,1.507c-.4.43-4,1.491-7.351,1.09m5.175.756a19.471,19.471,0,0,1-6.666.69,54.671,54.671,0,0,1-10.889-2.669,7.665,7.665,0,0,0-1.93-.363,5.018,5.018,0,0,1-3.554-1.4c-.83-.9-.2-2.361.076-2.9a36.355,36.355,0,0,1,6.182,1.89c.668.3,1.484.7,2.43,1.173,2.874,1.432,6.449,3.212,9.086,3.53a16.4,16.4,0,0,0,7.018-.793,5.946,5.946,0,0,1-1.754.849Z" transform="translate(-1141.549 -1934.349)"/>
            <path id="Trazado_1279189" data-name="Trazado 1279189" d="M1390.287,2122.662a2,2,0,0,0,.656-1.778c-.034-.33-.617-.744-1.442-1.228-.111.559-1.341,1.468-2.807,1.628s-8.529-2.705-9.758-2.581-2.632,1.8-2.632,1.8l-.025.154c2.688,1.335,5.978,2.909,8.372,3.2,3.421.423,7.146-.653,7.635-1.191" transform="translate(-1268.989 -1956.374)"/>
            <path id="Trazado_1279190" data-name="Trazado 1279190" d="M1378.214,2120.139a14.057,14.057,0,0,0,1.653.1c2.944,0,5.774-.833,6.3-1.4a2.34,2.34,0,0,0,.745-2.051c-.045-.43-.481-.833-1.616-1.488a.35.35,0,0,0-.158-.046.34.34,0,0,0-.162.031.346.346,0,0,0-.13.1.341.341,0,0,0-.07.149,3.261,3.261,0,0,1-2.507,1.347,24.958,24.958,0,0,1-5.14-1.364,19.3,19.3,0,0,0-4.616-1.217c-1.352.137-2.807,1.851-2.872,1.93a.366.366,0,0,0-.077.176l-.025.156a.351.351,0,0,0,.189.369c2.844,1.4,6.077,2.924,8.486,3.215m-5.63-5.151a23.33,23.33,0,0,1,4.328,1.186c2.768.9,4.642,1.481,5.438,1.4a4.344,4.344,0,0,0,2.925-1.482c.826.507.931.7.943.76a1.654,1.654,0,0,1-.565,1.507c-.393.43-4,1.493-7.349,1.089-2.207-.267-5.217-1.661-7.923-3a4.489,4.489,0,0,1,2.2-1.465" transform="translate(-1264.608 -1952.302)"/>
            <path id="Trazado_1279191" data-name="Trazado 1279191" d="M1463.78,2068.458c.658-.539,1.485-.932,1.637-.781a.344.344,0,0,0,.114.075.338.338,0,0,0,.135.026.353.353,0,0,0,.248-.1.357.357,0,0,0,.075-.115.35.35,0,0,0,.026-.134.362.362,0,0,0-.027-.134.356.356,0,0,0-.077-.113c-.7-.7-2.149.388-2.573.736a.356.356,0,0,0-.088.106.365.365,0,0,0-.04.131.354.354,0,0,0,.013.136.347.347,0,0,0,.064.121.348.348,0,0,0,.237.127.359.359,0,0,0,.136-.013.349.349,0,0,0,.12-.064" transform="translate(-1351.103 -1908.587)" fill="#fff"/>
            <path id="Trazado_1279192" data-name="Trazado 1279192" d="M1438.262,2045.647c.7-.644,1.679-1.2,1.914-.971a.351.351,0,0,0,.486-.506c-.839-.807-2.539.656-2.87.958a.347.347,0,0,0-.106.179.354.354,0,0,0,.014.207.349.349,0,0,0,.129.162.346.346,0,0,0,.2.062.351.351,0,0,0,.235-.091" transform="translate(-1327.529 -1887.334)" fill="#fff"/>
            <path id="Trazado_1279193" data-name="Trazado 1279193" d="M1412.671,2023.292a.352.352,0,0,0,.212-.073c.877-.669,1.9-1.114,2.105-.914a.351.351,0,0,0,.491-.5c-.773-.758-2.505.465-3.019.858a.35.35,0,0,0-.12.392.349.349,0,0,0,.333.238Z" transform="translate(-1304.118 -1866.679)" fill="#fff"/>
            <path id="Trazado_1279194" data-name="Trazado 1279194" d="M628,1342.09c-.644,5.947-.314,9.747.4,12.105l8.772-9.525Z" transform="translate(-579.563 -1239.265)" fill="#fff"/>
            <path id="Trazado_1279195" data-name="Trazado 1279195" d="M632.8,1340.814a.351.351,0,0,0,.189-.676l-9.173-2.589a.339.339,0,0,0-.149-.006.351.351,0,0,0-.289.306c-.575,5.312-.437,9.433.411,12.247a.35.35,0,0,0,.335.249.378.378,0,0,0,.1-.014.354.354,0,0,0,.122-.064.352.352,0,0,0,.127-.238.345.345,0,0,0-.014-.137c-.8-2.651-.942-6.536-.428-11.556Z" transform="translate(-575.294 -1235.062)"/>
            <path id="Trazado_1279196" data-name="Trazado 1279196" d="M1165.049,1248.78l-9.539,5.909.733,1.8,13.9,6.87c1.715-2.422-5.1-14.577-5.1-14.577" transform="translate(-1066.98 -1153.104)" fill="#fff"/>
            <path id="Trazado_1279197" data-name="Trazado 1279197" d="M1165.714,1259.413a.351.351,0,0,0,.2.065.352.352,0,0,0,.287-.148c1.8-2.531-4.365-13.684-5.074-14.952a.354.354,0,0,0-.091-.106.355.355,0,0,0-.267-.069.353.353,0,0,0-.131.048l-9.539,5.909a.351.351,0,0,0-.14.432l.731,1.8a.351.351,0,1,0,.651-.264l-.621-1.523,8.974-5.559c2.672,4.824,6.077,12.28,4.935,13.883a.352.352,0,0,0-.059.261.348.348,0,0,0,.142.227" transform="translate(-1062.756 -1148.875)"/>
            <path id="Trazado_1279198" data-name="Trazado 1279198" d="M722.087,2014.99c-.574-1.767-1.115-2.893-4.324-2.749-2.07.094-2.007,3.04-3.06,2.858-1.351-.231-7.172,11.193-7.193,15.228,0,1.578,1.273,3.622,2.191,3.894s8.014.747,9.494.272,3.927-2.074,4.049-3.193c.195-1.754-1.228-6.161-.867-9.3.423-3.64.258-5.316-.291-7.012" transform="translate(-653.304 -1858.061)" fill="#b6b6b6"/>
            <path id="Trazado_1279199" data-name="Trazado 1279199" d="M718.257,2017.849l.351.038c.437-3.821.216-5.515-.314-7.15-.617-1.906-1.277-3.142-4.674-2.983-1.387.061-1.951,1.2-2.363,2.032-.258.526-.439.858-.621.83a.96.96,0,0,0-.763.295c-1.972,1.654-6.819,11.472-6.833,15.276,0,1.639,1.295,3.894,2.443,4.234a45.989,45.989,0,0,0,6.954.486,11.3,11.3,0,0,0,2.747-.218c1.376-.44,4.136-2.071,4.291-3.487a15.154,15.154,0,0,0-.372-3.488,22,22,0,0,1-.495-5.82Zm.518,9.268c-.1.861-2.295,2.412-3.807,2.9-1.412.454-8.479-.034-9.287-.274-.7-.207-1.946-2.078-1.941-3.557,0-2.027,1.53-5.9,2.953-8.847,1.918-3.973,3.417-5.939,3.84-6.031.7.106,1.032-.563,1.353-1.214.388-.786.789-1.6,1.764-1.642,2.97-.136,3.426.816,3.974,2.505.512,1.578.7,3.142.286,6.855a22.706,22.706,0,0,0,.5,6.018,15.065,15.065,0,0,1,.365,3.291" transform="translate(-649.176 -1853.917)"/>
            <path id="Trazado_1279200" data-name="Trazado 1279200" d="M709.982,2143.085c-1.354,2.925-2.456,6.03-2.472,7.788,0,1.578,1.273,3.622,2.191,3.895l9.494.272c1.481-.476,3.927-2.074,4.049-3.194.186-1.685-1-5.766-.889-8.882,0,0-.21-.67-.819.526s-.147,1.382-.5,2.254c-.488,1.186-3.609,4.156-4.785,4.474-2.014.543-4.228.189-4.818-.309s-2.691-3.17-1.679-6.115c.077-.212.154-.447.231-.71" transform="translate(-653.304 -1978.607)"/>
            <path id="Trazado_1279201" data-name="Trazado 1279201" d="M706.277,2138.975a.347.347,0,0,0-.02-.255.356.356,0,0,0-.189-.174.352.352,0,0,0-.444.177c-.741,1.621-2.5,5.631-2.5,7.933,0,1.639,1.295,3.893,2.443,4.234a.352.352,0,1,0,.2-.674c-.7-.207-1.945-2.079-1.941-3.557a16.008,16.008,0,0,1,1.288-4.938,7.1,7.1,0,0,0,2.055,4.234c.731.62,3.134.919,5.136.379,1.33-.351,4.514-3.456,5.016-4.679a2.415,2.415,0,0,0,.176-1.021,2.217,2.217,0,0,1,.309-1.207c.056-.109.1-.2.149-.267a32.6,32.6,0,0,0,.541,4.977,15.927,15.927,0,0,1,.351,3.456c-.1.861-2.3,2.413-3.807,2.9a.345.345,0,0,0-.194.149.351.351,0,0,0,.3.536.345.345,0,0,0,.107-.017c1.375-.441,4.135-2.072,4.291-3.488a16.534,16.534,0,0,0-.363-3.644,28.843,28.843,0,0,1-.526-5.263.338.338,0,0,0-.016-.117.595.595,0,0,0-.5-.431c-.433-.039-.747.457-.97.894a2.876,2.876,0,0,0-.386,1.525,1.728,1.728,0,0,1-.131.756c-.46,1.118-3.521,3.991-4.551,4.268a6.614,6.614,0,0,1-4.5-.236c-.463-.388-2.544-2.917-1.579-5.733.08-.207.162-.446.245-.712" transform="translate(-649.259 -1974.392)"/>
            <path id="Trazado_1279202" data-name="Trazado 1279202" d="M709.791,2220.349c.918.272,8.014.747,9.494.272s3.927-2.074,4.049-3.193a13.265,13.265,0,0,0-.267-2.966c-.018-.023-.026-.037-.026-.037s-3.89,3.736-5.749,4.374c-.721.247-2.617-.267-3.772-.766a3.264,3.264,0,0,0-1.705-.152,3.822,3.822,0,0,1-1.336.646c-1.2.215-2.4-4.5-2.4-4.5v-.226a10.236,10.236,0,0,0-.48,2.649c-.005,1.578,1.273,3.628,2.191,3.9" transform="translate(-653.387 -2044.189)" fill="#fff"/>
            <path id="Trazado_1279203" data-name="Trazado 1279203" d="M705.443,2216.629a46.032,46.032,0,0,0,6.954.486,11.324,11.324,0,0,0,2.747-.218c1.375-.44,4.135-2.072,4.291-3.488a13.538,13.538,0,0,0-.271-3.06.33.33,0,0,0-.063-.153l-.026-.037a.346.346,0,0,0-.111-.1.339.339,0,0,0-.142-.044.334.334,0,0,0-.147.018.345.345,0,0,0-.126.078c-.039.037-3.86,3.684-5.614,4.294a7.621,7.621,0,0,1-3.519-.755,3.573,3.573,0,0,0-1.942-.175,1.212,1.212,0,0,0-.377.216,2.02,2.02,0,0,1-.93.434c-.453.08-1.4-1.915-1.986-4.2v-.176a.351.351,0,0,0-.688-.1A10.507,10.507,0,0,0,703,2212.4c0,1.629,1.3,3.884,2.443,4.225m-1.615-5.383c.491,1.579,1.312,3.581,2.328,3.581a.776.776,0,0,0,.139-.012,2.7,2.7,0,0,0,1.216-.547,1.307,1.307,0,0,1,.154-.106,2.98,2.98,0,0,1,1.47.137c1.155.5,3.167,1.066,4.025.774,1.538-.527,4.3-2.983,5.407-4.011a10.532,10.532,0,0,1,.175,2.27c-.094.861-2.295,2.412-3.807,2.9-1.414.454-8.481-.033-9.287-.274-.7-.207-1.945-2.079-1.94-3.557a6.666,6.666,0,0,1,.121-1.151" transform="translate(-649.139 -2040.132)"/>
            <path id="Trazado_1279204" data-name="Trazado 1279204" d="M764.537,2055.9c.7-1.039,1.949-7.216,1.781-8.5s-2.09-1.579-3.111-1.676a4.283,4.283,0,0,0-2.373.575c-.776.332-3.244,8.246-3.244,9.111a2.885,2.885,0,0,0,2.242,2.256,4.757,4.757,0,0,0,4.7-1.77" transform="translate(-699.547 -1888.98)"/>
            <path id="Trazado_1279205" data-name="Trazado 1279205" d="M756.52,2053.886a4.93,4.93,0,0,0,4.116-1.99c.786-1.163,2.013-7.41,1.839-8.738-.1-.778-.779-1.755-3.429-1.979a4.135,4.135,0,0,0-2.262.479l-.279.123c-.175.077-.672.286-2.105,4.562a31.931,31.931,0,0,0-1.349,4.87,3.24,3.24,0,0,0,2.542,2.6,6.387,6.387,0,0,0,.928.072m-2.771-2.672c0-.946,2.406-8.267,3.047-8.8l.272-.118a3.5,3.5,0,0,1,1.918-.423c.988.086,2.663.378,2.793,1.372.163,1.249-1.109,7.345-1.723,8.246a4.4,4.4,0,0,1-4.365,1.619,2.54,2.54,0,0,1-1.941-1.9" transform="translate(-695.355 -1884.779)"/>
            <path id="Trazado_1279206" data-name="Trazado 1279206" d="M770.884,2163.676a6.27,6.27,0,0,1,3.533.412.351.351,0,0,0,.67-.207c-.125-.462-.877-.779-2.251-.937-.827-.1-2.253-.175-2.542.351a.351.351,0,0,0,.589.378Z" transform="translate(-711.24 -1997.165)" fill="#fff"/>
            <path id="Trazado_1279207" data-name="Trazado 1279207" d="M776.846,2134.621a4.4,4.4,0,0,1,2.067-.124,3.1,3.1,0,0,1,1.486.4.354.354,0,0,0,.129.173.344.344,0,0,0,.2.065.379.379,0,0,0,.09-.01.365.365,0,0,0,.123-.06.342.342,0,0,0,.09-.1.352.352,0,0,0,.044-.13.341.341,0,0,0-.009-.136c-.037-.144-.152-.583-1.578-.823-.7-.12-2.784-.307-3.225.351a.35.35,0,0,0,.091.479.351.351,0,0,0,.483-.076Z" transform="translate(-716.741 -1970.272)" fill="#fff"/>
            <path id="Trazado_1279208" data-name="Trazado 1279208" d="M871.848,2043.666a3.284,3.284,0,0,0,.756-1.416l-1.784,1.722a1.088,1.088,0,0,0,1.028-.306" transform="translate(-804.102 -1885.782)" fill="#b6b6b6"/>
            <path id="Trazado_1279209" data-name="Trazado 1279209" d="M866.794,2040.086a1.339,1.339,0,0,0,1.042-.453,3.682,3.682,0,0,0,.835-1.578.359.359,0,0,0,0-.137.34.34,0,0,0-.055-.125.352.352,0,0,0-.1-.1.348.348,0,0,0-.264-.047.344.344,0,0,0-.126.055.355.355,0,0,0-.095.1.36.36,0,0,0-.05.127,3.04,3.04,0,0,1-.676,1.251.729.729,0,0,1-.677.193.351.351,0,1,0-.176.68,1.426,1.426,0,0,0,.344.03" transform="translate(-799.823 -1881.528)"/>
            <path id="Trazado_1279210" data-name="Trazado 1279210" d="M903.229,2099.844c-.47-3.014-1.966-4.035-1.966-4.035l-.09.074a31.372,31.372,0,0,1-.234,3.3,18.951,18.951,0,0,0,.336,4.953c.2-1.639,2.333-1.849,1.954-4.288" transform="translate(-831.859 -1935.239)" fill="#fff"/>
            <path id="Trazado_1279211" data-name="Trazado 1279211" d="M897.181,2100.122a.35.35,0,0,0,.351-.307,2.4,2.4,0,0,1,.833-1.356,3.193,3.193,0,0,0,1.118-3.021c-.488-3.127-2.046-4.233-2.105-4.279a.35.35,0,0,0-.421.016l-.092.077a.353.353,0,0,0-.128.268,31.33,31.33,0,0,1-.23,3.258,19.289,19.289,0,0,0,.337,5.051.35.35,0,0,0,.337.293m.014-5.263c.117-1.023.189-1.909.219-2.682a6.8,6.8,0,0,1,1.374,3.37,2.484,2.484,0,0,1-.929,2.428,7.606,7.606,0,0,0-.511.569,15.621,15.621,0,0,1-.152-3.686Z" transform="translate(-827.764 -1930.887)"/>
            <path id="Trazado_1279212" data-name="Trazado 1279212" d="M785.591,2106.968a4.413,4.413,0,0,1,2.067-.121,3.115,3.115,0,0,1,1.486.395.35.35,0,0,0,.128.174.356.356,0,0,0,.205.067.345.345,0,0,0,.09-.013.351.351,0,0,0,.249-.428c-.037-.144-.152-.585-1.579-.824-.7-.118-2.784-.307-3.224.351a.345.345,0,0,0-.051.258.351.351,0,0,0,.624.145Z" transform="translate(-724.815 -1944.739)" fill="#fff"/>
            <path id="Trazado_1279213" data-name="Trazado 1279213" d="M738.86,2269.51a9.671,9.671,0,0,0,2.186.351c1.289.068,4.335.121,4.335.121s-2.768-.829-2.686-2.854l-2.014-.088s.042,2.568-1.82,2.47" transform="translate(-682.252 -2093.35)"/>
            <path id="Trazado_1279214" data-name="Trazado 1279214" d="M736.756,2266c1.283.067,4.317.121,4.347.121a.351.351,0,0,0,.1-.686c-.024,0-2.505-.778-2.436-2.505a.35.35,0,0,0-.335-.365l-2.016-.088a.364.364,0,0,0-.14.024.357.357,0,0,0-.12.076.349.349,0,0,0-.105.256,2.976,2.976,0,0,1-.6,1.821,1.086,1.086,0,0,1-.857.291.354.354,0,0,0-.239.073.35.35,0,0,0,.114.612,9.887,9.887,0,0,0,2.281.368m-.8-.842a3.215,3.215,0,0,0,.79-1.963l1.34.056a3.008,3.008,0,0,0,1.44,2.135c-.94-.021-2.072-.053-2.731-.088-.328-.018-.63-.049-.9-.086Z" transform="translate(-677.973 -2089.139)"/>
            <path id="Trazado_1279215" data-name="Trazado 1279215" d="M826.9,1232.965c4.737-.754,11.353-2.216,11.353-2.216a82.421,82.421,0,0,0-1.709-14.087,112.121,112.121,0,0,0-3.668-13.982l-21.34,9.233c-.423,5.088.088,21.052.088,21.052s9.131.979,15.276,0" transform="translate(-749.2 -1110.536)" fill="#9fa4d5"/>
            <path id="Trazado_1279216" data-name="Trazado 1279216" d="M807.346,1206.975a.356.356,0,0,0-.136.015.349.349,0,0,0-.12.067.341.341,0,0,0-.085.107.347.347,0,0,0-.038.132c-.421,5.053.081,20.933.087,21.092a.352.352,0,0,0,.312.337c.061,0,4.125.435,8.641.435a44.609,44.609,0,0,0,6.731-.437c4.693-.748,11.3-2.207,11.371-2.221a.352.352,0,0,0,.276-.351A83.636,83.636,0,0,0,832.669,1212a113.4,113.4,0,0,0-3.684-14.035.351.351,0,0,0-.067-.125.343.343,0,0,0-.109-.089.374.374,0,0,0-.136-.038.35.35,0,0,0-.14.019.359.359,0,0,0-.122.073.367.367,0,0,0-.083.115.351.351,0,0,0,0,.276,112.664,112.664,0,0,1,3.653,13.933,86.978,86.978,0,0,1,1.7,13.739c-1.309.286-6.926,1.5-11.052,2.152-5.405.862-13.249.176-14.883.028-.067-2.243-.464-16.081-.077-20.7a.351.351,0,0,0-.083-.249.346.346,0,0,0-.232-.121" transform="translate(-744.986 -1105.947)"/>
            <path id="Trazado_1279217" data-name="Trazado 1279217" d="M644.945,1043.033l23.2-10.1c1.4,3.307,3.216,6.869,3.216,6.869a32.236,32.236,0,0,0,6.608-3.224,18.577,18.577,0,0,0,3.672-2.953s-5.346-9.3-8.009-11.6c-4.074-3.526-4.849-4.26-8.18-5.254a24.021,24.021,0,0,0-6.793-.994l-10.7,2.058a21.3,21.3,0,0,0-7.719,3.841c-6.066,5.295-8.245,19.1-8.245,19.1s1.449,1.338,7.063,2.13a29.974,29.974,0,0,0,5.891.132" transform="translate(-583.571 -937.947)" fill="#9fa4d5"/>
            <path id="Trazado_1279218" data-name="Trazado 1279218" d="M673.646,1032.03a32.723,32.723,0,0,1-6.24,3.086c-.449-.9-1.907-3.841-3.068-6.573a.348.348,0,0,0-.192-.178.353.353,0,0,0-.262,0,.352.352,0,0,0-.191.448c1.393,3.281,3.206,6.856,3.226,6.891a.35.35,0,0,0,.421.175,32.263,32.263,0,0,0,6.686-3.261,19.269,19.269,0,0,0,3.746-3.018.352.352,0,0,0,.04-.407c-.219-.382-5.405-9.375-8.082-11.693l-.375-.326c-3.747-3.244-4.637-4.014-7.935-5a24.125,24.125,0,0,0-6.9-1.008.244.244,0,0,0-.057,0l-10.7,2.059h-.017a21.387,21.387,0,0,0-7.865,3.917c-6.092,5.328-8.266,18.752-8.354,19.321a.349.349,0,0,0,.015.169.356.356,0,0,0,.093.143c.061.057,1.593,1.42,7.251,2.219a25.96,25.96,0,0,0,3.543.225c1.36,0,2.351-.084,2.421-.091a.353.353,0,0,0,.306-.245.355.355,0,0,0,.015-.136.345.345,0,0,0-.038-.132.353.353,0,0,0-.086-.107.345.345,0,0,0-.121-.066.356.356,0,0,0-.136-.015,30.036,30.036,0,0,1-5.805-.13c-4.47-.63-6.249-1.614-6.73-1.93.3-1.741,2.589-13.884,8.087-18.686a21.083,21.083,0,0,1,7.563-3.763l10.665-2.05a23.928,23.928,0,0,1,6.656.982c3.158.94,3.932,1.616,7.675,4.857l.375.326c2.36,2.043,6.968,9.853,7.8,11.286a20.214,20.214,0,0,1-3.428,2.707" transform="translate(-579.439 -933.697)"/>
            <path id="Trazado_1279219" data-name="Trazado 1279219" d="M1143.112,1221.78l-10.042,6.24a31.937,31.937,0,0,0,5.856-2.79,18.017,18.017,0,0,0,4.186-3.451" transform="translate(-1046.26 -1128.173)" fill="#75cdff"/>
            <path id="Trazado_1279220" data-name="Trazado 1279220" d="M1128.7,1224.005a.337.337,0,0,0,.106-.018,31.708,31.708,0,0,0,5.928-2.821,18.273,18.273,0,0,0,4.275-3.526.348.348,0,0,0,.073-.12.361.361,0,0,0,.019-.139.347.347,0,0,0-.038-.136.339.339,0,0,0-.087-.11.348.348,0,0,0-.263-.08.358.358,0,0,0-.134.043.366.366,0,0,0-.106.093,17.9,17.9,0,0,1-4.1,3.373,31.893,31.893,0,0,1-5.79,2.758.351.351,0,0,0-.237.388.35.35,0,0,0,.344.3Z" transform="translate(-1041.896 -1123.807)"/>
            <path id="Trazado_1279221" data-name="Trazado 1279221" d="M637.257,1315.11a31.479,31.479,0,0,0,7.246,2.205Z" transform="translate(-588.433 -1214.352)" fill="#75cdff"/>
            <path id="Trazado_1279222" data-name="Trazado 1279222" d="M640.357,1313.454h.046a.354.354,0,0,0,.254-.088.351.351,0,0,0-.212-.614,31.429,31.429,0,0,1-7.147-2.177.355.355,0,0,0-.263,0,.351.351,0,0,0-.023.641,31.12,31.12,0,0,0,7.345,2.239" transform="translate(-584.333 -1210.142)"/>
            <rect id="Rectángulo_411850" data-name="Rectángulo 411850" width="24.349" height="4.916" transform="translate(16.852 17.078)" fill="#b6b6b6"/>
            <path id="Trazado_1279223" data-name="Trazado 1279223" d="M240.1,223.993a.351.351,0,0,0,.351-.351V218.73a.351.351,0,0,0-.351-.351H215.754a.351.351,0,0,0-.351.351v4.912a.351.351,0,0,0,.351.351Zm-24-4.916H239.75v4.21H216.1Z" transform="translate(-198.9 -201.648)"/>
            <rect id="Rectángulo_411851" data-name="Rectángulo 411851" width="27.764" height="4.916" transform="translate(16.852 28.503)" fill="#b6b6b6"/>
            <path id="Trazado_1279224" data-name="Trazado 1279224" d="M243.516,373.132a.351.351,0,0,0,.351-.351v-4.912a.351.351,0,0,0-.351-.351H215.754a.351.351,0,0,0-.351.351v4.912a.351.351,0,0,0,.351.351ZM216.1,368.214h27.061v4.21H216.1Z" transform="translate(-198.9 -339.361)"/>
            <rect id="Rectángulo_411852" data-name="Rectángulo 411852" width="19.354" height="4.916" transform="translate(16.852 39.929)" fill="#b6b6b6"/>
            <path id="Trazado_1279225" data-name="Trazado 1279225" d="M235.106,522.245a.351.351,0,0,0,.351-.351v-4.912a.351.351,0,0,0-.351-.351H215.754a.351.351,0,0,0-.351.351v4.912a.351.351,0,0,0,.351.351Zm-19-4.916h18.651v4.211H216.1Z" transform="translate(-198.9 -477.049)"/>
            <rect id="Rectángulo_411853" data-name="Rectángulo 411853" width="20.108" height="4.916" transform="translate(16.852 62.778)" fill="#b6b6b6"/>
            <path id="Trazado_1279226" data-name="Trazado 1279226" d="M235.86,820.494a.351.351,0,0,0,.351-.351v-4.912a.351.351,0,0,0-.351-.351H215.754a.351.351,0,0,0-.351.351v4.912a.351.351,0,0,0,.351.351ZM216.1,815.578h19.4v4.211H216.1Z" transform="translate(-198.9 -752.448)"/>
            <rect id="Rectángulo_411854" data-name="Rectángulo 411854" width="15.835" height="4.916" transform="translate(16.852 51.354)" fill="#b6b6b6"/>
            <path id="Trazado_1279227" data-name="Trazado 1279227" d="M231.587,671.354a.351.351,0,0,0,.351-.351v-4.913a.351.351,0,0,0-.351-.351H215.754a.351.351,0,0,0-.351.351V671a.351.351,0,0,0,.351.351ZM216.1,666.442h15.133v4.211H216.1Z" transform="translate(-198.9 -614.734)"/>
            <rect id="Rectángulo_411855" data-name="Rectángulo 411855" width="27.764" height="4.916" transform="translate(16.852 74.204)" fill="#b6b6b6"/>
            <path id="Trazado_1279228" data-name="Trazado 1279228" d="M243.516,969.6a.351.351,0,0,0,.351-.351v-4.912a.351.351,0,0,0-.351-.351H215.754a.351.351,0,0,0-.351.351v4.912a.351.351,0,0,0,.351.351ZM216.1,964.688h27.061V968.9H216.1Z" transform="translate(-198.9 -890.134)"/>
            <rect id="Rectángulo_411856" data-name="Rectángulo 411856" width="22.94" height="4.916" transform="translate(16.852 85.628)" fill="#b6b6b6"/>
            <path id="Trazado_1279229" data-name="Trazado 1279229" d="M238.692,1118.724a.351.351,0,0,0,.351-.351v-4.912a.351.351,0,0,0-.351-.351H215.754a.351.351,0,0,0-.351.351v4.912a.351.351,0,0,0,.351.351Zm-22.587-4.916h22.236v4.21H216.1Z" transform="translate(-198.9 -1027.829)"/>
            <rect id="Rectángulo_411857" data-name="Rectángulo 411857" width="20.108" height="4.916" transform="translate(16.852 97.055)" fill="#b6b6b6"/>
            <path id="Trazado_1279230" data-name="Trazado 1279230" d="M235.86,1267.853a.35.35,0,0,0,.351-.351v-4.912a.351.351,0,0,0-.351-.351H215.754a.351.351,0,0,0-.351.351v4.912a.351.351,0,0,0,.351.351Zm-19.756-4.916h19.4v4.211H216.1Z" transform="translate(-198.9 -1165.533)"/>
            <rect id="Rectángulo_411858" data-name="Rectángulo 411858" width="14.651" height="4.916" transform="translate(16.852 17.078)" fill="#ace3be"/>
            <path id="Trazado_1279231" data-name="Trazado 1279231" d="M230.4,223.993a.351.351,0,0,0,.351-.351V218.73a.351.351,0,0,0-.351-.351H215.754a.351.351,0,0,0-.351.351v4.912a.351.351,0,0,0,.351.351Zm-14.3-4.912h13.949v4.21H216.1Z" transform="translate(-198.9 -201.648)"/>
            <rect id="Rectángulo_411859" data-name="Rectángulo 411859" width="16.707" height="4.916" transform="translate(16.852 28.503)" fill="#ace3be"/>
            <path id="Trazado_1279232" data-name="Trazado 1279232" d="M232.459,373.132a.351.351,0,0,0,.351-.351v-4.912a.351.351,0,0,0-.351-.351h-16.7a.351.351,0,0,0-.351.351v4.912a.351.351,0,0,0,.351.351ZM216.1,368.22h16v4.21h-16Z" transform="translate(-198.9 -339.361)"/>
            <rect id="Rectángulo_411860" data-name="Rectángulo 411860" width="11.645" height="4.916" transform="translate(16.852 39.929)" fill="#ace3be"/>
            <path id="Trazado_1279233" data-name="Trazado 1279233" d="M227.4,522.245a.351.351,0,0,0,.351-.351v-4.912a.351.351,0,0,0-.351-.351H215.754a.351.351,0,0,0-.351.351v4.912a.351.351,0,0,0,.351.351ZM216.1,517.329h10.944v4.211H216.1Z" transform="translate(-198.9 -477.049)"/>
            <rect id="Rectángulo_411861" data-name="Rectángulo 411861" width="12.1" height="4.916" transform="translate(16.852 62.778)" fill="#ace3be"/>
            <path id="Trazado_1279234" data-name="Trazado 1279234" d="M227.859,820.494a.351.351,0,0,0,.351-.351v-4.912a.351.351,0,0,0-.351-.351H215.754a.351.351,0,0,0-.351.351v4.912a.351.351,0,0,0,.351.351ZM216.1,815.582h11.4v4.21H216.1Z" transform="translate(-198.9 -752.448)"/>
            <rect id="Rectángulo_411862" data-name="Rectángulo 411862" width="9.528" height="4.916" transform="translate(16.852 51.354)" fill="#ace3be"/>
            <path id="Trazado_1279235" data-name="Trazado 1279235" d="M225.28,671.354a.351.351,0,0,0,.351-.351v-4.913a.351.351,0,0,0-.351-.351h-9.526a.351.351,0,0,0-.351.351V671a.351.351,0,0,0,.351.351Zm-9.177-4.913h8.826v4.211H216.1Z" transform="translate(-198.9 -614.734)"/>
            <rect id="Rectángulo_411863" data-name="Rectángulo 411863" width="16.707" height="4.916" transform="translate(16.852 74.204)" fill="#ace3be"/>
            <path id="Trazado_1279236" data-name="Trazado 1279236" d="M232.459,969.6a.351.351,0,0,0,.351-.351v-4.912a.351.351,0,0,0-.351-.351h-16.7a.351.351,0,0,0-.351.351v4.912a.351.351,0,0,0,.351.351ZM216.1,964.692h16V968.9h-16Z" transform="translate(-198.9 -890.134)"/>
            <rect id="Rectángulo_411864" data-name="Rectángulo 411864" width="13.803" height="4.916" transform="translate(16.852 85.628)" fill="#ace3be"/>
            <path id="Trazado_1279237" data-name="Trazado 1279237" d="M229.555,1118.724a.351.351,0,0,0,.351-.351v-4.912a.351.351,0,0,0-.351-.351h-13.8a.351.351,0,0,0-.351.351v4.912a.351.351,0,0,0,.351.351Zm-13.452-4.913h13.1v4.211H216.1Z" transform="translate(-198.9 -1027.829)"/>
            <rect id="Rectángulo_411865" data-name="Rectángulo 411865" width="12.1" height="4.916" transform="translate(16.852 97.055)" fill="#ace3be"/>
            <path id="Trazado_1279238" data-name="Trazado 1279238" d="M227.859,1267.853a.35.35,0,0,0,.351-.351v-4.912a.351.351,0,0,0-.351-.351H215.754a.351.351,0,0,0-.351.351v4.912a.351.351,0,0,0,.351.351Zm-11.754-4.912h11.4v4.211H216.1Z" transform="translate(-198.9 -1165.533)"/>
            <path id="Trazado_1279239" data-name="Trazado 1279239" d="M1275.781,300.447a.351.351,0,0,0-.351.351V342a.35.35,0,0,0,.351.351h57.825a.351.351,0,1,0,0-.7h-57.474V300.8a.351.351,0,0,0-.351-.351" transform="translate(-1177.713 -277.428)"/>
            <rect id="Rectángulo_411866" data-name="Rectángulo 411866" width="4.916" height="35.182" transform="translate(121.619 29.394)" fill="#ace3be"/>
            <path id="Trazado_1279240" data-name="Trazado 1279240" d="M1588.124,414.965a.351.351,0,0,0,.351-.351V379.433a.351.351,0,0,0-.351-.351h-4.913a.351.351,0,0,0-.351.351v35.182a.351.351,0,0,0,.351.351Zm-4.562-35.182h4.211v34.48h-4.211Z" transform="translate(-1461.589 -350.039)"/>
            <rect id="Rectángulo_411867" data-name="Rectángulo 411867" width="4.916" height="18.589" transform="translate(150.978 45.985)" fill="#ace3be"/>
            <path id="Trazado_1279241" data-name="Trazado 1279241" d="M1971.323,614.859a.35.35,0,0,0,.351-.351v-18.6a.35.35,0,0,0-.351-.351h-4.913a.35.35,0,0,0-.351.351v18.6a.35.35,0,0,0,.351.351Zm-4.562-18.6h4.211v17.894h-4.211Z" transform="translate(-1815.43 -549.932)"/>
            <rect id="Rectángulo_411868" data-name="Rectángulo 411868" width="4.916" height="28.254" transform="translate(136.298 36.32)" fill="#ace3be"/>
            <path id="Trazado_1279242" data-name="Trazado 1279242" d="M1779.733,498.439a.35.35,0,0,0,.351-.351V469.833a.351.351,0,0,0-.351-.351h-4.913a.352.352,0,0,0-.351.351v28.255a.352.352,0,0,0,.351.351Zm-4.562-28.256h4.211v27.554h-4.211Z" transform="translate(-1638.518 -433.513)"/>
            <path id="Trazado_1279243" data-name="Trazado 1279243" d="M1257.8,288.515a.35.35,0,0,0,.339-.263l1.03-3.965.961,3.96a.357.357,0,0,0,.057.124.352.352,0,0,0,.1.093.358.358,0,0,0,.129.047.353.353,0,0,0,.137-.006.358.358,0,0,0,.124-.058.341.341,0,0,0,.093-.1.337.337,0,0,0,.048-.129.361.361,0,0,0-.005-.137l-1.292-5.317a.349.349,0,0,0-.677-.005l-1.381,5.317a.351.351,0,0,0,.253.426.3.3,0,0,0,.084.012" transform="translate(-1161.108 -260.852)"/>
            <rect id="Rectángulo_411869" data-name="Rectángulo 411869" width="9.507" height="9.507" transform="translate(108.136 82.423)" fill="#0ad85e"/>
            <path id="Trazado_1279244" data-name="Trazado 1279244" d="M1416.7,1081.394a.35.35,0,0,0,.351-.351v-9.512a.351.351,0,0,0-.351-.351h-9.507a.352.352,0,0,0-.351.351v9.509a.353.353,0,0,0,.351.351Zm-9.156-9.512h8.806v8.807h-8.806Z" transform="translate(-1299.054 -989.111)"/>
            <rect id="Rectángulo_411870" data-name="Rectángulo 411870" width="9.506" height="9.507" transform="translate(127.261 82.423)" fill="#aeee58"/>
            <path id="Trazado_1279245" data-name="Trazado 1279245" d="M1666.32,1081.394a.35.35,0,0,0,.35-.351v-9.512a.351.351,0,0,0-.35-.351h-9.509a.351.351,0,0,0-.351.351v9.509a.352.352,0,0,0,.351.351Zm-9.158-9.509h8.807v8.807h-8.807Z" transform="translate(-1529.55 -989.111)"/>
            <rect id="Rectángulo_411871" data-name="Rectángulo 411871" width="9.507" height="9.507" transform="translate(146.387 82.423)" fill="#75cdff"/>
            <path id="Trazado_1279246" data-name="Trazado 1279246" d="M1915.948,1081.394a.35.35,0,0,0,.351-.351v-9.512a.351.351,0,0,0-.351-.351h-9.507a.351.351,0,0,0-.351.351v9.509a.352.352,0,0,0,.351.351Zm-9.156-9.512h8.805v8.807h-8.805Z" transform="translate(-1760.054 -989.111)"/>
            <rect id="Rectángulo_411872" data-name="Rectángulo 411872" width="4.916" height="13.812" transform="translate(99.6 50.764)" fill="#aeee58"/>
            <path id="Trazado_1279247" data-name="Trazado 1279247" d="M1300.733,672.514a.35.35,0,0,0,.351-.351V658.351a.352.352,0,0,0-.351-.351h-4.912a.352.352,0,0,0-.351.351v13.812a.351.351,0,0,0,.351.351Zm-4.561-13.812h4.21v13.11h-4.21Z" transform="translate(-1196.217 -607.587)"/>
            <rect id="Rectángulo_411873" data-name="Rectángulo 411873" width="4.916" height="30.006" transform="translate(114.279 34.57)" fill="#aeee58"/>
            <path id="Trazado_1279248" data-name="Trazado 1279248" d="M1492.323,477.426a.35.35,0,0,0,.351-.351v-30a.35.35,0,0,0-.351-.351h-4.912a.351.351,0,0,0-.351.351v30a.351.351,0,0,0,.351.351Zm-4.562-30h4.211v29.3h-4.211Z" transform="translate(-1373.128 -412.499)"/>
            <rect id="Rectángulo_411874" data-name="Rectángulo 411874" width="4.916" height="21.731" transform="translate(143.638 42.845)" fill="#aeee58"/>
            <path id="Trazado_1279249" data-name="Trazado 1279249" d="M1875.523,577.072a.35.35,0,0,0,.351-.351V554.99a.35.35,0,0,0-.351-.351h-4.912a.35.35,0,0,0-.351.351v21.731a.35.35,0,0,0,.351.351Zm-4.561-21.731h4.21v21.03h-4.21Z" transform="translate(-1726.969 -512.145)"/>
            <rect id="Rectángulo_411875" data-name="Rectángulo 411875" width="4.916" height="37.264" transform="translate(128.959 27.312)" fill="#aeee58"/>
            <path id="Trazado_1279250" data-name="Trazado 1279250" d="M1683.863,389.864a.35.35,0,0,0,.351-.351V352.249a.351.351,0,0,0-.351-.351h-4.912a.351.351,0,0,0-.351.351v37.264a.35.35,0,0,0,.351.351ZM1679.3,352.6h4.21v36.563h-4.21Z" transform="translate(-1549.994 -324.937)"/>
            <rect id="Rectángulo_411876" data-name="Rectángulo 411876" width="4.916" height="19.694" transform="translate(106.938 44.881)" fill="#ace3be"/>
            <path id="Trazado_1279251" data-name="Trazado 1279251" d="M1396.534,601.557a.35.35,0,0,0,.351-.351v-19.7a.351.351,0,0,0-.351-.351h-4.913a.351.351,0,0,0-.351.351v19.7a.35.35,0,0,0,.351.351Zm-4.567-19.7h4.211v19h-4.211Z" transform="translate(-1284.677 -536.631)"/>
            <path id="Trazado_1279252" data-name="Trazado 1279252" d="M961.3,597.411c.176-.185,1.031.091,1.031-2.9,0-5.342-1.974-7.424-1.974-7.424s-1.945-2.354-5.8.951,6.574,9.553,6.746,9.37" transform="translate(-880.628 -541.36)"/>
            <path id="Trazado_1279253" data-name="Trazado 1279253" d="M957.039,593.475a.424.424,0,0,0,.128.019.37.37,0,0,0,.235-.082l.035-.014c.584-.218,1.124-.749,1.124-3.158,0-5.316-1.91-7.495-2.063-7.66a2.981,2.981,0,0,0-1.966-.916,6.1,6.1,0,0,0-4.327,1.835,2.535,2.535,0,0,0-.9,2.631c.756,3.426,7.159,7.187,7.737,7.344m-6.384-9.44a5.777,5.777,0,0,1,3.559-1.679h.23a2.281,2.281,0,0,1,1.516.679.045.045,0,0,0,.014.014c.018.021,1.877,2.075,1.877,7.193,0,2.249-.484,2.428-.667,2.5l-.058.022c-.907-.415-6.533-3.945-7.152-6.8a1.854,1.854,0,0,1,.68-1.93" transform="translate(-876.502 -537.089)"/>
            <path id="Trazado_1279254" data-name="Trazado 1279254" d="M1011.106,723.2c.375-2.341-.662-4.451-2.316-4.716s-3.3,1.417-3.67,3.758l2.3,4.712c1.658.265,3.3-1.417,3.684-3.754" transform="translate(-928.112 -663.416)" fill="#fff"/>
            <path id="Trazado_1279255" data-name="Trazado 1279255" d="M1005.139,721.683a2.321,2.321,0,0,1-2.009.8.355.355,0,1,0-.11.7,2.555,2.555,0,0,0,.405.031,3.093,3.093,0,0,0,2.216-1.035,5.642,5.642,0,0,0,1.453-3.045c.4-2.526-.765-4.821-2.607-5.116s-3.668,1.521-4.074,4.048a.344.344,0,0,0,0,.137.353.353,0,0,0,.157.219.371.371,0,0,0,.129.047.36.36,0,0,0,.137-.005.355.355,0,0,0,.125-.057.364.364,0,0,0,.093-.1.354.354,0,0,0,.047-.13c.351-2.144,1.813-3.7,3.271-3.464s2.367,2.167,2.024,4.312a4.939,4.939,0,0,1-1.261,2.656" transform="translate(-923.761 -659.287)"/>
            <path id="Trazado_1279256" data-name="Trazado 1279256" d="M713.265,614.845a14.649,14.649,0,1,0-16.74,14.5s.033,0,.652,3.4c.13.713-1.228,1.352-1.228,1.352a12.9,12.9,0,0,0,7.265.311c4.282-.951,3.614-2.369,3.614-2.369s-1.267.209-1.518-.826c-.175-.744-.748-2.983-.748-2.983a14.646,14.646,0,0,0,8.7-13.38" transform="translate(-631.565 -554.211)" fill="#fff"/>
            <path id="Trazado_1279257" data-name="Trazado 1279257" d="M709.387,610.634a15,15,0,1,0-17.379,14.81c.068.317.226,1.121.594,3.145.054.291-.566.753-1.033.974a.351.351,0,0,0-.149.133.346.346,0,0,0-.053.191.349.349,0,0,0,.214.316,11.485,11.485,0,0,0,4.2.7,15.1,15.1,0,0,0,3.281-.367c2.105-.468,3.387-1.126,3.795-1.954a1.076,1.076,0,0,0,.061-.906.352.352,0,0,0-.155-.162.356.356,0,0,0-.221-.035c-.039,0-.948.149-1.118-.562-.14-.578-.526-2.068-.677-2.694a15.02,15.02,0,0,0,8.642-13.591m-9.2,13.068a.35.35,0,0,0-.2.407c0,.021.568,2.237.747,2.97a1.493,1.493,0,0,0,1.516,1.114.753.753,0,0,1-.049.112c-.192.351-.877,1.005-3.3,1.544a13.439,13.439,0,0,1-6.349-.067,1.445,1.445,0,0,0,.735-1.317c-.638-3.509-.642-3.509-.8-3.621a.34.34,0,0,0-.149-.06,14.29,14.29,0,1,1,7.845-1.083" transform="translate(-627.336 -550)"/>
            <path id="Trazado_1279258" data-name="Trazado 1279258" d="M784.083,736.1a3.508,3.508,0,1,0-2.681-.149,3.509,3.509,0,0,0,2.681.149" transform="translate(-719.698 -673.403)" fill="#9fa4d5"/>
            <path id="Trazado_1279259" data-name="Trazado 1279259" d="M778.677,732.423a3.85,3.85,0,1,0-2.236-.706,3.86,3.86,0,0,0,2.236.706m-1.053-6.843a3.158,3.158,0,1,1-1.93,4.025,3.132,3.132,0,0,1,1.933-4.021Z" transform="translate(-715.448 -669.18)"/>
            <path id="Trazado_1279260" data-name="Trazado 1279260" d="M931.755,700.626a3.508,3.508,0,1,0-2.682-.149,3.511,3.511,0,0,0,2.682.149" transform="translate(-856.056 -640.65)" fill="#9fa4d5"/>
            <path id="Trazado_1279261" data-name="Trazado 1279261" d="M926.28,696.954a3.849,3.849,0,1,0-2.241-.706,3.856,3.856,0,0,0,2.241.706m-2.851-5.228a3.16,3.16,0,0,1,5.566-.24,3.157,3.157,0,1,1-5.563.24Z" transform="translate(-851.737 -636.428)"/>
            <path id="Trazado_1279262" data-name="Trazado 1279262" d="M965.779,732.786a.611.611,0,1,0-.469-.026.629.629,0,0,0,.232.06.608.608,0,0,0,.237-.034" transform="translate(-891.032 -675.541)"/>
            <path id="Trazado_1279263" data-name="Trazado 1279263" d="M963.049,730.805a.775.775,0,0,0,.341.079.8.8,0,0,0,.261-.046.778.778,0,0,0,.265-.156.8.8,0,0,0,.185-.247.771.771,0,0,0,.077-.3.781.781,0,0,0-.043-.3.789.789,0,1,0-1.086.972m-.054-.9a.441.441,0,0,1,.251-.223.4.4,0,0,1,.144-.025.437.437,0,0,1,.414.293.422.422,0,0,1,.025.169.429.429,0,0,1-.043.166.449.449,0,0,1-.25.224.441.441,0,0,1-.541-.605" transform="translate(-888.852 -673.429)"/>
            <path id="Trazado_1279264" data-name="Trazado 1279264" d="M818.009,768.276a.614.614,0,0,0,.063-1.133.614.614,0,0,0-.723.964.6.6,0,0,0,.192.144.614.614,0,0,0,.232.06.623.623,0,0,0,.237-.034" transform="translate(-754.583 -708.312)"/>
            <path id="Trazado_1279265" data-name="Trazado 1279265" d="M815.364,766.277a.806.806,0,0,0,.674.005.791.791,0,0,0,.45-.85.793.793,0,0,0-.129-.316.789.789,0,0,0-.575-.338.793.793,0,0,0-.79.444.8.8,0,0,0-.077.3.794.794,0,0,0,.044.3.782.782,0,0,0,.156.266.8.8,0,0,0,.247.185m-.054-.9a.459.459,0,0,1,.1-.138.431.431,0,0,1,.148-.086.464.464,0,0,1,.146-.025.446.446,0,0,1,.326.146.439.439,0,0,1,.087.147.438.438,0,0,1-.12.472.445.445,0,0,1-.148.087.439.439,0,0,1-.169.024.433.433,0,0,1-.166-.043.443.443,0,0,1-.247-.418.44.44,0,0,1,.042-.166" transform="translate(-752.481 -706.182)"/>
            <path id="Trazado_1279266" data-name="Trazado 1279266" d="M865.482,747.39a.331.331,0,0,0,.083-.011l4.49-1.079a.351.351,0,0,0,.133-.051.351.351,0,0,0-.3-.629L865.4,746.7a.35.35,0,0,0-.208.139.347.347,0,0,0-.062.243.35.35,0,0,0,.351.31" transform="translate(-798.847 -688.479)"/>
            <path id="Trazado_1279267" data-name="Trazado 1279267" d="M701.7,784.09a.358.358,0,0,0,.121-.021l5.732-2.105a.351.351,0,0,0-.244-.658l-5.73,2.105a.351.351,0,0,0,.121.679" transform="translate(-647.614 -721.428)"/>
            <path id="Trazado_1279268" data-name="Trazado 1279268" d="M844.667,852.538a.351.351,0,0,0,.042-.494.35.35,0,0,0-.495-.042c-1.579,1.322-3.282-.307-3.357-.379a.337.337,0,0,0-.115-.082.342.342,0,0,0-.138-.031.346.346,0,0,0-.255.1.341.341,0,0,0-.077.118.346.346,0,0,0-.024.139.368.368,0,0,0,.033.137.371.371,0,0,0,.084.113,3.822,3.822,0,0,0,2.511,1.094,2.729,2.729,0,0,0,1.791-.679" transform="translate(-775.872 -786.271)"/>
            <path id="Trazado_1279269" data-name="Trazado 1279269" d="M911.565,791.5a.35.35,0,0,0-.021.485.357.357,0,0,0,.234.118.352.352,0,0,0,.25-.077,1.374,1.374,0,0,0,.431-1.558,1.4,1.4,0,0,0-1.531-.729.354.354,0,0,0-.238.126.352.352,0,0,0,.3.576c.421-.04.721.072.823.309a.674.674,0,0,1-.25.749" transform="translate(-840.842 -729.224)"/>
            <path id="Trazado_1279270" data-name="Trazado 1279270" d="M910.167,433.595c.507-3.824.109-8.947-1.74-8.746-2.063.23-1.695,3.509-6.947,6.491,1.212.281,2.4.595,3.6.851a52.394,52.394,0,0,1,5.09,1.4" transform="translate(-832.413 -392.294)"/>
            <path id="Trazado_1279271" data-name="Trazado 1279271" d="M597.307,518.381a14.349,14.349,0,0,0,3.032,6.905c1.132,1.407,3.4.948,4.665-.677A15.249,15.249,0,0,0,607.085,519a13.384,13.384,0,0,0,0-5.483,21.726,21.726,0,0,0,11.084-.272,27.267,27.267,0,0,0,5.518-2.268,7.466,7.466,0,0,1-3.584-1.693l-3.035-6.928a22.839,22.839,0,0,0,3.533-1.6c-3.982-.919-8.245-1.482-14.151,1.56-7.7,3.968-7.152,10.242-7.152,10.242s-2.174,3.265-1.991,5.824" transform="translate(-551.534 -461.716)"/>
            <path id="Trazado_1279272" data-name="Trazado 1279272" d="M941.76,547.114a14.03,14.03,0,0,0,4.687.175c4.488-.526,10.312-8.182,6.221-7.649a11.28,11.28,0,0,1-5.307-.481,11.8,11.8,0,0,1-.756,3.07,10.9,10.9,0,0,1-4.845,4.884" transform="translate(-869.607 -497.852)"/>
            <path id="Trazado_1279273" data-name="Trazado 1279273" d="M858.423,518.162a7.466,7.466,0,0,0,3.584,1.693,10.857,10.857,0,0,0,4.845-4.886,11.748,11.748,0,0,0,.756-3.07,51.831,51.831,0,0,0-5.087-1.4c-1.2-.256-2.386-.57-3.6-.851a22.867,22.867,0,0,1-3.533,1.6Z" transform="translate(-789.854 -470.598)"/>
            <path id="Trazado_1279274" data-name="Trazado 1279274" d="M592.717,444.726c.2,2.807,2.121,5.872,3.109,7.1a2.61,2.61,0,0,0,2.082.968h.023a4.141,4.141,0,0,0,3.109-1.649.136.136,0,0,0,.012-.018,16.869,16.869,0,0,0,2.253-10.823,22.114,22.114,0,0,0,10.729-.409,28.259,28.259,0,0,0,5.474-2.226,14.558,14.558,0,0,0,4.668.146c3.084-.36,6.718-3.909,7.661-6.124a1.748,1.748,0,0,0,.034-1.791,1.549,1.549,0,0,0-1.561-.432,10.712,10.712,0,0,1-4.889-.388c.351-3.016.2-6.742-.851-8.182a1.36,1.36,0,0,0-1.3-.656c-1.053.118-1.568.9-2.217,1.893a12.767,12.767,0,0,1-4.746,4.561,18.779,18.779,0,0,0-14.256,1.619,13.346,13.346,0,0,0-6.628,6.793,9.372,9.372,0,0,0-.721,3.67c-.379.591-2.158,3.523-1.986,5.947M630.4,430.165c.463-.06.788,0,.91.158a1.317,1.317,0,0,1-.121,1.093c-.86,2.018-4.3,5.375-7.1,5.7a14.46,14.46,0,0,1-3.649-.009,10.627,10.627,0,0,0,4.166-4.561,11.266,11.266,0,0,0,.714-2.768,11.441,11.441,0,0,0,5.076.384m-8.762-7.645c.661-1.012,1.011-1.5,1.707-1.579.153-.018.388,0,.654.37.891,1.228,1.083,4.689.756,7.57l-.5-.154a43.451,43.451,0,0,0-4.23-1.144c-.721-.154-1.454-.333-2.163-.507l-.582-.14a13.261,13.261,0,0,0,4.354-4.416m-26.291,16.558a.351.351,0,0,0,.058-.224c-.019-.247-.416-6.1,6.965-9.905a18.212,18.212,0,0,1,8.547-2.249,21.387,21.387,0,0,1,4.441.516,24.628,24.628,0,0,1-2.651,1.137.351.351,0,0,0,.238.66,23.621,23.621,0,0,0,3.47-1.553c.432.1.858.205,1.284.309.714.175,1.453.351,2.184.511a42.463,42.463,0,0,1,4.165,1.126l.614.191a10.746,10.746,0,0,1-.693,2.668,10.416,10.416,0,0,1-4.561,4.656,7.188,7.188,0,0,1-3.3-1.563.345.345,0,0,0-.112-.078.352.352,0,0,0-.269,0,.359.359,0,0,0-.116.074.352.352,0,0,0-.077.113.355.355,0,0,0-.005.269.348.348,0,0,0,.074.115,7.1,7.1,0,0,0,2.888,1.567,29.562,29.562,0,0,1-4.67,1.818,21.567,21.567,0,0,1-10.888.27.351.351,0,0,0-.436.25.351.351,0,0,0,0,.185,13.475,13.475,0,0,1,0,5.326,15.226,15.226,0,0,1-2.021,5.467,3.426,3.426,0,0,1-2.554,1.371,1.921,1.921,0,0,1-1.552-.7,14.083,14.083,0,0,1-2.956-6.708c-.177-2.418,1.905-5.578,1.926-5.609" transform="translate(-547.295 -388.036)"/>
            <path id="Trazado_1279275" data-name="Trazado 1279275" d="M643.422,810.005l-.716-5.85c-1.786-1.971-4.363-2.542-5.754-1.28s-1.07,3.883.716,5.851,4.363,2.535,5.755,1.279" transform="translate(-587.353 -740.743)" fill="#fff"/>
            <path id="Trazado_1279276" data-name="Trazado 1279276" d="M638.336,800.274a.353.353,0,0,0,.5.027.354.354,0,0,0,.027-.5c-1.914-2.105-4.719-2.693-6.25-1.3a3.319,3.319,0,0,0-.948,2.963,6.668,6.668,0,0,0,4.847,5.342,4.4,4.4,0,0,0,.944.107,3.055,3.055,0,0,0,2.105-.763.353.353,0,1,0-.472-.526,2.671,2.671,0,0,1-2.418.489,5.964,5.964,0,0,1-4.3-4.736,2.64,2.64,0,0,1,.723-2.358c1.228-1.138,3.587-.575,5.245,1.256" transform="translate(-583.238 -736.626)"/>
            <path id="Trazado_1279277" data-name="Trazado 1279277" d="M656.338,827.25a.362.362,0,0,0,.093-.1.344.344,0,0,0,.046-.132.351.351,0,0,0-.009-.139.348.348,0,0,0-.063-.125c-1.454-1.85-3.063-1.875-4-1.335a1.477,1.477,0,0,0-.784,1.807.351.351,0,0,0,.65-.261.81.81,0,0,1,.484-.937c.653-.377,1.775-.351,2.886.907a2.34,2.34,0,0,0-.756,1.523,1.871,1.871,0,0,0,.811,1.5.35.35,0,0,0,.421.013.355.355,0,0,0,.128-.169.353.353,0,0,0-.109-.389,1.215,1.215,0,0,1-.549-.937,1.959,1.959,0,0,1,.751-1.221" transform="translate(-601.611 -761.895)"/>
            <path id="Trazado_1279278" data-name="Trazado 1279278" d="M798.667,697.92a3,3,0,0,0,2.471-1.265.351.351,0,0,0-.1-.47.35.35,0,0,0-.475.069,2.316,2.316,0,0,1-2.013.959.353.353,0,1,0-.07.7,1.674,1.674,0,0,0,.185.005" transform="translate(-737.013 -642.788)"/>
            <path id="Trazado_1279279" data-name="Trazado 1279279" d="M820.886,516.752a21.087,21.087,0,0,0,8.291-2.488c4.158-2.295,5.3-8.079,5.349-8.324a.351.351,0,0,0-.689-.13c-.012.056-1.132,5.705-5,7.838a20.735,20.735,0,0,1-7.986,2.4.351.351,0,0,0-.343.36.35.35,0,0,0,.109.246.352.352,0,0,0,.116.073.348.348,0,0,0,.135.023Z" transform="translate(-757.645 -466.8)" fill="#fff"/>
            <path id="Trazado_1279280" data-name="Trazado 1279280" d="M878.615,496.338a.354.354,0,0,0,.12-.021,7.4,7.4,0,0,0,4.21-3.651.351.351,0,1,0-.645-.279,6.815,6.815,0,0,1-3.8,3.27.351.351,0,0,0,.119.681" transform="translate(-810.976 -454.467)" fill="#fff"/>
            <path id="Trazado_1279281" data-name="Trazado 1279281" d="M702.121,518.58c.033-.039,3.468-3.826,11.377-3.444a.351.351,0,0,0,.034-.7c-8.267-.395-11.793,3.509-11.93,3.684a.351.351,0,0,0-.077.25.356.356,0,0,0,.118.234.351.351,0,0,0,.485-.02Z" transform="translate(-647.776 -474.995)" fill="#fff"/>
            <path id="Trazado_1279282" data-name="Trazado 1279282" d="M1040.3,564.886a.355.355,0,0,0,.155-.037,5.316,5.316,0,0,0,2.737-3.289.36.36,0,0,0,.009-.14.342.342,0,0,0-.046-.132.35.35,0,0,0-.361-.167.352.352,0,0,0-.285.278,4.656,4.656,0,0,1-2.365,2.821.351.351,0,0,0,.156.667" transform="translate(-960.273 -518.125)" fill="#fff"/>
            <path id="Trazado_1279283" data-name="Trazado 1279283" d="M692.435,713.2a.329.329,0,0,0,.116.019.351.351,0,0,0,.332-.235,7.589,7.589,0,0,0,0-5.061.351.351,0,0,0-.46-.189.35.35,0,0,0-.19.19.354.354,0,0,0,0,.27,7,7,0,0,1,0,4.561.351.351,0,0,0,.2.446" transform="translate(-639.173 -653.485)" fill="#fff"/>
            <path id="Trazado_1279284" data-name="Trazado 1279284" d="M564.659,549.453a.352.352,0,0,0,.351.293h.06a.351.351,0,0,0,.288-.4,2.679,2.679,0,0,1,1.854-3.158.352.352,0,0,0,.2-.523,6.842,6.842,0,0,1-.833-3.807,7.784,7.784,0,0,1,1.682-3.86.351.351,0,1,0-.53-.46,8.383,8.383,0,0,0-1.851,4.256,7.545,7.545,0,0,0,.73,3.87,3.341,3.341,0,0,0-1.954,3.791" transform="translate(-521.339 -496.24)"/>
            <path id="Trazado_1279285" data-name="Trazado 1279285" d="M961.487,1001.536a1.706,1.706,0,0,0-.087-.286c.077.3.12.456.087.286" transform="translate(-887.742 -924.539)"/>
            <path id="Trazado_1279286" data-name="Trazado 1279286" d="M901.64,978.183c-.513-.023-.732.011-.323.011.106,0,.214,0,.323-.011" transform="translate(-832.066 -903.232)"/>
            <path id="Trazado_1279287" data-name="Trazado 1279287" d="M912.184,968.839c-.205-.8-.662-2.689-.662-2.689a12.143,12.143,0,0,1-3.422.929c1.093.046,3.524.346,4.084,1.76" transform="translate(-838.526 -892.128)"/>
            <path id="Trazado_1279288" data-name="Trazado 1279288" d="M897.446,963.208c1.031.051,3.209.351,3.712,1.5.11.428.175.622.4.622a.573.573,0,0,0,.114-.014c.079-.018.332-.1.257-.48a1.9,1.9,0,0,0-.1-.36c-.154-.611-.449-1.817-.646-2.631a.352.352,0,0,0-.186-.231.365.365,0,0,0-.148-.036.353.353,0,0,0-.149.03,12.056,12.056,0,0,1-3.365.9c-.291-.008-.474,0-.483,0a.364.364,0,0,0-.232.126.368.368,0,0,0-.087.248c.021.337.351.337.563.337.116,0,.234-.005.355-.015m3.147-.8c.06.25.144.595.23.948a5.1,5.1,0,0,0-1.363-.554c.46-.139.857-.286,1.133-.395" transform="translate(-827.841 -887.908)"/>
            <path id="Trazado_1279289" data-name="Trazado 1279289" d="M935.091,659.185a.347.347,0,0,0,.2-.064,2.308,2.308,0,0,1,2.217-.208.351.351,0,0,0,.47-.162.352.352,0,0,0-.162-.47,3.019,3.019,0,0,0-2.926.265.351.351,0,0,0,.2.639" transform="translate(-863.124 -607.607)"/>
            <path id="Trazado_1279290" data-name="Trazado 1279290" d="M1011.526,715.326a.22.22,0,0,0,.054,0l2.821-.431a.361.361,0,0,0,.13-.047.354.354,0,0,0,.1-.093.361.361,0,0,0,.059-.126.365.365,0,0,0,.006-.139.355.355,0,0,0-.141-.232.356.356,0,0,0-.126-.059.362.362,0,0,0-.138-.006l-2.821.434a.35.35,0,0,0-.133.037.351.351,0,0,0-.192.34.353.353,0,0,0,.378.325Z" transform="translate(-933.678 -659.471)"/>
            <path id="Trazado_1279291" data-name="Trazado 1279291" d="M930.126,1133.238c2.242-1.107,3.055-4.128,3.055-4.128a19.563,19.563,0,0,0-4.035.85c-1.472.582-.8,4.156.981,3.278" transform="translate(-857.215 -1042.603)" fill="#fff"/>
            <path id="Trazado_1279292" data-name="Trazado 1279292" d="M925.351,1129.458a1.6,1.6,0,0,0,.7-.175c2.358-1.165,3.2-4.223,3.239-4.353a.356.356,0,0,0-.071-.318.351.351,0,0,0-.3-.122,19.428,19.428,0,0,0-4.136.877,1.741,1.741,0,0,0-1.007,1.507,2.629,2.629,0,0,0,.837,2.345,1.292,1.292,0,0,0,.741.239m-.888-2.5a1.136,1.136,0,0,1,.568-.939,16.81,16.81,0,0,1,3.4-.759,6.289,6.289,0,0,1-2.7,3.4.66.66,0,0,1-.726-.012,1.936,1.936,0,0,1-.546-1.688" transform="translate(-852.98 -1038.335)"/>
            <path id="Trazado_1279293" data-name="Trazado 1279293" d="M938.207,1052.031a12.133,12.133,0,0,1-2.377,3l4.245-1.874c.249-2.35-1.679-1.623-1.869-1.124" transform="translate(-864.131 -970.957)" fill="#fff"/>
            <path id="Trazado_1279294" data-name="Trazado 1279294" d="M935.795,1049.289a.357.357,0,0,0,.136-.012.361.361,0,0,0,.209-.169.375.375,0,0,0,.041-.131c.158-1.5-.509-1.889-.921-1.989a1.54,1.54,0,0,0-1.625.7,12.132,12.132,0,0,1-2.281,2.868.359.359,0,0,0-.085.112.349.349,0,0,0-.034.136.347.347,0,0,0,.1.258.34.34,0,0,0,.114.08.349.349,0,0,0,.275,0,.343.343,0,0,0,.116-.078,12.123,12.123,0,0,0,2.456-3.124.9.9,0,0,1,.382-.241.917.917,0,0,1,.45-.028c.412.125.4.821.36,1.228a.35.35,0,0,0,.31.386" transform="translate(-859.888 -966.742)"/>
            <path id="Trazado_1279295" data-name="Trazado 1279295" d="M843.136,930.4c-.08-.175-.175-.351-.264-.509-.351-.526-.8-1.354-1.565-1.179a.812.812,0,0,0-.289.142.821.821,0,0,0-.213.241.811.811,0,0,0-.1.3.824.824,0,0,0,.02.321,4.426,4.426,0,0,0,.933,1.63c.106.149.506,0,.571.119a.618.618,0,0,1,.175.468.391.391,0,0,1-.023.209,1.022,1.022,0,0,0-.067.237.263.263,0,0,0,.068.149l.362.544c3.131,4.713,6.3,9.4,9.626,13.981a.364.364,0,0,0,.1.1.356.356,0,0,0,.126.054.362.362,0,0,0,.137,0,.344.344,0,0,0,.127-.051.332.332,0,0,0,.1-.095.345.345,0,0,0,.057-.262.369.369,0,0,0-.05-.128c-2.567-4.561-5.263-9.019-8.015-13.463-.227-.365-.814-1.314-1.031-1.665-.033-.045-.047-.1-.109-.124-.112-.046-.351-.018-.442-.1-.149-.086-.312-.176-.351-.35-.068-.084.136-.351.149-.483a.13.13,0,0,0-.023-.09" transform="translate(-776.283 -857.536)"/>
            <path id="Trazado_1279296" data-name="Trazado 1279296" d="M669.049,1066.948c-.661-.609-6.82.654-7.863,1.363a30.291,30.291,0,0,0-4.158,3.7c-1.053,1.579-2.358,4.156-3.124,5.182-1.209,1.616-9.4,10.607-11.521,13.982a15.83,15.83,0,0,0-1.9,4.507l-3.224,4.3a6,6,0,0,0,2.605,3.468c1.591.9,5.81-.014,8.724-3.86,3.77-4.982,7.947-18.873,9.014-20.5.608-.922,1.522-.8,2.788-2.307s1.39-3.629,2.065-4.051c1.579-.994,6.6.681,6.874-.51s-4.309-2.319-6.725-1.9c-.209.038,5.177-1.951,5.177-1.951s1.93-.818,1.27-1.431" transform="translate(-588.433 -985.055)" fill="#fff"/>
            <path id="Trazado_1279297" data-name="Trazado 1279297" d="M662.176,1068.06c-1.579-.154-3.2-.314-4.084.241a3.065,3.065,0,0,0-.891,1.619,7.872,7.872,0,0,1-1.256,2.51,5.56,5.56,0,0,1-1.653,1.359,3.094,3.094,0,0,0-1.158.982,39.638,39.638,0,0,0-1.981,4.922c-1.8,4.88-4.525,12.258-7.017,15.555-2.9,3.829-6.984,4.5-8.272,3.772a5.58,5.58,0,0,1-2.446-3.268.351.351,0,0,0-.668.212,6.3,6.3,0,0,0,2.768,3.668,3.417,3.417,0,0,0,1.676.372,10.135,10.135,0,0,0,7.5-4.333c2.558-3.38,5.3-10.813,7.119-15.735a41.707,41.707,0,0,1,1.911-4.778,2.522,2.522,0,0,1,.926-.763,6.313,6.313,0,0,0,1.835-1.511,8.418,8.418,0,0,0,1.379-2.731,3.225,3.225,0,0,1,.6-1.258c.679-.427,2.253-.272,3.642-.135,1.775.175,3.179.312,3.388-.593a.925.925,0,0,0-.288-.877c-.7-.748-2.821-1.363-4.751-1.512,1.027-.384,2.281-.851,3.286-1.22.351-.146,1.493-.675,1.61-1.345a.7.7,0,0,0-.033-.359.707.707,0,0,0-.207-.3c-.89-.821-7.275.635-8.3,1.33a30.433,30.433,0,0,0-4.253,3.8c-.512.765-1.073,1.755-1.615,2.7-.572,1-1.112,1.951-1.5,2.466s-1.528,1.833-2.972,3.5a131.232,131.232,0,0,0-8.57,10.514,16.07,16.07,0,0,0-1.947,4.619.351.351,0,0,0,.047.265.358.358,0,0,0,.221.154.353.353,0,0,0,.264-.047.348.348,0,0,0,.154-.221,15.673,15.673,0,0,1,1.856-4.4c1.4-2.244,5.509-6.97,8.5-10.421,1.453-1.673,2.6-3,3-3.536a29.192,29.192,0,0,0,1.546-2.54c.536-.941,1.091-1.912,1.589-2.659a30.664,30.664,0,0,1,4.065-3.6c1.019-.693,6.81-1.784,7.426-1.4.015.012.021.023.025.023-.033.176-.618.572-1.177.808l-2.6.962-1.784.67-.589.228c-.253.1-.514.2-.43.51a.351.351,0,0,0,.4.254c2.043-.351,5.438.435,6.21,1.242.059.065.129.158.113.23-.071.313-1.8.143-2.636.061" transform="translate(-584.26 -980.923)"/>
            <path id="Trazado_1279298" data-name="Trazado 1279298" d="M975.964,1087.551c-.51-2-7.493-.539-7.493-.539l-.4,1.511a28.943,28.943,0,0,1,4.385-.175c1.364.107,3.686-.105,3.509-.8" transform="translate(-893.901 -1003.257)" fill="#fff"/>
            <path id="Trazado_1279299" data-name="Trazado 1279299" d="M967.993,1083.653a27.631,27.631,0,0,0-4.46.176.352.352,0,0,0,.042.7h.042a29.053,29.053,0,0,1,4.324-.176c.975.072,3.172,0,3.729-.66a.636.636,0,0,0,.139-.581c-.565-2.209-6.684-1.053-7.905-.795a.339.339,0,0,0-.126.054.347.347,0,0,0-.1.1.358.358,0,0,0-.05.263.38.38,0,0,0,.054.127.356.356,0,0,0,.1.1.349.349,0,0,0,.264.05c2.74-.572,6.719-.866,7.074.253a6.261,6.261,0,0,1-3.13.393" transform="translate(-889.406 -998.906)"/>
            <path id="Trazado_1279300" data-name="Trazado 1279300" d="M898.468,1267.922l-1.2,16.013,10.415-.949,1.909-16.167Z" transform="translate(-828.525 -1169.762)" fill="#aeee58"/>
            <path id="Trazado_1279301" data-name="Trazado 1279301" d="M893.042,1280.064l10.417-.949a.352.352,0,0,0,.316-.309l1.9-16.168a.352.352,0,0,0-.1-.286.351.351,0,0,0-.284-.1l-11.126,1.1a.351.351,0,0,0-.316.322l-1.2,16.013a.355.355,0,0,0,.094.266.353.353,0,0,0,.257.112Zm1.495-16.044,10.4-1.028-1.824,15.45-9.721.877Z" transform="translate(-824.259 -1165.539)"/>
            <path id="Trazado_1279302" data-name="Trazado 1279302" d="M971.667,1355.27a35.285,35.285,0,0,0-3.877-.31,23.24,23.24,0,0,0,3.877.31" transform="translate(-893.642 -1251.149)" fill="#fff"/>
            <path id="Trazado_1279303" data-name="Trazado 1279303" d="M934.832,1305.834c.09,1.451,6.474,2.133,6.474,2.133s-5.251-.175-5.047.877,5.533.937,5.533.937,3.94-.319,6.011-.319c4.716,0,15.819,6.239,18.743,2.118l-3.712-6.115a10.167,10.167,0,0,0-4.165-.942c-2.531.054-9.584.8-10.254.409a9.743,9.743,0,0,1-2.105-2.406,6.276,6.276,0,0,0-2.34-1.515l-.33,2.788s-7.652-.979-7.856.35c-.075.492.64.8,1.579.986a35.544,35.544,0,0,1,3.877.311,23.185,23.185,0,0,1-3.877-.311c-1.37-.005-2.563.142-2.53.7" transform="translate(-863.209 -1201.333)" fill="#fff"/>
            <path id="Trazado_1279304" data-name="Trazado 1279304" d="M930.235,1301.594c.057.891,1.635,1.5,3.3,1.888a3.033,3.033,0,0,0-1.718.61.666.666,0,0,0-.142.262.655.655,0,0,0-.012.3c.226,1.177,3.786,1.272,5.885,1.228h.018c.038,0,3.949-.318,5.982-.318a26.991,26.991,0,0,1,6.613,1.579c2.956.932,6.152,1.93,8.663,1.93a4.3,4.3,0,0,0,3.754-1.548.349.349,0,0,0,.063-.126.366.366,0,0,0,.008-.141.357.357,0,0,0-.048-.133.352.352,0,0,0-.1-.1.36.36,0,0,0-.129-.057.352.352,0,0,0-.141,0,.345.345,0,0,0-.13.054.353.353,0,0,0-.1.1c-1.754,2.456-7,.805-11.635-.656a27.258,27.258,0,0,0-6.823-1.611c-2.009,0-5.8.3-6.03.319-2.526.058-4.959-.244-5.163-.637.272-.333,2.43-.558,4.684-.48a.352.352,0,1,0,.049-.7c-2.94-.315-6.117-1.117-6.161-1.8,0,0,.186-.34,2.131-.321a21.519,21.519,0,0,0,3.923.31.352.352,0,1,0,.047-.7,32.222,32.222,0,0,0-3.9-.316,2.413,2.413,0,0,1-1.216-.479c-.047-.054-.041-.083-.04-.1s.233-.526,3.64-.384c1.9.075,3.805.317,3.825.319a.335.335,0,0,0,.138-.008.34.34,0,0,0,.123-.063.352.352,0,0,0,.132-.235l.275-2.319a5.09,5.09,0,0,1,1.765,1.215c.083.111.175.227.25.351a8.084,8.084,0,0,0,1.96,2.157c.476.275,2.467.166,6.579-.129,1.531-.11,2.983-.214,3.86-.233a9.742,9.742,0,0,1,4,.907.351.351,0,1,0,.312-.63,10.489,10.489,0,0,0-4.328-.979c-.9.019-2.354.125-3.894.235a41.947,41.947,0,0,1-6.177.221,7.883,7.883,0,0,1-1.744-1.961l-.254-.351a6.7,6.7,0,0,0-2.5-1.634.365.365,0,0,0-.425.136.347.347,0,0,0-.057.151l-.277,2.435c-.647-.075-2.089-.226-3.531-.283-3.684-.147-4.279.412-4.365.979a.806.806,0,0,0,.2.667.89.89,0,0,0,.121.12,2.062,2.062,0,0,0-1.039.389.7.7,0,0,0-.241.585" transform="translate(-858.963 -1197.07)"/>
            <path id="Trazado_1279305" data-name="Trazado 1279305" d="M774.164,1584.987c6.426,0,21.638-5.658,23.947-7.991s-14.929-7.946-14.929-7.946-2.807.877-11.9,2.218c-5.53.815-14.737,0-14.737,0s-9.415,9.238-1.93,13.72Z" transform="translate(-694.134 -1448.837)"/>
            <path id="Trazado_1279306" data-name="Trazado 1279306" d="M751.435,1582.032a.256.256,0,0,0,.135.039H771.1c6.591,0,21.754-5.667,24.133-8.07a.91.91,0,0,0,.261-.892c-.642-2.647-13.8-7-15.291-7.489a.246.246,0,0,0-.159,0,98.628,98.628,0,0,1-11.855,2.209c-5.438.8-14.582,0-14.673,0a.261.261,0,0,0-.207.074c-.221.218-5.4,5.36-4.86,9.93a5.6,5.6,0,0,0,2.983,4.2m2.16-13.671c1.119.093,9.523.747,14.672-.011a102.71,102.71,0,0,0,11.854-2.2c5.771,1.884,14.437,5.307,14.868,7.089a.389.389,0,0,1-.123.4c-2.272,2.292-17.428,7.912-23.759,7.912H751.633a5.12,5.12,0,0,1-2.668-3.777c-.472-4.009,3.956-8.721,4.626-9.407Z" transform="translate(-691.072 -1445.658)"/>
            <path id="Trazado_1279307" data-name="Trazado 1279307" d="M1108.5,1466.446a52.211,52.211,0,0,0,6.61.6c5.253.025,6.779-2.161,6.779-2.161s3.082-23.021,3.082-32.6c0-6.005-4.188-11.2-8.887-12.026-7.125-1.247-17.384,8.772-19.558,15.149l12.766-1.2s-.539,10.207-.721,14.371-.072,17.863-.072,17.863" transform="translate(-1012.519 -1311.348)"/>
            <path id="Trazado_1279308" data-name="Trazado 1279308" d="M1106.352,1431.07a.264.264,0,0,0-.526-.027c0,.1-.542,10.254-.722,14.372s-.072,17.74-.07,17.877a.261.261,0,0,0,.221.257,54.212,54.212,0,0,0,6.65.6h.088c5.263,0,6.842-2.181,6.907-2.281a.265.265,0,0,0,.046-.116c.029-.23,3.084-23.149,3.084-32.631,0-5.9-4.084-11.4-9.1-12.281-3.262-.571-7.581,1.168-11.851,4.772-3.758,3.17-6.9,7.314-8,10.552a.274.274,0,0,0-.015.1.267.267,0,0,0,.026.1.249.249,0,0,0,.061.083.262.262,0,0,0,.089.052.256.256,0,0,0,.1.015.271.271,0,0,0,.182-.087.27.27,0,0,0,.053-.089c1.073-3.158,4.152-7.207,7.843-10.321,4.15-3.509,8.314-5.2,11.421-4.656,4.779.837,8.668,6.116,8.668,11.768,0,9.182-2.881,31.052-3.07,32.489-.258.3-1.93,2.03-6.526,2.005a51.485,51.485,0,0,1-6.349-.559c-.014-1.8-.1-13.807.072-17.626.184-4.12.71-14.268.723-14.371" transform="translate(-1009.311 -1308.192)"/>
            <path id="Trazado_1279309" data-name="Trazado 1279309" d="M613.767,1514.339a8.809,8.809,0,0,0-7.605,8.759c0,11.455,10.775,34.933,10.775,34.933a16.951,16.951,0,0,0,5.205.821,19.011,19.011,0,0,0,6.842-1.381s-2.351-20.984-2.977-25.009c-.816-5.23-2.105-7.4-2.105-7.4l6.038-1.676s-8.773-9.673-16.173-9.047" transform="translate(-559.721 -1398.291)"/>
            <path id="Trazado_1279310" data-name="Trazado 1279310" d="M610.547,1511.457c7.193-.614,15.875,8.874,15.964,8.97a.263.263,0,0,0,.441-.167.267.267,0,0,0-.051-.184c-.362-.4-8.947-9.768-16.4-9.14a9.068,9.068,0,0,0-7.847,9.023c0,11.38,10.691,34.808,10.8,35.043a.264.264,0,0,0,.146.137,17.158,17.158,0,0,0,5.294.837h.253a19.27,19.27,0,0,0,6.7-1.4.264.264,0,0,0,.158-.272c-.022-.211-2.351-21.035-2.97-25.012-.814-5.219-2.086-7.4-2.139-7.5a.261.261,0,0,0-.358-.088.259.259,0,0,0-.12.159.262.262,0,0,0,.026.2c.012.021,1.275,2.207,2.072,7.308.584,3.758,2.7,22.631,2.944,24.791a18.648,18.648,0,0,1-6.551,1.288,17.549,17.549,0,0,1-5.018-.768c-.768-1.693-10.7-23.837-10.7-34.722a8.511,8.511,0,0,1,7.359-8.5" transform="translate(-556.485 -1395.147)"/>
            <path id="Trazado_1279311" data-name="Trazado 1279311" d="M844.826,1656.877h.057a.351.351,0,0,0,.129-.049.355.355,0,0,0,.1-.094.349.349,0,0,0,.056-.125.36.36,0,0,0,0-.137,78.178,78.178,0,0,0-2.386-8.543.351.351,0,0,0-.64-.038.356.356,0,0,0-.025.261,78.566,78.566,0,0,1,2.357,8.435.351.351,0,0,0,.121.208.356.356,0,0,0,.227.082" transform="translate(-777.589 -1521.463)" fill="#fff"/>
            <path id="Trazado_1279312" data-name="Trazado 1279312" d="M1242.953,1599.091a.352.352,0,0,0-.39.307,53.34,53.34,0,0,0-.43,7.454.352.352,0,0,0,.351.314h.037a.347.347,0,0,0,.131-.041.35.35,0,0,0,.182-.345,54.279,54.279,0,0,1,.428-7.3.366.366,0,0,0-.011-.138.346.346,0,0,0-.167-.211.347.347,0,0,0-.131-.042" transform="translate(-1146.927 -1476.574)" fill="#fff"/>
            <path id="Trazado_1279313" data-name="Trazado 1279313" d="M1073.433,1599.908a.349.349,0,0,0,.336-.255,14.866,14.866,0,0,1,1.053-2.3.351.351,0,0,0-.608-.351,14.356,14.356,0,0,0-1.12,2.456.352.352,0,0,0,.24.428.307.307,0,0,0,.1.019" transform="translate(-990.868 -1474.487)" fill="#fff"/>
            <path id="Trazado_1279314" data-name="Trazado 1279314" d="M913.784,1609.805a.355.355,0,0,0,.237-.093.35.35,0,0,0,.021-.494l-1.435-1.562a.351.351,0,0,0-.517.474l1.435,1.561a.356.356,0,0,0,.117.084.351.351,0,0,0,.142.03" transform="translate(-842.129 -1484.385)" fill="#fff"/>
          </g>
        </g>
      </g>
    </g>
    <rect id="Rectángulo_411906" data-name="Rectángulo 411906" width="283" height="198" transform="translate(446.051 3456)" fill="none"/>
  </g>
</svg>
