<svg xmlns="http://www.w3.org/2000/svg" xmlns:xlink="http://www.w3.org/1999/xlink" width="283" height="198" viewBox="0 0 283 198">
  <defs>
    <clipPath id="clip-path">
      <rect id="Rectángulo_411905" data-name="Rectángulo 411905" width="159.867" height="176.99" fill="none"/>
    </clipPath>
    <clipPath id="clip-path-3">
      <rect id="Rectángulo_411884" data-name="Rectángulo 411884" width="149.803" height="117.874" fill="none"/>
    </clipPath>
  </defs>
  <g id="Grupo_1191311" data-name="Grupo 1191311" transform="translate(-875.051 -3456)">
    <g id="Grupo_1191309" data-name="Grupo 1191309" transform="translate(930.067 3470)">
      <g id="Grupo_1191308" data-name="Grupo 1191308" clip-path="url(#clip-path)">
        <g id="Grupo_1191307" data-name="Grupo 1191307">
          <g id="Grupo_1191306" data-name="Grupo 1191306" clip-path="url(#clip-path)">
            <path id="Trazado_1279315" data-name="Trazado 1279315" d="M1258.418,2307.936c-.072-1.931-1.1-2.781-2.174-2.715-.936.054-3.418,1.236-4.481,1.222-1.483-.018-2.426-.878-3.438-.8-.647.05-13.537,9.991-13.614,10.756a1.822,1.822,0,0,0,.618,1.642c.464.5,3.934,1.49,7.141,1.108s8.137-3.209,10.662-4.317a35.426,35.426,0,0,1,6.074-1.813,8.622,8.622,0,0,0,.063-2.256c-.192-1.316-.821-1.995-.852-2.824" transform="translate(-1150.523 -2148.063)" fill="#b6b6b6"/>
            <path id="Trazado_1279316" data-name="Trazado 1279316" d="M1254.761,2304.784a3.1,3.1,0,0,1-.317-1.071,3.333,3.333,0,0,0-.956-2.463,2.094,2.094,0,0,0-1.546-.547,9.716,9.716,0,0,0-2.047.573,9.811,9.811,0,0,1-2.4.647h-.015a5.169,5.169,0,0,1-1.854-.442,3.675,3.675,0,0,0-1.607-.358c-.594.045-6.093,4.317-7.188,5.174-6.644,5.189-6.694,5.692-6.711,5.859a2.131,2.131,0,0,0,.693,1.882c.487.529,3.121,1.293,5.862,1.293a13.387,13.387,0,0,0,1.545-.088c2.458-.292,5.795-1.936,8.475-3.256.882-.435,1.644-.81,2.27-1.082a35.343,35.343,0,0,1,6.009-1.794.309.309,0,0,0,.243-.249,8.76,8.76,0,0,0,.066-2.351,6.368,6.368,0,0,0-.517-1.728m-.13,3.762a34.4,34.4,0,0,0-5.923,1.791c-.638.279-1.406.658-2.295,1.1-2.5,1.236-5.922,2.917-8.274,3.2-3.135.372-6.511-.618-6.879-1.01a1.527,1.527,0,0,1-.534-1.366c.222-.374,2.334-2.234,6.515-5.5a81.474,81.474,0,0,1,6.843-5.019,3.343,3.343,0,0,1,1.317.323,5.935,5.935,0,0,0,2.068.482,9.6,9.6,0,0,0,2.627-.682,9.918,9.918,0,0,1,1.882-.541,1.464,1.464,0,0,1,1.093.388,2.793,2.793,0,0,1,.754,2.029,3.683,3.683,0,0,0,.365,1.286,5.92,5.92,0,0,1,.471,1.568,7.962,7.962,0,0,1-.029,1.957" transform="translate(-1146.24 -2143.853)"/>
            <path id="Trazado_1279317" data-name="Trazado 1279317" d="M1308.835,2311.28c-.522.063-8.781,6.533-9.2,6.83a4.951,4.951,0,0,0,3.049,1.348c1.069,0,2.489-.992,4.779-2.6,2.569-1.808,3.245-1.942,4.671-3.032a2.289,2.289,0,0,0,.558-.464,2.927,2.927,0,0,0,.674-1.47,4.174,4.174,0,0,1-1.1.2c-1.483-.025-2.43-.928-3.438-.808" transform="translate(-1211.039 -2153.702)"/>
            <path id="Trazado_1279318" data-name="Trazado 1279318" d="M1309.062,2307.375a3.851,3.851,0,0,1-1.009.187,5.031,5.031,0,0,1-1.824-.444,3.425,3.425,0,0,0-1.655-.354c-.323.038-1.731,1.01-8.226,6.026-.6.463-1.031.8-1.113.854a.309.309,0,0,0-.083.411,5.115,5.115,0,0,0,3.313,1.5c1.174,0,2.6-1,4.957-2.661,1.323-.927,2.152-1.42,2.818-1.814a16.664,16.664,0,0,0,1.854-1.213,2.593,2.593,0,0,0,.618-.522,3.237,3.237,0,0,0,.746-1.625.31.31,0,0,0-.389-.345Zm-.822,1.561a2.015,2.015,0,0,1-.481.406l-.033.02a16.12,16.12,0,0,1-1.8,1.184c-.676.4-1.516.9-2.859,1.84-2.18,1.535-3.622,2.548-4.6,2.548a4.916,4.916,0,0,1-2.58-1.006c.194-.154.477-.367.841-.649,1.817-1.4,7.323-5.656,7.945-5.908a3.049,3.049,0,0,1,1.336.318,5.584,5.584,0,0,0,2.039.488,3.11,3.11,0,0,0,.678-.082,2.578,2.578,0,0,1-.483.844Z" transform="translate(-1206.815 -2149.491)"/>
            <path id="Trazado_1279319" data-name="Trazado 1279319" d="M1522.326,2347.46a24.289,24.289,0,0,1-.772-2.44,4.227,4.227,0,0,0-1.391.388c-.986.464-3.563,3.3-2.991,3.987s1.338,1.642,1.338,1.642l.21-.014.155-.046.055-.016c.155-.048.309-.094.464-.138l.039-.011c.162-.046.323-.091.479-.132h.009c.927-.251,1.7-.426,2.1-.513h.011l.154-.034h.051l.078-.015s.057-1.49,0-2.579Z" transform="translate(-1413.664 -2185.152)"/>
            <path id="Trazado_1279320" data-name="Trazado 1279320" d="M1518.445,2343.269a.294.294,0,0,0,0-.046,7.25,7.25,0,0,0-.442-1.313,3.088,3.088,0,0,1-.317-1.072.3.3,0,0,0-.03-.121.314.314,0,0,0-.075-.1.3.3,0,0,0-.107-.062.289.289,0,0,0-.123-.014,4.552,4.552,0,0,0-1.5.416,8.587,8.587,0,0,0-3.222,3.75.794.794,0,0,0-.024.373.786.786,0,0,0,.148.343c.564.676,1.324,1.627,1.331,1.638a.312.312,0,0,0,.108.086.308.308,0,0,0,.134.03h.02l.21-.014a.467.467,0,0,0,.076-.014l.2-.061c.154-.047.309-.093.464-.136l.035-.011c.154-.044.321-.089.485-.132.927-.251,1.7-.427,2.1-.512l.168-.035h.021l.1-.02a.31.31,0,0,0,.247-.292c0-.061.057-1.525,0-2.6Zm-.609,2.408-.066.015c-.389.084-1.181.261-2.128.518-.155.043-.32.087-.482.133l-.039.012c-.155.043-.309.089-.474.137l-.174.053h-.016c-.227-.282-.794-.986-1.236-1.521a.368.368,0,0,1,0-.183,8.2,8.2,0,0,1,2.879-3.325,4.1,4.1,0,0,1,1-.32,5.088,5.088,0,0,0,.325.95,6.591,6.591,0,0,1,.4,1.185v.036c.051.809.029,1.838.017,2.31Z" transform="translate(-1409.476 -2180.977)"/>
            <path id="Trazado_1279321" data-name="Trazado 1279321" d="M1252.059,2421.424c-2.521,1.108-7.448,3.934-10.662,4.318s-6.684-.619-7.142-1.108a1.851,1.851,0,0,1-.618-1.642c-.5,1.947,1.375,3.017,2.789,3.436a18.76,18.76,0,0,0,6.335.65,52.392,52.392,0,0,0,10.255-2.483c1.545-.573,3.63.017,5.243-1.718,1.147-1.236-.142-3.267-.142-3.267a35.223,35.223,0,0,0-6.059,1.814" transform="translate(-1149.46 -2254.657)" fill="#fff"/>
            <path id="Trazado_1279322" data-name="Trazado 1279322" d="M1253.9,2415.088a35.3,35.3,0,0,0-6.136,1.835c-.638.28-1.406.658-2.295,1.1-2.5,1.236-5.922,2.917-8.274,3.2-3.135.372-6.511-.618-6.879-1.01a1.53,1.53,0,0,1-.532-1.4.309.309,0,0,0-.476-.294.312.312,0,0,0-.132.186c-.51,2.009,1.216,3.281,3,3.811a19.141,19.141,0,0,0,5.167.709c.425,0,.856-.014,1.286-.048a52.561,52.561,0,0,0,10.338-2.5,6.844,6.844,0,0,1,1.642-.3,5.274,5.274,0,0,0,3.719-1.5c1.293-1.391-.051-3.554-.11-3.642a.314.314,0,0,0-.14-.119.309.309,0,0,0-.182-.019m-.021,3.36a4.715,4.715,0,0,1-3.33,1.3,7.32,7.32,0,0,0-1.793.335,52.165,52.165,0,0,1-10.172,2.473,18.456,18.456,0,0,1-6.228-.637,5.456,5.456,0,0,1-1.734-.856,15.285,15.285,0,0,0,6.644.772c2.458-.292,5.795-1.936,8.475-3.255.882-.434,1.644-.81,2.269-1.082a33.933,33.933,0,0,1,5.791-1.747c.263.477.867,1.845.078,2.7" transform="translate(-1145.298 -2250.438)"/>
            <path id="Trazado_1279323" data-name="Trazado 1279323" d="M1247.625,2439.69c-1.146-.114-7.735,2.529-9.116,2.383s-2.523-.987-2.627-1.5c-.772.438-1.315.82-1.346,1.126a1.827,1.827,0,0,0,.618,1.642c.464.5,3.934,1.49,7.142,1.108,2.236-.267,5.306-1.719,7.815-2.951-.014-.091-.023-.143-.023-.143s-1.318-1.544-2.463-1.662" transform="translate(-1150.36 -2273.365)"/>
            <path id="Trazado_1279324" data-name="Trazado 1279324" d="M1246.072,2436.982c-.057-.066-1.412-1.643-2.667-1.767a18.031,18.031,0,0,0-4.3,1.121,23.168,23.168,0,0,1-4.807,1.261,3.068,3.068,0,0,1-2.357-1.258.3.3,0,0,0-.061-.134.306.306,0,0,0-.116-.091.308.308,0,0,0-.286.018c-1.053.6-1.462.97-1.5,1.364a2.132,2.132,0,0,0,.693,1.882c.487.528,3.121,1.293,5.862,1.293a13.3,13.3,0,0,0,1.546-.088c2.244-.267,5.253-1.678,7.914-2.981a.31.31,0,0,0,.168-.327l-.023-.143a.3.3,0,0,0-.063-.152m-8.063,2.989c-3.135.372-6.511-.618-6.879-1.01a1.53,1.53,0,0,1-.532-1.4c.009-.05.106-.241.909-.723a4.1,4.1,0,0,0,2.723,1.377c.732.076,2.473-.464,5.061-1.287a21.889,21.889,0,0,1,4.052-1.1,4.332,4.332,0,0,1,2.086,1.364c-2.533,1.236-5.352,2.531-7.42,2.777" transform="translate(-1146.109 -2269.194)"/>
            <path id="Trazado_1279325" data-name="Trazado 1279325" d="M1331.207,2385.215c-.439-.354-1.923-1.46-2.568-.831a.309.309,0,0,0-.083.342.307.307,0,0,0,.067.1.316.316,0,0,0,.1.07.307.307,0,0,0,.122.023.3.3,0,0,0,.121-.027.3.3,0,0,0,.1-.072c.136-.132.971.243,1.749.871a.317.317,0,0,0,.194.068.305.305,0,0,0,.178-.057.307.307,0,0,0,.119-.337.313.313,0,0,0-.1-.156" transform="translate(-1237.964 -2221.656)" fill="#fff"/>
            <path id="Trazado_1279326" data-name="Trazado 1279326" d="M1356.447,2363.115a.311.311,0,0,0-.087.213.309.309,0,0,0,.512.235c.252-.238,1.154.346,1.685.842a.309.309,0,0,0,.5-.116.312.312,0,0,0,.02-.119.31.31,0,0,0-.1-.216c-.284-.269-1.759-1.574-2.531-.839" transform="translate(-1263.892 -2201.807)" fill="#fff"/>
            <path id="Trazado_1279327" data-name="Trazado 1279327" d="M1385.274,2340a.309.309,0,0,0,.43.443c.232-.223,1.053.31,1.533.764a.313.313,0,0,0,.212.085.307.307,0,0,0,.173-.053.309.309,0,0,0,.129-.323.305.305,0,0,0-.089-.157c-.267-.255-1.637-1.485-2.387-.759" transform="translate(-1290.757 -2180.264)" fill="#fff"/>
            <path id="Trazado_1279328" data-name="Trazado 1279328" d="M157.109,4.533H11.151a6.64,6.64,0,0,0-6.64,6.64V123.412a6.64,6.64,0,0,0,6.64,6.639H157.109a6.64,6.64,0,0,0,6.64-6.639V11.173a6.64,6.64,0,0,0-6.64-6.64" transform="translate(-4.203 -4.224)" fill="#9fa4d5"/>
            <path id="Trazado_1279329" data-name="Trazado 1279329" d="M152.905,0H6.953A6.953,6.953,0,0,0,0,6.953v112.24a6.953,6.953,0,0,0,6.953,6.953h145.96a6.953,6.953,0,0,0,6.953-6.953V6.947A6.953,6.953,0,0,0,152.905,0m6.335,119.188a6.335,6.335,0,0,1-6.335,6.335H6.953a6.334,6.334,0,0,1-6.335-6.335V6.947A6.335,6.335,0,0,1,6.953.612h145.96a6.334,6.334,0,0,1,6.335,6.335Z" transform="translate(0 0)"/>
            <path id="Trazado_1279330" data-name="Trazado 1279330" d="M220.8,65.162H84.9a6.64,6.64,0,0,0-6.64,6.64V175.774a6.64,6.64,0,0,0,6.64,6.639H220.8a6.64,6.64,0,0,0,6.639-6.639V71.8a6.639,6.639,0,0,0-6.639-6.64" transform="translate(-72.928 -60.72)" fill="#fff"/>
            <path id="Trazado_1279331" data-name="Trazado 1279331" d="M216.511,60.629H80.614a6.953,6.953,0,0,0-6.953,6.953V171.55a6.953,6.953,0,0,0,6.953,6.953h135.9a6.952,6.952,0,0,0,6.953-6.953V67.578a6.952,6.952,0,0,0-6.953-6.949m6.335,110.921a6.335,6.335,0,0,1-6.335,6.335H80.614a6.334,6.334,0,0,1-6.335-6.335V67.578a6.335,6.335,0,0,1,6.335-6.335h135.9a6.335,6.335,0,0,1,6.335,6.335Z" transform="translate(-68.639 -56.496)"/>
            <rect id="Rectángulo_411879" data-name="Rectángulo 411879" width="18.772" height="6.538" transform="translate(10.774 21.74)" fill="#75cdff"/>
            <path id="Trazado_1279332" data-name="Trazado 1279332" d="M172.593,314.365H153.821a.309.309,0,0,0-.309.309v6.538a.309.309,0,0,0,.309.309h18.772a.309.309,0,0,0,.309-.309v-6.538a.309.309,0,0,0-.309-.309m-.309,6.538H154.13v-5.919h18.154Z" transform="translate(-143.047 -292.934)"/>
            <rect id="Rectángulo_411880" data-name="Rectángulo 411880" width="18.772" height="6.537" transform="translate(10.774 79.577)" fill="#aeee58"/>
            <path id="Trazado_1279333" data-name="Trazado 1279333" d="M172.593,1162.74H153.821a.309.309,0,0,0-.309.31v6.536a.309.309,0,0,0,.309.309h18.772a.309.309,0,0,0,.309-.309v-6.536a.309.309,0,0,0-.309-.31m-.309,6.536H154.13v-5.918h18.154Z" transform="translate(-143.047 -1083.472)"/>
            <rect id="Rectángulo_411881" data-name="Rectángulo 411881" width="18.772" height="6.537" transform="translate(10.774 50.658)" fill="#0ad85e"/>
            <path id="Trazado_1279334" data-name="Trazado 1279334" d="M172.593,738.543H153.821a.309.309,0,0,0-.309.309v6.537a.309.309,0,0,0,.309.31h18.772a.309.309,0,0,0,.309-.31v-6.537a.309.309,0,0,0-.309-.309m-.309,6.538H154.13v-5.92h18.154Z" transform="translate(-143.047 -688.194)"/>
            <rect id="Rectángulo_411882" data-name="Rectángulo 411882" width="18.772" height="6.538" transform="translate(10.774 36.2)" fill="#aeee58"/>
            <path id="Trazado_1279335" data-name="Trazado 1279335" d="M172.593,526.466H153.821a.309.309,0,0,0-.309.309v6.536a.309.309,0,0,0,.309.309h18.772a.309.309,0,0,0,.309-.309v-6.536a.309.309,0,0,0-.309-.309M172.284,533H154.13v-5.918h18.154Z" transform="translate(-143.047 -490.575)"/>
            <rect id="Rectángulo_411883" data-name="Rectángulo 411883" width="18.772" height="6.537" transform="translate(10.774 65.118)" fill="#75cdff"/>
            <path id="Trazado_1279336" data-name="Trazado 1279336" d="M172.593,950.64H153.821a.309.309,0,0,0-.309.31v6.537a.309.309,0,0,0,.309.309h18.772a.309.309,0,0,0,.309-.309V950.95a.309.309,0,0,0-.309-.31m-.309,6.538H154.13v-5.919h18.154Z" transform="translate(-143.047 -885.832)"/>
            <g id="Grupo_1191305" data-name="Grupo 1191305" transform="translate(5.022 4.133)" opacity="0.15">
              <g id="Grupo_1191304" data-name="Grupo 1191304">
                <g id="Grupo_1191303" data-name="Grupo 1191303" clip-path="url(#clip-path-3)">
                  <path id="Trazado_1279337" data-name="Trazado 1279337" d="M220.8,65.162H84.9a6.64,6.64,0,0,0-6.64,6.64V175.774a6.64,6.64,0,0,0,6.64,6.639H220.8a6.64,6.64,0,0,0,6.639-6.639V71.8a6.639,6.639,0,0,0-6.639-6.64" transform="translate(-77.95 -64.853)" fill="#75cdff"/>
                  <path id="Trazado_1279338" data-name="Trazado 1279338" d="M216.512,60.629H80.615a6.953,6.953,0,0,0-6.953,6.953V171.55a6.953,6.953,0,0,0,6.953,6.953h135.9a6.952,6.952,0,0,0,6.953-6.953V67.578a6.952,6.952,0,0,0-6.953-6.949m6.335,110.921a6.335,6.335,0,0,1-6.335,6.335H80.615a6.334,6.334,0,0,1-6.335-6.335V67.578a6.335,6.335,0,0,1,6.335-6.335h135.9a6.335,6.335,0,0,1,6.335,6.335Z" transform="translate(-73.662 -60.629)"/>
                </g>
              </g>
            </g>
            <path id="Trazado_1279339" data-name="Trazado 1279339" d="M170.965,1410.076A9.387,9.387,0,1,0,158.7,1405a9.387,9.387,0,0,0,12.265,5.08" transform="translate(-147.213 -1297.116)" fill="#75cdff"/>
            <path id="Trazado_1279340" data-name="Trazado 1279340" d="M163.183,1387.54a9.7,9.7,0,1,0,6.853,2.841,9.7,9.7,0,0,0-6.853-2.841m0,18.771a9.087,9.087,0,1,1,6.416-2.661,9.079,9.079,0,0,1-6.416,2.661" transform="translate(-143.023 -1292.947)"/>
            <path id="Trazado_1279341" data-name="Trazado 1279341" d="M717.757,362.16H612.8V314.674a.309.309,0,1,0-.618,0v47.8a.309.309,0,0,0,.309.309H717.757a.309.309,0,0,0,0-.618" transform="translate(-570.449 -292.934)"/>
            <path id="Trazado_1279342" data-name="Trazado 1279342" d="M664.927,376.369a.309.309,0,0,0-.361.244c-.037.188-.074.382-.112.576-.635,3.324-1.355,7.089-5.888,7.089h-.011c-4.375,0-5.617-4.87-6.932-10.022a31.163,31.163,0,0,0-2.888-8.189,7.187,7.187,0,0,0-6.684-3.81c-7.279.141-9.133,9.889-10.624,17.724-.978,5.145-1.824,9.591-3.844,9.591-1.263,0-1.738-.927-2.29-2-.646-1.253-1.377-2.668-3.522-2.668-3.731,0-4.339,4.064-4.928,7.995-.576,3.85-1.122,7.486-4.326,7.5a.309.309,0,0,0,0,.618c3.739-.022,4.349-4.093,4.945-8.035.569-3.845,1.113-7.465,4.309-7.465,1.766,0,2.351,1.139,2.972,2.342.588,1.146,1.2,2.332,2.838,2.332,2.533,0,3.379-4.455,4.452-10.093,1.449-7.615,3.245-17.092,10.028-17.222,6-.114,7.5,5.807,8.962,11.533,1.376,5.39,2.677,10.481,7.531,10.487h.01c5.043,0,5.883-4.387,6.49-7.59.037-.195.074-.386.111-.575a.308.308,0,0,0,0-.122.31.31,0,0,0-.129-.2.307.307,0,0,0-.112-.048" transform="translate(-570.472 -337.559)"/>
            <path id="Trazado_1279343" data-name="Trazado 1279343" d="M1829.841,109.949a1.9,1.9,0,1,0,1.344.557,1.9,1.9,0,0,0-1.344-.557" transform="translate(-1703.324 -102.453)" fill="#9fa4d5"/>
            <path id="Trazado_1279344" data-name="Trazado 1279344" d="M1825.617,105.416a2.213,2.213,0,1,0,1.561.648,2.21,2.21,0,0,0-1.561-.648m0,3.8a1.593,1.593,0,1,1,1.125-.467,1.591,1.591,0,0,1-1.125.467" transform="translate(-1699.1 -98.229)"/>
            <path id="Trazado_1279345" data-name="Trazado 1279345" d="M1948.4,109.949a1.9,1.9,0,1,0,1.344.557,1.9,1.9,0,0,0-1.344-.557" transform="translate(-1813.803 -102.453)" fill="#9fa4d5"/>
            <path id="Trazado_1279346" data-name="Trazado 1279346" d="M1944.177,105.416a2.213,2.213,0,1,0,1.561.648,2.211,2.211,0,0,0-1.561-.648m0,3.8a1.593,1.593,0,1,1,1.125-.467,1.591,1.591,0,0,1-1.125.467" transform="translate(-1809.577 -98.229)"/>
            <path id="Trazado_1279347" data-name="Trazado 1279347" d="M2066.961,113.75a1.9,1.9,0,1,0-1.9-1.9,1.9,1.9,0,0,0,1.9,1.9" transform="translate(-1924.278 -102.453)" fill="#9fa4d5"/>
            <path id="Trazado_1279348" data-name="Trazado 1279348" d="M2062.74,105.416a2.211,2.211,0,1,0,1.561.648,2.209,2.209,0,0,0-1.561-.648m0,3.8a1.594,1.594,0,1,1,1.124-.467,1.591,1.591,0,0,1-1.124.467" transform="translate(-1920.056 -98.229)"/>
            <rect id="Rectángulo_411885" data-name="Rectángulo 411885" width="3.688" height="31.866" transform="translate(42.044 80.914)" fill="#d5f1de"/>
            <path id="Trazado_1279349" data-name="Trazado 1279349" d="M616.186,1182.35h-3.693a.309.309,0,0,0-.309.309v31.868a.309.309,0,0,0,.309.309h3.693a.31.31,0,0,0,.309-.309v-31.868a.31.31,0,0,0-.309-.309m-.309,31.867H612.8v-31.249h3.075Z" transform="translate(-570.449 -1101.745)"/>
            <rect id="Rectángulo_411886" data-name="Rectángulo 411886" width="3.688" height="20.393" transform="translate(45.732 92.387)" fill="#ace3be"/>
            <path id="Trazado_1279350" data-name="Trazado 1279350" d="M670.345,1350.639h-3.682a.308.308,0,0,0-.309.309v20.4a.31.31,0,0,0,.309.309h3.687a.31.31,0,0,0,.309-.309v-20.4a.31.31,0,0,0-.024-.119.3.3,0,0,0-.068-.1.317.317,0,0,0-.1-.067.307.307,0,0,0-.119-.022m-.309,20.4h-3.064v-19.779h3.068Z" transform="translate(-620.926 -1258.562)"/>
            <rect id="Rectángulo_411887" data-name="Rectángulo 411887" width="3.688" height="11.175" transform="translate(49.419 101.606)" fill="#d5f1de"/>
            <path id="Trazado_1279351" data-name="Trazado 1279351" d="M724.367,1485.88h-3.688a.308.308,0,0,0-.309.309v11.175a.308.308,0,0,0,.309.309h3.688a.309.309,0,0,0,.309-.309v-11.175a.308.308,0,0,0-.309-.309m-.309,11.174h-3.07V1486.5h3.07Z" transform="translate(-671.26 -1384.583)"/>
            <rect id="Rectángulo_411888" data-name="Rectángulo 411888" width="3.688" height="16.26" transform="translate(53.107 96.521)" fill="#ace3be"/>
            <path id="Trazado_1279352" data-name="Trazado 1279352" d="M778.466,1411.29h-3.687a.308.308,0,0,0-.309.309v16.26a.308.308,0,0,0,.309.309h3.687a.31.31,0,0,0,.309-.309V1411.6a.31.31,0,0,0-.309-.309m-.309,16.259h-3.069v-15.642h3.069Z" transform="translate(-721.672 -1315.078)"/>
            <rect id="Rectángulo_411889" data-name="Rectángulo 411889" width="3.688" height="22.697" transform="translate(56.794 90.084)" fill="#d5f1de"/>
            <path id="Trazado_1279353" data-name="Trazado 1279353" d="M832.538,1316.86h-3.688a.31.31,0,0,0-.31.309v22.7a.309.309,0,0,0,.31.309h3.688a.309.309,0,0,0,.309-.309v-22.7a.31.31,0,0,0-.309-.309m-.309,22.7h-3.071v-22.079h3.071Z" transform="translate(-772.056 -1227.085)"/>
            <rect id="Rectángulo_411890" data-name="Rectángulo 411890" width="3.688" height="16.26" transform="translate(60.482 96.521)" fill="#ace3be"/>
            <path id="Trazado_1279354" data-name="Trazado 1279354" d="M886.646,1411.29h-3.687a.308.308,0,0,0-.309.309v16.26a.308.308,0,0,0,.309.309h3.687a.31.31,0,0,0,.309-.309V1411.6a.31.31,0,0,0-.309-.309m-.309,16.259h-3.069v-15.642h3.069Z" transform="translate(-822.477 -1315.078)"/>
            <rect id="Rectángulo_411891" data-name="Rectángulo 411891" width="3.688" height="11.175" transform="translate(64.169 101.606)" fill="#d5f1de"/>
            <path id="Trazado_1279355" data-name="Trazado 1279355" d="M940.727,1485.88h-3.688a.308.308,0,0,0-.309.309v11.175a.308.308,0,0,0,.309.309h3.688a.308.308,0,0,0,.309-.309v-11.175a.308.308,0,0,0-.309-.309m-.309,11.174h-3.071V1486.5h3.071Z" transform="translate(-872.87 -1384.583)"/>
            <rect id="Rectángulo_411892" data-name="Rectángulo 411892" width="3.688" height="7.375" transform="translate(67.857 105.406)" fill="#ace3be"/>
            <path id="Trazado_1279356" data-name="Trazado 1279356" d="M994.822,1541.61h-3.683a.31.31,0,0,0-.309.31v7.375a.31.31,0,0,0,.309.309h3.683a.31.31,0,0,0,.309-.309v-7.375a.31.31,0,0,0-.309-.31m-.309,7.375h-3.066v-6.757h3.066Z" transform="translate(-923.282 -1436.513)"/>
            <rect id="Rectángulo_411893" data-name="Rectángulo 411893" width="3.688" height="16.26" transform="translate(71.544 96.521)" fill="#d5f1de"/>
            <path id="Trazado_1279357" data-name="Trazado 1279357" d="M1048.86,1411.29h-3.692a.31.31,0,0,0-.309.309v16.26a.31.31,0,0,0,.309.309h3.689a.31.31,0,0,0,.309-.309V1411.6a.308.308,0,0,0-.306-.309m-.309,16.259h-3.073v-15.642h3.07Z" transform="translate(-973.628 -1315.078)"/>
            <rect id="Rectángulo_411894" data-name="Rectángulo 411894" width="3.688" height="19.873" transform="translate(75.232 92.909)" fill="#ace3be"/>
            <path id="Trazado_1279358" data-name="Trazado 1279358" d="M1103.007,1358.3h-3.688a.31.31,0,0,0-.309.309v19.873a.31.31,0,0,0,.309.309h3.688a.309.309,0,0,0,.309-.309v-19.873a.309.309,0,0,0-.309-.309m-.309,19.872h-3.071v-19.254h3.071Z" transform="translate(-1024.087 -1265.7)"/>
            <rect id="Rectángulo_411895" data-name="Rectángulo 411895" width="3.688" height="11.175" transform="translate(78.92 101.606)" fill="#d5f1de"/>
            <path id="Trazado_1279359" data-name="Trazado 1279359" d="M1157.106,1485.88h-3.687a.309.309,0,0,0-.309.309v11.175a.31.31,0,0,0,.309.309h3.687a.309.309,0,0,0,.309-.309v-11.175a.308.308,0,0,0-.309-.309m-.309,11.174h-3.069V1486.5h3.069Z" transform="translate(-1074.499 -1384.583)"/>
            <rect id="Rectángulo_411896" data-name="Rectángulo 411896" width="3.688" height="7.375" transform="translate(82.607 105.406)" fill="#ace3be"/>
            <path id="Trazado_1279360" data-name="Trazado 1279360" d="M1211.187,1541.61H1207.5a.309.309,0,0,0-.309.31v7.375a.309.309,0,0,0,.309.309h3.688a.31.31,0,0,0,.309-.309v-7.375a.31.31,0,0,0-.309-.31m-.309,7.375h-3.07v-6.757h3.07Z" transform="translate(-1124.892 -1436.513)"/>
            <rect id="Rectángulo_411897" data-name="Rectángulo 411897" width="3.689" height="11.175" transform="translate(86.295 101.606)" fill="#d5f1de"/>
            <path id="Trazado_1279361" data-name="Trazado 1279361" d="M1265.286,1485.88H1261.6a.309.309,0,0,0-.309.309v11.175a.309.309,0,0,0,.309.309h3.687a.31.31,0,0,0,.31-.309v-11.175a.309.309,0,0,0-.31-.309m-.309,11.174h-3.068V1486.5h3.068Z" transform="translate(-1175.304 -1384.583)"/>
            <rect id="Rectángulo_411898" data-name="Rectángulo 411898" width="3.688" height="11.347" transform="translate(130.825 101.432)" fill="#ace3be"/>
            <path id="Trazado_1279362" data-name="Trazado 1279362" d="M1918.477,1483.27h-3.688a.308.308,0,0,0-.309.31v11.349a.307.307,0,0,0,.309.309h3.688a.307.307,0,0,0,.309-.309V1483.58a.308.308,0,0,0-.309-.31m-.309,11.35h-3.07v-10.731h3.07Z" transform="translate(-1783.963 -1382.151)"/>
            <rect id="Rectángulo_411899" data-name="Rectángulo 411899" width="3.688" height="16.26" transform="translate(134.514 96.521)" fill="#75cdff"/>
            <path id="Trazado_1279363" data-name="Trazado 1279363" d="M1972.576,1411.29h-3.687a.308.308,0,0,0-.309.309v16.26a.308.308,0,0,0,.309.309h3.687a.31.31,0,0,0,.309-.309V1411.6a.31.31,0,0,0-.309-.309m-.309,16.259H1969.2v-15.642h3.069Z" transform="translate(-1834.375 -1315.078)"/>
            <rect id="Rectángulo_411900" data-name="Rectángulo 411900" width="3.688" height="11.175" transform="translate(138.2 101.606)" fill="#ace3be"/>
            <path id="Trazado_1279364" data-name="Trazado 1279364" d="M2026.657,1485.88h-3.688a.308.308,0,0,0-.309.309v11.175a.309.309,0,0,0,.309.309h3.688a.309.309,0,0,0,.309-.309v-11.175a.308.308,0,0,0-.309-.309m-.309,11.174h-3.071V1486.5h3.071Z" transform="translate(-1884.768 -1384.583)"/>
            <rect id="Rectángulo_411901" data-name="Rectángulo 411901" width="3.688" height="7.375" transform="translate(141.889 105.406)" fill="#75cdff"/>
            <path id="Trazado_1279365" data-name="Trazado 1279365" d="M2080.756,1541.61h-3.687a.309.309,0,0,0-.309.31v7.375a.309.309,0,0,0,.309.309h3.687a.308.308,0,0,0,.309-.309v-7.375a.308.308,0,0,0-.309-.31m-.309,7.375h-3.069v-6.757h3.069Z" transform="translate(-1935.18 -1436.513)"/>
            <rect id="Rectángulo_411902" data-name="Rectángulo 411902" width="3.688" height="11.175" transform="translate(145.575 101.606)" fill="#ace3be"/>
            <path id="Trazado_1279366" data-name="Trazado 1279366" d="M2134.808,1485.88h-3.688a.31.31,0,0,0-.31.309v11.175a.31.31,0,0,0,.31.309h3.688a.309.309,0,0,0,.309-.309v-11.175a.309.309,0,0,0-.309-.309m-.309,11.174h-3.071V1486.5h3.071Z" transform="translate(-1985.546 -1384.583)"/>
            <rect id="Rectángulo_411903" data-name="Rectángulo 411903" width="3.688" height="3.688" transform="translate(89.967 109.093)" fill="#0ad85e"/>
            <path id="Trazado_1279367" data-name="Trazado 1279367" d="M1319.136,1595.69h-3.686a.309.309,0,0,0-.309.31v3.688a.31.31,0,0,0,.309.309h3.686a.309.309,0,0,0,.309-.309V1596a.309.309,0,0,0-.309-.31m-.309,3.688h-3.069v-3.07h3.069Z" transform="translate(-1225.482 -1486.906)"/>
            <path id="Trazado_1279368" data-name="Trazado 1279368" d="M158.361,1400.842h9.364v-8.772a9.383,9.383,0,0,0-9.364,8.772" transform="translate(-147.565 -1297.168)" fill="#aeee58"/>
            <path id="Trazado_1279369" data-name="Trazado 1279369" d="M163.493,1387.54a9.71,9.71,0,0,0-9.673,9.06.312.312,0,0,0,.018.125.308.308,0,0,0,.066.107.315.315,0,0,0,.1.072.305.305,0,0,0,.123.025h9.364a.309.309,0,0,0,.309-.309v-8.772a.308.308,0,0,0-.309-.309m-.309,8.772h-8.725a9.1,9.1,0,0,1,8.719-8.149Z" transform="translate(-143.333 -1292.947)"/>
            <path id="Trazado_1279370" data-name="Trazado 1279370" d="M158.067,1520.74c-.012.2-.022.408-.022.618a9.385,9.385,0,0,0,15.761,6.893l-6.371-7.506Z" transform="translate(-147.271 -1417.066)" fill="#0ad85e"/>
            <path id="Trazado_1279371" data-name="Trazado 1279371" d="M163.443,1516.317a.3.3,0,0,0-.106-.08.3.3,0,0,0-.13-.028h-9.364a.309.309,0,0,0-.309.288c-.015.241-.022.443-.022.634a9.693,9.693,0,0,0,16.274,7.12.309.309,0,0,0,.026-.427Zm-.236,9.889a9.087,9.087,0,0,1-9.076-9.078v-.309h8.928l6.082,7.168a9.048,9.048,0,0,1-5.933,2.222Z" transform="translate(-143.047 -1412.844)"/>
            <path id="Trazado_1279372" data-name="Trazado 1279372" d="M588.952,328.059h3.857l-1.964-2.837Z" transform="translate(-548.801 -303.05)"/>
            <path id="Trazado_1279373" data-name="Trazado 1279373" d="M586.9,320.822a.306.306,0,0,0-.507,0l-1.894,2.837a.309.309,0,0,0,.085.43.321.321,0,0,0,.172.051.309.309,0,0,0,.258-.137l1.641-2.46,1.7,2.465a.309.309,0,0,0,.508-.352Z" transform="translate(-544.598 -298.827)"/>
            <path id="Trazado_1279374" data-name="Trazado 1279374" d="M2113.21,995.547l2.9-1.874-2.776-1.982Z" transform="translate(-1969.145 -924.083)"/>
            <path id="Trazado_1279375" data-name="Trazado 1279375" d="M2112,989.2l-2.781-1.982a.3.3,0,0,0-.11-.05.313.313,0,0,0-.121,0,.305.305,0,0,0-.112.043.3.3,0,0,0-.137.192.3.3,0,0,0,0,.121.3.3,0,0,0,.125.2l2.406,1.719-2.516,1.627a.309.309,0,0,0,.02.531.3.3,0,0,0,.149.038.311.311,0,0,0,.167-.049l2.9-1.874a.311.311,0,0,0,.1-.109.307.307,0,0,0,.039-.144.31.31,0,0,0-.129-.259Z" transform="translate(-1964.862 -919.859)"/>
            <path id="Trazado_1279376" data-name="Trazado 1279376" d="M2098.848,846.429a.309.309,0,0,0-.558.265l2.472,5.2a.305.305,0,0,0,.176.147.309.309,0,0,0,.382-.411Z" transform="translate(-1955.221 -788.574)"/>
            <path id="Trazado_1279377" data-name="Trazado 1279377" d="M2101.087,846.135a.3.3,0,0,0-.118-.028.3.3,0,0,0-.12.02.309.309,0,0,0-.1.064.315.315,0,0,0-.07.1l-2.472,5.2a.309.309,0,0,0,.147.411.3.3,0,0,0,.132.029.306.306,0,0,0,.165-.047.311.311,0,0,0,.115-.129l2.472-5.2a.3.3,0,0,0,.032-.119.309.309,0,0,0-.016-.122.306.306,0,0,0-.063-.1.3.3,0,0,0-.1-.073" transform="translate(-1955.134 -788.425)"/>
            <path id="Trazado_1279378" data-name="Trazado 1279378" d="M689.265,309.943a.309.309,0,0,0-.553.272l1.236,2.6a.313.313,0,0,0,.114.129.316.316,0,0,0,.462-.156.313.313,0,0,0,.02-.12.306.306,0,0,0-.028-.118Z" transform="translate(-641.74 -288.671)"/>
            <path id="Trazado_1279379" data-name="Trazado 1279379" d="M223.219,198.162H74.039a.309.309,0,0,0,0,.618h149.18a.309.309,0,1,0,0-.618" transform="translate(-68.704 -184.653)"/>
            <path id="Trazado_1279380" data-name="Trazado 1279380" d="M708.308,309.465a.308.308,0,0,0-.34.05.318.318,0,0,0-.072.1l-1.236,2.6a.32.32,0,0,0-.029.133v2.6a.309.309,0,1,0,.618,0v-2.529l1.207-2.531a.313.313,0,0,0,.032-.119.321.321,0,0,0-.017-.122.3.3,0,0,0-.063-.106.312.312,0,0,0-.1-.073" transform="translate(-658.457 -288.34)"/>
            <path id="Trazado_1279381" data-name="Trazado 1279381" d="M516.6,203.238a.309.309,0,0,0-.309.309V311.076a.309.309,0,0,0,.618,0V203.547a.309.309,0,0,0-.309-.309" transform="translate(-481.092 -189.383)"/>
            <path id="Trazado_1279382" data-name="Trazado 1279382" d="M1468.72,528.562s-3.017,1.5-.862,6.7c1.3,3.129,3.283-3.43,3.283-3.43s.247-4.414-2.422-3.274" transform="translate(-1367.066 -492.352)"/>
            <path id="Trazado_1279383" data-name="Trazado 1279383" d="M1466.29,524.087a1.766,1.766,0,0,0-1.791-.053h-.015c-.034.017-3.245,1.692-1.011,7.1.286.689.652,1.037,1.091,1.037h.042c1.292-.063,2.418-3.456,2.733-4.495a.341.341,0,0,0,.012-.073c.006-.1.136-2.678-1.062-3.517m.447,3.453c-.587,1.918-1.574,3.991-2.163,4.017-.162.009-.355-.23-.53-.655-1.976-4.771.519-6.207.708-6.306a1.16,1.16,0,0,1,1.182,0c.749.519.834,2.265.8,2.943" transform="translate(-1362.967 -488.109)"/>
            <path id="Trazado_1279384" data-name="Trazado 1279384" d="M1468.382,621.868c-1.358.447-1.946,2.369-1.312,4.291s2.248,3.118,3.606,2.67l1.313-4.291c-.633-1.922-2.25-3.118-3.608-2.67" transform="translate(-1366.818 -579.386)" fill="#fff"/>
            <path id="Trazado_1279385" data-name="Trazado 1279385" d="M1466.454,617.83a2.568,2.568,0,0,0-2.355-.491c-1.519.5-2.2,2.6-1.51,4.682a4.824,4.824,0,0,0,1.641,2.375,2.807,2.807,0,0,0,1.664.6,2.21,2.21,0,0,0,.693-.111.311.311,0,0,0,.137-.495.313.313,0,0,0-.1-.075.305.305,0,0,0-.117-.032.31.31,0,0,0-.12.015,1.966,1.966,0,0,1-1.794-.4,4.205,4.205,0,0,1-1.422-2.072c-.579-1.758-.078-3.509,1.116-3.9a1.969,1.969,0,0,1,1.794.4,4.217,4.217,0,0,1,1.424,2.072.3.3,0,0,0,.059.1.309.309,0,0,0,.331.092.308.308,0,0,0,.179-.154.311.311,0,0,0,.018-.236,4.832,4.832,0,0,0-1.642-2.375" transform="translate(-1362.63 -575.149)"/>
            <path id="Trazado_1279386" data-name="Trazado 1279386" d="M1505.23,462.249a12.9,12.9,0,0,0-6.683,24.542l-.264,3.506s-.944,2.051,3.708,2.627,4.721-2.744,4.721-2.744a14.16,14.16,0,0,1,.179-2.184,1.284,1.284,0,0,1,.847-.569,12.9,12.9,0,0,0-2.514-25.186Z" transform="translate(-1389.431 -430.68)" fill="#fff"/>
            <path id="Trazado_1279387" data-name="Trazado 1279387" d="M1501.235,457.736a13.211,13.211,0,0,0-7.038,25.031l-.244,3.245a1.569,1.569,0,0,0,.125,1.282c.493.887,1.789,1.466,3.863,1.725a8.689,8.689,0,0,0,1.082.071,4.313,4.313,0,0,0,2.9-.915,3.205,3.205,0,0,0,1.082-2.2,12.98,12.98,0,0,1,.155-2.068c.1-.227.516-.355.653-.4a13.209,13.209,0,0,0-2.572-25.787ZM1512.5,472.1a12.557,12.557,0,0,1-8.868,10.841,1.588,1.588,0,0,0-1.041.742,11.625,11.625,0,0,0-.2,2.3,2.626,2.626,0,0,1-.879,1.752,4.4,4.4,0,0,1-3.494.691c-2.3-.288-3.11-.927-3.386-1.4a.945.945,0,0,1-.088-.8.321.321,0,0,0,.028-.106l.264-3.506a.308.308,0,0,0-.177-.309,12.595,12.595,0,0,1,5.288-24.013q.618,0,1.236.06A12.594,12.594,0,0,1,1512.5,472.1Z" transform="translate(-1385.406 -426.474)"/>
            <path id="Trazado_1279388" data-name="Trazado 1279388" d="M1804.908,323.349c-.667-.413.85-1.819.618-2.837a1.881,1.881,0,0,0-2.435-1.527c-3.475.881-.24,5.343-.24,5.343a6.939,6.939,0,0,0,1.349,1.071,27.916,27.916,0,0,0,2.974,0s1.421-.076,1.205-1.344-2.8-.3-3.472-.706" transform="translate(-1678.669 -297.16)"/>
            <path id="Trazado_1279389" data-name="Trazado 1279389" d="M1802.121,318.893a3.052,3.052,0,0,1-1.146-.025c-.1-.065.142-.556.288-.851a2.819,2.819,0,0,0,.464-1.794,2.522,2.522,0,0,0-1.049-1.567,2.59,2.59,0,0,0-3.463,1.184c-.638,1.758,1.215,4.343,1.293,4.453l.022.028a7.329,7.329,0,0,0,1.42,1.126.307.307,0,0,0,.142.042c.05,0,.867.046,1.742.046.436,0,.887-.011,1.265-.042a1.864,1.864,0,0,0,1.248-.589,1.351,1.351,0,0,0,.245-1.116c-.194-1.071-1.51-.969-2.471-.9m1.736,1.619a1.269,1.269,0,0,1-.809.36,26.3,26.3,0,0,1-2.855,0,6.591,6.591,0,0,1-1.2-.96c-.14-.2-1.7-2.472-1.2-3.863a2,2,0,0,1,2.568-.865,1.976,1.976,0,0,1,.772,1.179,2.435,2.435,0,0,1-.411,1.377c-.309.6-.649,1.292-.062,1.653a2.779,2.779,0,0,0,1.519.116c.972-.074,1.724-.094,1.805.383a.755.755,0,0,1-.122.62" transform="translate(-1674.569 -292.942)"/>
            <path id="Trazado_1279390" data-name="Trazado 1279390" d="M1498.654,361.777s-1.564-4.172-9.055-5.408c-7.927-1.3-14.565,3.273-13.939,9.222.434,4.122,5.872,6.074,10.827,6.193a18.374,18.374,0,0,0,8.372-1.877,14.132,14.132,0,0,0,.553,4.22,5.559,5.559,0,0,0,2.877,2.755c5.774,3.025.248,7.078.248,7.078s-1.7,2.658-.838,2.346c6.579-2.374,11.3-12.706,7.6-19.956-2.435-4.767-6.644-4.572-6.644-4.572" transform="translate(-1375.022 -331.866)"/>
            <path id="Trazado_1279391" data-name="Trazado 1279391" d="M1494.657,357.17c-.422-.876-2.473-4.3-9.206-5.408-4.559-.751-8.945.371-11.731,3a7.778,7.778,0,0,0-2.563,6.561c.451,4.3,5.913,6.344,11.125,6.47a18.749,18.749,0,0,0,8.07-1.681,13.331,13.331,0,0,0,.571,3.823,5.792,5.792,0,0,0,3.036,2.936c1.545.813,2.369,1.76,2.449,2.818.154,1.942-2.229,3.708-2.252,3.73a.308.308,0,0,0-.077.083c-1.418,2.21-1.141,2.56-1.035,2.691a.416.416,0,0,0,.335.155.685.685,0,0,0,.228-.043c3.323-1.2,6.28-4.376,7.908-8.5a14.532,14.532,0,0,0-.138-11.89c-2.209-4.328-5.8-4.716-6.72-4.744m6.281,16.4c-1.5,3.8-4.287,6.867-7.313,8.056a11.67,11.67,0,0,1,.944-1.755c.371-.284,2.616-2.1,2.455-4.238-.1-1.289-1.035-2.407-2.79-3.327l-.025-.011a5.287,5.287,0,0,1-2.7-2.571,13.942,13.942,0,0,1-.536-4.11.309.309,0,0,0-.036-.159.3.3,0,0,0-.113-.119.309.309,0,0,0-.315,0,18.254,18.254,0,0,1-8.217,1.84c-4.79-.114-10.116-2.009-10.527-5.915a7.18,7.18,0,0,1,2.375-6.048c2.646-2.5,6.836-3.554,11.205-2.837,7.2,1.185,8.807,5.175,8.817,5.213a.309.309,0,0,0,.309.2c.155,0,4.047-.117,6.355,4.4a13.922,13.922,0,0,1,.115,11.382" transform="translate(-1370.823 -327.567)"/>
            <path id="Trazado_1279392" data-name="Trazado 1279392" d="M1528.914,648.466a.617.617,0,1,0,.238.039.618.618,0,0,0-.238-.039" transform="translate(-1424.127 -604.257)"/>
            <path id="Trazado_1279393" data-name="Trazado 1279393" d="M1526.608,646.2a.773.773,0,1,0,.026,1.545h.028a.773.773,0,1,0-.054-1.545m.043,1.236a.462.462,0,0,1-.332-.125.459.459,0,0,1-.106-.147.463.463,0,0,1,.406-.655h.015a.464.464,0,1,1,.017.927" transform="translate(-1421.826 -602.145)"/>
            <path id="Trazado_1279394" data-name="Trazado 1279394" d="M1676.7,617.855a.309.309,0,0,0,.212.581,1.169,1.169,0,0,1,1.475.464.31.31,0,0,0,.269.154.294.294,0,0,0,.154-.04.306.306,0,0,0,.147-.186.31.31,0,0,0-.027-.235,1.794,1.794,0,0,0-2.23-.739" transform="translate(-1562.209 -575.605)"/>
            <path id="Trazado_1279395" data-name="Trazado 1279395" d="M1519.694,608.558a1.79,1.79,0,0,0-2.339.189.309.309,0,0,0,.422.453,1.18,1.18,0,0,1,1.545-.154.309.309,0,0,0,.376-.49Z" transform="translate(-1413.82 -566.746)"/>
            <path id="Trazado_1279396" data-name="Trazado 1279396" d="M1598.19,742.464a.31.31,0,0,0-.354.1,3.3,3.3,0,0,1-1.667,1.1,2.876,2.876,0,0,1-1.9-.422.311.311,0,0,0-.233-.046.307.307,0,0,0-.2.132.309.309,0,0,0,.085.429,3.454,3.454,0,0,0,2.379.511,3.205,3.205,0,0,0,1.081-.471,2.442,2.442,0,0,1-.946.833.308.308,0,1,0,.279.55,3.078,3.078,0,0,0,1.678-2.41.313.313,0,0,0-.051-.188.3.3,0,0,0-.153-.121" transform="translate(-1485.131 -691.829)"/>
            <path id="Trazado_1279397" data-name="Trazado 1279397" d="M1674.058,656.49a.618.618,0,1,0,.443.165.619.619,0,0,0-.443-.165" transform="translate(-1559.377 -611.734)"/>
            <path id="Trazado_1279398" data-name="Trazado 1279398" d="M1671.93,654.221a.772.772,0,0,0,.026,1.544h.027a.771.771,0,0,0,.7-.5.77.77,0,0,0-.749-1.043m.364,1.082a.463.463,0,0,1-.8-.3.463.463,0,0,1,.124-.333.465.465,0,0,1,.324-.147.463.463,0,0,1,.479.448.473.473,0,0,1-.028.182.462.462,0,0,1-.1.156Z" transform="translate(-1557.253 -609.62)"/>
            <path id="Trazado_1279399" data-name="Trazado 1279399" d="M1576.516,689.8a1.239,1.239,0,0,0-1.491.114,1.2,1.2,0,0,0-.136,1.417.316.316,0,0,0,.114.121.311.311,0,0,0,.16.045.294.294,0,0,0,.143-.036.31.31,0,0,0,.13-.417.6.6,0,0,1,.031-.7c.155-.162.44-.155.772,0a.315.315,0,0,0,.118.035.309.309,0,0,0,.32-.411.307.307,0,0,0-.063-.105.3.3,0,0,0-.1-.073Z" transform="translate(-1467.367 -642.599)"/>
            <path id="Trazado_1279400" data-name="Trazado 1279400" d="M1787.952,582.024a2.606,2.606,0,0,1-1.366-2.846.3.3,0,0,0,.016-.126.306.306,0,0,0-.036-.121.3.3,0,0,0-.081-.1.309.309,0,0,0-.24-.062.3.3,0,0,0-.118.045.313.313,0,0,0-.091.089.319.319,0,0,0-.047.118,3.277,3.277,0,0,0,1.642,3.535.307.307,0,0,0,.154.045.31.31,0,0,0,.293-.229.315.315,0,0,0-.012-.2.311.311,0,0,0-.127-.149Z" transform="translate(-1664.171 -539.311)" fill="#fff"/>
            <path id="Trazado_1279401" data-name="Trazado 1279401" d="M1811.289,326.707a1.891,1.891,0,0,0-1.938.83,2.286,2.286,0,0,0,.357,2.506.315.315,0,0,0,.1.078.311.311,0,0,0,.127.028.309.309,0,0,0,.233-.511,1.684,1.684,0,0,1-.281-1.8,1.278,1.278,0,0,1,1.29-.521.309.309,0,0,0,.107-.609" transform="translate(-1685.769 -304.41)" fill="#fff"/>
            <path id="Trazado_1279402" data-name="Trazado 1279402" d="M1537.367,427.516c-.059,0-5.932-.283-7.158-3.311-1.025-2.528,1.135-4.691,1.157-4.713a.3.3,0,0,0,.068-.1.3.3,0,0,0,.025-.118.308.308,0,0,0-.022-.119.3.3,0,0,0-.066-.1.308.308,0,0,0-.217-.093.309.309,0,0,0-.22.088c-.1.1-2.473,2.472-1.3,5.386,1.376,3.4,7.449,3.685,7.707,3.7h.012a.309.309,0,1,0,.012-.618Z" transform="translate(-1425.051 -390.4)" fill="#fff"/>
            <path id="Trazado_1279403" data-name="Trazado 1279403" d="M1472.637,560.936a.309.309,0,0,0-.343-.024.315.315,0,0,0-.091.079,3.431,3.431,0,0,0-.316,3.015.3.3,0,0,0,.111.161.308.308,0,0,0,.185.062.29.29,0,0,0,.088-.014.309.309,0,0,0,.209-.383,2.81,2.81,0,0,1,.213-2.463.309.309,0,0,0-.056-.433" transform="translate(-1371.368 -522.635)" fill="#fff"/>
            <path id="Trazado_1279404" data-name="Trazado 1279404" d="M1588.2,482.5a16.279,16.279,0,0,1-6.44,1.17c-3.421-.105-4.635-1.7-4.657-1.728a.309.309,0,0,0-.552.132.314.314,0,0,0,.049.228c.056.077,1.378,1.87,5.141,1.986.155,0,.309.008.464.008a16.672,16.672,0,0,0,6.247-1.236.309.309,0,1,0-.253-.564Z" transform="translate(-1469.066 -448.973)" fill="#fff"/>
            <path id="Trazado_1279405" data-name="Trazado 1279405" d="M1814.852,470.126a.31.31,0,1,0-.054.618,6.913,6.913,0,0,1,4.03,1.942,6.5,6.5,0,0,1,1.569,3.863.309.309,0,0,0,.618,0,6.982,6.982,0,0,0-1.732-4.271,7.48,7.48,0,0,0-4.43-2.152" transform="translate(-1690.813 -438.075)" fill="#fff"/>
            <path id="Trazado_1279406" data-name="Trazado 1279406" d="M1794.458,648.667c-1.43-.82-3.528.154-4.688,2.177l.489,5.145c1.429.819,3.527-.155,4.686-2.179s.936-4.325-.487-5.144" transform="translate(-1667.755 -604.174)" fill="#fff"/>
            <path id="Trazado_1279407" data-name="Trazado 1279407" d="M1790.416,644.215c-1.574-.9-3.863.125-5.108,2.291a.324.324,0,0,0-.039.114.328.328,0,0,0,.008.12.311.311,0,0,0,.144.188.314.314,0,0,0,.115.039.31.31,0,0,0,.228-.061.316.316,0,0,0,.08-.091c1.072-1.871,2.985-2.8,4.264-2.063a2.32,2.32,0,0,1,1.062,1.882,5.228,5.228,0,0,1-2.792,4.869,2.324,2.324,0,0,1-2.163.036.31.31,0,0,0-.31.536,2.535,2.535,0,0,0,1.278.334,3.46,3.46,0,0,0,1.449-.345,5.842,5.842,0,0,0,3.148-5.487,2.934,2.934,0,0,0-1.365-2.363" transform="translate(-1663.559 -599.991)"/>
            <path id="Trazado_1279408" data-name="Trazado 1279408" d="M1804.13,668.943c-.949-.1-2.236.488-2.751,2.5a.31.31,0,0,0,.232.379,1.7,1.7,0,0,1,1.038.714,1.073,1.073,0,0,1-.109.952.307.307,0,0,0-.02.235.308.308,0,0,0,.568.048,1.646,1.646,0,0,0,.122-1.494,2.055,2.055,0,0,0-1.151-.958c.449-1.4,1.344-1.829,2.008-1.757.417.045.714.284.725.583a.309.309,0,0,0,.319.3.31.31,0,0,0,.3-.319,1.321,1.321,0,0,0-1.281-1.177" transform="translate(-1678.564 -623.328)"/>
            <path id="Trazado_1279409" data-name="Trazado 1279409" d="M1598.284,823.06s-.173,2.291-.167,2.22c.1-1.3,4.037-1.588,2.842-1.648a14.941,14.941,0,0,1-2.675-.572" transform="translate(-1489.168 -766.949)"/>
            <path id="Trazado_1279410" data-name="Trazado 1279410" d="M1596.736,819.083a14.5,14.5,0,0,1-2.6-.559.312.312,0,0,0-.138-.01.306.306,0,0,0-.128.05.307.307,0,0,0-.134.233l-.167,2.216a.323.323,0,0,0,.014.12.314.314,0,0,0,.06.106.3.3,0,0,0,.1.074.313.313,0,0,0,.117.033h.043c.179,0,.245-.095.278-.289h.01c.048-.629,1.745-1.042,2.384-1.2.488-.119.71-.172.683-.464s-.323-.3-.518-.314m-2.472.963.062-.822c.29.082.716.2,1.163.292a5.074,5.074,0,0,0-1.225.53" transform="translate(-1484.93 -762.709)"/>
            <path id="Trazado_1279411" data-name="Trazado 1279411" d="M1028.6,829.262c-.176-.372-1.191-5.6-2.317-6.728s-9.3-2.548-9.462-.12c-.08,1.219,1.18,1.492,1.911,1.545,0,0-1.673.8-1.458,1.833,0,0-.76.909-.456,1.68.411,1.038,3.027,1.211,3.027,1.211l9.666,1.619-.4-.388a3.118,3.118,0,0,1-.509-.652" transform="translate(-947.432 -765.106)" fill="#fff"/>
            <path id="Trazado_1279412" data-name="Trazado 1279412" d="M1015.143,887.222c-.927-.061-2.513-.391-2.76-1.015-.194-.489.227-1.153.4-1.369a.309.309,0,0,0-.474-.4,2.261,2.261,0,0,0-.506,1.992c.464,1.187,3.007,1.391,3.295,1.4h.021a.308.308,0,0,0,.318-.3.308.308,0,0,0-.3-.318Z" transform="translate(-942.743 -824.051)"/>
            <path id="Trazado_1279413" data-name="Trazado 1279413" d="M1025.071,823.388c-.034-.079-.139-.51-.241-.927-.427-1.735-1.221-4.968-2.135-5.889-1-1.01-6.51-2.1-8.835-1.228a1.5,1.5,0,0,0-.729,2.516,3.447,3.447,0,0,0,2.318.678.309.309,0,1,0-.037-.618,2.8,2.8,0,0,1-1.84-.5.92.92,0,0,1-.208-.339.908.908,0,0,1-.041-.4c.01-.122.033-.494.755-.765,2.184-.817,7.4.3,8.18,1.082s1.592,4.043,1.974,5.6a8.7,8.7,0,0,0,.282,1.038,5.435,5.435,0,0,0,.983,1.142.311.311,0,0,0,.1.062.317.317,0,0,0,.121.018.312.312,0,0,0,.215-.1.319.319,0,0,0,.062-.1.315.315,0,0,0,.018-.121.332.332,0,0,0-.03-.118.321.321,0,0,0-.073-.1,4.553,4.553,0,0,1-.842-.935" transform="translate(-943.656 -759.463)"/>
            <path id="Trazado_1279414" data-name="Trazado 1279414" d="M1021.658,863.127c-.016,0-1.616.372-1.918-.485s.805-1.365.856-1.391a.309.309,0,0,0,.1-.07.3.3,0,0,0,.064-.1.309.309,0,0,0,.021-.119.316.316,0,0,0-.027-.118.306.306,0,0,0-.07-.1.32.32,0,0,0-.1-.065.325.325,0,0,0-.119-.021.317.317,0,0,0-.117.027,1.824,1.824,0,0,0-1.19,2.163,1.686,1.686,0,0,0,1.749.981,4.131,4.131,0,0,0,.9-.1.31.31,0,0,0,.222-.377.308.308,0,0,0-.142-.19.311.311,0,0,0-.234-.033Z" transform="translate(-949.594 -801.985)"/>
            <path id="Trazado_1279415" data-name="Trazado 1279415" d="M1025.071,823.388c-.034-.079-.139-.51-.241-.927-.427-1.735-1.221-4.968-2.135-5.889-1-1.01-6.51-2.1-8.835-1.228a1.5,1.5,0,0,0-.729,2.516,3.447,3.447,0,0,0,2.318.678.309.309,0,1,0-.037-.618,2.8,2.8,0,0,1-1.84-.5.92.92,0,0,1-.208-.339.908.908,0,0,1-.041-.4c.01-.122.033-.494.755-.765,2.184-.817,7.4.3,8.18,1.082s1.592,4.043,1.974,5.6a8.7,8.7,0,0,0,.282,1.038,5.435,5.435,0,0,0,.983,1.142.311.311,0,0,0,.1.062.317.317,0,0,0,.121.018.312.312,0,0,0,.215-.1.319.319,0,0,0,.062-.1.315.315,0,0,0,.018-.121.332.332,0,0,0-.03-.118.321.321,0,0,0-.073-.1,4.553,4.553,0,0,1-.842-.935" transform="translate(-943.656 -759.463)"/>
            <path id="Trazado_1279416" data-name="Trazado 1279416" d="M988.391,771.883a1.093,1.093,0,0,0-.935.414,1.488,1.488,0,0,0-.477.992l10.223,9.782a2.472,2.472,0,0,0,1.015-.772,2.538,2.538,0,0,0,.627-.978c.045-.162-10.453-9.438-10.453-9.438" transform="translate(-919.693 -719.255)"/>
            <path id="Trazado_1279417" data-name="Trazado 1279417" d="M993.221,775.238c-.867-.79-2.077-1.88-3.6-3.245-2.59-2.318-5.218-4.636-5.245-4.659a.305.305,0,0,0-.14-.071,1.385,1.385,0,0,0-1.221.5,1.757,1.757,0,0,0-.562,1.218.319.319,0,0,0,.026.115.3.3,0,0,0,.069.1l10.221,9.786a.307.307,0,0,0,.215.087.351.351,0,0,0,.085-.012,2.724,2.724,0,0,0,1.162-.867,2.828,2.828,0,0,0,.693-1.1c.065-.23.065-.235-1.7-1.851m.545,2.546a2.767,2.767,0,0,1-.723.609l-9.961-9.534a1.345,1.345,0,0,1,.374-.658.947.947,0,0,1,.589-.326c3.809,3.365,9.411,8.359,10.229,9.2a2.937,2.937,0,0,1-.507.711" transform="translate(-915.477 -714.944)"/>
            <path id="Trazado_1279418" data-name="Trazado 1279418" d="M1057.607,852.813a1.507,1.507,0,0,1-1.361-1.126c-.234-.656-.332-4.4-2.117-4.337s-1.213,1.435-.993,2.968.154,2.627.772,3.48c.746,1.046,2.985,1.236,3.863,1.834a32.793,32.793,0,0,1,2.378,2.494,4.243,4.243,0,0,0,2.473-.8,3.837,3.837,0,0,0,.687-2.387Z" transform="translate(-981.094 -789.583)" fill="#fff"/>
            <path id="Trazado_1279419" data-name="Trazado 1279419" d="M1059.184,850.4a.316.316,0,0,0-.215.1.31.31,0,0,0-.063.1.325.325,0,0,0-.018.12,3.4,3.4,0,0,1-.6,2.163,3.7,3.7,0,0,1-2.126.7l-.06-.068a24.866,24.866,0,0,0-2.276-2.368,6.465,6.465,0,0,0-1.545-.627,4.537,4.537,0,0,1-2.235-1.131,4.7,4.7,0,0,1-.588-2.265c-.035-.34-.073-.692-.128-1.081-.034-.238-.078-.471-.118-.7-.125-.694-.244-1.351,0-1.648a1.086,1.086,0,0,1,.819-.271h.029c1.106,0,1.441,2.145,1.622,3.3a5.5,5.5,0,0,0,.164.832,1.8,1.8,0,0,0,1.659,1.331.309.309,0,0,0-.01-.618,1.213,1.213,0,0,1-1.066-.927,5.94,5.94,0,0,1-.134-.717c-.211-1.357-.607-3.875-2.284-3.825a1.619,1.619,0,0,0-1.278.5c-.418.517-.275,1.309-.123,2.146.038.219.08.446.112.674.054.377.09.722.125,1.057a5.08,5.08,0,0,0,.7,2.559,5,5,0,0,0,2.553,1.363,6.148,6.148,0,0,1,1.391.547,24.1,24.1,0,0,1,2.163,2.27l.17.187a.312.312,0,0,0,.219.091,4.532,4.532,0,0,0,2.695-.887,4.053,4.053,0,0,0,.772-2.618.313.313,0,0,0-.029-.119.311.311,0,0,0-.3-.178" transform="translate(-976.982 -785.352)"/>
            <path id="Trazado_1279420" data-name="Trazado 1279420" d="M1022.643,887.4c-.016,0-1.616.372-1.918-.485a.31.31,0,0,0-.158-.177.33.33,0,0,0-.117-.03.31.31,0,0,0-.119.018.305.305,0,0,0-.1.061.317.317,0,0,0-.072.1.3.3,0,0,0-.03.117.314.314,0,0,0,.017.12,1.685,1.685,0,0,0,1.749.981,4.083,4.083,0,0,0,.9-.1.309.309,0,0,0-.154-.6Z" transform="translate(-950.579 -826.255)"/>
            <path id="Trazado_1279421" data-name="Trazado 1279421" d="M1015.143,887.222c-.927-.061-2.513-.391-2.76-1.015-.194-.489.227-1.153.4-1.369a.309.309,0,0,0-.474-.4,2.261,2.261,0,0,0-.506,1.992c.464,1.187,3.007,1.391,3.295,1.4h.021a.308.308,0,0,0,.318-.3.308.308,0,0,0-.3-.318Z" transform="translate(-942.743 -824.051)"/>
            <path id="Trazado_1279422" data-name="Trazado 1279422" d="M965.284,749.824a.464.464,0,0,0-.638.672l1.8,1.717a.464.464,0,1,0,.639-.672Z" transform="translate(-898.755 -698.594)"/>
            <path id="Trazado_1279423" data-name="Trazado 1279423" d="M1739.073,2303.825c-.927.155-.87-2.435-2.693-2.517-2.826-.128-3.3.864-3.809,2.42-.483,1.5-.628,2.97-.262,6.168.309,2.772-.927,6.644-.763,8.19.108.986,2.262,2.394,3.566,2.812s7.554,0,8.363-.239,1.934-2.044,1.929-3.431c-.014-3.546-5.139-13.6-6.331-13.4" transform="translate(-1613.486 -2144.41)" fill="#b6b6b6"/>
            <path id="Trazado_1279424" data-name="Trazado 1279424" d="M1735.455,2299.6a.837.837,0,0,0-.672-.258c-.155.028-.32-.272-.548-.732-.363-.732-.859-1.733-2.081-1.79-2.991-.134-3.572.955-4.116,2.627-.464,1.44-.661,2.936-.276,6.3a19.9,19.9,0,0,1-.436,5.124,13.41,13.41,0,0,0-.327,3.071c.138,1.248,2.568,2.684,3.78,3.074a10.119,10.119,0,0,0,2.419.189,40.63,40.63,0,0,0,6.125-.427c1.01-.3,2.163-2.286,2.151-3.729-.012-3.346-4.288-11.993-6.018-13.448m5.407,13.458a4.075,4.075,0,0,1-1.708,3.134c-.713.21-6.937.64-8.18.241-1.332-.428-3.27-1.793-3.353-2.551a13.347,13.347,0,0,1,.322-2.9,20.08,20.08,0,0,0,.44-5.3c-.374-3.271-.2-4.645.251-6.037.482-1.489.884-2.317,3.5-2.207.858.04,1.211.755,1.554,1.446.283.573.578,1.165,1.191,1.069.371.082,1.7,1.813,3.383,5.313,1.241,2.594,2.586,6,2.593,7.79Z" transform="translate(-1609.247 -2140.225)"/>
            <path id="Trazado_1279425" data-name="Trazado 1279425" d="M1743.438,2431.324a5.51,5.51,0,0,1-1.479,5.386c-.517.442-2.472.751-4.242.27a11.574,11.574,0,0,1-4.214-3.94c-.309-.772.091-.939-.445-1.986s-.721-.464-.721-.464c.1,2.745-.948,6.335-.784,7.824.108.986,2.263,2.394,3.567,2.812l8.362-.24c.808-.239,1.935-2.044,1.93-3.43,0-1.545-.984-4.282-2.177-6.859.072.239.139.448.2.626" transform="translate(-1613.49 -2264.739)"/>
            <path id="Trazado_1279426" data-name="Trazado 1279426" d="M1738.791,2426.168a.309.309,0,0,0-.183.381c.074.234.144.444.206.618a5.2,5.2,0,0,1-1.391,5.05,5.793,5.793,0,0,1-3.962.208,11.623,11.623,0,0,1-4.008-3.759,1.517,1.517,0,0,1-.116-.666,2.528,2.528,0,0,0-.34-1.343c-.2-.382-.464-.819-.849-.788a.525.525,0,0,0-.277.121.519.519,0,0,0-.163.254.331.331,0,0,0-.016.11,25.147,25.147,0,0,1-.464,4.635,14.5,14.5,0,0,0-.32,3.209c.138,1.247,2.568,2.684,3.78,3.073a.34.34,0,0,0,.094.014.3.3,0,0,0,.2-.075.309.309,0,0,0-.1-.527c-1.332-.428-3.27-1.794-3.353-2.551a14.733,14.733,0,0,1,.309-3.045,28.587,28.587,0,0,0,.476-4.382c.038.061.082.138.131.235a1.952,1.952,0,0,1,.272,1.063,2.106,2.106,0,0,0,.155.9c.442,1.082,3.244,3.8,4.417,4.121,1.763.477,3.878.211,4.524-.334a6.249,6.249,0,0,0,1.809-3.73,14.142,14.142,0,0,1,1.134,4.351,4.076,4.076,0,0,1-1.709,3.134.31.31,0,0,0-.112.053.309.309,0,0,0,.046.521.3.3,0,0,0,.119.033.307.307,0,0,0,.123-.016c1.011-.3,2.164-2.285,2.151-3.729,0-2.019-1.545-5.563-2.2-6.987a.308.308,0,0,0-.374-.151" transform="translate(-1609.161 -2260.488)"/>
            <path id="Trazado_1279427" data-name="Trazado 1279427" d="M1744.921,2501.066s-1.057,4.152-2.113,3.962a3.385,3.385,0,0,1-1.176-.567,2.881,2.881,0,0,0-1.5.134,6.769,6.769,0,0,1-3.322.672c-1.638-.561-5.064-3.85-5.064-3.85l-.023.031a11.651,11.651,0,0,0-.235,2.613c.108.986,2.262,2.394,3.566,2.812s7.554,0,8.362-.24,1.935-2.044,1.93-3.43a8.751,8.751,0,0,0-.423-2.333Z" transform="translate(-1613.428 -2330.377)" fill="#fff"/>
            <path id="Trazado_1279428" data-name="Trazado 1279428" d="M1740.72,2496.357a.311.311,0,0,0-.266.31v.154c-.517,2.009-1.35,3.769-1.749,3.7a1.767,1.767,0,0,1-.814-.371,1.059,1.059,0,0,0-.332-.19,3.175,3.175,0,0,0-1.71.155,6.71,6.71,0,0,1-3.1.665c-1.554-.532-4.914-3.75-4.945-3.783a.3.3,0,0,0-.111-.068.316.316,0,0,0-.13-.017.306.306,0,0,0-.125.039.31.31,0,0,0-.1.087l-.023.033a.311.311,0,0,0-.057.134,11.926,11.926,0,0,0-.236,2.695c.137,1.247,2.568,2.684,3.779,3.073a10.126,10.126,0,0,0,2.42.19,40.576,40.576,0,0,0,6.125-.427c1.011-.3,2.163-2.286,2.151-3.729a9.416,9.416,0,0,0-.436-2.419.307.307,0,0,0-.128-.179.312.312,0,0,0-.215-.048m-1.552,5.774c-.712.21-6.936.64-8.18.241-1.331-.428-3.27-1.794-3.353-2.551a9.027,9.027,0,0,1,.155-2.009c.974.9,3.409,3.069,4.763,3.533.754.259,2.528-.243,3.545-.682a2.647,2.647,0,0,1,1.292-.122,1.159,1.159,0,0,1,.139.094,2.358,2.358,0,0,0,1.07.482c.954.17,1.721-1.69,2.163-3.143a5.841,5.841,0,0,1,.112,1.015,4.053,4.053,0,0,1-1.706,3.14Z" transform="translate(-1609.269 -2326.169)"/>
            <path id="Trazado_1279429" data-name="Trazado 1279429" d="M1777.417,2334.976a3.832,3.832,0,0,0-2.091-.507c-.9.077-2.593.348-2.741,1.476s.95,6.568,1.569,7.485a4.2,4.2,0,0,0,4.146,1.557,2.541,2.541,0,0,0,1.974-1.987c0-.768-2.176-7.734-2.857-8.024" transform="translate(-1651.729 -2175.309)"/>
            <path id="Trazado_1279430" data-name="Trazado 1279430" d="M1773.343,2330.474l-.245-.107a3.661,3.661,0,0,0-1.991-.423c-2.335.2-2.936,1.059-3.021,1.743-.155,1.17.927,6.672,1.619,7.7a4.347,4.347,0,0,0,3.625,1.75,5.633,5.633,0,0,0,.821-.06,2.815,2.815,0,0,0,2.239-2.293,28.165,28.165,0,0,0-1.188-4.289c-1.272-3.767-1.7-3.949-1.858-4.019m.717,9.99a3.877,3.877,0,0,1-3.844-1.425,25.3,25.3,0,0,1-1.517-7.271c.115-.876,1.59-1.133,2.46-1.209.089,0,.176-.011.258-.011a3.306,3.306,0,0,1,1.432.383l.238.106c.564.463,2.684,6.914,2.684,7.746a2.254,2.254,0,0,1-1.71,1.681" transform="translate(-1647.535 -2171.09)"/>
            <path id="Trazado_1279431" data-name="Trazado 1279431" d="M1812.4,2450.451c-1.205.139-1.874.417-1.984.825a.307.307,0,0,0,.217.378.266.266,0,0,0,.08.011.306.306,0,0,0,.292-.207,5.5,5.5,0,0,1,3.112-.364.305.305,0,0,0,.192.119.308.308,0,0,0,.222-.043.308.308,0,0,0,.106-.407c-.254-.469-1.511-.4-2.237-.312" transform="translate(-1686.98 -2283.337)" fill="#fff"/>
            <path id="Trazado_1279432" data-name="Trazado 1279432" d="M1805.509,2421.681c-1.251.212-1.353.6-1.39.727a.308.308,0,0,0,.031.234.314.314,0,0,0,.188.143.322.322,0,0,0,.079.011.309.309,0,0,0,.294-.212,2.685,2.685,0,0,1,1.308-.349,3.882,3.882,0,0,1,1.82.107.309.309,0,0,0,.505-.355c-.383-.576-2.224-.408-2.835-.306" transform="translate(-1681.116 -2256.49)" fill="#fff"/>
            <path id="Trazado_1279433" data-name="Trazado 1279433" d="M1751.1,2332.2a.957.957,0,0,0,.906.269l-1.571-1.52a2.9,2.9,0,0,0,.665,1.252" transform="translate(-1631.097 -2172.041)" fill="#b6b6b6"/>
            <path id="Trazado_1279434" data-name="Trazado 1279434" d="M1747.7,2327.984a.641.641,0,0,1-.6-.171,2.671,2.671,0,0,1-.6-1.1.3.3,0,0,0-.044-.112.32.32,0,0,0-.084-.087.31.31,0,0,0-.481.308,3.231,3.231,0,0,0,.736,1.39,1.176,1.176,0,0,0,.913.407,1.308,1.308,0,0,0,.3-.031.31.31,0,0,0,.109-.052.308.308,0,0,0,.12-.2.314.314,0,0,0-.007-.121.308.308,0,0,0-.256-.229.31.31,0,0,0-.121.007Z" transform="translate(-1626.869 -2167.855)"/>
            <path id="Trazado_1279435" data-name="Trazado 1279435" d="M1714.638,2383.955l-.081-.065a5.3,5.3,0,0,0-1.73,3.562c-.334,2.149,1.545,2.333,1.721,3.77a16.86,16.86,0,0,0,.3-4.364,27.517,27.517,0,0,1-.206-2.9" transform="translate(-1596.021 -2221.372)" fill="#fff"/>
            <path id="Trazado_1279436" data-name="Trazado 1279436" d="M1710.817,2379.738a.311.311,0,0,0-.113-.237l-.082-.066a.309.309,0,0,0-.182-.069.315.315,0,0,0-.187.053,5.547,5.547,0,0,0-1.854,3.769,2.816,2.816,0,0,0,.984,2.663,2.109,2.109,0,0,1,.734,1.192.309.309,0,0,0,.309.272.309.309,0,0,0,.309-.26,16.949,16.949,0,0,0,.3-4.448,27.6,27.6,0,0,1-.215-2.869m-.546,6.18a6.558,6.558,0,0,0-.449-.5,2.187,2.187,0,0,1-.819-2.137,6.016,6.016,0,0,1,1.209-2.965c.027.681.09,1.458.194,2.36a13.422,13.422,0,0,1-.135,3.246Z" transform="translate(-1591.89 -2217.156)"/>
            <path id="Trazado_1279437" data-name="Trazado 1279437" d="M1796.846,2394.308c-1.252.21-1.354.6-1.391.725a.3.3,0,0,0,.031.235.291.291,0,0,0,.08.091.3.3,0,0,0,.108.053.339.339,0,0,0,.078.01.31.31,0,0,0,.294-.211,2.692,2.692,0,0,1,1.309-.349,3.849,3.849,0,0,1,1.82.109.306.306,0,0,0,.2.119.311.311,0,0,0,.226-.052.307.307,0,0,0,.126-.195.312.312,0,0,0-.045-.228c-.383-.576-2.222-.41-2.835-.305" transform="translate(-1673.043 -2230.982)" fill="#fff"/>
            <path id="Trazado_1279438" data-name="Trazado 1279438" d="M1823.99,2553.54l-1.774.076c.072,1.786-2.366,2.516-2.366,2.516s2.683-.048,3.818-.108a8.492,8.492,0,0,0,1.925-.309c-1.641.085-1.6-2.174-1.6-2.174" transform="translate(-1695.785 -2379.457)"/>
            <path id="Trazado_1279439" data-name="Trazado 1279439" d="M1821.422,2551.179a.97.97,0,0,1-.4-.047.958.958,0,0,1-.349-.211,2.56,2.56,0,0,1-.524-1.6.319.319,0,0,0-.023-.124.307.307,0,0,0-.069-.1.309.309,0,0,0-.229-.086l-1.775.076a.308.308,0,0,0-.3.321c.062,1.522-2.123,2.2-2.145,2.207a.309.309,0,0,0-.17.13.305.305,0,0,0-.044.209.309.309,0,0,0,.3.265c.027,0,2.7-.048,3.829-.106a8.7,8.7,0,0,0,2.008-.324.309.309,0,0,0-.111-.6m-1.924.309c-.581.031-1.578.059-2.406.079a2.651,2.651,0,0,0,1.269-1.881l1.181-.051a2.837,2.837,0,0,0,.7,1.73l.051.046c-.236.033-.5.062-.791.075Z" transform="translate(-1691.629 -2375.23)"/>
            <path id="Trazado_1279440" data-name="Trazado 1279440" d="M1213.427,914.631c-.952,1.7-2.6,5.789-2.6,5.789l1.259,1.822c-.671-.7-3.554-3.291-5.32-4.791s-7.055-4.779-7.055-4.779l-3.782,4.36a75.839,75.839,0,0,0,6.265,7.995c2.248,2.171,6.989,5.839,9.793,5.124s8.848-23.7,8.848-23.7a7.783,7.783,0,0,0-2.962,1.607c-1.277,1.174-3.5,4.872-4.447,6.575" transform="translate(-1114.399 -844.654)" fill="#9fa4d5"/>
            <path id="Trazado_1279441" data-name="Trazado 1279441" d="M1216.633,901.832a7.975,7.975,0,0,0-3.09,1.68c-1.293,1.19-3.514,4.872-4.509,6.644-.948,1.7-2.546,5.658-2.615,5.827a.282.282,0,0,0-.015.048c-1.148-1.04-2.568-2.291-3.554-3.132-1.759-1.493-6.876-4.673-7.094-4.808a.309.309,0,0,0-.4.059l-3.783,4.352a.312.312,0,0,0-.075.185.306.306,0,0,0,.054.192,73.3,73.3,0,0,0,6.305,8.035c2.163,2.079,6.32,5.3,9.254,5.3a3.272,3.272,0,0,0,.83-.1c.476-.12,1.919-.488,5.694-12.322,1.841-5.776,3.36-11.539,3.376-11.589a.313.313,0,0,0,0-.159.316.316,0,0,0-.079-.138.3.3,0,0,0-.138-.08.306.306,0,0,0-.159,0Zm-3.589,11.789c-3.313,10.384-4.781,11.789-5.253,11.911-2.667.68-7.383-3.006-9.5-5.048a71.286,71.286,0,0,1-6.088-7.751l3.452-3.971c1.022.639,5.277,3.326,6.8,4.614,1.842,1.564,4.664,4.1,5.3,4.762a.3.3,0,0,0,.1.075.3.3,0,0,0,.242.011.3.3,0,0,0,.1-.065.314.314,0,0,0,.071-.1.306.306,0,0,0,.024-.121.311.311,0,0,0-.024-.121.308.308,0,0,0-.07-.1c-.241-.252-.753-.733-1.391-1.314a.307.307,0,0,0,.191-.179c.017-.04,1.651-4.088,2.58-5.754.981-1.751,3.145-5.362,4.381-6.5a7.268,7.268,0,0,1,2.318-1.363c-.432,1.576-1.721,6.293-3.228,11.018" transform="translate(-1110.273 -840.336)"/>
            <path id="Trazado_1279442" data-name="Trazado 1279442" d="M1164.42,956.051a8.681,8.681,0,0,0-1.854-1.151,4.43,4.43,0,0,1-1.236,2.531c-1.151,1.2-1.76.913-1.76.913a6.048,6.048,0,0,0,.958,2.164,10.849,10.849,0,0,0,1.521,1.673,4.815,4.815,0,0,0,2.5-1.455,4.6,4.6,0,0,0,1.286-2.9,7.312,7.312,0,0,0-1.411-1.779" transform="translate(-1080.518 -889.801)" fill="#aeee58"/>
            <path id="Trazado_1279443" data-name="Trazado 1279443" d="M1160.38,951.6a8.877,8.877,0,0,0-1.93-1.2.31.31,0,0,0-.145-.025.31.31,0,0,0-.243.148.308.308,0,0,0-.044.14,4.174,4.174,0,0,1-1.152,2.338c-.869.907-1.344.855-1.414.842a.282.282,0,0,0-.309.02.311.311,0,0,0-.111.325,6.288,6.288,0,0,0,1.012,2.284,11.152,11.152,0,0,0,1.571,1.724.309.309,0,0,0,.2.073h.04a5.154,5.154,0,0,0,2.674-1.546,4.878,4.878,0,0,0,1.377-3.109.323.323,0,0,0-.039-.155,7.542,7.542,0,0,0-1.487-1.86m-.291,4.685a4.95,4.95,0,0,1-2.19,1.34,11,11,0,0,1-1.361-1.521,5.543,5.543,0,0,1-.8-1.653,3.078,3.078,0,0,0,1.58-1.023,4.9,4.9,0,0,0,1.25-2.284,7.825,7.825,0,0,1,1.415.927,6.906,6.906,0,0,1,1.3,1.612,4.321,4.321,0,0,1-1.188,2.6" transform="translate(-1076.28 -885.589)"/>
            <path id="Trazado_1279444" data-name="Trazado 1279444" d="M1187.535,1016.457a.62.62,0,0,0-.61.316.618.618,0,0,0,1.014.7.617.617,0,0,0-.4-1.012" transform="translate(-1105.937 -947.158)"/>
            <path id="Trazado_1279445" data-name="Trazado 1279445" d="M1185.439,1014.2a.773.773,0,0,0-.171,1.536h.087a.772.772,0,0,0,.6-1.254.75.75,0,0,0-.23-.193.758.758,0,0,0-.287-.089m.376.819a.464.464,0,0,1-.805.259.465.465,0,0,1-.08-.5.462.462,0,0,1,.421-.276h.053a.464.464,0,0,1,.41.511Z" transform="translate(-1103.824 -945.051)"/>
            <path id="Trazado_1279446" data-name="Trazado 1279446" d="M1611.81,1670.06s.049,6.819.607,17.828c.119,2.361.44,5.062.87,7.849v-.01Z" transform="translate(-1501.927 -1556.206)"/>
            <path id="Trazado_1279447" data-name="Trazado 1279447" d="M1434.158,1475.91l-26.467,1.021s-2.656,14.314-3.535,27.425-.437,28.714-.437,28.714.772,1.37,7.551,1.826c4.549.309,5.773-.057,5.583-.1a137.156,137.156,0,0,0,2.424-19.97c-.429-2.781-.751-5.488-.87-7.849-.558-11.009-.607-17.828-.607-17.828l1.477,25.667v.01c1.576,10.215,4.624,21.586,4.624,21.586s1.265.837,7.172.837c6.181,0,6.415-1.749,6.415-1.749s.682-16.4,0-29.642a272.442,272.442,0,0,0-3.33-29.945" transform="translate(-1307.919 -1375.292)"/>
            <path id="Trazado_1279448" data-name="Trazado 1279448" d="M1430.5,1471.625a.31.31,0,0,0-.309-.255l-26.467,1.023a.308.308,0,0,0-.292.251c-.026.144-2.665,14.48-3.535,27.461s-.442,28.585-.438,28.74a.315.315,0,0,0,.04.142c.087.155,1.043,1.53,7.8,1.983a37.414,37.414,0,0,0,4.422.093c1.449-.08,1.476-.247,1.505-.442a.3.3,0,0,0,0-.1,148.15,148.15,0,0,0,2.277-17c1.634,9.295,4.114,18.6,4.149,18.731a.311.311,0,0,0,.128.178c.054.036,1.41.888,7.343.888,6.264,0,6.693-1.809,6.721-2.008a.248.248,0,0,0,0-.03c0-.165.674-16.57,0-29.667a280.363,280.363,0,0,0-3.344-29.987m2.719,59.592c-.051.139-.693,1.485-6.108,1.485-4.849,0-6.526-.575-6.909-.742-.447-1.689-4.926-18.876-5.45-29.238-.55-10.875-.605-17.748-.605-17.816a.309.309,0,0,0-.618,0c0,.068.057,6.953.607,17.842.119,2.351.439,5.05.87,7.839a136.708,136.708,0,0,1-2.389,19.751,23.3,23.3,0,0,1-5.289,0c-5.646-.378-7.021-1.4-7.263-1.633-.037-1.409-.393-16.2.439-28.576.791-12,3.124-25.189,3.475-27.13l25.95-1a275.492,275.492,0,0,1,3.283,29.642c.658,12.794.035,28.752,0,29.583Z" transform="translate(-1303.95 -1371.061)"/>
            <path id="Trazado_1279449" data-name="Trazado 1279449" d="M1600.248,1770.819a.309.309,0,0,0-.618,0,133.171,133.171,0,0,0,1.431,18.542.311.311,0,0,0,.309.258h.053a.3.3,0,0,0,.116-.045.3.3,0,0,0,.089-.087.308.308,0,0,0,.048-.115.3.3,0,0,0,0-.124,131.94,131.94,0,0,1-1.426-18.429" transform="translate(-1490.578 -1649.808)" fill="#fff"/>
            <path id="Trazado_1279450" data-name="Trazado 1279450" d="M1764.326,1502.149a7.435,7.435,0,0,1-3.863-1.581c-2.473-1.78-3.4-5.856-3.413-5.9a.306.306,0,0,0-.049-.11.3.3,0,0,0-.087-.083.3.3,0,0,0-.112-.044.3.3,0,0,0-.121,0,.312.312,0,0,0-.11.048.308.308,0,0,0-.083.087.313.313,0,0,0-.044.112.3.3,0,0,0,0,.121c.04.178,1,4.345,3.654,6.264a7.876,7.876,0,0,0,4.225,1.7.309.309,0,0,0,0-.618Z" transform="translate(-1636.696 -1392.548)" fill="#fff"/>
            <path id="Trazado_1279451" data-name="Trazado 1279451" d="M1447.173,1496.742a.308.308,0,0,0-.375.223,13.174,13.174,0,0,1-3.047,5.349.3.3,0,0,0-.067.1.306.306,0,0,0,0,.237.3.3,0,0,0,.067.1.31.31,0,0,0,.337.066.3.3,0,0,0,.1-.068,13.674,13.674,0,0,0,3.208-5.63.315.315,0,0,0,.007-.121.3.3,0,0,0-.04-.114.31.31,0,0,0-.189-.142" transform="translate(-1345.241 -1394.695)" fill="#fff"/>
            <path id="Trazado_1279452" data-name="Trazado 1279452" d="M1678.219,1350.019c1.329.185,4.244.49,6.268.575l-11.347-1.933a14.719,14.719,0,0,0,5.079,1.359" transform="translate(-1559.076 -1256.717)" fill="#aeee58"/>
            <path id="Trazado_1279453" data-name="Trazado 1279453" d="M1460.979,899.855c-2.781-.481-12.378-.977-14.208-.328-1.247.442-2.529,2.627-3.752,5.033-.828,1.636-2.695,6.655-3.721,14.769-1.021,8.07-1.264,16.764-.275,19.014.886,2.017,6.716,2.2,10.68,2.661s15.957.17,17.167-1.9.8-6.233.74-7l-1.865-.318c-2.024-.085-4.945-.389-6.269-.575a14.63,14.63,0,0,1-5.079-1.358l11.347,1.933c.483.022.918.029,1.265.018,2.27-.062,5.47-.376,6.49-1.811,1.719-2.414,1.8-6.067-1.1-16.294s-8.655-13.368-11.427-13.849" transform="translate(-1340.335 -837.914)" fill="#9fa4d5"/>
            <path id="Trazado_1279454" data-name="Trazado 1279454" d="M1462.515,898.694a11.374,11.374,0,0,0-5.831-3.355c-2.563-.445-12.383-1.015-14.37-.309-1.391.493-2.707,2.781-3.923,5.184-.927,1.829-2.76,7.021-3.754,14.871-.939,7.434-1.347,16.687-.25,19.179.811,1.854,4.9,2.245,8.846,2.627.736.071,1.429.139,2.081.215a42.421,42.421,0,0,0,4.453.192c1.613,0,3.426-.056,5.223-.192,4.576-.343,7.2-1.032,7.792-2.049.805-1.372,1.07-3.752.791-7.072l-.009-.107c3.1-.176,5.062-.815,5.838-1.9,1.7-2.373,2.024-5.717-1.051-16.557a23.919,23.919,0,0,0-5.836-10.723m6.389,26.913c-.5.7-1.992,1.565-6.25,1.681a65.62,65.62,0,0,1-7.482-.59,14.761,14.761,0,0,1-4.962-1.316.309.309,0,0,0-.425.1.312.312,0,0,0-.036.234.308.308,0,0,0,.14.191,14.819,14.819,0,0,0,5.2,1.4,64.805,64.805,0,0,0,7.583.6h.282a.147.147,0,0,0,0,.023l.01.108c.334,3.976-.2,5.842-.709,6.709-1.065,1.82-12.709,2.23-16.863,1.748-.658-.078-1.355-.145-2.094-.217-3.42-.332-7.675-.746-8.344-2.262-.909-2.067-.772-10.352.3-18.851.983-7.766,2.781-12.875,3.692-14.668,1.038-2.051,2.383-4.458,3.578-4.88a15.944,15.944,0,0,1,3.9-.3,80.2,80.2,0,0,1,10.146.637,10.734,10.734,0,0,1,5.5,3.184,23.415,23.415,0,0,1,5.682,10.446c3,10.538,2.689,13.855,1.147,16.02" transform="translate(-1335.987 -833.703)"/>
            <path id="Trazado_1279455" data-name="Trazado 1279455" d="M1681.6,1237.084a60.712,60.712,0,0,0-6.335.854l11.842-.813s-1.213-.318-5.507-.042" transform="translate(-1561.061 -1152.643)" fill="#aeee58"/>
            <path id="Trazado_1279456" data-name="Trazado 1279456" d="M1682.614,1232.6c-.052-.014-1.316-.329-5.611-.051a61.211,61.211,0,0,0-6.37.86.313.313,0,0,0-.267.218.328.328,0,0,0-.012.121.313.313,0,0,0,.111.21.31.31,0,0,0,.107.057.3.3,0,0,0,.121.012.276.276,0,0,0,.059,0,62.344,62.344,0,0,1,6.292-.849,22.085,22.085,0,0,1,5.408.032.3.3,0,0,0,.24-.027.3.3,0,0,0,.093-.081.319.319,0,0,0,.055-.111.313.313,0,0,0-.036-.239.323.323,0,0,0-.085-.09.315.315,0,0,0-.113-.05Z" transform="translate(-1556.479 -1148.42)"/>
            <path id="Trazado_1279457" data-name="Trazado 1279457" d="M1770.922,1076.718a21.576,21.576,0,0,0,1.968,5.151l-2.749-11.349a53.528,53.528,0,0,0,.782,6.2" transform="translate(-1649.464 -997.539)" fill="#aeee58"/>
            <path id="Trazado_1279458" data-name="Trazado 1279458" d="M1766.994,1072.438a53.653,53.653,0,0,1-.772-6.154.31.31,0,0,0-.618.036,54.072,54.072,0,0,0,.787,6.236,21.11,21.11,0,0,0,1.066,3.277c.8,1.984.992,2.063,1.081,2.1a.313.313,0,0,0,.119.023.309.309,0,0,0,.2-.543,24.116,24.116,0,0,1-1.864-4.976" transform="translate(-1645.235 -993.32)"/>
            <path id="Trazado_1279459" data-name="Trazado 1279459" d="M1559.47,889.571a.309.309,0,0,0-.391.194,84.609,84.609,0,0,0-3.536,19.065c-.736,11.205-.289,22.361-.289,22.473a.309.309,0,0,0,.31.3h.012a.318.318,0,0,0,.117-.028.309.309,0,0,0,.1-.072.3.3,0,0,0,.063-.1.307.307,0,0,0,.019-.119c0-.11-.442-11.234.292-22.4a83.884,83.884,0,0,1,3.5-18.908.307.307,0,0,0-.091-.335.3.3,0,0,0-.106-.059" transform="translate(-1449.103 -828.911)"/>
            <path id="Trazado_1279460" data-name="Trazado 1279460" d="M1200.19,1123.06l6.811,20.561,15.263.331-2.363-20.135Z" transform="translate(-1118.369 -1046.497)" fill="#fff"/>
            <path id="Trazado_1279461" data-name="Trazado 1279461" d="M1216,1119.547a.308.308,0,0,0-.3-.273l-19.711-.757a.311.311,0,0,0-.145.029.321.321,0,0,0-.114.093.312.312,0,0,0-.046.284l6.81,20.562a.309.309,0,0,0,.11.151.3.3,0,0,0,.177.06l15.263.331a.3.3,0,0,0,.127-.027.307.307,0,0,0,.1-.076.318.318,0,0,0,.065-.113.31.31,0,0,0,.012-.13Zm-12.979,19.536-6.6-19.932,19.005.729,2.291,19.52Z" transform="translate(-1114.157 -1042.263)"/>
            <path id="Trazado_1279462" data-name="Trazado 1279462" d="M1200.19,1123.06l6.811,20.561,15.263.331-2.363-20.135Z" transform="translate(-1118.369 -1046.497)" fill="#fff"/>
            <path id="Trazado_1279463" data-name="Trazado 1279463" d="M1216,1119.547a.308.308,0,0,0-.3-.273l-19.711-.757a.311.311,0,0,0-.145.029.321.321,0,0,0-.114.093.312.312,0,0,0-.046.284l6.81,20.562a.309.309,0,0,0,.11.151.3.3,0,0,0,.177.06l15.263.331a.3.3,0,0,0,.127-.027.307.307,0,0,0,.1-.076.318.318,0,0,0,.065-.113.31.31,0,0,0,.012-.13Zm-12.979,19.536-6.6-19.932,19.005.729,2.291,19.52Z" transform="translate(-1114.157 -1042.263)"/>
            <path id="Trazado_1279464" data-name="Trazado 1279464" d="M1620.257,868.843a18.251,18.251,0,0,1-4.847.052l1.221,4.326a11.888,11.888,0,0,0,6.171-.646,7.975,7.975,0,0,0,3.124-2.429l-3.039-3.007a4.744,4.744,0,0,1-2.63,1.7" transform="translate(-1505.282 -808.024)" fill="#aeee58"/>
            <path id="Trazado_1279465" data-name="Trazado 1279465" d="M1619,862.766a.3.3,0,0,0-.112-.068.309.309,0,0,0-.254.024.314.314,0,0,0-.1.087,4.488,4.488,0,0,1-2.449,1.579,18,18,0,0,1-4.737.045.31.31,0,0,0-.149.019.313.313,0,0,0-.189.222.322.322,0,0,0,0,.151l1.221,4.326a.309.309,0,0,0,.239.219,12.209,12.209,0,0,0,6.349-.666,8.226,8.226,0,0,0,3.256-2.536.309.309,0,0,0-.036-.4Zm-.423,5.371a11.719,11.719,0,0,1-5.806.657l-1.043-3.7a16.56,16.56,0,0,0,4.5-.1,5.117,5.117,0,0,0,2.584-1.545l2.6,2.572a7.815,7.815,0,0,1-2.831,2.12" transform="translate(-1501.174 -803.869)"/>
            <path id="Trazado_1279466" data-name="Trazado 1279466" d="M1563.278,869.46l-2.018,2.522a4.315,4.315,0,0,0,.6,1.735c.5.8.748.9.748.9l2.489-3.478-.718-.415a3.123,3.123,0,0,1-1.1-1.264" transform="translate(-1454.824 -810.186)" fill="#aeee58"/>
            <path id="Trazado_1279467" data-name="Trazado 1279467" d="M1561.014,866.636l-.719-.415a2.823,2.823,0,0,1-.97-1.123.314.314,0,0,0-.1-.123.309.309,0,0,0-.425.056l-2.019,2.522a.311.311,0,0,0-.066.218,4.6,4.6,0,0,0,.643,1.875c.5.794.788.978.888,1.02a.3.3,0,0,0,.119.025.312.312,0,0,0,.252-.129l2.489-3.48a.294.294,0,0,0,.051-.117.307.307,0,0,0-.052-.244.318.318,0,0,0-.095-.086Zm-2.695,3.285a5.1,5.1,0,0,1-.436-.6,4.041,4.041,0,0,1-.535-1.481l1.652-2.064a3.111,3.111,0,0,0,.987.983l.422.244Z" transform="translate(-1450.589 -805.95)"/>
            <path id="Trazado_1279468" data-name="Trazado 1279468" d="M1401.971,1203.012s-2.936-.173-4.283-1.593c-2.334-2.46-3.631-2.182-3.677-2.229l.279,2.539s1.409.876.331,1.418c-1.6.8-4.986,1.252-5.958,1.5s-2.822.855-1.959,2.374a1.57,1.57,0,0,0-.106,1.591,1.707,1.707,0,0,0,1.426.836l.079.144s-.1.331.383.782c.544.506,2.256.536,4.1.269s5-1.712,6.123-1.8a27.163,27.163,0,0,1,3,.046,21.332,21.332,0,0,1-.447-3.017,19.025,19.025,0,0,1,.7-2.857" transform="translate(-1291.912 -1117.437)" fill="#fff"/>
            <path id="Trazado_1279469" data-name="Trazado 1279469" d="M1419.52,1335.134a28.531,28.531,0,0,0-3.047-.049,14.043,14.043,0,0,0-2.689.783,21.874,21.874,0,0,1-3.455,1.017c-2.179.309-3.5.131-3.847-.19-.31-.294-.292-.483-.292-.485a.054.054,0,0,1,0,.022l-.6-.187c-.017.052-.141.531.464,1.1a3.519,3.519,0,0,0,2.218.52,15.541,15.541,0,0,0,2.14-.17,21.686,21.686,0,0,0,3.571-1.043,14.23,14.23,0,0,1,2.533-.751,26.966,26.966,0,0,1,2.955.048.308.308,0,0,0,.225-.075.315.315,0,0,0,.074-.1.318.318,0,0,0,.031-.116.3.3,0,0,0-.015-.12.308.308,0,0,0-.06-.1.305.305,0,0,0-.212-.106Z" transform="translate(-1309.749 -1244.042)"/>
            <path id="Trazado_1279470" data-name="Trazado 1279470" d="M1388.767,1299.447c-1.651.686-6.1,2.124-6.87.558a1.26,1.26,0,0,1-.084-.941c.545.267,1.635.211,3.379-.155,1.578-.335,3.128-.821,3.143-.827a.292.292,0,0,0,.112-.055.3.3,0,0,0,.081-.095.3.3,0,0,0,.037-.119.306.306,0,0,0-.013-.124.3.3,0,0,0-.061-.108.309.309,0,0,0-.1-.076.312.312,0,0,0-.121-.031.3.3,0,0,0-.123.019c-.015,0-1.545.482-3.09.811-2.809.6-3.041.154-3.042.154a.308.308,0,0,0-.243-.208.306.306,0,0,0-.164.017.3.3,0,0,0-.132.1,1.871,1.871,0,0,0-.136,1.916,2.362,2.362,0,0,0,2.308,1.044,16.784,16.784,0,0,0,5.354-1.3.309.309,0,0,0,.158-.4.314.314,0,0,0-.164-.165.311.311,0,0,0-.232,0Z" transform="translate(-1286.984 -1209.021)"/>
            <path id="Trazado_1279471" data-name="Trazado 1279471" d="M1390.04,1231.169a.309.309,0,0,0-.426.1.31.31,0,0,0,.1.425c.286.179.6.494.592.661,0,.093-.167.184-.237.219a21.608,21.608,0,0,1-4.689,1.236c-.526.1-.941.174-1.205.241-1.284.321-2.04.786-2.318,1.418a1.542,1.542,0,0,0,.155,1.408.3.3,0,0,0,.079.091.31.31,0,0,0,.229.062.312.312,0,0,0,.115-.039.319.319,0,0,0,.091-.08.294.294,0,0,0,.054-.108.3.3,0,0,0,.008-.121.309.309,0,0,0-.039-.115.944.944,0,0,1-.126-.859c.128-.3.56-.728,1.892-1.062.244-.062.672-.142,1.167-.234a21.551,21.551,0,0,0,4.853-1.287.874.874,0,0,0,.577-.743c.038-.616-.719-1.12-.872-1.216" transform="translate(-1287.552 -1147.193)"/>
            <path id="Trazado_1279472" data-name="Trazado 1279472" d="M1500.614,1197.622c-.027,0-2.829-.181-4.078-1.5-.972-1.025-2.42-2.255-3.807-2.318a.181.181,0,0,0-.043-.011.31.31,0,0,0-.329.166.323.323,0,0,0-.026.2l.329,2.573a.312.312,0,0,0,.039.115.322.322,0,0,0,.08.092.326.326,0,0,0,.109.054.315.315,0,0,0,.121.009.312.312,0,0,0,.207-.119.313.313,0,0,0,.054-.109.318.318,0,0,0,.008-.121l-.281-2.2a6.647,6.647,0,0,1,3.09,2.091c1.415,1.491,4.365,1.682,4.49,1.689h.027a.308.308,0,0,0,.317-.3.306.306,0,0,0-.084-.221.311.311,0,0,0-.216-.1Z" transform="translate(-1390.588 -1112.407)"/>
            <path id="Trazado_1279473" data-name="Trazado 1279473" d="M1624.72,1081.665l-6.277-.2a.308.308,0,0,0-.221.083.319.319,0,0,0-.1.216l-.121,3.818a2.307,2.307,0,0,0,2.233,2.378l2.282.072h.074a2.3,2.3,0,0,0,2.3-2.233l.12-3.818a.305.305,0,0,0-.083-.221.3.3,0,0,0-.1-.071.3.3,0,0,0-.117-.027m-.44,4.118a1.689,1.689,0,0,1-1.74,1.635l-2.282-.073a1.689,1.689,0,0,1-1.635-1.741l.112-3.509,5.656.179Z" transform="translate(-1507.699 -1007.74)"/>
            <path id="Trazado_1279474" data-name="Trazado 1279474" d="M1625.812,1099.46l-6.275-.254a.309.309,0,0,0-.321.3.31.31,0,0,0,.3.322l6.273.255h.014a.323.323,0,0,0,.119-.021.311.311,0,0,0,.1-.065.314.314,0,0,0,.069-.1.3.3,0,0,0,.026-.117.324.324,0,0,0-.021-.119.309.309,0,0,0-.065-.1.309.309,0,0,0-.217-.095Z" transform="translate(-1508.829 -1024.27)"/>
            <path id="Trazado_1279475" data-name="Trazado 1279475" d="M1604.581,1245.545a12.712,12.712,0,0,0-1.874-.309,7.339,7.339,0,0,0-2.28.286.311.311,0,0,0-.181.145,7.3,7.3,0,0,0-.757,2.806,9.306,9.306,0,0,0,.349,3.281.3.3,0,0,0,.155.182,7.805,7.805,0,0,0,2,.676,21.819,21.819,0,0,0,2.5.164.308.308,0,0,0,.3-.283.315.315,0,0,0-.024-.148,7.57,7.57,0,0,1-.55-3.06,24.563,24.563,0,0,1,.587-3.37.3.3,0,0,0,0-.121.3.3,0,0,0-.227-.248m-.544,6.61a19.46,19.46,0,0,1-1.959-.154,6.774,6.774,0,0,1-1.686-.56,8.832,8.832,0,0,1-.287-2.912,7.328,7.328,0,0,1,.617-2.447,6.652,6.652,0,0,1,1.936-.228,11.472,11.472,0,0,1,1.468.218,22.377,22.377,0,0,0-.53,3.171,7.786,7.786,0,0,0,.44,2.9Z" transform="translate(-1490.424 -1160.341)"/>
            <path id="Trazado_1279476" data-name="Trazado 1279476" d="M1630.356,1312.333a.617.617,0,0,0-.607.32.623.623,0,0,0-.072.351.618.618,0,0,0,1.23.009.607.607,0,0,0-.022-.24.617.617,0,0,0-.112-.214.629.629,0,0,0-.185-.154.612.612,0,0,0-.231-.072" transform="translate(-1518.573 -1222.864)"/>
            <path id="Trazado_1279477" data-name="Trazado 1279477" d="M1628.2,1310.066a.773.773,0,1,0-.171,1.536.6.6,0,0,0,.087,0,.77.77,0,0,0,.085-1.536m.376.819a.464.464,0,1,1-.464-.515.314.314,0,0,1,.052,0,.467.467,0,0,1,.315.17.454.454,0,0,1,.085.162.468.468,0,0,1,.015.182Z" transform="translate(-1516.4 -1220.75)"/>
          </g>
        </g>
      </g>
    </g>
    <rect id="Rectángulo_411907" data-name="Rectángulo 411907" width="283" height="198" transform="translate(875.051 3456)" fill="none"/>
  </g>
</svg>
