<svg xmlns="http://www.w3.org/2000/svg" xmlns:xlink="http://www.w3.org/1999/xlink" width="118" height="118" viewBox="0 0 118 118">
  <defs>
    <filter id="Elipse_12115" x="0" y="0" width="118" height="118" filterUnits="userSpaceOnUse">
      <feOffset dy="3" input="SourceAlpha"/>
      <feGaussianBlur stdDeviation="3" result="blur"/>
      <feFlood flood-opacity="0.161"/>
      <feComposite operator="in" in2="blur"/>
      <feComposite in="SourceGraphic"/>
    </filter>
    <clipPath id="clip-path">
      <path id="path390" d="M0-682.665H52.665V-630H0Z" transform="translate(0 682.665)"/>
    </clipPath>
  </defs>
  <g id="Grupo_1191282" data-name="Grupo 1191282" transform="translate(-1053.348 -2523)">
    <g id="Grupo_1191215" data-name="Grupo 1191215" transform="translate(307.566 -1323)">
      <g id="Grupo_1181949" data-name="Grupo 1181949" transform="translate(-54 1303)">
        <g transform="matrix(1, 0, 0, 1, 799.78, 2543)" filter="url(#Elipse_12115)">
          <g id="Elipse_12115-2" data-name="Elipse 12115" transform="translate(9 6)" fill="#f6bc1c" stroke="#ab8212" stroke-width="1.5">
            <circle cx="50" cy="50" r="50" stroke="none"/>
            <circle cx="50" cy="50" r="49.25" fill="none"/>
          </g>
        </g>
      </g>
    </g>
    <g id="g384" transform="translate(1086.015 3235.332)">
      <g id="g386" transform="translate(0 -682.665)">
        <g id="g388" transform="translate(0 0)" clip-path="url(#clip-path)">
          <g id="g394" transform="translate(13.166 0.771)">
            <path id="path396" d="M0,0,7.766,12.395,0,24.79A12.4,12.4,0,0,0,12.395,12.395,12.4,12.4,0,0,0,0,0" fill="#fac75a"/>
          </g>
          <g id="g398" transform="translate(0.771 0.771)">
            <path id="path400" d="M-148.271-222.715a6.223,6.223,0,0,1-6.223-6.223,6.223,6.223,0,0,1,6.223-6.223,6.223,6.223,0,0,1,6.223,6.223,6.223,6.223,0,0,1-6.223,6.223m9.309-6.223c0-6.845-4.168-12.395-9.309-12.395a12.4,12.4,0,0,0-12.395,12.395,12.4,12.4,0,0,0,12.395,12.395c5.141,0,9.309-5.549,9.309-12.395" transform="translate(160.666 241.333)" fill="#fce06f"/>
          </g>
          <g id="g402" transform="translate(39.499 27.104)">
            <path id="path404" d="M0,0,7.766,12.395,0,24.79A12.4,12.4,0,0,0,12.395,12.395,12.4,12.4,0,0,0,0,0" fill="#fac75a"/>
          </g>
          <g id="g406" transform="translate(27.104 27.104)">
            <path id="path408" d="M-148.271-222.715a6.223,6.223,0,0,1-6.223-6.223,6.223,6.223,0,0,1,6.223-6.223,6.223,6.223,0,0,1,6.223,6.223,6.223,6.223,0,0,1-6.223,6.223m9.309-6.223c0-6.845-4.168-12.395-9.309-12.395a12.4,12.4,0,0,0-12.395,12.395,12.4,12.4,0,0,0,12.395,12.395c5.141,0,9.309-5.549,9.309-12.395" transform="translate(160.666 241.333)" fill="#fce06f"/>
          </g>
          <g id="g410" transform="translate(1.675 1.675)">
            <path id="path412" d="M-589.919,0l-3.273,1.091-44.95,44.95-1.091,3.273a3.086,3.086,0,0,0,4.364,0l44.95-44.95a3.086,3.086,0,0,0,0-4.364" transform="translate(639.233)" fill="#fac75a"/>
          </g>
          <g id="g414" transform="translate(0.771 0.771)">
            <path id="path416" d="M-548.527-10.812l-44.95,44.95a3.086,3.086,0,0,0,0,4.364l49.314-49.314a3.086,3.086,0,0,0-4.364,0" transform="translate(594.381 11.716)" fill="#fce06f"/>
          </g>
          <g id="g418" transform="translate(0 0.002)">
            <path id="path420" d="M-379.9-302.788a3.832,3.832,0,0,1-2.727-1.13,3.832,3.832,0,0,1-1.13-2.727,3.832,3.832,0,0,1,1.13-2.728l44.95-44.95a3.862,3.862,0,0,1,5.455,0,3.862,3.862,0,0,1,0,5.455l-21.384,21.384a.771.771,0,0,1-1.091,0,.771.771,0,0,1,0-1.091l21.384-21.384a2.317,2.317,0,0,0,0-3.273,2.317,2.317,0,0,0-3.273,0l-44.95,44.95a2.3,2.3,0,0,0-.678,1.637,2.3,2.3,0,0,0,.678,1.636,2.3,2.3,0,0,0,1.637.678,2.3,2.3,0,0,0,1.637-.678l21.384-21.384a.771.771,0,0,1,1.091,0,.771.771,0,0,1,0,1.091l-21.384,21.384A3.832,3.832,0,0,1-379.9-302.788Z" transform="translate(383.758 355.451)"/>
          </g>
          <g id="g422" transform="translate(0)">
            <path id="path424" d="M-318.166-170.666A13.181,13.181,0,0,1-305-157.5a13.181,13.181,0,0,1-13.166,13.166A13.181,13.181,0,0,1-331.333-157.5,13.181,13.181,0,0,1-318.166-170.666Zm0,24.79A11.636,11.636,0,0,0-306.543-157.5a11.636,11.636,0,0,0-11.623-11.623A11.636,11.636,0,0,0-329.79-157.5,11.636,11.636,0,0,0-318.166-145.877Z" transform="translate(331.333 170.666)"/>
          </g>
          <g id="g426" transform="translate(6.172 6.172)">
            <path id="path428" d="M-164.338-90.666a7,7,0,0,1,6.995,6.995,7,7,0,0,1-6.995,6.995,7,7,0,0,1-6.995-6.995A7,7,0,0,1-164.338-90.666Zm0,12.446a5.458,5.458,0,0,0,5.452-5.452,5.458,5.458,0,0,0-5.452-5.452,5.458,5.458,0,0,0-5.452,5.452A5.458,5.458,0,0,0-164.338-78.22Z" transform="translate(171.333 90.666)"/>
          </g>
          <g id="g430" transform="translate(26.332 26.332)">
            <path id="path432" d="M-318.166-170.666A13.181,13.181,0,0,1-305-157.5a13.181,13.181,0,0,1-13.166,13.166A13.181,13.181,0,0,1-331.333-157.5,13.181,13.181,0,0,1-318.166-170.666Zm0,24.79A11.636,11.636,0,0,0-306.543-157.5a11.636,11.636,0,0,0-11.623-11.623A11.636,11.636,0,0,0-329.79-157.5,11.636,11.636,0,0,0-318.166-145.877Z" transform="translate(331.333 170.666)"/>
          </g>
          <g id="g434" transform="translate(32.504 32.504)">
            <path id="path436" d="M-164.338-90.666a7,7,0,0,1,6.995,6.995,7,7,0,0,1-6.995,6.995,7,7,0,0,1-6.995-6.995A7,7,0,0,1-164.338-90.666Zm0,12.446a5.458,5.458,0,0,0,5.452-5.452,5.458,5.458,0,0,0-5.452-5.452,5.458,5.458,0,0,0-5.452,5.452A5.458,5.458,0,0,0-164.338-78.22Z" transform="translate(171.333 90.666)"/>
          </g>
        </g>
      </g>
    </g>
  </g>
</svg>
