<svg xmlns="http://www.w3.org/2000/svg" xmlns:xlink="http://www.w3.org/1999/xlink" width="102" height="102" viewBox="0 0 102 102">
  <defs>
    <filter id="Elipse_12115" x="0" y="0" width="102" height="102" filterUnits="userSpaceOnUse">
      <feOffset dy="3" input="SourceAlpha"/>
      <feGaussianBlur stdDeviation="3" result="blur"/>
      <feFlood flood-opacity="0.161"/>
      <feComposite operator="in" in2="blur"/>
      <feComposite in="SourceGraphic"/>
    </filter>
  </defs>
  <g id="Grupo_1189365" data-name="Grupo 1189365" transform="translate(-745.544 -3845.763)">
    <g id="Grupo_1181949" data-name="Grupo 1181949" transform="translate(754.781 3852)">
      <g transform="matrix(1, 0, 0, 1, -9.24, -6.24)" filter="url(#Elipse_12115)">
        <g id="Elipse_12115-2" data-name="Elipse 12115" transform="translate(9 6)" fill="#f6bc1c" stroke="#ab8212" stroke-width="1.5">
          <circle cx="42" cy="42" r="42" stroke="none"/>
          <circle cx="42" cy="42" r="41.25" fill="none"/>
        </g>
      </g>
    </g>
    <g id="_06._xls_Microsoft_Excel_Spreadsheet_" data-name="06. xls (Microsoft Excel Spreadsheet)" transform="translate(772.308 3865.312)">
      <path id="Trazado_1263190" data-name="Trazado 1263190" d="M7,7.215V53.579a4.215,4.215,0,0,0,4.215,4.215h29.5a4.215,4.215,0,0,0,4.215-4.215V15.645L32.289,3H11.215A4.215,4.215,0,0,0,7,7.215Z" transform="translate(-1.731 -1.946)" fill="#fff"/>
      <path id="Trazado_1263191" data-name="Trazado 1263191" d="M7,21H44.934v2.107H7Z" transform="translate(-1.731 17.988)" fill="gray"/>
      <path id="Trazado_1263192" data-name="Trazado 1263192" d="M5,20v6.322L9.215,28.43V22.107Z" transform="translate(-3.946 16.88)" fill="#006837"/>
      <path id="Trazado_1263193" data-name="Trazado 1263193" d="M29.215,20v6.322L25,28.43V22.107Z" transform="translate(18.203 16.88)" fill="#006837"/>
      <rect id="Rectángulo_411034" data-name="Rectángulo 411034" width="46.364" height="21.074" rx="2" transform="translate(1.054 17.913)" fill="#22b573"/>
      <path id="Trazado_1263194" data-name="Trazado 1263194" d="M18,3V15.645a2.107,2.107,0,0,0,2.107,2.107H32.752V15.645L20.107,3Z" transform="translate(10.45 -1.946)" fill="gray"/>
      <path id="Trazado_1263195" data-name="Trazado 1263195" d="M19,3,31.645,15.645H21.107A2.107,2.107,0,0,1,19,13.537Z" transform="translate(11.558 -1.946)" fill="#22b573"/>
      <path id="Trazado_1263196" data-name="Trazado 1263196" d="M12.93,9.876a1.054,1.054,0,0,1,1.054-1.054H24.521a1.054,1.054,0,1,1,0,2.107H13.983A1.054,1.054,0,0,1,12.93,9.876Zm15.806,5.269H13.983a1.054,1.054,0,1,0,0,2.107H28.736a1.054,1.054,0,0,0,0-2.107ZM13.983,46.756H32.95a1.054,1.054,0,0,0,0-2.107H13.983a1.054,1.054,0,1,0,0,2.107Zm29.5-2.107H37.165a1.054,1.054,0,0,0,0,2.107h6.322a1.054,1.054,0,0,0,0-2.107Zm-4.215,6.322H13.983a1.054,1.054,0,1,0,0,2.107H39.273a1.054,1.054,0,1,0,0-2.107Zm13.7-26.343V43.6a5.269,5.269,0,0,1-4.216,5.163v5.374A5.269,5.269,0,0,1,43.488,59.4h-29.5a5.269,5.269,0,0,1-5.269-5.269V48.758A5.269,5.269,0,0,1,4.5,43.6V24.628a5.269,5.269,0,0,1,4.216-5.163V7.769A5.269,5.269,0,0,1,13.983,2.5H35.332a.843.843,0,0,1,.464.253L48.44,15.4a.843.843,0,0,1,.253.464,1.348,1.348,0,0,1,0,.148V19.4a5.269,5.269,0,0,1,4.278,5.226ZM36.112,6.1v7.987a1.054,1.054,0,0,0,1.054,1.054h7.987ZM10.822,19.36H46.649V17.252H37.165A3.161,3.161,0,0,1,34,14.091V4.607H13.983a3.161,3.161,0,0,0-3.161,3.161ZM6.607,37.273a3.161,3.161,0,0,0,3.161,3.161H47.7a3.161,3.161,0,0,0,3.161-3.161V24.628A3.161,3.161,0,0,0,47.7,21.467H9.769a3.161,3.161,0,0,0-3.161,3.161Zm2.107,9.294V42.352a5.353,5.353,0,0,1-2.107-.969V43.49a3.182,3.182,0,0,0,2.107,3.077Zm37.934-4.025H10.822V54.132a3.161,3.161,0,0,0,3.161,3.161h29.5a3.161,3.161,0,0,0,3.161-3.161ZM50.864,43.6V41.488a5.353,5.353,0,0,1-2.107.969v4.215A3.182,3.182,0,0,0,50.864,43.6Zm-13.171-8.43H36.638a1.6,1.6,0,0,1-1.581-1.581,1.054,1.054,0,1,0-2.107,0,3.709,3.709,0,0,0,3.688,3.688h1.054a3.688,3.688,0,1,0,0-7.376H36.638a1.581,1.581,0,1,1,0-3.161h1.054a1.6,1.6,0,0,1,1.581,1.581,1.054,1.054,0,1,0,2.107,0,3.709,3.709,0,0,0-3.688-3.688H36.638a3.688,3.688,0,0,0,0,7.376h1.054a1.581,1.581,0,0,1,0,3.161Zm-21.074,1.96a1.011,1.011,0,0,0,.548.148,1.1,1.1,0,0,0,.906-.506l2.234-3.709,2.255,3.772a1.1,1.1,0,0,0,.906.506,1.012,1.012,0,0,0,.548-.148,1.075,1.075,0,0,0,.358-1.454L21.528,30.95l2.845-4.721a1.059,1.059,0,0,0-1.812-1.1l-2.255,3.709-2.255-3.772a1.059,1.059,0,1,0-1.812,1.1l2.845,4.784-2.845,4.721a1.075,1.075,0,0,0,.358,1.454Zm12.118.148a1.054,1.054,0,0,0,1.054-1.054V25.682a1.054,1.054,0,0,0-2.107,0V36.219A1.054,1.054,0,0,0,28.736,37.273Z" transform="translate(-4.5 -2.5)"/>
    </g>
  </g>
</svg>
