<svg xmlns="http://www.w3.org/2000/svg" xmlns:xlink="http://www.w3.org/1999/xlink" width="118" height="118" viewBox="0 0 118 118">
  <defs>
    <filter id="Elipse_12115" x="0" y="0" width="118" height="118" filterUnits="userSpaceOnUse">
      <feOffset dy="3" input="SourceAlpha"/>
      <feGaussianBlur stdDeviation="3" result="blur"/>
      <feFlood flood-opacity="0.161"/>
      <feComposite operator="in" in2="blur"/>
      <feComposite in="SourceGraphic"/>
    </filter>
    <filter id="Elipse_12115-2" x="66.869" y="31.7" width="32.59" height="32.59" filterUnits="userSpaceOnUse">
      <feOffset dy="3" input="SourceAlpha"/>
      <feGaussianBlur stdDeviation="3" result="blur-2"/>
      <feFlood flood-opacity="0.161"/>
      <feComposite operator="in" in2="blur-2"/>
      <feComposite in="SourceGraphic"/>
    </filter>
  </defs>
  <g id="Grupo_1191312" data-name="Grupo 1191312" transform="translate(-531 -731)">
    <g id="Grupo_1191239" data-name="Grupo 1191239" transform="translate(-214.781 -3115)">
      <g id="Grupo_1181949" data-name="Grupo 1181949" transform="translate(-54 1303)">
        <g transform="matrix(1, 0, 0, 1, 799.78, 2543)" filter="url(#Elipse_12115)">
          <g id="Elipse_12115-3" data-name="Elipse 12115" transform="translate(9 6)" fill="#f6bc1c" stroke="#ab8212" stroke-width="1.5">
            <circle cx="50" cy="50" r="50" stroke="none"/>
            <circle cx="50" cy="50" r="49.25" fill="none"/>
          </g>
        </g>
      </g>
    </g>
    <g id="Grupo_1191240" data-name="Grupo 1191240" transform="translate(138.168 -3020.663)">
      <g id="Grupo_1181949-2" data-name="Grupo 1181949" transform="translate(468.701 3789.363)">
        <g transform="matrix(1, 0, 0, 1, -75.87, -37.7)" filter="url(#Elipse_12115-2)">
          <g id="Elipse_12115-4" data-name="Elipse 12115" transform="translate(75.87 37.7)" fill="#f6bc1c" stroke="#ab8212" stroke-width="1.5">
            <circle cx="7.295" cy="7.295" r="7.295" stroke="none"/>
            <circle cx="7.295" cy="7.295" r="6.545" fill="none"/>
          </g>
        </g>
      </g>
      <g id="matematicas" transform="translate(419.832 3778.663)">
        <path id="Trazado_1279478" data-name="Trazado 1279478" d="M143.124,7.164H110.6a6.1,6.1,0,0,0-6.1,6.1V24.443h21.345a6.1,6.1,0,0,1,6.1,6.1v1.017h3.05l6.235,10.911a1.016,1.016,0,0,0,1.9-.508v-10.4a6.1,6.1,0,0,0,6.1-6.1v-12.2A6.1,6.1,0,0,0,143.124,7.164Zm0,0" transform="translate(-89.254 -6.148)" fill="#c2d197"/>
        <path id="Trazado_1279479" data-name="Trazado 1279479" d="M315.533,140.547a1.016,1.016,0,1,1-1.016-1.016A1.016,1.016,0,0,1,315.533,140.547Zm0,0" transform="translate(-267.761 -119.203)" fill="#9cb16a"/>
        <path id="Trazado_1279480" data-name="Trazado 1279480" d="M343.4,140.547a1.016,1.016,0,1,1-1.016-1.016A1.016,1.016,0,0,1,343.4,140.547Zm0,0" transform="translate(-291.562 -119.203)" fill="#9cb16a"/>
        <path id="Trazado_1279481" data-name="Trazado 1279481" d="M371.267,140.547a1.016,1.016,0,1,1-1.017-1.016A1.017,1.017,0,0,1,371.267,140.547Zm0,0" transform="translate(-315.364 -119.203)" fill="#9cb16a"/>
        <path id="Trazado_1279482" data-name="Trazado 1279482" d="M138.093,62.913a1.017,1.017,0,0,0-1.437,0l-1.314,1.314-1.314-1.314a1.016,1.016,0,1,0-1.462,1.412l.025.025,1.314,1.314-1.314,1.314A1.016,1.016,0,1,0,134,68.442l.025-.025,1.314-1.314,1.314,1.314a1.016,1.016,0,0,0,1.437-1.437l-1.314-1.314,1.314-1.314a1.01,1.01,0,0,0,.017-1.432A.016.016,0,0,0,138.093,62.913Zm0,0" transform="translate(-112.981 -53.498)" fill="#9cb16a"/>
        <path id="Trazado_1279483" data-name="Trazado 1279483" d="M198.87,46.887a1.016,1.016,0,0,0-1.016-1.016h-9.148a1.016,1.016,0,0,0-1.006.872l-.556,3.894-.572-1.155a1.017,1.017,0,1,0-1.819.91l2.033,4.066a1.017,1.017,0,0,0,.91.562.971.971,0,0,0,.162-.014,1.015,1.015,0,0,0,.843-.86l.892-6.242h8.261A1.016,1.016,0,0,0,198.87,46.887Zm0,0" transform="translate(-157.705 -39.208)" fill="#9cb16a"/>
        <path id="Trazado_1279484" data-name="Trazado 1279484" d="M230.784,70.215l-1.291,1.263-1.235-1.321a1.016,1.016,0,1,0-1.483,1.39l1.264,1.354L226.718,74.2a1.017,1.017,0,1,0,1.423,1.454l4.065-3.98a1.017,1.017,0,1,0-1.423-1.454Zm0,0" transform="translate(-193.379 -59.676)" fill="#9cb16a"/>
        <path id="Trazado_1279485" data-name="Trazado 1279485" d="M280.266,68.8h-1.016V67.786a1.016,1.016,0,1,0-2.033,0V68.8H276.2a1.016,1.016,0,0,0,0,2.033h1.017v1.017a1.016,1.016,0,0,0,2.033,0V70.835h1.016a1.016,1.016,0,1,0,0-2.033Zm0,0" transform="translate(-235.035 -57.057)" fill="#9cb16a"/>
        <path id="Trazado_1279486" data-name="Trazado 1279486" d="M332.516,70.835H330.9l2.33-2.33a1.016,1.016,0,0,0-.719-1.735H328.45a1.016,1.016,0,1,0,0,2.033h1.612l-2.33,2.331a1.016,1.016,0,0,0,.719,1.735h4.065a1.016,1.016,0,1,0,0-2.033Zm0,0" transform="translate(-279.662 -57.057)" fill="#9cb16a"/>
        <path id="Trazado_1279487" data-name="Trazado 1279487" d="M126.861,114.543H104.5v1.613h21.345a6.1,6.1,0,0,1,6.1,6.1v1.016h1.016v-2.63A6.1,6.1,0,0,0,126.861,114.543Zm0,0" transform="translate(-89.254 -97.86)" fill="#9cb16a"/>
        <path id="Trazado_1279488" data-name="Trazado 1279488" d="M138.093,52.149a1.017,1.017,0,0,0-1.437,0l-1.314,1.314-1.314-1.314a1.016,1.016,0,0,0-1.437,1.437L133.9,54.9l-1.314,1.314A1.016,1.016,0,1,0,134,57.677l.025-.025,1.314-1.314,1.314,1.314a1.016,1.016,0,0,0,1.462-1.412l-.025-.025L136.779,54.9l1.314-1.314A1.016,1.016,0,0,0,138.093,52.149Zm0,0" transform="translate(-112.981 -44.316)" fill="#075057"/>
        <path id="Trazado_1279489" data-name="Trazado 1279489" d="M198.871,36.047a1.016,1.016,0,0,0-1.016-1.016h-9.148a1.016,1.016,0,0,0-1.006.872l-.556,3.894-.572-1.155a1.017,1.017,0,1,0-1.819.909l2.033,4.066a1.016,1.016,0,0,0,.9.562,1.034,1.034,0,0,0,.162-.013,1.017,1.017,0,0,0,.844-.859l.891-6.243h8.267A1.016,1.016,0,0,0,198.871,36.047Zm0,0" transform="translate(-157.706 -29.949)" fill="#075057"/>
        <path id="Trazado_1279490" data-name="Trazado 1279490" d="M230.784,59.266l-1.291,1.265-1.235-1.322a1.016,1.016,0,0,0-1.519,1.351l.036.038,1.264,1.354-1.321,1.294a1.017,1.017,0,1,0,1.423,1.453l4.065-3.98a1.017,1.017,0,1,0-1.423-1.453Zm0,0" transform="translate(-193.379 -50.308)" fill="#075057"/>
        <path id="Trazado_1279491" data-name="Trazado 1279491" d="M280.266,57.963h-1.016V56.946a1.016,1.016,0,0,0-2.033,0v1.017H276.2a1.016,1.016,0,0,0,0,2.033h1.017v1.017a1.016,1.016,0,0,0,2.033,0V60h1.016a1.016,1.016,0,1,0,0-2.033Zm0,0" transform="translate(-235.035 -47.799)" fill="#075057"/>
        <path id="Trazado_1279492" data-name="Trazado 1279492" d="M332.516,60H330.9l2.33-2.33a1.016,1.016,0,0,0-.719-1.735H328.45a1.016,1.016,0,1,0,0,2.033h1.612l-2.33,2.331a1.016,1.016,0,0,0,.719,1.735h4.065a1.016,1.016,0,1,0,0-2.033Zm0,0" transform="translate(-279.662 -47.799)" fill="#075057"/>
        <path id="Trazado_1279493" data-name="Trazado 1279493" d="M13.064,125.6H42.54a6.1,6.1,0,0,1,6.1,6.1v12.2a6.1,6.1,0,0,1-6.1,6.1H27.294L14.8,162.486a1.016,1.016,0,0,1-1.736-.719V149.992a6.1,6.1,0,0,1-6.1-6.1V131.7A6.1,6.1,0,0,1,13.064,125.6Zm0,0" transform="translate(-5.949 -107.302)" fill="#b0c0d2"/>
        <path id="Trazado_1279505" data-name="Trazado 1279505" d="M33.966,197.295a1.016,1.016,0,0,0,0-2.033H28.883a1.016,1.016,0,0,0-1.016,1.017v8.132a1.016,1.016,0,0,0,1.016,1.016h5.083a1.016,1.016,0,0,0,0-2.033H29.9V201.36h3.049a1.016,1.016,0,1,0,0-2.033H29.9v-2.033Zm0,0" transform="translate(-23.801 -166.802)" fill="#9e0c09"/>
        <path id="Trazado_1279506" data-name="Trazado 1279506" d="M132.517,209.195a3.032,3.032,0,0,0-2.033.793,3.036,3.036,0,0,0-5.082,2.257v4.065a1.016,1.016,0,1,0,2.033,0v-4.065a1.016,1.016,0,1,1,2.033,0v4.065a1.016,1.016,0,1,0,2.033,0v-4.065a1.016,1.016,0,1,1,2.033,0v4.065a1.016,1.016,0,1,0,2.033,0v-4.065A3.05,3.05,0,0,0,132.517,209.195Zm0,0" transform="translate(-107.106 -178.703)" fill="#9e0c09"/>
        <path id="Trazado_1279507" data-name="Trazado 1279507" d="M199.132,211.228h1.017a1.016,1.016,0,0,0,0-2.033h-1.017a4.066,4.066,0,1,0,0,8.132h1.017a1.016,1.016,0,0,0,0-2.033h-1.017a2.033,2.033,0,1,1,0-4.066Zm0,0" transform="translate(-166.607 -178.703)" fill="#9e0c09"/>
        <path id="Trazado_1279508" data-name="Trazado 1279508" d="M228.016,146.643h-3.049a1.016,1.016,0,0,1,1.016-1.017,3.049,3.049,0,1,0-3.049-3.049,1.016,1.016,0,1,0,2.033,0,1.016,1.016,0,1,1,1.017,1.017,3.049,3.049,0,0,0-3.05,3.049v1.017a1.017,1.017,0,0,0,1.017,1.016h4.066a1.016,1.016,0,0,0,0-2.033Zm0,0" transform="translate(-190.408 -119.2)" fill="#9e0c09"/>
        <path id="Trazado_1279509" data-name="Trazado 1279509" d="M86.651,216.164H84.618a1.016,1.016,0,0,0,0,2.033h2.033a1.016,1.016,0,1,0,0-2.033Zm0,0" transform="translate(-71.404 -184.655)" fill="#9e0c09"/>
        <path id="Trazado_1279510" data-name="Trazado 1279510" d="M86.651,237.063H84.618a1.016,1.016,0,0,0,0,2.033h2.033a1.016,1.016,0,1,0,0-2.033Zm0,0" transform="translate(-71.404 -202.505)" fill="#9e0c09"/>
        <path id="Trazado_1279511" data-name="Trazado 1279511" d="M315.533,133.579a1.016,1.016,0,1,1-1.016-1.017A1.016,1.016,0,0,1,315.533,133.579Zm0,0" transform="translate(-267.761 -113.251)" fill="#075057"/>
        <path id="Trazado_1279512" data-name="Trazado 1279512" d="M343.4,133.579a1.016,1.016,0,1,1-1.016-1.017A1.016,1.016,0,0,1,343.4,133.579Zm0,0" transform="translate(-291.562 -113.251)" fill="#075057"/>
        <path id="Trazado_1279513" data-name="Trazado 1279513" d="M371.267,133.579a1.016,1.016,0,1,1-1.017-1.017A1.016,1.016,0,0,1,371.267,133.579Zm0,0" transform="translate(-315.364 -113.251)" fill="#075057"/>
        <path id="Trazado_1279514" data-name="Trazado 1279514" d="M57.767,154.481a1.016,1.016,0,1,1-1.017-1.016A1.017,1.017,0,0,1,57.767,154.481Zm0,0" transform="translate(-47.603 -131.104)" fill="#9e0c09"/>
        <path id="Trazado_1279515" data-name="Trazado 1279515" d="M85.634,154.481a1.016,1.016,0,1,1-1.017-1.016A1.017,1.017,0,0,1,85.634,154.481Zm0,0" transform="translate(-71.404 -131.104)" fill="#9e0c09"/>
        <path id="Trazado_1279516" data-name="Trazado 1279516" d="M113.5,154.481a1.017,1.017,0,1,1-1.017-1.016A1.017,1.017,0,0,1,113.5,154.481Zm0,0" transform="translate(-95.202 -131.104)" fill="#9e0c09"/>
        <path id="Trazado_1279517" data-name="Trazado 1279517" d="M141.365,154.481a1.016,1.016,0,1,1-1.016-1.016A1.016,1.016,0,0,1,141.365,154.481Zm0,0" transform="translate(-119.004 -131.104)" fill="#9e0c09"/>
        <path id="Trazado_1279518" data-name="Trazado 1279518" d="M169.232,154.481a1.016,1.016,0,1,1-1.016-1.016A1.016,1.016,0,0,1,169.232,154.481Zm0,0" transform="translate(-142.805 -131.104)" fill="#9e0c09"/>
        <path id="Trazado_1279519" data-name="Trazado 1279519" d="M138.093,52.149a1.017,1.017,0,0,0-1.437,0l-1.314,1.314-1.314-1.314a1.016,1.016,0,0,0-1.437,1.437L133.9,54.9l-1.314,1.314A1.016,1.016,0,1,0,134,57.677l.025-.025,1.314-1.314,1.314,1.314a1.016,1.016,0,0,0,1.462-1.412l-.025-.025L136.779,54.9l1.314-1.314A1.016,1.016,0,0,0,138.093,52.149Zm0,0" transform="translate(-112.981 -44.316)"/>
        <path id="Trazado_1279520" data-name="Trazado 1279520" d="M198.856,36.047a1.016,1.016,0,0,0-1.016-1.016h-9.148a1.016,1.016,0,0,0-1.007.872L187.13,39.8l-.572-1.155a1.016,1.016,0,1,0-1.825.895l.007.014,2.032,4.066a1.018,1.018,0,0,0,.9.562,1.029,1.029,0,0,0,.162-.013,1.017,1.017,0,0,0,.844-.859l.891-6.243h8.267A1.016,1.016,0,0,0,198.856,36.047Zm0,0" transform="translate(-157.691 -29.949)"/>
        <path id="Trazado_1279521" data-name="Trazado 1279521" d="M226.705,64.683a1.017,1.017,0,0,0,1.437.015l4.065-3.98a1.017,1.017,0,1,0-1.423-1.454l-1.291,1.265-1.234-1.322a1.016,1.016,0,1,0-1.519,1.351l.036.038,1.263,1.354-1.321,1.294a1.016,1.016,0,0,0-.015,1.437Zm0,0" transform="translate(-193.381 -50.307)"/>
        <path id="Trazado_1279522" data-name="Trazado 1279522" d="M278.233,62.028a1.016,1.016,0,0,0,1.016-1.016V60h1.017a1.016,1.016,0,0,0,0-2.033h-1.017V56.946a1.016,1.016,0,0,0-2.033,0v1.017H276.2a1.016,1.016,0,0,0,0,2.033h1.017v1.017A1.016,1.016,0,0,0,278.233,62.028Zm0,0" transform="translate(-235.035 -47.799)"/>
        <path id="Trazado_1279523" data-name="Trazado 1279523" d="M333.532,61.012A1.017,1.017,0,0,0,332.516,60H330.9l2.33-2.33a1.016,1.016,0,0,0-.719-1.735H328.45a1.016,1.016,0,0,0,0,2.033h1.612l-2.33,2.331a1.016,1.016,0,0,0,.718,1.735h4.066A1.017,1.017,0,0,0,333.532,61.012Zm0,0" transform="translate(-279.662 -47.799)"/>
        <path id="Trazado_1279524" data-name="Trazado 1279524" d="M59.969,18.495a1.016,1.016,0,0,0-1.017,1.016,5.088,5.088,0,0,1-5.082,5.083,1.016,1.016,0,0,0-1.017,1.016v10.4L46.621,25.1a1.017,1.017,0,0,0-.882-.508H43.706a7.123,7.123,0,0,0-7.115-7.115H16.263V7.314a5.089,5.089,0,0,1,5.083-5.083H53.871a5.088,5.088,0,0,1,5.082,5.083,1.016,1.016,0,0,0,2.033,0A7.123,7.123,0,0,0,53.871.2H21.345A7.123,7.123,0,0,0,14.23,7.314V17.478H7.115A7.123,7.123,0,0,0,0,24.593a1.016,1.016,0,0,0,2.033,0,5.089,5.089,0,0,1,5.083-5.083H36.591a5.088,5.088,0,0,1,5.082,5.083v12.2a5.088,5.088,0,0,1-5.082,5.083H21.345a1.017,1.017,0,0,0-.719.3L8.132,54.665V42.889a1.017,1.017,0,0,0-1.017-1.017A5.088,5.088,0,0,1,2.033,36.79,1.016,1.016,0,0,0,0,36.79a7.126,7.126,0,0,0,6.1,7.043V57.119a1.017,1.017,0,0,0,.627.939,1,1,0,0,0,.39.077,1.016,1.016,0,0,0,.718-.3L21.766,43.905H36.591a7.123,7.123,0,0,0,7.115-7.115V26.626H45.15l7.839,13.722a1.014,1.014,0,0,0,.882.508,1.064,1.064,0,0,0,.261-.033,1.016,1.016,0,0,0,.755-.983V26.554a7.126,7.126,0,0,0,6.1-7.042A1.016,1.016,0,0,0,59.969,18.495Zm0,0" transform="translate(0 -0.199)"/>
        <path id="Trazado_1279525" data-name="Trazado 1279525" d="M27.867,196.278v8.132a1.016,1.016,0,0,0,1.016,1.017h5.083a1.017,1.017,0,0,0,0-2.033H29.9v-2.032h3.049a1.017,1.017,0,1,0,0-2.033H29.9v-2.033h4.066a1.016,1.016,0,0,0,0-2.033H28.883A1.017,1.017,0,0,0,27.867,196.278Zm0,0" transform="translate(-23.801 -166.802)"/>
        <path id="Trazado_1279526" data-name="Trazado 1279526" d="M125.4,212.245v4.066a1.016,1.016,0,0,0,2.033,0v-4.066a1.016,1.016,0,1,1,2.033,0v4.066a1.016,1.016,0,0,0,2.033,0v-4.066a1.016,1.016,0,1,1,2.033,0v4.066a1.016,1.016,0,0,0,2.033,0v-4.066a3.036,3.036,0,0,0-5.082-2.256,3.036,3.036,0,0,0-5.083,2.256Zm0,0" transform="translate(-107.106 -178.703)"/>
        <path id="Trazado_1279527" data-name="Trazado 1279527" d="M199.132,217.327h1.017a1.016,1.016,0,0,0,0-2.033h-1.017a2.033,2.033,0,1,1,0-4.066h1.017a1.016,1.016,0,0,0,0-2.033h-1.017a4.066,4.066,0,1,0,0,8.132Zm0,0" transform="translate(-166.607 -178.703)"/>
        <path id="Trazado_1279528" data-name="Trazado 1279528" d="M225.983,143.6a3.049,3.049,0,0,0-3.049,3.049v1.017a1.016,1.016,0,0,0,1.017,1.016h4.065a1.016,1.016,0,1,0,0-2.033h-3.049a1.016,1.016,0,0,1,1.016-1.016,3.049,3.049,0,1,0-3.049-3.05,1.016,1.016,0,1,0,2.033,0,1.016,1.016,0,1,1,1.016,1.017Zm0,0" transform="translate(-190.408 -119.203)"/>
        <path id="Trazado_1279529" data-name="Trazado 1279529" d="M84.618,218.2h2.033a1.016,1.016,0,1,0,0-2.033H84.618a1.016,1.016,0,0,0,0,2.033Zm0,0" transform="translate(-71.404 -184.655)"/>
        <path id="Trazado_1279530" data-name="Trazado 1279530" d="M84.618,239.1h2.033a1.016,1.016,0,1,0,0-2.033H84.618a1.016,1.016,0,0,0,0,2.033Zm0,0" transform="translate(-71.404 -202.505)"/>
        <path id="Trazado_1279531" data-name="Trazado 1279531" d="M315.533,126.614a1.016,1.016,0,1,1-1.016-1.016A1.016,1.016,0,0,1,315.533,126.614Zm0,0" transform="translate(-267.761 -107.302)"/>
        <path id="Trazado_1279532" data-name="Trazado 1279532" d="M343.4,126.614a1.016,1.016,0,1,1-1.016-1.016A1.016,1.016,0,0,1,343.4,126.614Zm0,0" transform="translate(-291.562 -107.302)"/>
        <path id="Trazado_1279533" data-name="Trazado 1279533" d="M371.267,126.614a1.016,1.016,0,1,1-1.017-1.016A1.017,1.017,0,0,1,371.267,126.614Zm0,0" transform="translate(-315.364 -107.302)"/>
        <path id="Trazado_1279534" data-name="Trazado 1279534" d="M57.767,154.481a1.016,1.016,0,1,1-1.017-1.016A1.017,1.017,0,0,1,57.767,154.481Zm0,0" transform="translate(-47.603 -131.104)"/>
        <path id="Trazado_1279535" data-name="Trazado 1279535" d="M85.634,154.481a1.016,1.016,0,1,1-1.017-1.016A1.017,1.017,0,0,1,85.634,154.481Zm0,0" transform="translate(-71.404 -131.104)"/>
        <path id="Trazado_1279536" data-name="Trazado 1279536" d="M113.5,154.481a1.017,1.017,0,1,1-1.017-1.016A1.017,1.017,0,0,1,113.5,154.481Zm0,0" transform="translate(-95.202 -131.104)"/>
        <path id="Trazado_1279537" data-name="Trazado 1279537" d="M141.365,154.481a1.016,1.016,0,1,1-1.016-1.016A1.016,1.016,0,0,1,141.365,154.481Zm0,0" transform="translate(-119.004 -131.104)"/>
        <path id="Trazado_1279538" data-name="Trazado 1279538" d="M169.23,154.594a1.017,1.017,0,1,0-1.127.893,1.017,1.017,0,0,0,1.127-.893Zm0,0" transform="translate(-142.809 -131.1)"/>
      </g>
    </g>
  </g>
</svg>
