<svg xmlns="http://www.w3.org/2000/svg" xmlns:xlink="http://www.w3.org/1999/xlink" width="118" height="118" viewBox="0 0 118 118">
  <defs>
    <filter id="Elipse_12115" x="0" y="0" width="118" height="118" filterUnits="userSpaceOnUse">
      <feOffset dy="3" input="SourceAlpha"/>
      <feGaussianBlur stdDeviation="3" result="blur"/>
      <feFlood flood-opacity="0.161"/>
      <feComposite operator="in" in2="blur"/>
      <feComposite in="SourceGraphic"/>
    </filter>
    <clipPath id="clip-path">
      <path id="path2007" d="M0-682.665H69.953v69.953H0Z" transform="translate(0 682.665)"/>
    </clipPath>
  </defs>
  <g id="Grupo_1191285" data-name="Grupo 1191285" transform="translate(3498 9085)">
    <g id="Grupo_1191218" data-name="Grupo 1191218" transform="translate(-4243.781 -12931)">
      <g id="Grupo_1181949" data-name="Grupo 1181949" transform="translate(-54 1303)">
        <g transform="matrix(1, 0, 0, 1, 799.78, 2543)" filter="url(#Elipse_12115)">
          <g id="Elipse_12115-2" data-name="Elipse 12115" transform="translate(9 6)" fill="#f6bc1c" stroke="#ab8212" stroke-width="1.5">
            <circle cx="50" cy="50" r="50" stroke="none"/>
            <circle cx="50" cy="50" r="49.25" fill="none"/>
          </g>
        </g>
      </g>
    </g>
    <g id="g2001" transform="translate(-3474 -8381.335)">
      <g id="g2003" transform="translate(0 -682.665)">
        <g id="g2005" clip-path="url(#clip-path)">
          <g id="g2011" transform="translate(32.816 1.025)">
            <path id="path2013" d="M-36.624-11.256a1.285,1.285,0,0,0-1.285-1.285H-39.52a1.285,1.285,0,0,0-1.285,1.285V2.006h0v38.81h0V54.077a1.285,1.285,0,0,0,1.285,1.285h1.611a1.285,1.285,0,0,0,1.285-1.285V46.693h0c0-2.359,0-55.673,0-57.949" transform="translate(40.805 12.541)" fill="#6c7fd9"/>
          </g>
          <g id="g2015" transform="translate(32.815 1.025)">
            <path id="path2017" d="M-23.857-583.508v-13.262h0v-38.81h0v-13.262A1.284,1.284,0,0,1-23.129-650a1.277,1.277,0,0,0-.556-.128H-25.3a1.285,1.285,0,0,0-1.285,1.285v13.262h0v38.81h0v13.262a1.285,1.285,0,0,0,1.285,1.285h1.611a1.279,1.279,0,0,0,.556-.128,1.284,1.284,0,0,1-.729-1.157" transform="translate(26.581 650.126)" fill="#4f66d1"/>
          </g>
          <g id="g2019" transform="translate(23.402 18.746)">
            <path id="path2021" d="M-191.3,0h-20.672a1.169,1.169,0,0,0-1.169,1.169v10.9a1.169,1.169,0,0,0,1.169,1.168H-191.3a1.169,1.169,0,0,0,1.169-1.168V1.169A1.169,1.169,0,0,0-191.3,0" transform="translate(213.137)" fill="#ffe55a"/>
          </g>
          <g id="g2023" transform="translate(15.501 37.974)">
            <path id="path2025" d="M-329.7,0h-36.473a1.169,1.169,0,0,0-1.169,1.169v10.9a1.168,1.168,0,0,0,1.169,1.168H-329.7a1.169,1.169,0,0,0,1.169-1.168V1.169A1.169,1.169,0,0,0-329.7,0" transform="translate(367.342)" fill="#ffe55a"/>
          </g>
          <g id="g2027" transform="translate(23.402 26.815)">
            <path id="path2029" d="M-10.234-10.235H10.437A1.169,1.169,0,0,0,11.606-11.4v4a1.169,1.169,0,0,1-1.169,1.169H-10.234A1.168,1.168,0,0,1-11.4-7.408v-4a1.168,1.168,0,0,0,1.168,1.169" transform="translate(11.403 11.404)" fill="#ffd500"/>
          </g>
          <g id="g2031" transform="translate(15.501 39.142)">
            <path id="path2033" d="M-10.234-70.678H26.239a1.168,1.168,0,0,0,1.169-1.168v-6.9h0v10.9a1.169,1.169,0,0,1-1.168,1.169H-10.234A1.169,1.169,0,0,1-11.4-67.851v-4a1.168,1.168,0,0,0,1.168,1.168" transform="translate(11.403 78.748)" fill="#ffd500"/>
          </g>
          <g id="g2035" transform="translate(22.447 17.721)">
            <path id="path2037" d="M-19.211-10H1.461A2.2,2.2,0,0,1,3.654-7.807V3.09A2.2,2.2,0,0,1,1.461,5.283H-19.211A2.2,2.2,0,0,1-21.4,3.09v-10.9A2.2,2.2,0,0,1-19.211-10ZM1.461,3.234A.144.144,0,0,0,1.6,3.09v-10.9a.144.144,0,0,0-.144-.144H-19.211a.144.144,0,0,0-.144.144V3.09a.144.144,0,0,0,.144.144Z" transform="translate(21.404 10)" fill="#231f20"/>
          </g>
          <path id="path2039" d="M311.955-380.58h4.181a1.025,1.025,0,0,1,1.025,1.025v5.994a1.025,1.025,0,0,1-1.025,1.025h-4.181a1.025,1.025,0,0,1-1.025-1.025v-5.994A1.025,1.025,0,0,1,311.955-380.58Zm3.157,2.049h-2.132v3.945h2.132Z" transform="translate(-279.069 411.535)" fill="#231f20"/>
          <g id="g2041" transform="translate(31.861 50.183)">
            <path id="path2043" d="M-8.975-10h4.181A1.025,1.025,0,0,1-3.769-8.975V7.461a2.312,2.312,0,0,1-2.31,2.31H-7.69A2.312,2.312,0,0,1-10,7.461V-8.975A1.025,1.025,0,0,1-8.975-10Zm3.157,2.049H-7.951V7.461a.261.261,0,0,0,.26.261h1.611a.261.261,0,0,0,.26-.261Z" transform="translate(10 10)" fill="#231f20"/>
          </g>
          <g id="g2045" transform="translate(14.547 36.949)">
            <path id="path2047" d="M-350.079-35.957h-36.473a2.2,2.2,0,0,1-2.193-2.193v-10.9a2.2,2.2,0,0,1,2.193-2.193h36.473a2.2,2.2,0,0,1,2.193,2.193v3.057a1.025,1.025,0,0,1-1.025,1.025,1.025,1.025,0,0,1-1.025-1.025v-3.057a.144.144,0,0,0-.144-.144h-36.473a.144.144,0,0,0-.144.144v10.9a.144.144,0,0,0,.144.144h36.473a.144.144,0,0,0,.144-.144v-3.057a1.025,1.025,0,0,1,1.025-1.025,1.025,1.025,0,0,1,1.025,1.025v3.057A2.2,2.2,0,0,1-350.079-35.957Z" transform="translate(388.746 51.24)" fill="#231f20"/>
          </g>
          <g id="g2049" transform="translate(31.861 0)">
            <path id="path2051" d="M-45.6-53.092h-4.181a1.025,1.025,0,0,1-1.025-1.025V-70.553a2.312,2.312,0,0,1,2.31-2.31h1.611a2.313,2.313,0,0,1,2.31,2.31V-65.4A1.025,1.025,0,0,1-45.6-64.372,1.025,1.025,0,0,1-46.624-65.4v-5.156a.261.261,0,0,0-.261-.26H-48.5a.261.261,0,0,0-.26.26v15.411h2.132v-5.473A1.025,1.025,0,0,1-45.6-61.639a1.025,1.025,0,0,1,1.025,1.025v6.5A1.025,1.025,0,0,1-45.6-53.092Z" transform="translate(50.805 72.863)" fill="#231f20"/>
          </g>
        </g>
      </g>
    </g>
  </g>
</svg>
