<svg xmlns="http://www.w3.org/2000/svg" xmlns:xlink="http://www.w3.org/1999/xlink" width="118" height="118" viewBox="0 0 118 118">
  <defs>
    <filter id="Elipse_12115" x="0" y="0" width="118" height="118" filterUnits="userSpaceOnUse">
      <feOffset dy="3" input="SourceAlpha"/>
      <feGaussianBlur stdDeviation="3" result="blur"/>
      <feFlood flood-opacity="0.161"/>
      <feComposite operator="in" in2="blur"/>
      <feComposite in="SourceGraphic"/>
    </filter>
  </defs>
  <g id="Grupo_1191286" data-name="Grupo 1191286" transform="translate(4115 8686)">
    <g id="Grupo_1191219" data-name="Grupo 1191219" transform="translate(-4860.781 -12532)">
      <g id="Grupo_1181949" data-name="Grupo 1181949" transform="translate(-54 1303)">
        <g transform="matrix(1, 0, 0, 1, 799.78, 2543)" filter="url(#Elipse_12115)">
          <g id="Elipse_12115-2" data-name="Elipse 12115" transform="translate(9 6)" fill="#f6bc1c" stroke="#ab8212" stroke-width="1.5">
            <circle cx="50" cy="50" r="50" stroke="none"/>
            <circle cx="50" cy="50" r="49.25" fill="none"/>
          </g>
        </g>
      </g>
    </g>
    <g id="editar-texto" transform="translate(-4083.949 -8656.949)">
      <path id="Trazado_1279071" data-name="Trazado 1279071" d="M186.48,421.488h14.856v4.478H186.48Zm0,0" transform="translate(-166.553 -376.447)" fill="#5a5a5a"/>
      <path id="Trazado_1279072" data-name="Trazado 1279072" d="M57.882,51.739H10.227A2.727,2.727,0,0,1,7.5,49.013V10.227A2.727,2.727,0,0,1,10.227,7.5H57.882a2.727,2.727,0,0,1,2.727,2.727V49.013A2.727,2.727,0,0,1,57.882,51.739Zm0,0" transform="translate(-6.699 -6.699)" fill="#e7e7e7"/>
      <path id="Trazado_1279073" data-name="Trazado 1279073" d="M453.862,10.231V49.016a2.726,2.726,0,0,1-2.726,2.727H447.8a2.726,2.726,0,0,0,2.727-2.727V10.231A2.726,2.726,0,0,0,447.8,7.5h3.331A2.726,2.726,0,0,1,453.862,10.231Zm0,0" transform="translate(-399.952 -6.702)" fill="#cecece"/>
      <path id="Trazado_1279074" data-name="Trazado 1279074" d="M60.608,360.02H7.5v3.842a2.727,2.727,0,0,0,2.727,2.727H57.882a2.727,2.727,0,0,0,2.727-2.727Zm0,0" transform="translate(-6.699 -321.547)" fill="#838383"/>
      <path id="Trazado_1279075" data-name="Trazado 1279075" d="M453.862,360.016v3.842a2.726,2.726,0,0,1-2.726,2.727H447.8a2.726,2.726,0,0,0,2.727-2.727v-3.842Zm0,0" transform="translate(-399.952 -321.544)" fill="#5a5a5a"/>
      <path id="Trazado_1279076" data-name="Trazado 1279076" d="M161.449,467.787H136.964a.535.535,0,0,1-.534-.535v-1.731a2.126,2.126,0,0,1,2.126-2.126h21.3a2.126,2.126,0,0,1,2.126,2.126v1.731A.535.535,0,0,1,161.449,467.787Zm0,0" transform="translate(-121.851 -413.875)" fill="#838383"/>
      <path id="Trazado_1279077" data-name="Trazado 1279077" d="M337.551,465.52v1.732a.535.535,0,0,1-.535.535H335.13V465.52A2.127,2.127,0,0,0,333,463.395h2.421A2.126,2.126,0,0,1,337.551,465.52Zm0,0" transform="translate(-297.419 -413.875)" fill="#5a5a5a"/>
      <path id="Trazado_1279078" data-name="Trazado 1279078" d="M170.645,99.176h-9.891a.321.321,0,0,0-.321.321v7.515a.321.321,0,0,0,.321.321h2.566a.32.32,0,0,0,.316-.265c.131-.758.676-2.892,2.669-3.142l.045,0h1.531a.321.321,0,0,1,.321.321V118.4a.226.226,0,0,0,0,.024c.013.187.154,2.644-1.875,2.617h-1.644a.32.32,0,0,0-.321.321v2.091a.321.321,0,0,0,.321.321h11.926a.321.321,0,0,0,.321-.321v-2.091a.32.32,0,0,0-.321-.321h-1.644c-2.029.027-1.888-2.43-1.875-2.617a.22.22,0,0,0,0-.024V104.243a.32.32,0,0,1,.321-.321h1.53l.045,0c1.992.25,2.537,2.384,2.669,3.142a.32.32,0,0,0,.316.265h2.565a.321.321,0,0,0,.321-.321V99.5a.321.321,0,0,0-.321-.321Zm0,0" transform="translate(-143.289 -88.578)" fill="#80e0dc"/>
      <path id="Trazado_1279079" data-name="Trazado 1279079" d="M268.787,163.052v2.092a.321.321,0,0,1-.321.321h-1.142v-.855a.591.591,0,0,0-.589-.589h-1.476c-2.132.029-1.984-2.726-1.97-2.922,0-.008,0-.016,0-.025V146.2a.337.337,0,0,1,.337-.336h1.33a.32.32,0,0,0-.01.078v14.154c0,.008,0,.016,0,.023-.014.187-.155,2.644,1.875,2.616h1.644A.321.321,0,0,1,268.787,163.052Zm0,0" transform="translate(-235.147 -130.273)" fill="#00a8b0"/>
      <path id="Trazado_1279080" data-name="Trazado 1279080" d="M51.183,0H3.528A3.532,3.532,0,0,0,0,3.528V42.314a3.532,3.532,0,0,0,3.528,3.528h15.6v2.875H16.705a2.932,2.932,0,0,0-2.928,2.928v1.732a1.337,1.337,0,0,0,1.336,1.336H39.6a1.337,1.337,0,0,0,1.336-1.336V51.645a2.931,2.931,0,0,0-2.928-2.928H35.585V45.842h4.547a.8.8,0,0,0,0-1.6H3.528A1.927,1.927,0,0,1,1.6,42.314V39.274H53.109v3.041a1.927,1.927,0,0,1-1.925,1.925H45.2a.8.8,0,0,0,0,1.6h5.978a3.532,3.532,0,0,0,3.528-3.528V3.528A3.532,3.532,0,0,0,51.183,0ZM20.729,45.842H33.982v2.875H20.729Zm14.055,4.478h3.222a1.326,1.326,0,0,1,1.325,1.325V53.11H15.381V51.645a1.326,1.326,0,0,1,1.325-1.325Zm18.324-12.65H1.6V3.528A1.927,1.927,0,0,1,3.528,1.6H51.183a1.927,1.927,0,0,1,1.925,1.925V37.671Zm0,0"/>
      <path id="Trazado_1279081" data-name="Trazado 1279081" d="M373.636,93.789h-1.069a.8.8,0,1,0,0,1.6h1.069a.8.8,0,1,0,0-1.6Zm0,0" transform="translate(-332.038 -83.767)"/>
      <path id="Trazado_1279082" data-name="Trazado 1279082" d="M453.652,93.789h-1.069a.8.8,0,0,0,0,1.6h1.069a.8.8,0,0,0,0-1.6Zm0,0" transform="translate(-403.503 -83.767)"/>
      <path id="Trazado_1279083" data-name="Trazado 1279083" d="M413.644,93.789h-1.069a.8.8,0,1,0,0,1.6h1.069a.8.8,0,0,0,0-1.6Zm0,0" transform="translate(-367.771 -83.767)"/>
      <path id="Trazado_1279084" data-name="Trazado 1279084" d="M413.644,165.7h-1.069a.8.8,0,1,0,0,1.6h1.069a.8.8,0,0,0,0-1.6Zm0,0" transform="translate(-367.771 -147.989)"/>
      <path id="Trazado_1279085" data-name="Trazado 1279085" d="M373.636,165.7h-1.069a.8.8,0,1,0,0,1.6h1.069a.8.8,0,1,0,0-1.6Zm0,0" transform="translate(-332.038 -147.989)"/>
      <path id="Trazado_1279086" data-name="Trazado 1279086" d="M453.652,165.7h-1.069a.8.8,0,0,0,0,1.6h1.069a.8.8,0,1,0,0-1.6Zm0,0" transform="translate(-403.503 -147.989)"/>
      <path id="Trazado_1279087" data-name="Trazado 1279087" d="M34.874,93.789H33.806a.8.8,0,1,0,0,1.6h1.069a.8.8,0,1,0,0-1.6Zm0,0" transform="translate(-29.477 -83.767)"/>
      <path id="Trazado_1279088" data-name="Trazado 1279088" d="M74.882,93.789H73.814a.8.8,0,1,0,0,1.6h1.069a.8.8,0,0,0,0-1.6Zm0,0" transform="translate(-65.21 -83.767)"/>
      <path id="Trazado_1279089" data-name="Trazado 1279089" d="M114.89,93.789h-1.069a.8.8,0,0,0,0,1.6h1.069a.8.8,0,0,0,0-1.6Zm0,0" transform="translate(-100.942 -83.767)"/>
      <path id="Trazado_1279090" data-name="Trazado 1279090" d="M34.874,165.7H33.806a.8.8,0,1,0,0,1.6h1.069a.8.8,0,1,0,0-1.6Zm0,0" transform="translate(-29.477 -147.989)"/>
      <path id="Trazado_1279091" data-name="Trazado 1279091" d="M74.882,165.7H73.814a.8.8,0,1,0,0,1.6h1.069a.8.8,0,1,0,0-1.6Zm0,0" transform="translate(-65.21 -147.989)"/>
      <path id="Trazado_1279092" data-name="Trazado 1279092" d="M114.89,165.7h-1.069a.8.8,0,0,0,0,1.6h1.069a.8.8,0,1,0,0-1.6Zm0,0" transform="translate(-100.942 -147.989)"/>
      <path id="Trazado_1279093" data-name="Trazado 1279093" d="M173.838,91.672H154.056a1.123,1.123,0,0,0-1.122,1.122v7.515a1.123,1.123,0,0,0,1.122,1.122h2.566a1.119,1.119,0,0,0,1.105-.93c.351-2.024,1.461-2.41,1.953-2.48H160.7v4.762a.8.8,0,1,0,1.6,0V97.54a1.123,1.123,0,0,0-1.122-1.122H159.65a1.087,1.087,0,0,0-.144.009c-2.229.279-3.016,2.338-3.276,3.4h-1.694V93.275h18.82v6.553h-1.694c-.259-1.063-1.046-3.122-3.273-3.4a1.206,1.206,0,0,0-.147-.009h-1.531a1.124,1.124,0,0,0-1.122,1.122v14.138a3.842,3.842,0,0,0,.813,2.714,2.432,2.432,0,0,0,1.863.745h1.163v1.129H158.465v-1.129h1.153a2.438,2.438,0,0,0,1.873-.744,3.843,3.843,0,0,0,.813-2.715v-4.048a.8.8,0,1,0-1.6,0v4.065c0,.029,0,.057,0,.082a2.333,2.333,0,0,1-.379,1.516.843.843,0,0,1-.7.24h-1.644a1.124,1.124,0,0,0-1.122,1.122v2.091a1.123,1.123,0,0,0,1.122,1.122h11.925a1.124,1.124,0,0,0,1.122-1.122v-2.091a1.124,1.124,0,0,0-1.122-1.122h-1.677a.826.826,0,0,1-.662-.241,2.331,2.331,0,0,1-.38-1.512c0-.029,0-.057,0-.086V98.021h1.021c.49.07,1.6.454,1.952,2.48a1.121,1.121,0,0,0,1.106.93h2.566a1.123,1.123,0,0,0,1.122-1.122V92.794A1.123,1.123,0,0,0,173.838,91.672Zm0,0" transform="translate(-136.591 -81.876)"/>
      <path id="Trazado_1279094" data-name="Trazado 1279094" d="M173.27,32.786a.8.8,0,0,0-1.134,1.134l.085.085H155.668l.085-.085a.8.8,0,1,0-1.134-1.134l-1.453,1.453a.8.8,0,0,0,0,1.134l1.453,1.454a.8.8,0,1,0,1.134-1.134l-.085-.085h16.553l-.085.085a.8.8,0,0,0,1.134,1.134l1.453-1.454a.8.8,0,0,0,0-1.134Zm0,0" transform="translate(-136.589 -29.073)"/>
    </g>
  </g>
</svg>
