<svg xmlns="http://www.w3.org/2000/svg" xmlns:xlink="http://www.w3.org/1999/xlink" width="118" height="118" viewBox="0 0 118 118">
  <defs>
    <filter id="Elipse_12115" x="0" y="0" width="118" height="118" filterUnits="userSpaceOnUse">
      <feOffset dy="3" input="SourceAlpha"/>
      <feGaussianBlur stdDeviation="3" result="blur"/>
      <feFlood flood-opacity="0.161"/>
      <feComposite operator="in" in2="blur"/>
      <feComposite in="SourceGraphic"/>
    </filter>
  </defs>
  <g id="Grupo_1191288" data-name="Grupo 1191288" transform="translate(3806 8686)">
    <g id="Grupo_1191220" data-name="Grupo 1191220" transform="translate(-4551.781 -12532)">
      <g id="Grupo_1181949" data-name="Grupo 1181949" transform="translate(-54 1303)">
        <g transform="matrix(1, 0, 0, 1, 799.78, 2543)" filter="url(#Elipse_12115)">
          <g id="Elipse_12115-2" data-name="Elipse 12115" transform="translate(9 6)" fill="#f6bc1c" stroke="#ab8212" stroke-width="1.5">
            <circle cx="50" cy="50" r="50" stroke="none"/>
            <circle cx="50" cy="50" r="49.25" fill="none"/>
          </g>
        </g>
      </g>
    </g>
    <g id="bordesz" transform="translate(-3778 -8660)">
      <rect id="Rectángulo_411836" data-name="Rectángulo 411836" width="59" height="59" rx="6" transform="translate(1 1)" fill="#ffe8db"/>
      <path id="Trazado_1279095" data-name="Trazado 1279095" d="M24.316,24.316V4.667H41.51a2.456,2.456,0,0,1,2.454,2.454V24.316Zm-19.649,0V7.121A2.456,2.456,0,0,1,7.121,4.667H24.316V24.316ZM7.121,43.965A2.46,2.46,0,0,1,4.667,41.51V24.316H24.316V43.965Zm17.194,0V24.316H43.965V41.51a2.456,2.456,0,0,1-2.454,2.454Z" transform="translate(6.159 6.159)" fill="#ff9e68"/>
      <g id="Grupo_1191287" data-name="Grupo 1191287" transform="translate(9.596 9.596)">
        <path id="Trazado_1279096" data-name="Trazado 1279096" d="M42.281,45.965H7.892a3.687,3.687,0,0,1-3.684-3.684V7.892A3.689,3.689,0,0,1,7.892,4.208H42.281a3.689,3.689,0,0,1,3.684,3.684V42.281A3.689,3.689,0,0,1,42.281,45.965ZM7.892,6.665A1.23,1.23,0,0,0,6.665,7.892V42.281a1.233,1.233,0,0,0,1.227,1.227H42.281a1.23,1.23,0,0,0,1.227-1.227V7.892a1.23,1.23,0,0,0-1.227-1.227Z" transform="translate(-4.208 -4.208)" fill="#dd3814"/>
        <path id="Trazado_1279097" data-name="Trazado 1279097" d="M44.734,14H5.436a1.227,1.227,0,0,1,0-2.454h39.3a1.227,1.227,0,1,1,0,2.454Z" transform="translate(-4.206 8.11)" fill="#dd3814"/>
        <path id="Trazado_1279098" data-name="Trazado 1279098" d="M12.769,45.964a1.227,1.227,0,0,1-1.227-1.23V5.436a1.227,1.227,0,0,1,2.454,0v39.3a1.227,1.227,0,0,1-1.227,1.23Z" transform="translate(8.11 -4.206)" fill="#dd3814"/>
      </g>
    </g>
  </g>
</svg>
