<svg xmlns="http://www.w3.org/2000/svg" xmlns:xlink="http://www.w3.org/1999/xlink" width="96.638" height="96.638" viewBox="0 0 96.638 96.638">
  <defs>
    <filter id="Elipse_12115" x="0" y="0" width="96.638" height="96.638" filterUnits="userSpaceOnUse">
      <feOffset dy="3" input="SourceAlpha"/>
      <feGaussianBlur stdDeviation="3" result="blur"/>
      <feFlood flood-opacity="0.161"/>
      <feComposite operator="in" in2="blur"/>
      <feComposite in="SourceGraphic"/>
    </filter>
  </defs>
  <g id="Grupo_1191228" data-name="Grupo 1191228" transform="translate(-745.781 -3846)">
    <g id="Grupo_1181949" data-name="Grupo 1181949" transform="translate(754.781 3852)">
      <g transform="matrix(1, 0, 0, 1, -9, -6)" filter="url(#Elipse_12115)">
        <g id="Elipse_12115-2" data-name="Elipse 12115" transform="translate(9 6)" fill="#f6bc1c" stroke="#ab8212" stroke-width="1.5">
          <circle cx="39.319" cy="39.319" r="39.319" stroke="none"/>
          <circle cx="39.319" cy="39.319" r="38.569" fill="none"/>
        </g>
      </g>
    </g>
    <g id="_06._xls_Microsoft_Excel_Spreadsheet_" data-name="06. xls (Microsoft Excel Spreadsheet)" transform="translate(771.282 3864.533)">
      <path id="Trazado_1263190" data-name="Trazado 1263190" d="M7,6.968V50.619a3.968,3.968,0,0,0,3.968,3.968H38.746a3.968,3.968,0,0,0,3.968-3.968V14.9L30.809,3H10.968A3.968,3.968,0,0,0,7,6.968Z" transform="translate(-2.04 -2.008)" fill="#fff"/>
      <path id="Trazado_1263191" data-name="Trazado 1263191" d="M7,21H42.714v1.984H7Z" transform="translate(-2.04 15.706)" fill="gray"/>
      <path id="Trazado_1263192" data-name="Trazado 1263192" d="M5,20v5.952l3.968,1.984V21.984Z" transform="translate(-4.008 14.722)" fill="#006837"/>
      <path id="Trazado_1263193" data-name="Trazado 1263193" d="M28.968,20v5.952L25,27.936V21.984Z" transform="translate(15.674 14.722)" fill="#006837"/>
      <rect id="Rectángulo_411034" data-name="Rectángulo 411034" width="43.651" height="19.841" rx="2" transform="translate(0.992 16.865)" fill="#22b573"/>
      <path id="Trazado_1263194" data-name="Trazado 1263194" d="M18,3V14.9a1.984,1.984,0,0,0,1.984,1.984h11.9V14.9L19.984,3Z" transform="translate(8.786 -2.008)" fill="gray"/>
      <path id="Trazado_1263195" data-name="Trazado 1263195" d="M19,3,30.9,14.9H20.984A1.984,1.984,0,0,1,19,12.921Z" transform="translate(9.77 -2.008)" fill="#22b573"/>
      <path id="Trazado_1263196" data-name="Trazado 1263196" d="M12.436,9.444a.992.992,0,0,1,.992-.992h9.921a.992.992,0,1,1,0,1.984H13.429A.992.992,0,0,1,12.436,9.444ZM27.317,14.4H13.429a.992.992,0,1,0,0,1.984H27.317a.992.992,0,0,0,0-1.984ZM13.429,44.166H31.286a.992.992,0,0,0,0-1.984H13.429a.992.992,0,1,0,0,1.984Zm27.778-1.984H35.254a.992.992,0,1,0,0,1.984h5.952a.992.992,0,0,0,0-1.984Zm-3.968,5.952H13.429a.992.992,0,1,0,0,1.984H37.238a.992.992,0,1,0,0-1.984Zm12.9-24.8V41.19a4.961,4.961,0,0,1-3.969,4.861v5.059a4.96,4.96,0,0,1-4.96,4.96H13.429a4.96,4.96,0,0,1-4.96-4.96v-5.06A4.96,4.96,0,0,1,4.5,41.19V23.333a4.961,4.961,0,0,1,3.969-4.861V7.46a4.96,4.96,0,0,1,4.96-4.96h20.1a.794.794,0,0,1,.437.238l11.9,11.9a.794.794,0,0,1,.238.437,1.266,1.266,0,0,1,0,.139v3.194a4.96,4.96,0,0,1,4.028,4.921ZM34.262,5.893v7.52a.992.992,0,0,0,.992.992h7.52ZM10.452,18.373h33.73V16.389H35.254a2.976,2.976,0,0,1-2.976-2.976V4.484H13.429A2.976,2.976,0,0,0,10.452,7.46ZM6.484,35.238A2.976,2.976,0,0,0,9.46,38.214H45.174a2.976,2.976,0,0,0,2.976-2.976v-11.9a2.976,2.976,0,0,0-2.976-2.976H9.46a2.976,2.976,0,0,0-2.976,2.976Zm1.984,8.75V40.02a5.04,5.04,0,0,1-1.984-.913v1.984a3,3,0,0,0,1.984,2.9ZM44.182,40.2H10.452V51.111a2.976,2.976,0,0,0,2.976,2.976H41.206a2.976,2.976,0,0,0,2.976-2.976Zm3.968.992V39.206a5.04,5.04,0,0,1-1.984.913v3.968a3,3,0,0,0,1.984-2.9Zm-12.4-7.936h-.992a1.508,1.508,0,0,1-1.488-1.488.992.992,0,1,0-1.984,0,3.492,3.492,0,0,0,3.472,3.472h.992a3.472,3.472,0,1,0,0-6.944h-.992a1.488,1.488,0,1,1,0-2.976h.992a1.508,1.508,0,0,1,1.488,1.488.992.992,0,1,0,1.984,0,3.492,3.492,0,0,0-3.472-3.472h-.992a3.472,3.472,0,0,0,0,6.944h.992a1.488,1.488,0,1,1,0,2.976ZM15.909,35.1a.952.952,0,0,0,.516.139,1.032,1.032,0,0,0,.853-.476l2.1-3.492L21.5,34.821a1.032,1.032,0,0,0,.853.476.952.952,0,0,0,.516-.139,1.012,1.012,0,0,0,.337-1.369l-2.679-4.5,2.679-4.444A1,1,0,0,0,21.5,23.809L19.381,27.3,17.258,23.75a1,1,0,1,0-1.706,1.032l2.679,4.5L15.552,33.73a1.012,1.012,0,0,0,.337,1.369Zm11.409.139a.992.992,0,0,0,.992-.992V24.325a.992.992,0,0,0-1.984,0v9.921A.992.992,0,0,0,27.317,35.238Z" transform="translate(-4.5 -2.5)"/>
    </g>
  </g>
</svg>
