<svg xmlns="http://www.w3.org/2000/svg" xmlns:xlink="http://www.w3.org/1999/xlink" width="118" height="118" viewBox="0 0 118 118">
  <defs>
    <filter id="Elipse_12115" x="0" y="0" width="118" height="118" filterUnits="userSpaceOnUse">
      <feOffset dy="3" input="SourceAlpha"/>
      <feGaussianBlur stdDeviation="3" result="blur"/>
      <feFlood flood-opacity="0.161"/>
      <feComposite operator="in" in2="blur"/>
      <feComposite in="SourceGraphic"/>
    </filter>
  </defs>
  <g id="Grupo_1191313" data-name="Grupo 1191313" transform="translate(-531 -731)">
    <g id="Grupo_1191239" data-name="Grupo 1191239" transform="translate(-214.781 -3115)">
      <g id="Grupo_1181949" data-name="Grupo 1181949" transform="translate(-54 1303)">
        <g transform="matrix(1, 0, 0, 1, 799.78, 2543)" filter="url(#Elipse_12115)">
          <g id="Elipse_12115-2" data-name="Elipse 12115" transform="translate(9 6)" fill="#f6bc1c" stroke="#ab8212" stroke-width="1.5">
            <circle cx="50" cy="50" r="50" stroke="none"/>
            <circle cx="50" cy="50" r="49.25" fill="none"/>
          </g>
        </g>
      </g>
    </g>
    <g id="gg" transform="translate(551.884 748.247)">
      <circle id="Elipse_12304" data-name="Elipse 12304" cx="2.934" cy="2.934" r="2.934" transform="translate(50.869 60.089)" fill="#ffcdbe"/>
      <circle id="Elipse_12305" data-name="Elipse 12305" cx="2.934" cy="2.934" r="2.934" transform="translate(50.869 40.148)" fill="#ffcdbe"/>
      <rect id="Rect치ngulo_411908" data-name="Rect치ngulo 411908" width="23.587" height="7.006" rx="3" transform="translate(41.979 19.87)" fill="#31ba5c"/>
      <rect id="Rect치ngulo_411909" data-name="Rect치ngulo 411909" width="23.587" height="7.006" rx="3" transform="translate(41.979 49.595)" fill="#ffcdbe"/>
      <path id="Trazado_1279539" data-name="Trazado 1279539" d="M33.623,20.818H28.491a1.579,1.579,0,0,1-1.579-1.579V14.106a1.579,1.579,0,0,0-1.579-1.579H21.486a1.579,1.579,0,0,0-1.579,1.579v5.132a1.579,1.579,0,0,1-1.579,1.579H13.2A1.579,1.579,0,0,0,11.616,22.4v3.847A1.579,1.579,0,0,0,13.2,27.823h5.132A1.579,1.579,0,0,1,19.907,29.4v5.132a1.579,1.579,0,0,0,1.579,1.579h3.847a1.579,1.579,0,0,0,1.579-1.579V29.4a1.579,1.579,0,0,1,1.579-1.579h5.132A1.579,1.579,0,0,0,35.2,26.244V22.4a1.579,1.579,0,0,0-1.579-1.579Z" transform="translate(-0.947 -0.947)" fill="#ff5f76"/>
      <path id="Trazado_1279540" data-name="Trazado 1279540" d="M34.575,75.878l-2.72-2.72a1.579,1.579,0,0,0-2.233,0l-3.629,3.629a1.579,1.579,0,0,1-2.233,0l-3.632-3.629a1.579,1.579,0,0,0-2.233,0l-2.72,2.72a1.579,1.579,0,0,0,0,2.233L18.8,81.741a1.579,1.579,0,0,1,0,2.233L15.174,87.6a1.579,1.579,0,0,0,0,2.233l2.72,2.72a1.579,1.579,0,0,0,2.233,0l3.632-3.629a1.579,1.579,0,0,1,2.233,0l3.629,3.629a1.579,1.579,0,0,0,2.233,0l2.72-2.72a1.579,1.579,0,0,0,0-2.233l-3.629-3.629a1.579,1.579,0,0,1,0-2.233l3.629-3.629a1.579,1.579,0,0,0,0-2.233Z" transform="translate(-2.413 -29.443)" fill="#f7ca72"/>
      <g id="Grupo_1191314" data-name="Grupo 1191314" transform="translate(9.616 10.527)">
        <path id="Trazado_1279541" data-name="Trazado 1279541" d="M89.972,102.681a3.986,3.986,0,1,0,3.986,3.986A3.991,3.991,0,0,0,89.972,102.681Zm0,5.867a1.881,1.881,0,1,1,1.881-1.881,1.881,1.881,0,0,1-1.881,1.881Z" transform="translate(-45.785 -54.172)" fill="#3b4456"/>
        <path id="Trazado_1279542" data-name="Trazado 1279542" d="M93.985,68.786A3.986,3.986,0,1,0,90,72.772,3.991,3.991,0,0,0,93.985,68.786Zm-5.867,0A1.881,1.881,0,1,1,90,70.667,1.881,1.881,0,0,1,88.118,68.786Z" transform="translate(-45.812 -36.231)" fill="#3b4456"/>
        <path id="Trazado_1279543" data-name="Trazado 1279543" d="M92.156,26.276H71.732A2.635,2.635,0,0,0,69.1,28.908v3.847a2.635,2.635,0,0,0,2.632,2.632H92.156a2.635,2.635,0,0,0,2.632-2.632V28.908a2.635,2.635,0,0,0-2.632-2.632Zm.526,6.479a.526.526,0,0,1-.526.526H71.732a.526.526,0,0,1-.526-.526V28.908a.526.526,0,0,1,.526-.526H92.156a.526.526,0,0,1,.526.526Z" transform="translate(-37.788 -17.986)" fill="#3b4456"/>
        <path id="Trazado_1279544" data-name="Trazado 1279544" d="M92.156,82.745H71.732A2.635,2.635,0,0,0,69.1,85.377v3.847a2.635,2.635,0,0,0,2.632,2.632H92.156a2.635,2.635,0,0,0,2.632-2.632V85.377a2.635,2.635,0,0,0-2.632-2.632Zm.526,6.479a.526.526,0,0,1-.526.526H71.732a.526.526,0,0,1-.526-.526V85.377a.526.526,0,0,1,.526-.526H92.156a.526.526,0,0,1,.526.526Z" transform="translate(-37.788 -44.73)" fill="#3b4456"/>
        <path id="Trazado_1279545" data-name="Trazado 1279545" d="M32.676,18.817H27.544a.526.526,0,0,1-.526-.526V13.159a2.635,2.635,0,0,0-2.632-2.632H20.538a2.635,2.635,0,0,0-2.632,2.632v5.132a.526.526,0,0,1-.526.526H12.248a2.635,2.635,0,0,0-2.632,2.632V25.3a2.635,2.635,0,0,0,2.632,2.632H17.38a.526.526,0,0,1,.526.526v5.132a2.635,2.635,0,0,0,2.632,2.632h3.847a2.635,2.635,0,0,0,2.632-2.632V28.455a.526.526,0,0,1,.526-.526h5.132A2.635,2.635,0,0,0,35.308,25.3V21.449A2.635,2.635,0,0,0,32.676,18.817ZM33.2,25.3a.526.526,0,0,1-.526.526H27.544a2.635,2.635,0,0,0-2.632,2.632v5.132a.526.526,0,0,1-.526.526H20.538a.526.526,0,0,1-.526-.526V28.455a2.635,2.635,0,0,0-2.632-2.632H12.248a.526.526,0,0,1-.526-.526V21.449a.526.526,0,0,1,.526-.526H17.38a2.635,2.635,0,0,0,2.632-2.632V13.159a.526.526,0,0,1,.526-.526h3.847a.526.526,0,0,1,.526.526v5.132a2.635,2.635,0,0,0,2.632,2.632h5.132a.526.526,0,0,1,.526.526Z" transform="translate(-9.616 -10.527)" fill="#3b4456"/>
        <path id="Trazado_1279546" data-name="Trazado 1279546" d="M34.378,77.911a2.635,2.635,0,0,0,0-3.722l-2.72-2.721a2.635,2.635,0,0,0-3.722,0L24.307,75.1a.526.526,0,0,1-.745,0l-3.628-3.629a2.635,2.635,0,0,0-3.722,0l-2.72,2.72a2.644,2.644,0,0,0,0,3.722l3.629,3.632a.526.526,0,0,1,0,.744l-3.629,3.626a2.644,2.644,0,0,0,0,3.722l2.72,2.721a2.635,2.635,0,0,0,3.722,0l3.628-3.629a.526.526,0,0,1,.745,0l3.628,3.629a2.636,2.636,0,0,0,3.722,0l2.721-2.72a2.635,2.635,0,0,0,0-3.722L30.75,82.281a.526.526,0,0,1,0-.744Zm-5.118,5.861L32.89,87.4a.526.526,0,0,1,0,.744l-2.72,2.72a.526.526,0,0,1-.745,0L25.8,87.239a2.636,2.636,0,0,0-3.723,0l-3.628,3.629a.526.526,0,0,1-.745,0l-2.72-2.72a.526.526,0,0,1,0-.744l3.629-3.632a2.632,2.632,0,0,0,0-3.722L14.98,76.418a.526.526,0,0,1,0-.744l2.72-2.72a.526.526,0,0,1,.745,0l3.628,3.629a2.636,2.636,0,0,0,3.723,0l3.628-3.629a.526.526,0,0,1,.745,0l2.72,2.72a.526.526,0,0,1,0,.745L29.26,80.047a2.644,2.644,0,0,0,0,3.725Z" transform="translate(-11.088 -39.024)" fill="#3b4456"/>
      </g>
    </g>
  </g>
</svg>
