<svg xmlns="http://www.w3.org/2000/svg" xmlns:xlink="http://www.w3.org/1999/xlink" width="210" height="205.75" viewBox="0 0 210 205.75">
  <defs>
    <clipPath id="clip-path">
      <rect id="Rectángulo_411979" data-name="Rectángulo 411979" width="189.977" height="114.512" fill="none"/>
    </clipPath>
  </defs>
  <g id="Grupo_1191335" data-name="Grupo 1191335" transform="translate(-390.051 -2187)">
    <g id="Grupo_1191275" data-name="Grupo 1191275">
      <g id="Grupo_1191212" data-name="Grupo 1191212" transform="translate(390.051 2187)">
        <rect id="Rectángulo_35205" data-name="Rectángulo 35205" width="210" height="205.75" transform="translate(0 0)" fill="#fdf699"/>
      </g>
    </g>
    <g id="Grupo_1191334" data-name="Grupo 1191334" transform="translate(400.063 2232.979)">
      <rect id="Rectángulo_411969" data-name="Rectángulo 411969" width="22.563" height="20.943" transform="translate(89.634 83.549)" fill="#f9e5ef"/>
      <path id="Trazado_1279557" data-name="Trazado 1279557" d="M880.2,820.245H857.328V798.988H880.2Zm-22.563-.313h22.25V799.3h-22.25Z" transform="translate(-767.85 -715.596)" fill="#1b2746"/>
      <g id="Grupo_1191333" data-name="Grupo 1191333" transform="translate(0 0.004)">
        <g id="Grupo_1191332" data-name="Grupo 1191332" clip-path="url(#clip-path)">
          <path id="Trazado_1279558" data-name="Trazado 1279558" d="M498.657,88.521H383.343a2.833,2.833,0,0,1-2.833-2.833V4.336A2.833,2.833,0,0,1,383.343,1.5H498.657a2.833,2.833,0,0,1,2.832,2.833V85.689a2.833,2.833,0,0,1-2.832,2.833" transform="translate(-340.797 -1.347)" fill="#9fa4d5"/>
          <path id="Trazado_1279559" data-name="Trazado 1279559" d="M497.313,87.336H382a2.992,2.992,0,0,1-2.989-2.989V2.993A2.992,2.992,0,0,1,382,0H497.313A2.992,2.992,0,0,1,500.3,2.993V84.346a2.992,2.992,0,0,1-2.989,2.989M382,.317a2.679,2.679,0,0,0-2.676,2.676V84.346A2.679,2.679,0,0,0,382,87.022H497.313a2.679,2.679,0,0,0,2.676-2.676V2.993A2.679,2.679,0,0,0,497.313.317Z" transform="translate(-339.453 -0.004)" fill="#1b2746"/>
          <rect id="Rectángulo_411970" data-name="Rectángulo 411970" width="107.419" height="69.793" transform="translate(47.005 6.106)" fill="#f9e5ef"/>
          <path id="Trazado_1279560" data-name="Trazado 1279560" d="M556.609,127.116H448.877V57.009H556.609ZM449.19,126.8H556.3V57.322H449.19Z" transform="translate(-402.029 -51.059)" fill="#1b2746"/>
          <rect id="Rectángulo_411971" data-name="Rectángulo 411971" width="46.612" height="10.17" transform="translate(77.61 104.186)" fill="#f9e5ef"/>
          <path id="Trazado_1279561" data-name="Trazado 1279561" d="M789.043,1007.241H742.118V996.758h46.925Zm-46.612-.313h46.3v-9.857h-46.3Z" transform="translate(-664.665 -892.729)" fill="#1b2746"/>
          <path id="Trazado_1279562" data-name="Trazado 1279562" d="M1305.009,95.336a1.309,1.309,0,1,1-1.309-1.309,1.309,1.309,0,0,1,1.309,1.309" transform="translate(-1166.463 -84.214)" fill="#111d96"/>
          <path id="Trazado_1279563" data-name="Trazado 1279563" d="M1350.326,95.131a1.309,1.309,0,1,1-1.309-1.309,1.309,1.309,0,0,1,1.309,1.309" transform="translate(-1207.05 -84.03)" fill="#111d96"/>
          <path id="Trazado_1279564" data-name="Trazado 1279564" d="M1395.645,95.131a1.309,1.309,0,1,1-1.309-1.309,1.309,1.309,0,0,1,1.309,1.309" transform="translate(-1247.64 -84.03)" fill="#111d96"/>
          <path id="Trazado_1279565" data-name="Trazado 1279565" d="M944.958,759.789a2.643,2.643,0,1,1-2.643-2.643,2.643,2.643,0,0,1,2.643,2.643" transform="translate(-841.601 -678.125)" fill="#0e2549"/>
          <rect id="Rectángulo_411972" data-name="Rectángulo 411972" width="16.641" height="8.664" transform="translate(84.073 33.598)" fill="#31ba5c"/>
          <rect id="Rectángulo_411973" data-name="Rectángulo 411973" width="16.009" height="8.664" transform="translate(100.714 24.784)" fill="#31ba5c"/>
          <rect id="Rectángulo_411974" data-name="Rectángulo 411974" width="16.852" height="8.664" transform="translate(67.221 42.324)" fill="#31ba5c"/>
          <rect id="Rectángulo_411975" data-name="Rectángulo 411975" width="98.16" height="9.104" transform="translate(50.643 15.583)" fill="#ace3be"/>
          <rect id="Rectángulo_411976" data-name="Rectángulo 411976" width="16.368" height="8.664" transform="translate(50.643 51.152)" fill="#31ba5c"/>
          <path id="Trazado_1279566" data-name="Trazado 1279566" d="M483.734,147.814V201.2H500.1v7.089a.157.157,0,1,0,.313,0V201.2h16.749v7.089a.157.157,0,1,0,.313,0V201.2h16.328v7.089a.157.157,0,0,0,.313,0V201.2h15.7v7.089a.157.157,0,1,0,.313,0V201.2h15.826v5.964a.157.157,0,0,0,.313,0V201.2h15.941V147.814ZM565.953,192.1H550.128v-8.462h15.826Zm-16.139,0h-15.7v-8.462h15.7Zm-16.009,0H517.477v-8.462h16.328Zm-16.641,0H500.415v-8.462h16.749Zm-17.062,0H484.047v-8.462H500.1Zm66.164-8.462h15.628V192.1H566.266Zm-82.219,8.788H500.1v8.462H484.047Zm16.368,0h16.749v8.462H500.415Zm17.062,0h16.328v8.462H517.477Zm16.641,0h15.7v8.462h-15.7Zm16.009,0h15.826v8.462H550.128Zm31.767,8.462H566.266v-8.462h15.628Zm0-52.757v8.826H566.266v-8.782a.152.152,0,0,0-.007-.044Zm-15.628,17.927h15.628v8.439H566.266Zm15.628,17.227H566.266v-8.475h15.628Zm-15.628-26.015h15.628v8.475H566.266Zm-16.139-9.139H565.96a.159.159,0,0,0-.007.044v8.782H550.128Zm0,9.139h15.826v8.475H550.128Zm0,8.788h15.826v8.439H550.128Zm0,8.752h15.826v8.475H550.128Zm-16.009-26.679h15.7v8.826h-15.7Zm0,9.139h15.7v8.475h-15.7Zm0,8.788h15.7v8.439h-15.7Zm0,8.752h15.7v8.475h-15.7Zm-16.641-26.679h16.328v8.826H517.477Zm0,9.139h16.328v8.475H517.477Zm0,8.788h16.328v8.439H517.477Zm0,8.752h16.328v8.475H517.477Zm-.313-26.679v8.826H500.415v-8.782a.152.152,0,0,0-.007-.044Zm-16.749,17.927h16.749v8.439H500.415Zm16.749,17.227H500.415v-8.475h16.749Zm-16.749-26.015h16.749v8.475H500.415Zm-16.368-9.139h16.062a.155.155,0,0,0-.007.044v8.782H484.047Zm0,9.139H500.1v8.475H484.047Zm0,8.788H500.1v8.439H484.047Zm0,8.752H500.1v8.475H484.047Z" transform="translate(-433.248 -132.387)" fill="#0e2549"/>
          <rect id="Rectángulo_411977" data-name="Rectángulo 411977" width="23.513" height="12.822" transform="translate(5.956 101.534)" fill="#f9e5ef"/>
          <path id="Trazado_1279567" data-name="Trazado 1279567" d="M57.066,1037.982h0Z" transform="translate(-51.11 -929.65)" fill="#d2ebfc"/>
          <path id="Trazado_1279568" data-name="Trazado 1279568" d="M55.566,984.48H79.393V971.345H55.566Zm23.513-6.337h-23.2v-6.485h23.2Zm-23.2.313h23.2v5.711h-23.2Z" transform="translate(-49.767 -869.968)" fill="#0e2549"/>
          <rect id="Rectángulo_411978" data-name="Rectángulo 411978" width="23.513" height="6.024" transform="translate(146.616 108.332)" fill="#f9e5ef"/>
          <path id="Trazado_1279569" data-name="Trazado 1279569" d="M1427.12,1042.819h-23.826v-6.337h23.826Zm-23.513-.313h23.2V1036.8h-23.2Z" transform="translate(-1256.835 -928.307)" fill="#1b2746"/>
          <path id="Trazado_1279570" data-name="Trazado 1279570" d="M189.82,1094.513H.157a.157.157,0,0,1,0-.313H189.82a.157.157,0,1,1,0,.313" transform="translate(0 -980.001)" fill="#0e2549"/>
        </g>
      </g>
    </g>
  </g>
</svg>
