<svg xmlns="http://www.w3.org/2000/svg" xmlns:xlink="http://www.w3.org/1999/xlink" width="295" height="223" viewBox="0 0 295 223">
  <defs>
    <clipPath id="clip-path">
      <rect id="Rectángulo_411956" data-name="Rectángulo 411956" width="192.662" height="175.523" fill="none"/>
    </clipPath>
  </defs>
  <g id="Grupo_1191317" data-name="Grupo 1191317" transform="translate(-915 -3785)">
    <rect id="Rectángulo_411767" data-name="Rectángulo 411767" width="295" height="223" transform="translate(915 3785)" fill="#31ba5c"/>
    <g id="Grupo_1191316" data-name="Grupo 1191316" transform="translate(968.574 3810.538)">
      <g id="Grupo_1191315" data-name="Grupo 1191315" clip-path="url(#clip-path)">
        <path id="Rectángulo_411910" data-name="Rectángulo 411910" d="M6.131,0H153.906a6.132,6.132,0,0,1,6.132,6.132V96.16a6.131,6.131,0,0,1-6.131,6.131H6.131A6.131,6.131,0,0,1,0,96.16V6.131A6.131,6.131,0,0,1,6.131,0Z" transform="translate(16.312 60.629)" fill="#262120"/>
        <rect id="Rectángulo_411911" data-name="Rectángulo 411911" width="143.226" height="84.021" transform="translate(24.718 69.764)" fill="#61b9ce"/>
        <path id="Trazado_1279547" data-name="Trazado 1279547" d="M0,234.8v8.751A3.852,3.852,0,0,0,3.852,247.4H188.81a3.852,3.852,0,0,0,3.852-3.852V234.8Z" transform="translate(0 -71.878)" fill="#333132"/>
        <rect id="Rectángulo_411912" data-name="Rectángulo 411912" width="46.385" height="6.302" transform="translate(73.138 162.92)" fill="#5f5f64"/>
        <rect id="Rectángulo_411913" data-name="Rectángulo 411913" width="91.244" height="117.856" transform="translate(32.736)" fill="#f5f6f7"/>
        <path id="Trazado_1279548" data-name="Trazado 1279548" d="M72.4,77.916l-3.023.01-8.22.026A20.664,20.664,0,0,0,71.535,95.819l4.1-7.146,1.493-2.6A9.412,9.412,0,0,1,72.4,77.916" transform="translate(-18.723 -23.852)" fill="#4f9a1b"/>
        <path id="Trazado_1279549" data-name="Trazado 1279549" d="M72.4,70.067v-.02a9.415,9.415,0,0,1,4.678-8.129l-1.54-2.635-4.13-7.068A20.659,20.659,0,0,0,61.159,70.047c0,.026,0,.052,0,.078l8.219-.042Z" transform="translate(-18.722 -15.985)" fill="#d50006"/>
        <path id="Trazado_1279550" data-name="Trazado 1279550" d="M86.376,48.149a20.521,20.521,0,0,0-10.309,2.769l4.093,7.089,1.526,2.643a9.379,9.379,0,0,1,9.38,0l1.527-2.644,4.092-7.088a20.51,20.51,0,0,0-10.309-2.769" transform="translate(-23.286 -14.74)" fill="#f59300"/>
        <path id="Trazado_1279551" data-name="Trazado 1279551" d="M113.669,70.051A20.658,20.658,0,0,0,103.43,52.228L99.3,59.292l-1.542,2.635a9.411,9.411,0,0,1,4.671,8.125v.026l3.024.018,8.218.049c0-.031,0-.062,0-.093" transform="translate(-29.925 -15.988)" fill="#ffe109"/>
        <path id="Trazado_1279552" data-name="Trazado 1279552" d="M113.642,77.981l-8.219-.035-3.023-.013a9.414,9.414,0,0,1-4.729,8.147l1.49,2.606,4.087,7.15a20.662,20.662,0,0,0,10.395-17.855" transform="translate(-29.899 -23.857)" fill="#e4d500"/>
        <path id="Trazado_1279553" data-name="Trazado 1279553" d="M86.327,102.15a20.526,20.526,0,0,0,10.25-2.735l-4.085-7.152L91,89.656a9.378,9.378,0,0,1-9.431-.044L80.06,92.2l-4.152,7.113a20.522,20.522,0,0,0,10.419,2.832" transform="translate(-23.238 -27.433)" fill="#94b200"/>
        <rect id="Rectángulo_411914" data-name="Rectángulo 411914" width="52.211" height="3.758" transform="translate(52.252 13.58)" fill="#757479"/>
        <rect id="Rectángulo_411915" data-name="Rectángulo 411915" width="28.894" height="3.757" transform="translate(63.911 19.329)" fill="#757479"/>
        <rect id="Rectángulo_411916" data-name="Rectángulo 411916" width="29.539" height="2.22" transform="translate(88.447 33.28)" fill="#b6b8bf"/>
        <rect id="Rectángulo_411917" data-name="Rectángulo 411917" width="29.539" height="2.22" transform="translate(88.447 38.476)" fill="#b6b8bf"/>
        <rect id="Rectángulo_411918" data-name="Rectángulo 411918" width="29.539" height="2.22" transform="translate(88.447 43.671)" fill="#b6b8bf"/>
        <rect id="Rectángulo_411919" data-name="Rectángulo 411919" width="29.539" height="2.22" transform="translate(88.447 48.867)" fill="#b6b8bf"/>
        <rect id="Rectángulo_411920" data-name="Rectángulo 411920" width="29.539" height="2.22" transform="translate(88.447 54.063)" fill="#b6b8bf"/>
        <rect id="Rectángulo_411921" data-name="Rectángulo 411921" width="29.539" height="2.22" transform="translate(88.447 59.259)" fill="#b6b8bf"/>
        <rect id="Rectángulo_411922" data-name="Rectángulo 411922" width="29.539" height="2.22" transform="translate(88.447 64.455)" fill="#b6b8bf"/>
        <rect id="Rectángulo_411923" data-name="Rectángulo 411923" width="29.539" height="2.22" transform="translate(88.447 69.65)" fill="#b6b8bf"/>
        <rect id="Rectángulo_411924" data-name="Rectángulo 411924" width="29.539" height="2.219" transform="translate(88.447 74.847)" fill="#b6b8bf"/>
        <rect id="Rectángulo_411925" data-name="Rectángulo 411925" width="76.902" height="2.22" transform="translate(41.084 80.042)" fill="#b6b8bf"/>
        <rect id="Rectángulo_411926" data-name="Rectángulo 411926" width="76.902" height="2.22" transform="translate(41.084 85.238)" fill="#b6b8bf"/>
        <rect id="Rectángulo_411927" data-name="Rectángulo 411927" width="76.902" height="2.219" transform="translate(41.084 90.434)" fill="#b6b8bf"/>
        <rect id="Rectángulo_411928" data-name="Rectángulo 411928" width="76.902" height="2.219" transform="translate(41.084 95.63)" fill="#b6b8bf"/>
        <rect id="Rectángulo_411929" data-name="Rectángulo 411929" width="76.902" height="2.22" transform="translate(41.084 100.825)" fill="#b6b8bf"/>
        <rect id="Rectángulo_411930" data-name="Rectángulo 411930" width="76.902" height="2.22" transform="translate(41.084 106.021)" fill="#b6b8bf"/>
        <path id="Trazado_1279554" data-name="Trazado 1279554" d="M98.9,162.233h91.3V54.954H98.9Zm6.085-8.138a1.952,1.952,0,1,1,1.953-1.952,1.951,1.951,0,0,1-1.953,1.952m0-7.918a1.952,1.952,0,1,1,1.953-1.952,1.952,1.952,0,0,1-1.953,1.952m0-7.918a1.952,1.952,0,1,1,1.953-1.952,1.951,1.951,0,0,1-1.953,1.952m0-7.918a1.952,1.952,0,1,1,1.953-1.952,1.952,1.952,0,0,1-1.953,1.952m0-7.918a1.953,1.953,0,1,1,1.953-1.952,1.952,1.952,0,0,1-1.953,1.952m0-7.918a1.952,1.952,0,1,1,1.953-1.952,1.952,1.952,0,0,1-1.953,1.952m0-7.918a1.953,1.953,0,1,1,1.953-1.953,1.953,1.953,0,0,1-1.953,1.953m0-7.918a1.952,1.952,0,1,1,1.953-1.953,1.952,1.952,0,0,1-1.953,1.953m0-7.918a1.952,1.952,0,1,1,1.953-1.952,1.951,1.951,0,0,1-1.953,1.952m0-7.917a1.952,1.952,0,1,1,1.953-1.953,1.953,1.953,0,0,1-1.953,1.953m0-7.918a1.952,1.952,0,1,1,1.953-1.952,1.952,1.952,0,0,1-1.953,1.952m0-7.918a1.952,1.952,0,1,1,1.953-1.952A1.951,1.951,0,0,1,104.986,67" transform="translate(-30.276 -16.823)" fill="#fff"/>
        <rect id="Rectángulo_411931" data-name="Rectángulo 411931" width="18.41" height="6.668" transform="translate(80.518 45.481)" fill="#abd7d3"/>
        <rect id="Rectángulo_411932" data-name="Rectángulo 411932" width="18.411" height="6.667" transform="translate(98.928 58.817)" fill="#abd7d3"/>
        <rect id="Rectángulo_411933" data-name="Rectángulo 411933" width="18.411" height="6.668" transform="translate(98.928 72.152)" fill="#abd7d3"/>
        <rect id="Rectángulo_411934" data-name="Rectángulo 411934" width="18.41" height="6.668" transform="translate(135.748 65.484)" fill="#abd7d3"/>
        <rect id="Rectángulo_411935" data-name="Rectángulo 411935" width="18.41" height="6.668" transform="translate(80.518 85.487)" fill="#abd7d3"/>
        <rect id="Rectángulo_411936" data-name="Rectángulo 411936" width="18.411" height="6.667" transform="translate(117.337 92.155)" fill="#abd7d3"/>
        <rect id="Rectángulo_411937" data-name="Rectángulo 411937" width="18.41" height="6.668" transform="translate(80.518 105.49)" fill="#abd7d3"/>
        <rect id="Rectángulo_411938" data-name="Rectángulo 411938" width="18.411" height="6.668" transform="translate(98.928 112.159)" fill="#abd7d3"/>
        <rect id="Rectángulo_411939" data-name="Rectángulo 411939" width="18.41" height="6.668" transform="translate(135.748 118.826)" fill="#abd7d3"/>
        <rect id="Rectángulo_411940" data-name="Rectángulo 411940" width="18.41" height="6.552" transform="translate(80.518 132.278)" fill="#abd7d3"/>
        <rect id="Rectángulo_411941" data-name="Rectángulo 411941" width="18.41" height="6.668" transform="translate(135.748 132.278)" fill="#abd7d3"/>
        <rect id="Rectángulo_411942" data-name="Rectángulo 411942" width="18.411" height="6.668" transform="translate(117.337 45.481)" fill="#cfd1d6"/>
        <rect id="Rectángulo_411943" data-name="Rectángulo 411943" width="18.411" height="6.668" transform="translate(98.928 52.149)" fill="#cfd1d6"/>
        <rect id="Rectángulo_411944" data-name="Rectángulo 411944" width="18.41" height="6.667" transform="translate(135.748 58.817)" fill="#cfd1d6"/>
        <rect id="Rectángulo_411945" data-name="Rectángulo 411945" width="18.411" height="6.668" transform="translate(117.337 72.152)" fill="#cfd1d6"/>
        <rect id="Rectángulo_411946" data-name="Rectángulo 411946" width="18.41" height="6.668" transform="translate(80.518 78.82)" fill="#cfd1d6"/>
        <rect id="Rectángulo_411947" data-name="Rectángulo 411947" width="18.411" height="6.668" transform="translate(117.337 85.487)" fill="#cfd1d6"/>
        <rect id="Rectángulo_411948" data-name="Rectángulo 411948" width="18.411" height="6.668" transform="translate(98.928 98.823)" fill="#cfd1d6"/>
        <rect id="Rectángulo_411949" data-name="Rectángulo 411949" width="18.411" height="6.668" transform="translate(117.337 105.49)" fill="#cfd1d6"/>
        <rect id="Rectángulo_411950" data-name="Rectángulo 411950" width="18.41" height="6.668" transform="translate(80.518 112.159)" fill="#cfd1d6"/>
        <rect id="Rectángulo_411951" data-name="Rectángulo 411951" width="18.411" height="6.668" transform="translate(117.337 118.826)" fill="#cfd1d6"/>
        <rect id="Rectángulo_411952" data-name="Rectángulo 411952" width="18.411" height="6.668" transform="translate(98.928 125.494)" fill="#cfd1d6"/>
        <rect id="Rectángulo_411953" data-name="Rectángulo 411953" width="18.411" height="6.668" transform="translate(117.337 132.278)" fill="#cfd1d6"/>
        <rect id="Rectángulo_411954" data-name="Rectángulo 411954" width="73.639" height="93.349" transform="translate(80.518 45.481)" fill="none" stroke="#49494c" stroke-miterlimit="10" stroke-width="0.756"/>
        <line id="Línea_603" data-name="Línea 603" x2="73.639" transform="translate(80.518 45.481)" fill="none" stroke="#49494c" stroke-miterlimit="10" stroke-width="0.756"/>
        <line id="Línea_604" data-name="Línea 604" x2="73.639" transform="translate(80.518 52.149)" fill="none" stroke="#49494c" stroke-miterlimit="10" stroke-width="0.756"/>
        <line id="Línea_605" data-name="Línea 605" x2="73.639" transform="translate(80.518 58.817)" fill="none" stroke="#49494c" stroke-miterlimit="10" stroke-width="0.756"/>
        <line id="Línea_606" data-name="Línea 606" x2="73.639" transform="translate(80.518 65.484)" fill="none" stroke="#49494c" stroke-miterlimit="10" stroke-width="0.756"/>
        <line id="Línea_607" data-name="Línea 607" x2="73.639" transform="translate(80.518 72.152)" fill="none" stroke="#49494c" stroke-miterlimit="10" stroke-width="0.756"/>
        <line id="Línea_608" data-name="Línea 608" x2="73.639" transform="translate(80.518 78.82)" fill="none" stroke="#49494c" stroke-miterlimit="10" stroke-width="0.756"/>
        <line id="Línea_609" data-name="Línea 609" x2="73.639" transform="translate(80.518 85.487)" fill="none" stroke="#49494c" stroke-miterlimit="10" stroke-width="0.756"/>
        <line id="Línea_610" data-name="Línea 610" x2="73.639" transform="translate(80.518 92.155)" fill="none" stroke="#49494c" stroke-miterlimit="10" stroke-width="0.756"/>
        <line id="Línea_611" data-name="Línea 611" x2="73.639" transform="translate(80.518 98.823)" fill="none" stroke="#49494c" stroke-miterlimit="10" stroke-width="0.756"/>
        <line id="Línea_612" data-name="Línea 612" x2="73.639" transform="translate(80.518 105.49)" fill="none" stroke="#49494c" stroke-miterlimit="10" stroke-width="0.756"/>
        <line id="Línea_613" data-name="Línea 613" x2="73.639" transform="translate(80.518 112.158)" fill="none" stroke="#49494c" stroke-miterlimit="10" stroke-width="0.756"/>
        <line id="Línea_614" data-name="Línea 614" x2="73.639" transform="translate(80.518 118.826)" fill="none" stroke="#49494c" stroke-miterlimit="10" stroke-width="0.756"/>
        <line id="Línea_615" data-name="Línea 615" x2="73.639" transform="translate(80.518 125.494)" fill="none" stroke="#49494c" stroke-miterlimit="10" stroke-width="0.756"/>
        <line id="Línea_616" data-name="Línea 616" x2="73.639" transform="translate(80.518 132.162)" fill="none" stroke="#49494c" stroke-miterlimit="10" stroke-width="0.756"/>
        <line id="Línea_617" data-name="Línea 617" x2="73.639" transform="translate(80.518 138.829)" fill="none" stroke="#49494c" stroke-miterlimit="10" stroke-width="0.756"/>
        <line id="Línea_618" data-name="Línea 618" y2="93.349" transform="translate(154.157 45.481)" fill="none" stroke="#49494c" stroke-miterlimit="10" stroke-width="0.756"/>
        <line id="Línea_619" data-name="Línea 619" y2="93.349" transform="translate(135.748 45.481)" fill="none" stroke="#49494c" stroke-miterlimit="10" stroke-width="0.756"/>
        <line id="Línea_620" data-name="Línea 620" y2="93.349" transform="translate(117.338 45.481)" fill="none" stroke="#49494c" stroke-miterlimit="10" stroke-width="0.756"/>
        <line id="Línea_621" data-name="Línea 621" y2="93.349" transform="translate(98.928 45.481)" fill="none" stroke="#49494c" stroke-miterlimit="10" stroke-width="0.756"/>
        <line id="Línea_622" data-name="Línea 622" y2="93.349" transform="translate(80.518 45.481)" fill="none" stroke="#49494c" stroke-miterlimit="10" stroke-width="0.756"/>
        <path id="Trazado_1279555" data-name="Trazado 1279555" d="M161.171,120.449H142.092v-7.338h19.079Zm-18.408-.67H160.5v-6H142.763Z" transform="translate(-43.498 -34.626)" fill="#333132"/>
        <rect id="Rectángulo_411955" data-name="Rectángulo 411955" width="2.456" height="2.456" transform="translate(98.929 83.032)" fill="#333132"/>
      </g>
    </g>
  </g>
</svg>
