<svg xmlns="http://www.w3.org/2000/svg" xmlns:xlink="http://www.w3.org/1999/xlink" width="118" height="118" viewBox="0 0 118 118">
  <defs>
    <filter id="Elipse_12115" x="0" y="0" width="118" height="118" filterUnits="userSpaceOnUse">
      <feOffset dy="3" input="SourceAlpha"/>
      <feGaussianBlur stdDeviation="3" result="blur"/>
      <feFlood flood-opacity="0.161"/>
      <feComposite operator="in" in2="blur"/>
      <feComposite in="SourceGraphic"/>
    </filter>
  </defs>
  <g id="Grupo_1191281" data-name="Grupo 1191281" transform="translate(-426.449 -2523)">
    <g id="Grupo_1191213" data-name="Grupo 1191213" transform="translate(-319.332 -1323)">
      <g id="Grupo_1181949" data-name="Grupo 1181949" transform="translate(-54 1303)">
        <g transform="matrix(1, 0, 0, 1, 799.78, 2543)" filter="url(#Elipse_12115)">
          <g id="Elipse_12115-2" data-name="Elipse 12115" transform="translate(9 6)" fill="#f6bc1c" stroke="#ab8212" stroke-width="1.5">
            <circle cx="50" cy="50" r="50" stroke="none"/>
            <circle cx="50" cy="50" r="49.25" fill="none"/>
          </g>
        </g>
      </g>
    </g>
    <g id="_123" data-name="123" transform="translate(426.412 2549.119)">
      <g id="Grupo_1191276" data-name="Grupo 1191276" transform="translate(33.668 1.167)">
        <path id="Trazado_1278981" data-name="Trazado 1278981" d="M52.835,53.611a3.721,3.721,0,0,1-3.721-3.721V22.683h-2.89a3.721,3.721,0,1,1,0-7.442h6.611a3.721,3.721,0,0,1,3.721,3.721V49.89A3.721,3.721,0,0,1,52.835,53.611Z" transform="translate(-42.503 -14.629)" fill="#ff9c9b"/>
        <path id="Trazado_1278982" data-name="Trazado 1278982" d="M148.3,207.057c-5.518,0-5.841-.108-6.453-.312a3.861,3.861,0,0,1-2.509-2.544,4.426,4.426,0,0,1,.809-3.888c.315-.458.766-1.049,1.449-1.944,1.57-2.055,4.491-5.881,9.388-12.877a16.967,16.967,0,0,0,2.672-5.256l.092-.721a4.194,4.194,0,0,0-8.3-.617,3.721,3.721,0,1,1-7.3-1.434,11.636,11.636,0,0,1,23.052,2.251,3.725,3.725,0,0,1-.03.472l-.153,1.2a3.722,3.722,0,0,1-.066.369,23.708,23.708,0,0,1-3.865,8.008c-3.081,4.4-5.4,7.575-7.1,9.852,2.656-.007,5.791-.032,8.752-.069a3.721,3.721,0,1,1,.093,7.441c-.038,0-3.821.048-7.643.065C150.1,207.054,149.141,207.057,148.3,207.057Z" transform="translate(-126.921 -149.628)" fill="#ffe6b4"/>
        <path id="Trazado_1278983" data-name="Trazado 1278983" d="M281.773,49.1A11.637,11.637,0,0,1,270.25,39.081a11.764,11.764,0,0,1-.112-1.618,3.721,3.721,0,1,1,7.442,0,4.278,4.278,0,0,0,.041.59,4.193,4.193,0,1,0,4.152-4.783,3.721,3.721,0,0,1,0-7.442,4.193,4.193,0,1,0-4.114-5.01,3.721,3.721,0,0,1-7.3-1.434,11.635,11.635,0,1,1,19.938,10.165A11.629,11.629,0,0,1,281.773,49.1Z" transform="translate(-243.567 -10)" fill="#a0e5a5"/>
      </g>
      <g id="Grupo_1191277" data-name="Grupo 1191277" transform="translate(32.5 0)">
        <path id="Trazado_1278984" data-name="Trazado 1278984" d="M81.93,20.719A12.8,12.8,0,1,0,59.311,10.328a4.88,4.88,0,0,0,1.007,4.03,4.878,4.878,0,0,0,2.847,1.709,4.988,4.988,0,0,0,.948.092A4.885,4.885,0,0,0,68.9,12.212,3.023,3.023,0,0,1,71.87,9.778h0a3.026,3.026,0,0,1,0,6.052,4.889,4.889,0,0,0,0,9.778,3.026,3.026,0,0,1,0,6.052h-.009a2.894,2.894,0,0,1-3-2.812A5.479,5.479,0,0,0,67.789,25.6a12.782,12.782,0,0,0-18.9-4.761V5.5A4.894,4.894,0,0,0,44,.612h-6.61a4.889,4.889,0,0,0,0,9.778H39.11V36.433a4.889,4.889,0,1,0,9.777,0V34.6a4.9,4.9,0,0,0,4.455-3.934,3.025,3.025,0,0,1,5.84-.356,2.969,2.969,0,0,1,.077,1.248,16.089,16.089,0,0,1-2.479,4.808C51.873,43.376,47.348,49.3,47.348,49.3c-.658.863-1.093,1.433-1.414,1.9a5.582,5.582,0,0,0-.962,4.892A5.016,5.016,0,0,0,48.228,59.4a14.163,14.163,0,0,0,3.51.365L65.589,59.7a4.889,4.889,0,1,0-.115-9.777c-2.192.027-4.4.047-6.414.059,1.788-2.434,6.6-9.3,6.995-9.944a12.8,12.8,0,0,0,5.819,1.4h0a12.742,12.742,0,0,0,7.486-2.423,1.167,1.167,0,0,0-.685-2.113,1.153,1.153,0,0,0-.682.221h0A10.39,10.39,0,0,1,71.875,39.1h0a10.67,10.67,0,0,1-4.143-.855,10.883,10.883,0,0,1-2.757-1.741,10.463,10.463,0,0,1-3.467-6.416,10.6,10.6,0,0,1-.1-1.457,2.557,2.557,0,0,1,2.554-2.554h0a2.564,2.564,0,0,1,2.551,2.554,5.544,5.544,0,0,0,.051.752,5.361,5.361,0,1,0,5.309-6.113,2.554,2.554,0,0,1,0-5.108,5.36,5.36,0,1,0-5.26-6.4,2.552,2.552,0,0,1-2.5,2.063,2.667,2.667,0,0,1-.5-.048,2.554,2.554,0,0,1-2.061-2.5,2.614,2.614,0,0,1,.048-.495A10.481,10.481,0,0,1,71.868,2.334h0a10.463,10.463,0,0,1,7.667,17.589l0,0-.862.9a1.167,1.167,0,0,0,1.654,1.644,10.325,10.325,0,0,1,2.012,6.161c0,.148,0,.3-.009.452a1.167,1.167,0,0,0,2.332.1c.008-.184.012-.37.012-.551a12.752,12.752,0,0,0-2.745-7.915ZM46.553,36.433a2.554,2.554,0,1,1-5.108,0l.018-26.043a1.183,1.183,0,0,0,1.185-1.167,1.167,1.167,0,0,0-1.167-1.167H37.389a2.554,2.554,0,0,1,0-5.108H44A2.557,2.557,0,0,1,46.553,5.5V22.976a12.727,12.727,0,0,0-2.805,5.806,4.9,4.9,0,0,0,2.805,5.405Zm16.785,1.742c.21.184.523.445.742.614-.369.611-.772,1.229-1.2,1.845-2.442,3.49-4.646,6.556-6.726,9.356H55.5a1.167,1.167,0,0,0,0,2.335s6.925-.031,10.006-.069a2.554,2.554,0,1,1,.064,5.108c-.023,0-16.162-.033-16.6-.18A2.708,2.708,0,0,1,47.2,55.4a3.266,3.266,0,0,1,.655-2.884c.288-.419.708-.97,1.345-1.805,0,0,4.553-5.959,9.487-13.01a24.463,24.463,0,0,0,1.865-3.087,13.4,13.4,0,0,0,2.781,3.557ZM59.395,26.886a5.346,5.346,0,0,0-8.344,3.329,2.554,2.554,0,1,1-5.013-.983A10.456,10.456,0,0,1,63.6,23.759a4.9,4.9,0,0,0-4.2,3.127Z" transform="translate(-32.5 0)"/>
        <circle id="Elipse_12301" data-name="Elipse 12301" cx="1.167" cy="1.167" r="1.167" transform="translate(48.438 32.912)"/>
      </g>
    </g>
  </g>
</svg>
