<svg xmlns="http://www.w3.org/2000/svg" xmlns:xlink="http://www.w3.org/1999/xlink" width="118" height="118" viewBox="0 0 118 118">
  <defs>
    <filter id="Elipse_12115" x="0" y="0" width="118" height="118" filterUnits="userSpaceOnUse">
      <feOffset dy="3" input="SourceAlpha"/>
      <feGaussianBlur stdDeviation="3" result="blur"/>
      <feFlood flood-opacity="0.161"/>
      <feComposite operator="in" in2="blur"/>
      <feComposite in="SourceGraphic"/>
    </filter>
  </defs>
  <g id="Grupo_1191280" data-name="Grupo 1191280" transform="translate(-741.398 -2523)">
    <g id="Grupo_1191214" data-name="Grupo 1191214" transform="translate(-4.383 -1323)">
      <g id="Grupo_1181949" data-name="Grupo 1181949" transform="translate(-54 1303)">
        <g transform="matrix(1, 0, 0, 1, 799.78, 2543)" filter="url(#Elipse_12115)">
          <g id="Elipse_12115-2" data-name="Elipse 12115" transform="translate(9 6)" fill="#f6bc1c" stroke="#ab8212" stroke-width="1.5">
            <circle cx="50" cy="50" r="50" stroke="none"/>
            <circle cx="50" cy="50" r="49.25" fill="none"/>
          </g>
        </g>
      </g>
    </g>
    <g id="dinero" transform="translate(769.438 2549.119)">
      <g id="Grupo_1191278" data-name="Grupo 1191278" transform="translate(0.948 0.895)">
        <path id="Trazado_1278985" data-name="Trazado 1278985" d="M115.1,35.155a1.219,1.219,0,0,1-1.219,1.219H63.53a1.219,1.219,0,0,1-1.219-1.219V8.719A1.219,1.219,0,0,1,63.53,7.5h50.353A1.219,1.219,0,0,1,115.1,8.719V35.155Z" transform="translate(-55.774 -7.5)" fill="#78c2a4"/>
        <path id="Trazado_1278986" data-name="Trazado 1278986" d="M476.847,7.5h-2.371A1.219,1.219,0,0,1,475.7,8.719V35.155a1.219,1.219,0,0,1-1.219,1.219h2.371a1.219,1.219,0,0,0,1.219-1.219V8.719A1.219,1.219,0,0,0,476.847,7.5Z" transform="translate(-418.738 -7.5)" fill="#66b394"/>
        <path id="Trazado_1278987" data-name="Trazado 1278987" d="M170.89,470h-11.5a1.492,1.492,0,0,1-1.492-1.492V466.8a1.492,1.492,0,0,1,1.492-1.492h11.5a1.492,1.492,0,0,1,1.492,1.492v1.707A1.492,1.492,0,0,1,170.89,470Z" transform="translate(-139.948 -410.66)" fill="#eab14d"/>
        <path id="Trazado_1278988" data-name="Trazado 1278988" d="M249.16,465.311h-2.385a1.492,1.492,0,0,1,1.492,1.492v1.707A1.492,1.492,0,0,1,246.775,470h2.385a1.492,1.492,0,0,0,1.492-1.492V466.8A1.492,1.492,0,0,0,249.16,465.311Z" transform="translate(-218.218 -410.66)" fill="#e49542"/>
        <path id="Trazado_1278989" data-name="Trazado 1278989" d="M186.878,391.41h-11.5a1.492,1.492,0,0,1-1.492-1.492v-1.707a1.492,1.492,0,0,1,1.492-1.492h11.5a1.492,1.492,0,0,1,1.492,1.492v1.707A1.492,1.492,0,0,1,186.878,391.41Z" transform="translate(-154.028 -341.45)" fill="#eab14d"/>
        <path id="Trazado_1278990" data-name="Trazado 1278990" d="M265.148,386.719h-2.385a1.492,1.492,0,0,1,1.492,1.492v1.707a1.492,1.492,0,0,1-1.492,1.492h2.385a1.492,1.492,0,0,0,1.492-1.492v-1.707A1.492,1.492,0,0,0,265.148,386.719Z" transform="translate(-232.298 -341.45)" fill="#e49542"/>
        <path id="Trazado_1278991" data-name="Trazado 1278991" d="M170.89,430.706h-11.5a1.492,1.492,0,0,1-1.492-1.492v-1.707a1.492,1.492,0,0,1,1.492-1.492h11.5a1.492,1.492,0,0,1,1.492,1.492v1.707A1.492,1.492,0,0,1,170.89,430.706Z" transform="translate(-139.948 -376.055)" fill="#f6e266"/>
        <path id="Trazado_1278992" data-name="Trazado 1278992" d="M249.16,426.015h-2.385a1.492,1.492,0,0,1,1.492,1.492v1.707a1.492,1.492,0,0,1-1.492,1.492h2.385a1.492,1.492,0,0,0,1.492-1.492v-1.707A1.492,1.492,0,0,0,249.16,426.015Z" transform="translate(-218.218 -376.055)" fill="#ecbe6b"/>
        <path id="Trazado_1278993" data-name="Trazado 1278993" d="M137.941,53.914V42.8a5.3,5.3,0,0,1-5.3-5.3H97.609a5.3,5.3,0,0,1-5.3,5.3V53.914a5.3,5.3,0,0,1,5.3,5.3h35.034A5.3,5.3,0,0,1,137.941,53.914Z" transform="translate(-82.193 -33.919)" fill="#e0f8c5"/>
        <path id="Trazado_1278994" data-name="Trazado 1278994" d="M406.258,37.5h-3.242a5.3,5.3,0,0,0,3.561,5.007,2.585,2.585,0,0,1,1.737,2.441v6.818a2.583,2.583,0,0,1-1.737,2.441,5.3,5.3,0,0,0-3.561,5.007h3.242a5.3,5.3,0,0,1,5.3-5.3V42.8A5.3,5.3,0,0,1,406.258,37.5Z" transform="translate(-355.808 -33.919)" fill="#ccf49f"/>
        <path id="Trazado_1278995" data-name="Trazado 1278995" d="M60.345,142.607a1.219,1.219,0,0,1-1.219,1.219H8.772a1.219,1.219,0,0,1-1.219-1.219V116.171a1.219,1.219,0,0,1,1.219-1.219H59.126a1.219,1.219,0,0,1,1.219,1.219Z" transform="translate(-7.553 -102.125)" fill="#78c2a4"/>
        <path id="Trazado_1278996" data-name="Trazado 1278996" d="M422.089,114.952h-2.371a1.219,1.219,0,0,1,1.219,1.219v26.436a1.219,1.219,0,0,1-1.219,1.219h2.371a1.219,1.219,0,0,0,1.219-1.219V116.171a1.219,1.219,0,0,0-1.219-1.219Z" transform="translate(-370.516 -102.125)" fill="#66b394"/>
        <path id="Trazado_1278997" data-name="Trazado 1278997" d="M83.183,161.367V150.251a5.3,5.3,0,0,1-5.3-5.3H42.851a5.3,5.3,0,0,1-5.3,5.3v11.116a5.3,5.3,0,0,1,5.3,5.3H77.885A5.3,5.3,0,0,1,83.183,161.367Z" transform="translate(-33.972 -128.545)" fill="#e0f8c5"/>
        <path id="Trazado_1278998" data-name="Trazado 1278998" d="M351.5,144.953h-3.242a5.3,5.3,0,0,0,3.561,5.007,2.585,2.585,0,0,1,1.737,2.441v6.818a2.583,2.583,0,0,1-1.737,2.441,5.3,5.3,0,0,0-3.561,5.007H351.5a5.3,5.3,0,0,1,5.3-5.3V150.251a5.3,5.3,0,0,1-5.3-5.3Z" transform="translate(-307.587 -128.545)" fill="#ccf49f"/>
        <circle id="Elipse_12302" data-name="Elipse 12302" cx="11.283" cy="11.283" r="11.283" transform="translate(2.266 36.775)" fill="#f6e266"/>
        <path id="Trazado_1278999" data-name="Trazado 1278999" d="M111,315.57a11.378,11.378,0,0,0-1.362.085,11.28,11.28,0,0,1,0,22.4A11.282,11.282,0,1,0,111,315.57Z" transform="translate(-97.452 -278.795)" fill="#ecbe6b"/>
        <circle id="Elipse_12303" data-name="Elipse 12303" cx="11.283" cy="11.283" r="11.283" transform="translate(36.763 30.419)" fill="#f6e266"/>
        <path id="Trazado_1279000" data-name="Trazado 1279000" d="M399.985,262.317a11.378,11.378,0,0,0-1.362.085,11.28,11.28,0,0,1,0,22.4,11.282,11.282,0,1,0,1.362-22.481Z" transform="translate(-351.94 -231.899)" fill="#ecbe6b"/>
      </g>
      <g id="Grupo_1191279" data-name="Grupo 1191279" transform="translate(0.053 0)">
        <path id="Trazado_1279001" data-name="Trazado 1279001" d="M464.054,37.812v-.239a.9.9,0,1,0-1.791,0v.239a.9.9,0,1,0,1.791,0Z" transform="translate(-407.087 -32.3)"/>
        <path id="Trazado_1279002" data-name="Trazado 1279002" d="M462.263,204.1v.239a.9.9,0,1,0,1.791,0V204.1a.9.9,0,1,0-1.791,0Z" transform="translate(-407.087 -178.948)"/>
        <path id="Trazado_1279003" data-name="Trazado 1279003" d="M89.6,37.573v.239a.9.9,0,0,0,1.791,0v-.239a.9.9,0,0,0-1.791,0Z" transform="translate(-78.912 -32.3)"/>
        <path id="Trazado_1279004" data-name="Trazado 1279004" d="M59.058,30.665a2.117,2.117,0,0,0,2.115-2.115V2.115A2.117,2.117,0,0,0,59.058,0H53.312a.9.9,0,1,0,0,1.791h5.746a.324.324,0,0,1,.324.324V28.55a.324.324,0,0,1-.324.324H54.636V22.3a4.381,4.381,0,0,1,2.06-.514.9.9,0,0,0,.9-.9V9.774a.9.9,0,0,0-.9-.9,4.408,4.408,0,0,1-4.4-4.4.9.9,0,0,0-.9-.9H16.364a.9.9,0,0,0-.9.9,4.408,4.408,0,0,1-4.4,4.4.9.9,0,0,0-.9.9v3.052H8.38V2.115A.324.324,0,0,1,8.7,1.791H49.732a.9.9,0,1,0,0-1.791H8.7A2.117,2.117,0,0,0,6.59,2.115V12.827H2.168A2.117,2.117,0,0,0,.053,14.942V41.377a2.117,2.117,0,0,0,2.115,2.115H3.614A12.178,12.178,0,0,0,18.664,60.4a2.375,2.375,0,0,0,1.723.735h11.5a2.39,2.39,0,0,0,2.387-2.387V57.038a2.374,2.374,0,0,0-.527-1.492,2.374,2.374,0,0,0,.527-1.492V52.347a2.379,2.379,0,0,0-.088-.632,2.389,2.389,0,0,0,2-2.352V47.656A2.39,2.39,0,0,0,33.8,45.269H26.1a12.1,12.1,0,0,0-.725-1.777H36.849A12.194,12.194,0,0,0,48.994,54.775a12.062,12.062,0,0,0,7.442-2.539.9.9,0,0,0-1.1-1.417,10.287,10.287,0,0,1-6.347,2.165A10.385,10.385,0,1,1,57.6,48.417a.9.9,0,1,0,1.482,1,12.177,12.177,0,0,0-4.446-17.615V30.665h4.422Zm-47.1-20.06a6.207,6.207,0,0,0,5.233-5.233H50.567A6.207,6.207,0,0,0,55.8,10.605V20.06a6.156,6.156,0,0,0-1.165.289V14.942a2.117,2.117,0,0,0-2.115-2.115H34.712V11.058a5.161,5.161,0,0,1,1.45.409.9.9,0,0,0,.8-1.6,6.858,6.858,0,0,0-2.25-.607V8.767a.9.9,0,1,0-1.791,0v.617a3.067,3.067,0,0,0-2.19,1.952,3.253,3.253,0,0,0-.191,1.491H11.962Zm20.4,2.222a1.4,1.4,0,0,1,.049-.865,1.359,1.359,0,0,1,.512-.661v1.526ZM4.109,48.954A10.388,10.388,0,1,1,14.5,59.341,10.4,10.4,0,0,1,4.109,48.954Zm28.378,3.393v1.707a.6.6,0,0,1-.6.6H25.258a12.092,12.092,0,0,0,1.093-2.9h5.54A.6.6,0,0,1,32.487,52.347Zm0,6.4a.6.6,0,0,1-.6.6H20.847a12.274,12.274,0,0,0,3.248-2.9h7.8a.6.6,0,0,1,.6.6ZM33.8,47.059a.6.6,0,0,1,.6.6v1.707a.6.6,0,0,1-.6.6H26.633c.027-.332.042-.667.042-1.006a12.221,12.221,0,0,0-.148-1.894ZM22.645,39.911h14.47a12.126,12.126,0,0,0-.266,1.791H24.274a12.286,12.286,0,0,0-1.629-1.791Zm28.409-9.317V22.6a.9.9,0,0,0-.9-.9,4.408,4.408,0,0,1-4.4-4.4.9.9,0,0,0-.9-.9H9.828a.9.9,0,0,0-.9.9,4.408,4.408,0,0,1-4.4,4.4.9.9,0,0,0-.9.9V26.37a.9.9,0,1,0,1.791,0V23.432A6.207,6.207,0,0,0,10.658,18.2H44.031a6.207,6.207,0,0,0,5.233,5.233v6.99c-.09,0-.18,0-.27,0a12.2,12.2,0,0,0-11.326,7.7H20.056a12.17,12.17,0,0,0-9.538-.677,6.209,6.209,0,0,0-5.094-4.556V29.949a.9.9,0,1,0-1.791,0v3.768a.9.9,0,0,0,.9.9,4.408,4.408,0,0,1,4.319,3.554A12.265,12.265,0,0,0,4.719,41.7H2.168a.324.324,0,0,1-.324-.324V14.942a.324.324,0,0,1,.324-.324H52.521a.324.324,0,0,1,.324.324v16.1a12.071,12.071,0,0,0-1.791-.449Z" transform="translate(-0.053 0)"/>
        <path id="Trazado_1279005" data-name="Trazado 1279005" d="M198.422,185.95a4.5,4.5,0,0,0,2.294.848v.622a.9.9,0,0,0,1.791,0v-.706a3.77,3.77,0,0,0,2.779-3.012,3.277,3.277,0,0,0-2.254-3.751c-.173-.061-.349-.124-.525-.19v-3.182a5.169,5.169,0,0,1,1.45.409.9.9,0,0,0,.8-1.6,6.856,6.856,0,0,0-2.25-.607v-.492a.9.9,0,1,0-1.791,0v.617q-.1.026-.205.057a3.117,3.117,0,0,0-2.137,2.444,2.764,2.764,0,0,0,.912,2.723,6.931,6.931,0,0,0,1.431.833V185a2.866,2.866,0,0,1-1.314-.546.9.9,0,1,0-.98,1.5Zm5.1-2.545a1.976,1.976,0,0,1-1.013,1.411v-3.149A1.518,1.518,0,0,1,203.519,183.4Zm-3.129-4.685a1.013,1.013,0,0,1-.257-.982,1.42,1.42,0,0,1,.583-.915v2.121A3.537,3.537,0,0,1,200.39,178.72Z" transform="translate(-174.385 -152.694)"/>
        <path id="Trazado_1279006" data-name="Trazado 1279006" d="M306.047,230.185h2.48a.9.9,0,0,0,0-1.791h-2.48a.9.9,0,0,0,0,1.791Z" transform="translate(-268.731 -201.13)"/>
        <path id="Trazado_1279007" data-name="Trazado 1279007" d="M117.314,230.185h2.48a.9.9,0,1,0,0-1.791h-2.48a.9.9,0,1,0,0,1.791Z" transform="translate(-102.528 -201.13)"/>
        <path id="Trazado_1279008" data-name="Trazado 1279008" d="M408.4,144.13a.9.9,0,0,0-.9.9v.239a.9.9,0,1,0,1.791,0v-.239A.9.9,0,0,0,408.4,144.13Z" transform="translate(-358.865 -126.925)"/>
        <path id="Trazado_1279009" data-name="Trazado 1279009" d="M408.4,312.686a.9.9,0,0,0,.9-.9v-.239a.9.9,0,1,0-1.791,0v.239A.9.9,0,0,0,408.4,312.686Z" transform="translate(-358.865 -273.573)"/>
        <path id="Trazado_1279010" data-name="Trazado 1279010" d="M35.739,144.13a.9.9,0,0,0-.9.9v.239a.9.9,0,1,0,1.791,0v-.239A.9.9,0,0,0,35.739,144.13Z" transform="translate(-30.691 -126.925)"/>
        <path id="Trazado_1279011" data-name="Trazado 1279011" d="M35.739,312.686a.9.9,0,0,0,.9-.9v-.239a.9.9,0,0,0-1.791,0v.239A.9.9,0,0,0,35.739,312.686Z" transform="translate(-30.691 -273.573)"/>
        <path id="Trazado_1279012" data-name="Trazado 1279012" d="M58.917,339.533a8.422,8.422,0,1,0,8.423,8.422A8.432,8.432,0,0,0,58.917,339.533Zm0,15.054a6.632,6.632,0,1,1,6.632-6.632A6.639,6.639,0,0,1,58.917,354.587Z" transform="translate(-44.473 -299.002)"/>
        <path id="Trazado_1279013" data-name="Trazado 1279013" d="M347.9,286.28a8.422,8.422,0,1,0,8.422,8.423A8.432,8.432,0,0,0,347.9,286.28Zm0,15.054a6.632,6.632,0,1,1,6.632-6.632A6.639,6.639,0,0,1,347.9,301.334Z" transform="translate(-298.961 -252.106)"/>
        <path id="Trazado_1279014" data-name="Trazado 1279014" d="M98.324,402.588H93.268a.9.9,0,1,0,0,1.791h5.056a.9.9,0,0,0,0-1.791Z" transform="translate(-81.352 -354.53)"/>
        <path id="Trazado_1279015" data-name="Trazado 1279015" d="M387.309,349.336h-5.056a.9.9,0,1,0,0,1.791h5.056a.9.9,0,0,0,0-1.791Z" transform="translate(-335.84 -307.635)"/>
      </g>
    </g>
  </g>
</svg>
