<svg xmlns="http://www.w3.org/2000/svg" xmlns:xlink="http://www.w3.org/1999/xlink" width="118" height="118" viewBox="0 0 118 118">
  <defs>
    <filter id="Elipse_12115" x="0" y="0" width="118" height="118" filterUnits="userSpaceOnUse">
      <feOffset dy="3" input="SourceAlpha"/>
      <feGaussianBlur stdDeviation="3" result="blur"/>
      <feFlood flood-opacity="0.161"/>
      <feComposite operator="in" in2="blur"/>
      <feComposite in="SourceGraphic"/>
    </filter>
    <clipPath id="clip-path">
      <path id="path3957" d="M0-682.665H62.075v62.075H0Z" transform="translate(0 682.665)"/>
    </clipPath>
  </defs>
  <g id="Grupo_1191283" data-name="Grupo 1191283" transform="translate(4127.203 9085)">
    <g id="Grupo_1191216" data-name="Grupo 1191216" transform="translate(-4872.984 -12931)">
      <g id="Grupo_1181949" data-name="Grupo 1181949" transform="translate(-54 1303)">
        <g transform="matrix(1, 0, 0, 1, 799.78, 2543)" filter="url(#Elipse_12115)">
          <g id="Elipse_12115-2" data-name="Elipse 12115" transform="translate(9 6)" fill="#f6bc1c" stroke="#ab8212" stroke-width="1.5">
            <circle cx="50" cy="50" r="50" stroke="none"/>
            <circle cx="50" cy="50" r="49.25" fill="none"/>
          </g>
        </g>
      </g>
    </g>
    <g id="g3951" transform="translate(-4099.241 -8377.373)">
      <g id="g3953" transform="translate(0 -682.665)">
        <g id="g3955" transform="translate(0 0)" clip-path="url(#clip-path)">
          <g id="g3961" transform="translate(1.212 13.336)">
            <path id="path3963" d="M-596.348,0V42.677a4.85,4.85,0,0,1-4.85,4.85h-49.951a4.85,4.85,0,0,1-4.85-4.85V0Z" transform="translate(655.998)" fill="#fff"/>
          </g>
          <g id="g3965" transform="translate(0 12.124)">
            <path id="path3967" d="M-668.119-13.333h54.558a1.212,1.212,0,0,1,1.212,1.212,1.212,1.212,0,0,1-1.212,1.212h-53.346V9.545a1.212,1.212,0,0,1-1.212,1.212,1.212,1.212,0,0,1-1.212-1.212V-12.121A1.212,1.212,0,0,1-668.119-13.333Zm58.65,0h.1a1.212,1.212,0,0,1,1.212,1.212,1.212,1.212,0,0,1-1.212,1.212h-.1a1.212,1.212,0,0,1-1.212-1.212A1.212,1.212,0,0,1-609.469-13.333Zm1,3.192a1.212,1.212,0,0,1,1.212,1.212V30.556a6.069,6.069,0,0,1-6.062,6.062h-7.455a1.212,1.212,0,0,1-1.212-1.212,1.212,1.212,0,0,1,1.212-1.212h7.455a3.641,3.641,0,0,0,3.637-3.637V-8.929A1.212,1.212,0,0,1-608.469-10.142Zm-59.65,22.566a1.212,1.212,0,0,1,1.212,1.212v.1a1.212,1.212,0,0,1-1.212,1.212,1.212,1.212,0,0,1-1.212-1.212v-.1A1.212,1.212,0,0,1-668.119,12.424Zm0,4.192a1.212,1.212,0,0,1,1.212,1.212V30.556a3.641,3.641,0,0,0,3.637,3.637h34.212a1.212,1.212,0,0,1,1.212,1.212,1.212,1.212,0,0,1-1.212,1.212H-663.27a6.069,6.069,0,0,1-6.062-6.062V17.828A1.212,1.212,0,0,1-668.119,16.616Zm43.154,17.577h.1a1.212,1.212,0,0,1,1.212,1.212,1.212,1.212,0,0,1-1.212,1.212h-.1a1.212,1.212,0,0,1-1.212-1.212A1.212,1.212,0,0,1-624.965,34.193Z" transform="translate(669.332 13.333)" fill="#201b1b"/>
          </g>
          <g id="g3969" transform="translate(1.212 1.212)">
            <path id="path3971" d="M-596.348-48.484v7.274H-656v-7.274a4.85,4.85,0,0,1,4.85-4.85H-601.2a4.85,4.85,0,0,1,4.85,4.85" transform="translate(655.998 53.333)" fill="#ff5a58"/>
          </g>
          <g id="g3973" transform="translate(0 0)">
            <path id="path3975" d="M-663.27-66.666h49.951a6.069,6.069,0,0,1,6.062,6.062v7.274a1.212,1.212,0,0,1-1.212,1.212h-59.65a1.212,1.212,0,0,1-1.212-1.212V-60.6A6.069,6.069,0,0,1-663.27-66.666Zm53.588,12.124V-60.6a3.641,3.641,0,0,0-3.637-3.637H-663.27a3.641,3.641,0,0,0-3.637,3.637v6.062Z" transform="translate(669.332 66.666)" fill="#201b1b"/>
          </g>
          <g id="g3977" transform="translate(20.126 6.062)">
            <path id="path3979" d="M7.278-10.908h-19.4a1.212,1.212,0,0,1-1.212-1.212,1.212,1.212,0,0,1,1.212-1.212h19.4A1.212,1.212,0,0,1,8.49-12.121,1.212,1.212,0,0,1,7.278-10.908Z" transform="translate(13.333 13.333)" fill="#201b1b"/>
          </g>
          <g id="g3981" transform="translate(16.489 7.274)">
            <path id="path3983" fill="#201b1b"/>
          </g>
          <g id="g3985" transform="translate(45.586 7.274)">
            <path id="path3987" fill="#201b1b"/>
          </g>
          <g id="g3989" transform="translate(11.339 50.436)">
            <path id="path3991" d="M-124.209-10.909h-.1a1.212,1.212,0,0,1-1.212-1.212,1.212,1.212,0,0,1,1.212-1.212h.1A1.212,1.212,0,0,1-123-12.121,1.212,1.212,0,0,1-124.209-10.909Zm-5.556,0h-.1a1.212,1.212,0,0,1-1.212-1.212,1.212,1.212,0,0,1,1.212-1.212h.1a1.212,1.212,0,0,1,1.212,1.212A1.212,1.212,0,0,1-129.765-10.909Zm-5.556,0h-.1a1.212,1.212,0,0,1-1.212-1.212,1.212,1.212,0,0,1,1.212-1.212h.1a1.212,1.212,0,0,1,1.212,1.212A1.212,1.212,0,0,1-135.321-10.909Z" transform="translate(136.633 13.333)" fill="#201b1b"/>
          </g>
          <g id="g3993" transform="translate(12.657 21.338)">
            <path id="path3995" d="M-401.93-10.908h-.1a1.212,1.212,0,0,1-1.212-1.212,1.212,1.212,0,0,1,1.212-1.212h.1a1.212,1.212,0,0,1,1.212,1.212A1.212,1.212,0,0,1-401.93-10.908Zm-5.556,0h-.1a1.212,1.212,0,0,1-1.212-1.212,1.212,1.212,0,0,1,1.212-1.212h.1a1.212,1.212,0,0,1,1.212,1.212A1.212,1.212,0,0,1-407.486-10.908Zm-5.556,0h-.1a1.212,1.212,0,0,1-1.212-1.212,1.212,1.212,0,0,1,1.212-1.212h.1a1.212,1.212,0,0,1,1.212,1.212A1.212,1.212,0,0,1-413.042-10.908Zm-5.556,0h-.1a1.212,1.212,0,0,1-1.212-1.212,1.212,1.212,0,0,1,1.212-1.212h.1a1.212,1.212,0,0,1,1.212,1.212A1.212,1.212,0,0,1-418.6-10.908Zm-5.556,0h-.1a1.212,1.212,0,0,1-1.212-1.212,1.212,1.212,0,0,1,1.212-1.212h.1a1.212,1.212,0,0,1,1.212,1.212A1.212,1.212,0,0,1-424.153-10.908Zm-5.556,0h-.1a1.212,1.212,0,0,1-1.212-1.212,1.212,1.212,0,0,1,1.212-1.212h.1a1.212,1.212,0,0,1,1.212,1.212A1.212,1.212,0,0,1-429.709-10.908Zm-5.556,0h-.1a1.212,1.212,0,0,1-1.212-1.212,1.212,1.212,0,0,1,1.212-1.212h.1a1.212,1.212,0,0,1,1.212,1.212A1.212,1.212,0,0,1-435.265-10.908Zm-5.556,0h-.1a1.212,1.212,0,0,1-1.212-1.212,1.212,1.212,0,0,1,1.212-1.212h.1a1.212,1.212,0,0,1,1.212,1.212A1.212,1.212,0,0,1-440.821-10.908Z" transform="translate(442.133 13.333)" fill="#201b1b"/>
          </g>
          <g id="g3997" transform="translate(12.657 40.737)">
            <path id="path3999" d="M-401.93-10.908h-.1a1.212,1.212,0,0,1-1.212-1.212,1.212,1.212,0,0,1,1.212-1.212h.1a1.212,1.212,0,0,1,1.212,1.212A1.212,1.212,0,0,1-401.93-10.908Zm-5.556,0h-.1a1.212,1.212,0,0,1-1.212-1.212,1.212,1.212,0,0,1,1.212-1.212h.1a1.212,1.212,0,0,1,1.212,1.212A1.212,1.212,0,0,1-407.486-10.908Zm-5.556,0h-.1a1.212,1.212,0,0,1-1.212-1.212,1.212,1.212,0,0,1,1.212-1.212h.1a1.212,1.212,0,0,1,1.212,1.212A1.212,1.212,0,0,1-413.042-10.908Zm-5.556,0h-.1a1.212,1.212,0,0,1-1.212-1.212,1.212,1.212,0,0,1,1.212-1.212h.1a1.212,1.212,0,0,1,1.212,1.212A1.212,1.212,0,0,1-418.6-10.908Zm-5.556,0h-.1a1.212,1.212,0,0,1-1.212-1.212,1.212,1.212,0,0,1,1.212-1.212h.1a1.212,1.212,0,0,1,1.212,1.212A1.212,1.212,0,0,1-424.153-10.908Zm-5.556,0h-.1a1.212,1.212,0,0,1-1.212-1.212,1.212,1.212,0,0,1,1.212-1.212h.1a1.212,1.212,0,0,1,1.212,1.212A1.212,1.212,0,0,1-429.709-10.908Zm-5.556,0h-.1a1.212,1.212,0,0,1-1.212-1.212,1.212,1.212,0,0,1,1.212-1.212h.1a1.212,1.212,0,0,1,1.212,1.212A1.212,1.212,0,0,1-435.265-10.908Zm-5.556,0h-.1a1.212,1.212,0,0,1-1.212-1.212,1.212,1.212,0,0,1,1.212-1.212h.1a1.212,1.212,0,0,1,1.212,1.212A1.212,1.212,0,0,1-440.821-10.908Z" transform="translate(442.133 13.333)" fill="#201b1b"/>
          </g>
          <g id="g4001" transform="translate(6.789 29.825)">
            <path id="path4003" d="M0-24.242a2.425,2.425,0,0,1,2.425-2.425A2.425,2.425,0,0,1,4.85-24.242a2.425,2.425,0,0,1-2.425,2.425A2.425,2.425,0,0,1,0-24.242" transform="translate(0 26.667)" fill="#89df8f"/>
          </g>
          <g id="g4005" transform="translate(5.577 28.613)">
            <path id="path4007" d="M-9.7-40a3.641,3.641,0,0,1,3.637,3.637A3.641,3.641,0,0,1-9.7-32.725a3.641,3.641,0,0,1-3.637-3.637A3.641,3.641,0,0,1-9.7-40Zm0,4.85a1.214,1.214,0,0,0,1.212-1.212A1.214,1.214,0,0,0-9.7-37.575a1.214,1.214,0,0,0-1.212,1.212A1.214,1.214,0,0,0-9.7-35.15Z" transform="translate(13.333 40)" fill="#201b1b"/>
          </g>
          <g id="g4009" transform="translate(18.613 31.038)">
            <path id="path4011" d="M-124.209-10.909h-.1a1.212,1.212,0,0,1-1.212-1.212,1.212,1.212,0,0,1,1.212-1.212h.1A1.212,1.212,0,0,1-123-12.121,1.212,1.212,0,0,1-124.209-10.909Zm-5.556,0h-.1a1.212,1.212,0,0,1-1.212-1.212,1.212,1.212,0,0,1,1.212-1.212h.1a1.212,1.212,0,0,1,1.212,1.212A1.212,1.212,0,0,1-129.765-10.909Zm-5.556,0h-.1a1.212,1.212,0,0,1-1.212-1.212,1.212,1.212,0,0,1,1.212-1.212h.1a1.212,1.212,0,0,1,1.212,1.212A1.212,1.212,0,0,1-135.321-10.909Z" transform="translate(136.633 13.333)" fill="#201b1b"/>
          </g>
          <g id="g4013" transform="translate(45.993 31.038)">
            <path id="path4015" d="M-68.665-10.909h-.1a1.212,1.212,0,0,1-1.212-1.212,1.212,1.212,0,0,1,1.212-1.212h.1a1.212,1.212,0,0,1,1.212,1.212A1.212,1.212,0,0,1-68.665-10.909Zm-5.556,0h-.1a1.212,1.212,0,0,1-1.212-1.212,1.212,1.212,0,0,1,1.212-1.212h.1a1.212,1.212,0,0,1,1.212,1.212A1.212,1.212,0,0,1-74.221-10.909Z" transform="translate(75.533 13.333)" fill="#201b1b"/>
          </g>
          <g id="g4017" transform="translate(34.519 26.396)">
            <path id="path4019" d="M-85.331-6.267a1.212,1.212,0,0,1-.128-.007,1.212,1.212,0,0,1-.89-.547l-2.217-3.429a1.212,1.212,0,0,1,.36-1.676,1.212,1.212,0,0,1,1.676.36l1.4,2.169,3.581-3.581a1.212,1.212,0,0,1,1.715,0,1.212,1.212,0,0,1,0,1.715l-4.642,4.642A1.213,1.213,0,0,1-85.331-6.267Z" transform="translate(88.76 13.333)" fill="#201b1b"/>
          </g>
        </g>
      </g>
    </g>
  </g>
</svg>
