<svg xmlns="http://www.w3.org/2000/svg" xmlns:xlink="http://www.w3.org/1999/xlink" width="118" height="118" viewBox="0 0 118 118">
  <defs>
    <filter id="Elipse_12115" x="0" y="0" width="118" height="118" filterUnits="userSpaceOnUse">
      <feOffset dy="3" input="SourceAlpha"/>
      <feGaussianBlur stdDeviation="3" result="blur"/>
      <feFlood flood-opacity="0.161"/>
      <feComposite operator="in" in2="blur"/>
      <feComposite in="SourceGraphic"/>
    </filter>
  </defs>
  <g id="Grupo_1191291" data-name="Grupo 1191291" transform="translate(3813 9085)">
    <g id="Grupo_1191217" data-name="Grupo 1191217" transform="translate(-4558.781 -12931)">
      <g id="Grupo_1181949" data-name="Grupo 1181949" transform="translate(-54 1303)">
        <g transform="matrix(1, 0, 0, 1, 799.78, 2543)" filter="url(#Elipse_12115)">
          <g id="Elipse_12115-2" data-name="Elipse 12115" transform="translate(9 6)" fill="#f6bc1c" stroke="#ab8212" stroke-width="1.5">
            <circle cx="50" cy="50" r="50" stroke="none"/>
            <circle cx="50" cy="50" r="49.25" fill="none"/>
          </g>
        </g>
      </g>
    </g>
    <g id="datos" transform="translate(-3784 -9058.5)">
      <path id="Trazado_1279016" data-name="Trazado 1279016" d="M61.763,55.646H10.429A2.937,2.937,0,0,1,7.492,52.71V10.929a2.937,2.937,0,0,1,2.937-2.937H61.763A2.937,2.937,0,0,1,64.7,10.929V52.71A2.937,2.937,0,0,1,61.763,55.646Zm0,0" transform="translate(-6.629 -6.629)" fill="#ffd86e"/>
      <path id="Trazado_1279017" data-name="Trazado 1279017" d="M453.849,10.933v41.78a2.937,2.937,0,0,1-2.937,2.937h-3.588a2.936,2.936,0,0,0,2.937-2.937V10.933A2.936,2.936,0,0,0,447.324,8h3.588A2.937,2.937,0,0,1,453.849,10.933Zm0,0" transform="translate(-395.777 -6.632)" fill="#ffb509"/>
      <path id="Trazado_1279018" data-name="Trazado 1279018" d="M64.7,360.129H7.492v4.139a2.937,2.937,0,0,0,2.937,2.937H61.763a2.937,2.937,0,0,0,2.937-2.937Zm0,0" transform="translate(-6.629 -318.187)" fill="#838383"/>
      <path id="Trazado_1279019" data-name="Trazado 1279019" d="M453.849,360.129v4.139a2.937,2.937,0,0,1-2.937,2.937h-3.588a2.937,2.937,0,0,0,2.937-2.937v-4.139Zm0,0" transform="translate(-395.777 -318.187)" fill="#5a5a5a"/>
      <path id="Trazado_1279020" data-name="Trazado 1279020" d="M65.257,18.011H8.047V10.929a2.937,2.937,0,0,1,2.937-2.937H62.32a2.937,2.937,0,0,1,2.937,2.937Zm0,0" transform="translate(-7.12 -6.629)" fill="#acacac"/>
      <path id="Trazado_1279021" data-name="Trazado 1279021" d="M453.914,10.932v7.083h-3.653V10.932A2.936,2.936,0,0,0,447.324,8h3.653A2.937,2.937,0,0,1,453.914,10.932Zm0,0" transform="translate(-395.777 -6.632)" fill="#9c9c9c"/>
      <path id="Trazado_1279022" data-name="Trazado 1279022" d="M186.277,421.531h16v4.824h-16Zm0,0" transform="translate(-164.812 -372.514)" fill="#5a5a5a"/>
      <path id="Trazado_1279023" data-name="Trazado 1279023" d="M163.231,468.122H136.857a.576.576,0,0,1-.576-.576v-1.865a2.291,2.291,0,0,1,2.291-2.291h22.945a2.291,2.291,0,0,1,2.29,2.291v1.865A.575.575,0,0,1,163.231,468.122Zm0,0" transform="translate(-120.577 -409.549)" fill="#838383"/>
      <path id="Trazado_1279024" data-name="Trazado 1279024" d="M337.546,465.684v1.866a.576.576,0,0,1-.576.576h-2.032v-2.442a2.291,2.291,0,0,0-2.29-2.29h2.608A2.29,2.29,0,0,1,337.546,465.684Zm0,0" transform="translate(-294.316 -409.553)" fill="#5a5a5a"/>
      <path id="Trazado_1279025" data-name="Trazado 1279025" d="M295.477,275.613h18.7v3.544h-18.7Zm0,0" transform="translate(-261.427 -243.411)" fill="#64dcfc"/>
      <path id="Trazado_1279026" data-name="Trazado 1279026" d="M295.477,357.273h18.7v3.544h-18.7Zm0,0" transform="translate(-261.427 -315.661)" fill="#64dcfc"/>
      <path id="Trazado_1279027" data-name="Trazado 1279027" d="M438.551,275.613h2.211v3.544h-2.211Zm0,0" transform="translate(-388.014 -243.411)" fill="#00d1fc"/>
      <path id="Trazado_1279028" data-name="Trazado 1279028" d="M438.551,357.273h2.211v3.544h-2.211Zm0,0" transform="translate(-388.014 -315.661)" fill="#00d1fc"/>
      <g id="Grupo_1191284" data-name="Grupo 1191284" transform="translate(31.666 26.337)">
        <path id="Trazado_1279029" data-name="Trazado 1279029" d="M297.426,230.573H275.632a.835.835,0,0,1-.835-.835v-4.2a.835.835,0,0,1,.835-.835h21.794a.835.835,0,0,1,.835.835v4.2A.835.835,0,0,1,297.426,230.573Zm0,0" transform="translate(-274.797 -224.707)" fill="#0396fd"/>
        <path id="Trazado_1279030" data-name="Trazado 1279030" d="M297.426,312.233H275.632a.835.835,0,0,1-.835-.835v-4.2a.835.835,0,0,1,.835-.835h21.794a.835.835,0,0,1,.835.835v4.2A.835.835,0,0,1,297.426,312.233Zm0,0" transform="translate(-274.797 -296.957)" fill="#0396fd"/>
        <path id="Trazado_1279031" data-name="Trazado 1279031" d="M297.426,393.893H275.632a.835.835,0,0,1-.835-.835v-4.2a.835.835,0,0,1,.835-.835h21.794a.835.835,0,0,1,.835.835v4.2A.835.835,0,0,1,297.426,393.893Zm0,0" transform="translate(-274.797 -369.207)" fill="#0396fd"/>
      </g>
      <path id="Trazado_1279032" data-name="Trazado 1279032" d="M457.138,225.545v4.2a.834.834,0,0,1-.835.835h-1.936a.834.834,0,0,0,.835-.835v-4.2a.834.834,0,0,0-.835-.835H456.3A.834.834,0,0,1,457.138,225.545Zm0,0" transform="translate(-402.008 -198.374)" fill="#0077f0"/>
      <path id="Trazado_1279033" data-name="Trazado 1279033" d="M457.138,307.2v4.2a.834.834,0,0,1-.835.835h-1.936a.834.834,0,0,0,.835-.835v-4.2a.834.834,0,0,0-.835-.835H456.3A.834.834,0,0,1,457.138,307.2Zm0,0" transform="translate(-402.008 -270.62)" fill="#0077f0"/>
      <path id="Trazado_1279034" data-name="Trazado 1279034" d="M457.138,388.866v4.2a.835.835,0,0,1-.835.835h-1.936a.835.835,0,0,0,.835-.835v-4.2a.834.834,0,0,0-.835-.835H456.3A.834.834,0,0,1,457.138,388.866Zm0,0" transform="translate(-402.008 -342.874)" fill="#0077f0"/>
      <path id="Trazado_1279035" data-name="Trazado 1279035" d="M44.107,38.424a1.67,1.67,0,1,1-1.67-1.67A1.671,1.671,0,0,1,44.107,38.424Zm0,0" transform="translate(-36.068 -32.076)" fill="#ff6b81"/>
      <path id="Trazado_1279036" data-name="Trazado 1279036" d="M100.091,38.424a1.671,1.671,0,1,1-1.67-1.67A1.671,1.671,0,0,1,100.091,38.424Zm0,0" transform="translate(-85.601 -32.076)" fill="#ffd86e"/>
      <path id="Trazado_1279037" data-name="Trazado 1279037" d="M156.079,38.424a1.67,1.67,0,1,1-1.67-1.67A1.671,1.671,0,0,1,156.079,38.424Zm0,0" transform="translate(-135.137 -32.076)" fill="#80e0dc"/>
      <path id="Trazado_1279038" data-name="Trazado 1279038" d="M48.088,38.429a1.67,1.67,0,0,1-2.822,1.208,1.669,1.669,0,0,0,1.113-2.877h.039A1.67,1.67,0,0,1,48.088,38.429Zm0,0" transform="translate(-40.049 -32.08)" fill="#ff435f"/>
      <path id="Trazado_1279039" data-name="Trazado 1279039" d="M104.069,38.429a1.67,1.67,0,0,1-2.823,1.208,1.669,1.669,0,0,0,1.115-2.877h.038A1.67,1.67,0,0,1,104.069,38.429Zm0,0" transform="translate(-89.579 -32.08)" fill="#ffb509"/>
      <path id="Trazado_1279040" data-name="Trazado 1279040" d="M160.058,38.429a1.671,1.671,0,0,1-2.823,1.208,1.669,1.669,0,0,0,1.113-2.877h.039A1.671,1.671,0,0,1,160.058,38.429Zm0,0" transform="translate(-139.115 -32.08)" fill="#00a8b0"/>
      <path id="Trazado_1279041" data-name="Trazado 1279041" d="M36.234,134.159a.864.864,0,1,0,1.221-1.221l-2.1-2.1,2.1-2.1a.864.864,0,1,0-1.221-1.221l-2.707,2.707a.863.863,0,0,0,0,1.221Zm0,0" transform="translate(-29.439 -112.162)"/>
      <path id="Trazado_1279042" data-name="Trazado 1279042" d="M115.281,130.837l-2.1,2.1a.864.864,0,1,0,1.221,1.221l2.708-2.708a.863.863,0,0,0,0-1.221l-2.708-2.708a.863.863,0,1,0-1.221,1.221Zm0,0" transform="translate(-99.917 -112.159)"/>
      <path id="Trazado_1279043" data-name="Trazado 1279043" d="M76.965,134.347a.863.863,0,0,0,1.119-.488l2.127-5.415a.863.863,0,1,0-1.607-.632l-2.127,5.415A.864.864,0,0,0,76.965,134.347Zm0,0" transform="translate(-67.611 -112.157)"/>
      <path id="Trazado_1279044" data-name="Trazado 1279044" d="M38.379,219.942H44.2a.864.864,0,0,0,0-1.727H38.379a.864.864,0,0,0,0,1.727Zm0,0" transform="translate(-33.193 -192.626)"/>
      <path id="Trazado_1279045" data-name="Trazado 1279045" d="M126.6,218.215H116.375a.864.864,0,0,0,0,1.727H126.6a.864.864,0,1,0,0-1.727Zm0,0" transform="translate(-102.201 -192.626)"/>
      <path id="Trazado_1279046" data-name="Trazado 1279046" d="M38.379,251.547h2.478a.864.864,0,0,0,0-1.727H38.379a.864.864,0,0,0,0,1.727Zm0,0" transform="translate(-33.193 -220.59)"/>
      <path id="Trazado_1279047" data-name="Trazado 1279047" d="M177.711,249.82a.864.864,0,0,0,0,1.727h1.509a.864.864,0,1,0,0-1.727Zm0,0" transform="translate(-156.469 -220.59)"/>
      <path id="Trazado_1279048" data-name="Trazado 1279048" d="M94.451,250.684a.864.864,0,0,0-.863-.863H86.176a.864.864,0,0,0,0,1.727h7.412A.864.864,0,0,0,94.451,250.684Zm0,0" transform="translate(-75.481 -220.59)"/>
      <path id="Trazado_1279049" data-name="Trazado 1279049" d="M213.7,250.684a.864.864,0,0,0,.863.864h2.826a.864.864,0,1,0,0-1.727h-2.826A.864.864,0,0,0,213.7,250.684Zm0,0" transform="translate(-189.077 -220.59)"/>
      <path id="Trazado_1279050" data-name="Trazado 1279050" d="M166.262,151h2.981a.864.864,0,1,0,0-1.727h-2.981a.864.864,0,1,0,0,1.727Zm0,0" transform="translate(-146.339 -131.633)"/>
      <path id="Trazado_1279051" data-name="Trazado 1279051" d="M221.11,151H239.3a.864.864,0,0,0,0-1.727H221.11a.864.864,0,1,0,0,1.727Zm0,0" transform="translate(-194.866 -131.633)"/>
      <path id="Trazado_1279052" data-name="Trazado 1279052" d="M298.416,182.246h-7.369a.864.864,0,0,0,0,1.727h7.369a.864.864,0,0,0,0-1.727Zm0,0" transform="translate(-256.744 -160.803)"/>
      <path id="Trazado_1279053" data-name="Trazado 1279053" d="M247.623,182.246H245.09a.864.864,0,0,0,0,1.727h2.533a.864.864,0,0,0,0-1.727Zm0,0" transform="translate(-216.083 -160.803)"/>
      <path id="Trazado_1279054" data-name="Trazado 1279054" d="M166.262,183.973h6.205a.864.864,0,0,0,0-1.727h-6.205a.864.864,0,1,0,0,1.727Zm0,0" transform="translate(-146.339 -160.803)"/>
      <path id="Trazado_1279055" data-name="Trazado 1279055" d="M105.927,281.16H100.11a.863.863,0,1,0,0,1.727h5.817a.863.863,0,1,0,0-1.727Zm0,0" transform="translate(-87.809 -248.318)"/>
      <path id="Trazado_1279056" data-name="Trazado 1279056" d="M42.848,281.16H38.379a.863.863,0,1,0,0,1.727h4.469a.863.863,0,1,0,0-1.727Zm0,0" transform="translate(-33.193 -248.318)"/>
      <path id="Trazado_1279057" data-name="Trazado 1279057" d="M183.751,281.16h-7.6a.863.863,0,1,0,0,1.727h7.6a.863.863,0,1,0,0-1.727Zm0,0" transform="translate(-155.09 -248.318)"/>
      <path id="Trazado_1279058" data-name="Trazado 1279058" d="M299.366,242.668h-4.155a.864.864,0,0,0,0,1.727h4.155a.864.864,0,0,0,0-1.727Zm0,0" transform="translate(-260.428 -214.262)"/>
      <path id="Trazado_1279059" data-name="Trazado 1279059" d="M393.84,244.4h5.866a.864.864,0,1,0,0-1.727H393.84a.864.864,0,0,0,0,1.727Zm0,0" transform="translate(-347.692 -214.262)"/>
      <path id="Trazado_1279060" data-name="Trazado 1279060" d="M358.063,242.668h-1.344a.864.864,0,1,0,0,1.727h1.344a.864.864,0,0,0,0-1.727Zm0,0" transform="translate(-314.848 -214.262)"/>
      <path id="Trazado_1279061" data-name="Trazado 1279061" d="M295.211,326.055h4.155a.863.863,0,1,0,0-1.727h-4.155a.863.863,0,0,0,0,1.727Zm0,0" transform="translate(-260.428 -286.512)"/>
      <path id="Trazado_1279062" data-name="Trazado 1279062" d="M393.84,326.055h5.866a.863.863,0,1,0,0-1.727H393.84a.863.863,0,0,0,0,1.727Zm0,0" transform="translate(-347.692 -286.512)"/>
      <path id="Trazado_1279063" data-name="Trazado 1279063" d="M356.723,326.055h1.344a.863.863,0,1,0,0-1.727h-1.344a.863.863,0,0,0,0,1.727Zm0,0" transform="translate(-314.852 -286.512)"/>
      <path id="Trazado_1279064" data-name="Trazado 1279064" d="M299.366,405.988h-4.155a.863.863,0,0,0,0,1.727h4.155a.863.863,0,1,0,0-1.727Zm0,0" transform="translate(-260.428 -358.762)"/>
      <path id="Trazado_1279065" data-name="Trazado 1279065" d="M399.706,405.988H393.84a.863.863,0,0,0,0,1.727h5.866a.863.863,0,1,0,0-1.727Zm0,0" transform="translate(-347.692 -358.762)"/>
      <path id="Trazado_1279066" data-name="Trazado 1279066" d="M358.063,405.988h-1.344a.863.863,0,1,0,0,1.727h1.344a.863.863,0,1,0,0-1.727Zm0,0" transform="translate(-314.848 -358.762)"/>
      <path id="Trazado_1279067" data-name="Trazado 1279067" d="M55.2.5H3.8A3.8,3.8,0,0,0,0,4.3v41.78a3.8,3.8,0,0,0,3.8,3.8H7.05a.863.863,0,0,0,0-1.727H3.8a2.076,2.076,0,0,1-2.073-2.073V42.805H33.186v1.488H32.5a1.7,1.7,0,0,0-1.7,1.7v2.162H12.3a.863.863,0,0,0,0,1.727h8.3v3.1H18a3.158,3.158,0,0,0-3.154,3.154V58a1.441,1.441,0,0,0,1.439,1.439H42.655A1.441,1.441,0,0,0,44.094,58V56.132a3.158,3.158,0,0,0-3.154-3.154H38.332V51.886H54.3a1.7,1.7,0,0,0,1.7-1.7v-.406a3.806,3.806,0,0,0,2.941-3.7L59,4.3A3.8,3.8,0,0,0,55.2.5ZM32.53,40.75V36.61H54.267V40.75Zm2.383-5.866V33.067H51.884v1.817Zm16.971,7.593v1.817H34.913V42.476Zm-29.555,7.4H30.8v.307a1.7,1.7,0,0,0,1.7,1.7h4.1v1.092H22.329ZM40.94,54.705a1.429,1.429,0,0,1,1.427,1.427V57.71h-25.8V56.132A1.429,1.429,0,0,1,18,54.705Zm13.327-4.546H32.53V46.021H54.267Zm2.941-4.078a2.074,2.074,0,0,1-1.214,1.884V45.991a1.7,1.7,0,0,0-1.7-1.7h-.685V42.805h3.6Zm0-5H55.966c.018-.1.028-4.5.028-4.5a1.7,1.7,0,0,0-1.7-1.7h-.685V33.067H54.3a1.7,1.7,0,0,0,1.7-1.7v-4.2a1.7,1.7,0,0,0-1.7-1.7H49.418a.864.864,0,0,0,0,1.727h4.848v4.139H32.53V27.2H44.046a.864.864,0,0,0,0-1.727H32.5a1.7,1.7,0,0,0-1.7,1.7v4.2a1.7,1.7,0,0,0,1.7,1.7h.685v1.817H32.5a1.7,1.7,0,0,0-1.7,1.7s.011,4.4.028,4.5H1.727V12.246H57.208Zm0-30.56H1.791V4.3A2.075,2.075,0,0,1,3.864,2.227H55.135A2.076,2.076,0,0,1,57.208,4.3Zm0,0"/>
      <path id="Trazado_1279068" data-name="Trazado 1279068" d="M35.807,29.262A2.534,2.534,0,1,0,38.342,31.8,2.537,2.537,0,0,0,35.807,29.262Zm0,3.341a.807.807,0,1,1,.807-.807A.808.808,0,0,1,35.807,32.6Zm0,0" transform="translate(-29.439 -25.447)"/>
      <path id="Trazado_1279069" data-name="Trazado 1279069" d="M91.792,29.262A2.534,2.534,0,1,0,94.326,31.8,2.537,2.537,0,0,0,91.792,29.262Zm0,3.341A.807.807,0,1,1,92.6,31.8.808.808,0,0,1,91.792,32.6Zm0,0" transform="translate(-78.972 -25.447)"/>
      <path id="Trazado_1279070" data-name="Trazado 1279070" d="M147.78,29.262a2.534,2.534,0,1,0,2.534,2.534A2.537,2.537,0,0,0,147.78,29.262Zm0,3.341a.807.807,0,1,1,.807-.807A.808.808,0,0,1,147.78,32.6Zm0,0" transform="translate(-128.509 -25.447)"/>
    </g>
  </g>
</svg>
