<svg xmlns="http://www.w3.org/2000/svg" width="1084.999" height="1352.844" viewBox="0 0 1084.999 1352.844">
  <g id="Grupo_1191340" data-name="Grupo 1191340" transform="translate(-285.333 -387.156)">
    <g id="sintesis_cuadro" data-name="sintesis cuadro" transform="translate(683.954 387.156)">
      <path id="Trazado_873211" data-name="Trazado 873211" d="M0,0H233.3V47.523H0Z" fill="#111d96"/>
      <path id="Trazado_1279571" data-name="Trazado 1279571" d="M116.355,16.6a7.388,7.388,0,0,1-3.2.594A5.4,5.4,0,0,1,109.1,15.68a5.54,5.54,0,0,1-1.477-4.039,5.919,5.919,0,0,1,1.66-4.359,5.807,5.807,0,0,1,4.309-1.672,8.058,8.058,0,0,1,2.766.414v2.43a4.9,4.9,0,0,0-2.562-.672,3.4,3.4,0,0,0-2.547.992,3.682,3.682,0,0,0-.969,2.688,3.611,3.611,0,0,0,.914,2.59,3.229,3.229,0,0,0,2.461.965,5.249,5.249,0,0,0,2.7-.719Zm5.523.594a4.3,4.3,0,0,1-3.145-1.121,4.064,4.064,0,0,1-1.145-3.043,4.065,4.065,0,0,1,1.188-3.105A4.487,4.487,0,0,1,121.988,8.8a4.249,4.249,0,0,1,3.125,1.121,3.985,3.985,0,0,1,1.133,2.965,4.23,4.23,0,0,1-1.168,3.148A4.348,4.348,0,0,1,121.879,17.2Zm.063-6.5a1.647,1.647,0,0,0-1.359.6A2.653,2.653,0,0,0,120.1,13q0,2.3,1.859,2.3,1.773,0,1.773-2.367Q123.73,10.7,121.941,10.7ZM135.574,17h-2.461V12.555q0-1.859-1.328-1.859a1.318,1.318,0,0,0-1.055.492,1.875,1.875,0,0,0-.414,1.25V17h-2.469V9h2.469v1.266h.031a2.829,2.829,0,0,1,2.57-1.461q2.656,0,2.656,3.3Zm8.016-.289a4.881,4.881,0,0,1-2.414.484,4.083,4.083,0,0,1-2.984-1.117,3.859,3.859,0,0,1-1.141-2.883,4.251,4.251,0,0,1,1.223-3.215,4.518,4.518,0,0,1,3.27-1.176,4.2,4.2,0,0,1,2.047.375v2.094a2.814,2.814,0,0,0-1.727-.578,2.275,2.275,0,0,0-1.684.621,2.317,2.317,0,0,0-.621,1.715,2.28,2.28,0,0,0,.594,1.668,2.182,2.182,0,0,0,1.633.605,3.258,3.258,0,0,0,1.8-.578Zm8.8-3.008h-5.219q.125,1.742,2.2,1.742a4.286,4.286,0,0,0,2.32-.625V16.6a6.1,6.1,0,0,1-2.883.594,4.058,4.058,0,0,1-3.008-1.074,4.058,4.058,0,0,1-1.07-3,4.281,4.281,0,0,1,1.156-3.156A3.852,3.852,0,0,1,148.73,8.8a3.5,3.5,0,0,1,2.707,1.039,4,4,0,0,1,.957,2.82Zm-2.289-1.516q0-1.719-1.391-1.719a1.328,1.328,0,0,0-1.027.492,2.234,2.234,0,0,0-.527,1.227Zm6.258,3.883h-.031V20.68h-2.469V9h2.469v1.2h.031a3.142,3.142,0,0,1,4.973-.332,4.54,4.54,0,0,1,.848,2.9,4.922,4.922,0,0,1-.988,3.211,3.222,3.222,0,0,1-2.629,1.211A2.491,2.491,0,0,1,156.363,16.07Zm-.07-3.281v.641a2.036,2.036,0,0,0,.438,1.352,1.424,1.424,0,0,0,1.148.523,1.514,1.514,0,0,0,1.309-.652,3.15,3.15,0,0,0,.465-1.848q0-2.109-1.641-2.109a1.541,1.541,0,0,0-1.238.574A2.29,2.29,0,0,0,156.293,12.789Zm12.328,4.117a3.649,3.649,0,0,1-1.648.289q-2.609,0-2.609-2.711V10.82h-1.3V9h1.3V7.273l2.461-.7V9h1.8v1.82h-1.8v3.234q0,1.25.992,1.25a1.673,1.673,0,0,0,.8-.227Zm5.141.289a4.3,4.3,0,0,1-3.145-1.121,4.064,4.064,0,0,1-1.145-3.043,4.065,4.065,0,0,1,1.188-3.105A4.487,4.487,0,0,1,173.871,8.8,4.249,4.249,0,0,1,177,9.926a3.985,3.985,0,0,1,1.133,2.965,4.23,4.23,0,0,1-1.168,3.148A4.348,4.348,0,0,1,173.762,17.2Zm.063-6.5a1.647,1.647,0,0,0-1.359.6,2.653,2.653,0,0,0-.484,1.7q0,2.3,1.859,2.3,1.773,0,1.773-2.367Q175.613,10.7,173.824,10.7Zm5.383,6.094v-2a5.256,5.256,0,0,0,1.215.547,4.028,4.028,0,0,0,1.145.18,2.455,2.455,0,0,0,1.035-.18.581.581,0,0,0,.379-.547.506.506,0,0,0-.172-.391,1.6,1.6,0,0,0-.441-.273,5.009,5.009,0,0,0-.59-.211q-.32-.094-.617-.211a5.914,5.914,0,0,1-.84-.387,2.427,2.427,0,0,1-.609-.48,1.889,1.889,0,0,1-.375-.633,2.525,2.525,0,0,1-.129-.852A2.192,2.192,0,0,1,179.5,10.2a2.393,2.393,0,0,1,.781-.793,3.57,3.57,0,0,1,1.117-.453,5.825,5.825,0,0,1,1.309-.145,7.261,7.261,0,0,1,1.078.082,8.047,8.047,0,0,1,1.078.238v1.906a3.9,3.9,0,0,0-1-.41,4.235,4.235,0,0,0-1.051-.137,2.328,2.328,0,0,0-.457.043,1.505,1.505,0,0,0-.379.125.7.7,0,0,0-.258.211.486.486,0,0,0-.094.293.541.541,0,0,0,.141.375,1.221,1.221,0,0,0,.367.27,3.625,3.625,0,0,0,.5.2q.277.09.551.184a7.161,7.161,0,0,1,.891.375,2.848,2.848,0,0,1,.684.477,1.871,1.871,0,0,1,.438.641,2.563,2.563,0,0,1-.156,2.09,2.471,2.471,0,0,1-.82.82,3.72,3.72,0,0,1-1.18.461,6.54,6.54,0,0,1-1.387.145A7.149,7.149,0,0,1,179.207,16.789Zm14.477-.719h-.031V17h-2.469V5.156h2.469V10.2h.031a2.929,2.929,0,0,1,2.6-1.4,2.855,2.855,0,0,1,2.383,1.063,4.582,4.582,0,0,1,.836,2.906,4.962,4.962,0,0,1-.977,3.211,3.181,3.181,0,0,1-2.609,1.211A2.521,2.521,0,0,1,193.684,16.07Zm-.07-3.375v.82a1.872,1.872,0,0,0,.445,1.281,1.449,1.449,0,0,0,1.141.508,1.514,1.514,0,0,0,1.309-.652,3.15,3.15,0,0,0,.465-1.848,2.506,2.506,0,0,0-.426-1.551,1.437,1.437,0,0,0-1.215-.559,1.569,1.569,0,0,0-1.23.555A2.107,2.107,0,0,0,193.613,12.7ZM207.605,17H205.27V15.852h-.031a2.607,2.607,0,0,1-2.383,1.344,2.492,2.492,0,0,1-1.832-.66,2.366,2.366,0,0,1-.668-1.762q0-2.328,2.758-2.687l2.172-.289q0-1.312-1.422-1.312a4.853,4.853,0,0,0-2.719.852V9.477a6.116,6.116,0,0,1,1.41-.469,7.413,7.413,0,0,1,1.629-.2q3.422,0,3.422,3.414Zm-2.32-3.25v-.539l-1.453.188q-1.2.156-1.2,1.086a.9.9,0,0,0,.293.691,1.126,1.126,0,0,0,.793.27,1.462,1.462,0,0,0,1.133-.48A1.735,1.735,0,0,0,205.285,13.75Zm1.586-8.539-2.445,2.523h-1.781l2.031-2.523Zm2.164,11.578v-2a5.256,5.256,0,0,0,1.215.547,4.028,4.028,0,0,0,1.145.18,2.455,2.455,0,0,0,1.035-.18.581.581,0,0,0,.379-.547.506.506,0,0,0-.172-.391,1.6,1.6,0,0,0-.441-.273,5.009,5.009,0,0,0-.59-.211q-.32-.094-.617-.211a5.914,5.914,0,0,1-.84-.387,2.427,2.427,0,0,1-.609-.48,1.889,1.889,0,0,1-.375-.633,2.525,2.525,0,0,1-.129-.852,2.192,2.192,0,0,1,.293-1.156,2.393,2.393,0,0,1,.781-.793,3.57,3.57,0,0,1,1.117-.453,5.825,5.825,0,0,1,1.309-.145,7.261,7.261,0,0,1,1.078.082,8.047,8.047,0,0,1,1.078.238v1.906a3.9,3.9,0,0,0-1-.41,4.235,4.235,0,0,0-1.051-.137,2.328,2.328,0,0,0-.457.043,1.505,1.505,0,0,0-.379.125.7.7,0,0,0-.258.211.486.486,0,0,0-.094.293.541.541,0,0,0,.141.375,1.221,1.221,0,0,0,.367.27,3.625,3.625,0,0,0,.5.2q.277.09.551.184a7.161,7.161,0,0,1,.891.375,2.848,2.848,0,0,1,.684.477,1.871,1.871,0,0,1,.438.641,2.563,2.563,0,0,1-.156,2.09,2.471,2.471,0,0,1-.82.82,3.72,3.72,0,0,1-1.18.461,6.54,6.54,0,0,1-1.387.145A7.149,7.149,0,0,1,209.035,16.789Zm8.813-9.055a1.442,1.442,0,0,1-1.023-.371,1.2,1.2,0,0,1-.4-.91,1.153,1.153,0,0,1,.4-.906,1.671,1.671,0,0,1,2.051,0,1.158,1.158,0,0,1,.395.906,1.191,1.191,0,0,1-.395.922A1.466,1.466,0,0,1,217.848,7.734ZM219.066,17H216.6V9h2.469Zm8.141-.289a4.881,4.881,0,0,1-2.414.484,4.083,4.083,0,0,1-2.984-1.117,3.859,3.859,0,0,1-1.141-2.883,4.251,4.251,0,0,1,1.223-3.215A4.518,4.518,0,0,1,225.16,8.8a4.2,4.2,0,0,1,2.047.375v2.094a2.814,2.814,0,0,0-1.727-.578,2.275,2.275,0,0,0-1.684.621,2.317,2.317,0,0,0-.621,1.715,2.28,2.28,0,0,0,.594,1.668,2.182,2.182,0,0,0,1.633.605,3.258,3.258,0,0,0,1.8-.578Zm5.43.484a4.3,4.3,0,0,1-3.145-1.121,4.064,4.064,0,0,1-1.145-3.043,4.065,4.065,0,0,1,1.188-3.105A4.487,4.487,0,0,1,232.746,8.8a4.249,4.249,0,0,1,3.125,1.121A3.985,3.985,0,0,1,237,12.891a4.23,4.23,0,0,1-1.168,3.148A4.348,4.348,0,0,1,232.637,17.2Zm.063-6.5a1.647,1.647,0,0,0-1.359.6,2.653,2.653,0,0,0-.484,1.7q0,2.3,1.859,2.3,1.773,0,1.773-2.367Q234.488,10.7,232.7,10.7Zm5.383,6.094v-2a5.256,5.256,0,0,0,1.215.547,4.028,4.028,0,0,0,1.145.18,2.455,2.455,0,0,0,1.035-.18.581.581,0,0,0,.379-.547.506.506,0,0,0-.172-.391,1.6,1.6,0,0,0-.441-.273,5.009,5.009,0,0,0-.59-.211q-.32-.094-.617-.211a5.914,5.914,0,0,1-.84-.387,2.427,2.427,0,0,1-.609-.48,1.889,1.889,0,0,1-.375-.633,2.525,2.525,0,0,1-.129-.852,2.192,2.192,0,0,1,.293-1.156,2.393,2.393,0,0,1,.781-.793,3.57,3.57,0,0,1,1.117-.453,5.825,5.825,0,0,1,1.309-.145,7.261,7.261,0,0,1,1.078.082,8.047,8.047,0,0,1,1.078.238v1.906a3.9,3.9,0,0,0-1-.41,4.235,4.235,0,0,0-1.051-.137,2.328,2.328,0,0,0-.457.043,1.505,1.505,0,0,0-.379.125.7.7,0,0,0-.258.211.486.486,0,0,0-.094.293.541.541,0,0,0,.141.375,1.221,1.221,0,0,0,.367.27,3.625,3.625,0,0,0,.5.2q.277.09.551.184a7.161,7.161,0,0,1,.891.375,2.848,2.848,0,0,1,.684.477,1.871,1.871,0,0,1,.438.641,2.563,2.563,0,0,1-.156,2.09,2.471,2.471,0,0,1-.82.82,3.72,3.72,0,0,1-1.18.461,6.54,6.54,0,0,1-1.387.145A7.149,7.149,0,0,1,238.082,16.789Zm19.8.211h-2.469V15.9h-.031a2.768,2.768,0,0,1-2.477,1.3,3.033,3.033,0,0,1-2.414-1.059,4.382,4.382,0,0,1-.914-2.957A4.77,4.77,0,0,1,250.59,10a3.287,3.287,0,0,1,2.641-1.2,2.246,2.246,0,0,1,2.156,1.109h.031V5.156h2.469Zm-2.422-3.891v-.6a1.893,1.893,0,0,0-.453-1.3,1.6,1.6,0,0,0-2.461.129,2.993,2.993,0,0,0-.461,1.77,2.59,2.59,0,0,0,.445,1.625,1.581,1.581,0,0,0,2.457-.031A2.507,2.507,0,0,0,255.465,13.109Zm11.688.594h-5.219q.125,1.742,2.2,1.742a4.286,4.286,0,0,0,2.32-.625V16.6a6.1,6.1,0,0,1-2.883.594,4.058,4.058,0,0,1-3.008-1.074,4.059,4.059,0,0,1-1.07-3,4.281,4.281,0,0,1,1.156-3.156A3.852,3.852,0,0,1,263.488,8.8,3.5,3.5,0,0,1,266.2,9.844a4,4,0,0,1,.957,2.82Zm-2.289-1.516q0-1.719-1.391-1.719a1.328,1.328,0,0,0-1.027.492,2.234,2.234,0,0,0-.527,1.227ZM280,17h-6.719V5.8h6.461V7.852H275.8v2.492h3.664v2.047H275.8v2.563H280Zm9.281-8-2.641,3.875L289.262,17h-2.844l-1.156-2.156q-.141-.258-.336-.727h-.031a5.074,5.074,0,0,1-.32.7L283.41,17h-2.836l2.7-3.984L280.738,9H283.6l1.141,2.242a4.918,4.918,0,0,1,.32.75h.031a5.286,5.286,0,0,1,.336-.766L286.59,9Zm6.9,7.711a4.881,4.881,0,0,1-2.414.484,4.083,4.083,0,0,1-2.984-1.117,3.859,3.859,0,0,1-1.141-2.883,4.251,4.251,0,0,1,1.223-3.215,4.518,4.518,0,0,1,3.27-1.176,4.2,4.2,0,0,1,2.047.375v2.094a2.814,2.814,0,0,0-1.727-.578,2.275,2.275,0,0,0-1.684.621,2.317,2.317,0,0,0-.621,1.715,2.28,2.28,0,0,0,.594,1.668,2.182,2.182,0,0,0,1.633.605,3.258,3.258,0,0,0,1.8-.578Zm8.8-3.008h-5.219q.125,1.742,2.2,1.742a4.286,4.286,0,0,0,2.32-.625V16.6a6.1,6.1,0,0,1-2.883.594,4.058,4.058,0,0,1-3.008-1.074,4.059,4.059,0,0,1-1.07-3,4.281,4.281,0,0,1,1.156-3.156A3.852,3.852,0,0,1,301.316,8.8a3.5,3.5,0,0,1,2.707,1.039,4,4,0,0,1,.957,2.82Zm-2.289-1.516q0-1.719-1.391-1.719a1.328,1.328,0,0,0-1.027.492,2.234,2.234,0,0,0-.527,1.227ZM308.918,17h-2.469V5.156h2.469Z" transform="translate(-91.621 10.844)" fill="#fff"/>
    </g>
    <rect id="Rectángulo_411772" data-name="Rectángulo 411772" width="210" height="75" transform="translate(285.333 488)" fill="#ace3be"/>
    <text id="Interfaz_y_estructura_de_Excel" data-name="Interfaz y estructura 
de Excel" transform="translate(390.333 522)" fill="#12263f" font-size="16" font-family="SegoeUI, Segoe UI"><tspan x="-72.352" y="0">Interfaz y estructura </tspan><tspan x="-28.621" y="24">de Excel</tspan></text>
    <rect id="Rectángulo_411773" data-name="Rectángulo 411773" width="190" height="75" transform="translate(546.678 488)" fill="#ace3be"/>
    <text id="Interfaz_de_usuario" data-name="Interfaz de usuario" transform="translate(575.678 534)" fill="#12263f" font-size="16" font-family="SegoeUI, Segoe UI"><tspan x="0" y="0">Interfaz de usuario</tspan></text>
    <rect id="Rectángulo_411774" data-name="Rectángulo 411774" width="210" height="75" transform="translate(787.333 488)" fill="#ace3be"/>
    <text id="Gestión_de_datos" data-name="Gestión de datos" transform="translate(832.333 534)" fill="#12263f" font-size="16" font-family="SegoeUI, Segoe UI"><tspan x="0" y="0">Gestión de datos</tspan></text>
    <rect id="Rectángulo_411775" data-name="Rectángulo 411775" width="210" height="75" transform="translate(1039.333 488)" fill="#ace3be"/>
    <text id="Formato_de_celdas" data-name="Formato de celdas" transform="translate(1070.333 534)" fill="#12263f" font-size="16" font-family="SegoeUI, Segoe UI"><tspan x="0" y="0">Formato de celdas</tspan></text>
    <rect id="Rectángulo_411776" data-name="Rectángulo 411776" width="210" height="75" transform="translate(600.333 1154)" fill="#ace3be"/>
    <text id="Operadores" transform="translate(664.333 1197)" fill="#12263f" font-size="16" font-family="SegoeUI, Segoe UI"><tspan x="0" y="0">Operadores</tspan></text>
    <rect id="Rectángulo_411777" data-name="Rectángulo 411777" width="210" height="75" transform="translate(915.333 1154)" fill="#ace3be"/>
    <text id="Funciones_esenciales" data-name="Funciones esenciales" transform="translate(944.333 1197)" fill="#12263f" font-size="16" font-family="SegoeUI, Segoe UI"><tspan x="0" y="0">Funciones esenciales</tspan></text>
    <rect id="Rectángulo_411778" data-name="Rectángulo 411778" width="182" height="50" transform="translate(333.333 585)" fill="#cfd1ea"/>
    <text id="Libro_de_trabajo" data-name="Libro de trabajo" transform="translate(424.333 616)" fill="#12263f" font-size="16" font-family="SegoeUI, Segoe UI"><tspan x="-56.113" y="0">Libro de trabajo</tspan></text>
    <rect id="Rectángulo_411779" data-name="Rectángulo 411779" width="182" height="50" transform="translate(333.333 645)" fill="#cfd1ea"/>
    <text id="Hoja_de_cálculo" data-name="Hoja de cálculo" transform="translate(424.333 676)" fill="#12263f" font-size="16" font-family="SegoeUI, Segoe UI"><tspan x="-54.203" y="0">Hoja de cálculo</tspan></text>
    <rect id="Rectángulo_411780" data-name="Rectángulo 411780" width="182" height="50" transform="translate(333.333 705)" fill="#cfd1ea"/>
    <text id="Celda" transform="translate(424.333 736)" fill="#12263f" font-size="16" font-family="SegoeUI, Segoe UI"><tspan x="-19.855" y="0">Celda</tspan></text>
    <rect id="Rectángulo_411781" data-name="Rectángulo 411781" width="182" height="50" transform="translate(333.333 765)" fill="#cfd1ea"/>
    <text id="Celda_activa" data-name="Celda activa" transform="translate(424.333 796)" fill="#12263f" font-size="16" font-family="SegoeUI, Segoe UI"><tspan x="-42.363" y="0">Celda activa</tspan></text>
    <rect id="Rectángulo_411782" data-name="Rectángulo 411782" width="182" height="50" transform="translate(333.333 825)" fill="#cfd1ea"/>
    <text id="Rango" transform="translate(424.333 856)" fill="#12263f" font-size="16" font-family="SegoeUI, Segoe UI"><tspan x="-22.781" y="0">Rango</tspan></text>
    <path id="Trazado_1278908" data-name="Trazado 1278908" d="M-12462.8-8653.508h-29.684V-8943h1v288.492h28.684Z" transform="translate(12796.333 9506)"/>
    <path id="Trazado_1278909" data-name="Trazado 1278909" d="M-12462.061-8895h-29.928v-1h29.928Z" transform="translate(12796.333 9506)"/>
    <path id="Trazado_1278910" data-name="Trazado 1278910" d="M-12462.061-8895h-29.928v-1h29.928Z" transform="translate(12796.333 9565.5)"/>
    <path id="Trazado_1278911" data-name="Trazado 1278911" d="M-12462.061-8895h-29.928v-1h29.928Z" transform="translate(12796.333 9626.5)"/>
    <path id="Trazado_1278912" data-name="Trazado 1278912" d="M-12462.061-8895h-29.928v-1h29.928Z" transform="translate(12796.333 9686)"/>
    <rect id="Rectángulo_411783" data-name="Rectángulo 411783" width="182" height="50" transform="translate(595.333 585)" fill="#cfd1ea"/>
    <text id="Cinta_de_opciones" data-name="Cinta de opciones" transform="translate(686.333 616)" fill="#12263f" font-size="16" font-family="SegoeUI, Segoe UI"><tspan x="-63.293" y="0">Cinta de opciones</tspan></text>
    <rect id="Rectángulo_411784" data-name="Rectángulo 411784" width="182" height="50" transform="translate(595.333 645)" fill="#cfd1ea"/>
    <text id="Barra_de_fórmulas" data-name="Barra de fórmulas" transform="translate(686.333 676)" fill="#12263f" font-size="16" font-family="SegoeUI, Segoe UI"><tspan x="-62.359" y="0">Barra de fórmulas</tspan></text>
    <rect id="Rectángulo_411785" data-name="Rectángulo 411785" width="182" height="50" transform="translate(595.333 705)" fill="#cfd1ea"/>
    <text id="Barra_de_acceso_rápido" data-name="Barra de acceso rápido" transform="translate(686.333 736)" fill="#12263f" font-size="16" font-family="SegoeUI, Segoe UI"><tspan x="-80.375" y="0">Barra de acceso rápido</tspan></text>
    <path id="Trazado_1278913" data-name="Trazado 1278913" d="M-12462.8-8774.5h-29.684V-8943h1v167.5h28.684Z" transform="translate(13058.333 9506)"/>
    <path id="Trazado_1278914" data-name="Trazado 1278914" d="M-12462.061-8895h-29.928v-1h29.928Z" transform="translate(13058.333 9506)"/>
    <path id="Trazado_1278915" data-name="Trazado 1278915" d="M-12462.061-8895h-29.928v-1h29.928Z" transform="translate(13058.333 9565.5)"/>
    <rect id="Rectángulo_411786" data-name="Rectángulo 411786" width="191.506" height="50" transform="translate(848.494 585)" fill="#cfd1ea"/>
    <text id="Tipos_de_datos" data-name="Tipos de datos" transform="translate(939.494 616)" fill="#12263f" font-size="16" font-family="SegoeUI, Segoe UI"><tspan x="-51.766" y="0">Tipos de datos</tspan></text>
    <rect id="Rectángulo_411787" data-name="Rectángulo 411787" width="153.506" height="50" transform="translate(886.333 655)" fill="#fdf699"/>
    <text id="Texto" transform="translate(959.333 686)" fill="#12263f" font-size="16" font-family="SegoeUI, Segoe UI"><tspan x="-18.664" y="0">Texto</tspan></text>
    <rect id="Rectángulo_411788" data-name="Rectángulo 411788" width="153.506" height="50" transform="translate(886.333 715)" fill="#fdf699"/>
    <text id="Número" transform="translate(959.333 745.5)" fill="#12263f" font-size="16" font-family="SegoeUI, Segoe UI"><tspan x="-29.055" y="0">Número</tspan></text>
    <path id="Trazado_1278916" data-name="Trazado 1278916" d="M-12462.8-8895.5h-29.684V-8943h1v46.5h28.684Z" transform="translate(13311.494 9506)"/>
    <path id="Trazado_1278917" data-name="Trazado 1278917" d="M-12468.643-8659.5h-23.846V-8943h1v282.5h22.846Z" transform="translate(13355.138 9578)"/>
    <path id="Trazado_1278918" data-name="Trazado 1278918" d="M-12468.643-8895h-23.346v-1h23.346Z" transform="translate(13355.138 9576)"/>
    <rect id="Rectángulo_411789" data-name="Rectángulo 411789" width="153.506" height="50" transform="translate(886.494 774)" fill="#fdf699"/>
    <text id="Fecha_Hora" data-name="Fecha/Hora" transform="translate(965.333 804.5)" fill="#12263f" font-size="16" font-family="SegoeUI, Segoe UI"><tspan x="-40.719" y="0">Fecha/Hora</tspan></text>
    <rect id="Rectángulo_411790" data-name="Rectángulo 411790" width="153.506" height="50" transform="translate(886.333 833)" fill="#fdf699"/>
    <text id="Booleano" transform="translate(959.333 864)" fill="#12263f" font-size="16" font-family="SegoeUI, Segoe UI"><tspan x="-33.367" y="0">Booleano</tspan></text>
    <rect id="Rectángulo_411791" data-name="Rectángulo 411791" width="153.506" height="50" transform="translate(886.333 893)" fill="#fdf699"/>
    <text id="Fórmula" transform="translate(959.333 923.5)" fill="#12263f" font-size="16" font-family="SegoeUI, Segoe UI"><tspan x="-28.801" y="0">Fórmula</tspan></text>
    <path id="Trazado_1278919" data-name="Trazado 1278919" d="M-12468.643-8895h-23.346v-1h23.346Z" transform="translate(13355.138 9635.5)"/>
    <path id="Trazado_1278920" data-name="Trazado 1278920" d="M-12468.643-8895h-23.346v-1h23.346Z" transform="translate(13355.138 9694.5)"/>
    <path id="Trazado_1278921" data-name="Trazado 1278921" d="M-12468.643-8895h-23.346v-1h23.346Z" transform="translate(13355.138 9753.5)"/>
    <rect id="Rectángulo_411792" data-name="Rectángulo 411792" width="182" height="50" transform="translate(1095.321 585)" fill="#cfd1ea"/>
    <text id="Número-2" data-name="Número" transform="translate(1186.321 616)" fill="#12263f" font-size="16" font-family="SegoeUI, Segoe UI"><tspan x="-29.055" y="0">Número</tspan></text>
    <rect id="Rectángulo_411793" data-name="Rectángulo 411793" width="182" height="50" transform="translate(1095.321 645)" fill="#cfd1ea"/>
    <text id="Moneda" transform="translate(1186.321 676)" fill="#12263f" font-size="16" font-family="SegoeUI, Segoe UI"><tspan x="-29.363" y="0">Moneda</tspan></text>
    <rect id="Rectángulo_411794" data-name="Rectángulo 411794" width="182" height="50" transform="translate(1095.321 705)" fill="#cfd1ea"/>
    <text id="Porcentaje" transform="translate(1186.321 736)" fill="#12263f" font-size="16" font-family="SegoeUI, Segoe UI"><tspan x="-36.961" y="0">Porcentaje</tspan></text>
    <path id="Trazado_1278922" data-name="Trazado 1278922" d="M-12462.8-8656.5h-29.684V-8943h1v285.5h28.684Z" transform="translate(13558.321 9506)"/>
    <path id="Trazado_1278923" data-name="Trazado 1278923" d="M-12462.061-8895h-29.928v-1h29.928Z" transform="translate(13558.321 9506)"/>
    <path id="Trazado_1278924" data-name="Trazado 1278924" d="M-12462.061-8895h-29.928v-1h29.928Z" transform="translate(13558.321 9565.5)"/>
    <rect id="Rectángulo_411795" data-name="Rectángulo 411795" width="182" height="50" transform="translate(1095.333 765)" fill="#cfd1ea"/>
    <text id="Fecha" transform="translate(1186.333 796)" fill="#12263f" font-size="16" font-family="SegoeUI, Segoe UI"><tspan x="-20.383" y="0">Fecha</tspan></text>
    <rect id="Rectángulo_411796" data-name="Rectángulo 411796" width="182" height="50" transform="translate(1095.321 825)" fill="#cfd1ea"/>
    <text id="Alineación" transform="translate(1196.321 856)" fill="#12263f" font-size="16" font-family="SegoeUI, Segoe UI"><tspan x="-36.664" y="0">Alineación</tspan></text>
    <path id="Trazado_1278925" data-name="Trazado 1278925" d="M-12462.061-8895h-29.928v-1h29.928Z" transform="translate(13558.321 9625.5)"/>
    <path id="Trazado_1278926" data-name="Trazado 1278926" d="M-12462.061-8895h-29.928v-1h29.928Z" transform="translate(13558.321 9685)"/>
    <rect id="Rectángulo_411797" data-name="Rectángulo 411797" width="209.839" height="50" transform="translate(659.273 1251)" fill="#cfd1ea"/>
    <text id="Aritméticos:_-_" data-name="Aritméticos: +, -, *, /, %, ^" transform="translate(763.779 1282)" fill="#12263f" font-size="16" font-family="SegoeUI, Segoe UI"><tspan x="-90.789" y="0">Aritméticos: +, -, *, /, %, ^</tspan></text>
    <rect id="Rectángulo_411798" data-name="Rectángulo 411798" width="248.506" height="50" transform="translate(659.273 1306)" fill="#cfd1ea"/>
    <text id="Comparación:_" data-name="Comparación: =, &lt;&gt;, &gt;, &lt;, &gt;=, &lt;=" transform="translate(784.779 1337)" fill="#12263f" font-size="16" font-family="SegoeUI, Segoe UI"><tspan x="-119.813" y="0">Comparación: =, &lt;&gt;, &gt;, &lt;, &gt;=, &lt;=</tspan></text>
    <rect id="Rectángulo_411799" data-name="Rectángulo 411799" width="208.328" height="50" transform="translate(659.273 1362)" fill="#cfd1ea"/>
    <text id="Concatenación:_" data-name="Concatenación: &amp;" transform="translate(739.779 1393)" fill="#12263f" font-size="16" font-family="SegoeUI, Segoe UI"><tspan x="-62.602" y="0">Concatenación: &amp;</tspan></text>
    <path id="Trazado_1278927" data-name="Trazado 1278927" d="M-12470.964-8672.5h-21.524V-8943h1v269.5h20.524Z" transform="translate(13129.494 10172)"/>
    <path id="Trazado_1278928" data-name="Trazado 1278928" d="M-12470.221-8895h-21.768v-1h21.768Z" transform="translate(13129.494 10172)"/>
    <path id="Trazado_1278929" data-name="Trazado 1278929" d="M-12470.221-8895h-21.768v-1h21.768Z" transform="translate(13129.494 10231.5)"/>
    <rect id="Rectángulo_411800" data-name="Rectángulo 411800" width="208.328" height="50" transform="translate(659.273 1417)" fill="#cfd1ea"/>
    <text id="Referencia:_:_" data-name="Referencia: :, ;" transform="translate(726.779 1448)" fill="#12263f" font-size="16" font-family="SegoeUI, Segoe UI"><tspan x="-47.938" y="0">Referencia: :, ;</tspan></text>
    <rect id="Rectángulo_411801" data-name="Rectángulo 411801" width="208.328" height="50" transform="translate(659.273 1474)" fill="#cfd1ea"/>
    <text id="Jerarquía_de_operadores_prioridad_según_tipo_" data-name="Jerarquía de operadores 
(prioridad según tipo)" transform="translate(672.779 1492.5)" fill="#12263f" font-size="16" font-family="SegoeUI, Segoe UI"><tspan x="0" y="0">Jerarquía de operadores </tspan><tspan x="0" y="24">(prioridad según tipo)</tspan></text>
    <path id="Trazado_1278930" data-name="Trazado 1278930" d="M-12470.221-8895h-21.768v-1h21.768Z" transform="translate(13129.494 10338)"/>
    <path id="Trazado_1278931" data-name="Trazado 1278931" d="M-12470.221-8895h-21.768v-1h21.768Z" transform="translate(13129.494 10283)"/>
    <rect id="Rectángulo_411802" data-name="Rectángulo 411802" width="149.727" height="50" transform="translate(975.273 1251)" fill="#cfd1ea"/>
    <text id="SUMA" transform="translate(1022.333 1282)" fill="#12263f" font-size="16" font-family="SegoeUI, Segoe UI"><tspan x="-22.09" y="0">SUMA</tspan></text>
    <rect id="Rectángulo_411803" data-name="Rectángulo 411803" width="149.727" height="50" transform="translate(975.273 1306)" fill="#cfd1ea"/>
    <text id="PROMEDIO" transform="translate(1030.333 1337)" fill="#12263f" font-size="16" font-family="SegoeUI, Segoe UI"><tspan x="-40.219" y="0">PROMEDIO</tspan></text>
    <rect id="Rectángulo_411804" data-name="Rectángulo 411804" width="149.727" height="50" transform="translate(975.273 1361)" fill="#cfd1ea"/>
    <text id="CONTAR" transform="translate(1021.333 1392)" fill="#12263f" font-size="16" font-family="SegoeUI, Segoe UI"><tspan x="-30.344" y="0">CONTAR</tspan></text>
    <path id="Trazado_1278932" data-name="Trazado 1278932" d="M-12470.964-8459.27h-21.524V-8943h1v482.73h20.524Z" transform="translate(13445.494 10172)"/>
    <path id="Trazado_1278933" data-name="Trazado 1278933" d="M-12470.221-8895h-21.768v-1h21.768Z" transform="translate(13445.494 10172)"/>
    <path id="Trazado_1278934" data-name="Trazado 1278934" d="M-12470.221-8895h-21.768v-1h21.768Z" transform="translate(13445.494 10231.5)"/>
    <rect id="Rectángulo_411805" data-name="Rectángulo 411805" width="149.727" height="50" transform="translate(975.273 1416)" fill="#cfd1ea"/>
    <text id="MAX" transform="translate(1007.333 1447)" fill="#12263f" font-size="16" font-family="SegoeUI, Segoe UI"><tspan x="-17.063" y="0">MAX</tspan></text>
    <rect id="Rectángulo_411806" data-name="Rectángulo 411806" width="149.727" height="50" transform="translate(975.273 1471)" fill="#cfd1ea"/>
    <text id="MIN" transform="translate(988.333 1501.5)" fill="#12263f" font-size="16" font-family="SegoeUI, Segoe UI"><tspan x="0" y="0">MIN</tspan></text>
    <path id="Trazado_1278935" data-name="Trazado 1278935" d="M-12470.221-8895h-21.768v-1h21.768Z" transform="translate(13445.494 10351.5)"/>
    <path id="Trazado_1278936" data-name="Trazado 1278936" d="M-12470.221-8895h-21.768v-1h21.768Z" transform="translate(13445.494 10291.5)"/>
    <rect id="Rectángulo_411807" data-name="Rectángulo 411807" width="149.727" height="50" transform="translate(975.273 1525.5)" fill="#cfd1ea"/>
    <text id="SI" transform="translate(995.333 1556.5)" fill="#12263f" font-size="16" font-family="SegoeUI, Segoe UI"><tspan x="-6.379" y="0">SI</tspan></text>
    <rect id="Rectángulo_411808" data-name="Rectángulo 411808" width="149.727" height="50" transform="translate(975.273 1580.5)" fill="#cfd1ea"/>
    <text id="CONCAT" transform="translate(1019.333 1611.5)" fill="#12263f" font-size="16" font-family="SegoeUI, Segoe UI"><tspan x="-30.484" y="0">CONCAT</tspan></text>
    <rect id="Rectángulo_411809" data-name="Rectángulo 411809" width="149.727" height="50" transform="translate(975.273 1635.5)" fill="#cfd1ea"/>
    <text id="HOY" transform="translate(988.333 1666)" fill="#12263f" font-size="16" font-family="SegoeUI, Segoe UI"><tspan x="0" y="0">HOY</tspan></text>
    <rect id="Rectángulo_411810" data-name="Rectángulo 411810" width="149.727" height="50" transform="translate(975.273 1690)" fill="#cfd1ea"/>
    <text id="AHORA" transform="translate(990.333 1720.5)" fill="#12263f" font-size="16" font-family="SegoeUI, Segoe UI"><tspan x="0" y="0">AHORA</tspan></text>
    <path id="Trazado_1278937" data-name="Trazado 1278937" d="M-12470.221-8895h-21.768v-1h21.768Z" transform="translate(13445.494 10391)"/>
    <path id="Trazado_1278938" data-name="Trazado 1278938" d="M-12470.221-8895h-21.768v-1h21.768Z" transform="translate(13445.494 10504)"/>
    <path id="Trazado_1278939" data-name="Trazado 1278939" d="M-12470.221-8895h-21.768v-1h21.768Z" transform="translate(13445.494 10451)"/>
    <path id="Trazado_1278940" data-name="Trazado 1278940" d="M-12470.221-8895h-21.768v-1h21.768Z" transform="translate(13445.494 10556)"/>
    <path id="Trazado_1278941" data-name="Trazado 1278941" d="M-11530.457-9130h-1v-26.3H-12309.5v26.3h-1v-27.3h780.043Z" transform="translate(12691.333 9618)"/>
    <path id="Trazado_1278942" data-name="Trazado 1278942" d="M-12045.971-9130.691h-1V-9156.8h1Z" transform="translate(12691.333 9618)" fill="#1c1c1c"/>
    <path id="Trazado_1278943" data-name="Trazado 1278943" d="M-12045.971-9130.691h-1V-9156.8h1Z" transform="translate(12948.333 9618)" fill="#1c1c1c"/>
    <path id="Trazado_1278944" data-name="Trazado 1278944" d="M-12045.971-9130.691h-1V-9156.8h1Z" transform="translate(12836.471 9589.805)" fill="#1c1c1c"/>
    <path id="Trazado_1278945" data-name="Trazado 1278945" d="M-11985.834-8465.734h-1v-42.485h945.5V-9156.3h-297.381v-1h298.381v650.085h-945.5Z" transform="translate(12410.666 9618)"/>
    <path id="Trazado_1278946" data-name="Trazado 1278946" d="M-12045.971-9113.035h-1V-9156.8h1Z" transform="translate(13066.471 10267.036)" fill="#1c1c1c"/>
    <rect id="Rectángulo_411989" data-name="Rectángulo 411989" width="210" height="75" transform="translate(304.333 1154)" fill="#ace3be"/>
    <text id="Referencias_de_celda" data-name="Referencias de celda" transform="translate(335.333 1200)" fill="#12263f" font-size="16" font-family="SegoeUI, Segoe UI"><tspan x="0" y="0">Referencias de celda</tspan></text>
    <rect id="Rectángulo_411990" data-name="Rectángulo 411990" width="182" height="50" transform="translate(360.321 1251)" fill="#cfd1ea"/>
    <text id="Relativa_A1_" data-name="Relativa (A1)" transform="translate(451.321 1282)" fill="#12263f" font-size="16" font-family="SegoeUI, Segoe UI"><tspan x="-43.785" y="0">Relativa (A1)</tspan></text>
    <rect id="Rectángulo_411991" data-name="Rectángulo 411991" width="182" height="50" transform="translate(360.321 1311)" fill="#cfd1ea"/>
    <text id="Absoluta_A_1_" data-name="Absoluta ($A$1)" transform="translate(451.321 1342)" fill="#12263f" font-size="16" font-family="SegoeUI, Segoe UI"><tspan x="-56.309" y="0">Absoluta ($A$1)</tspan></text>
    <rect id="Rectángulo_411992" data-name="Rectángulo 411992" width="182" height="50" transform="translate(360.321 1371)" fill="#cfd1ea"/>
    <text id="Mixta_A1_o_A_1_" data-name="Mixta ($A1 o A$1)" transform="translate(451.321 1402)" fill="#12263f" font-size="16" font-family="SegoeUI, Segoe UI"><tspan x="-63.234" y="0">Mixta ($A1 o A$1)</tspan></text>
    <path id="Trazado_1279571-2" data-name="Trazado 1279571" d="M-12462.8-8656.5h-29.684V-8943h1v285.5h28.684Z" transform="translate(12823.321 10172)"/>
    <path id="Trazado_1279572" data-name="Trazado 1279572" d="M-12462.061-8895h-29.928v-1h29.928Z" transform="translate(12823.321 10172)"/>
    <path id="Trazado_1279573" data-name="Trazado 1279573" d="M-12462.061-8895h-29.928v-1h29.928Z" transform="translate(12823.321 10231.5)"/>
    <rect id="Rectángulo_411993" data-name="Rectángulo 411993" width="239.679" height="50" transform="translate(360.321 1431)" fill="#cfd1ea"/>
    <text id="Creación_manual_o_interactiva" data-name="Creación manual o interactiva" transform="translate(476.321 1462)" fill="#12263f" font-size="16" font-family="SegoeUI, Segoe UI"><tspan x="-104.578" y="0">Creación manual o interactiva</tspan></text>
    <rect id="Rectángulo_411994" data-name="Rectángulo 411994" width="208" height="50" transform="translate(360.321 1491)" fill="#cfd1ea"/>
    <text id="Modificación_con_tecla_F4" data-name="Modificación con tecla F4" transform="translate(461.321 1522)" fill="#12263f" font-size="16" font-family="SegoeUI, Segoe UI"><tspan x="-89.875" y="0">Modificación con tecla F4</tspan></text>
    <path id="Trazado_1279574" data-name="Trazado 1279574" d="M-12462.061-8895h-29.928v-1h29.928Z" transform="translate(12823.321 10291.5)"/>
    <path id="Trazado_1279575" data-name="Trazado 1279575" d="M-12462.061-8895h-29.928v-1h29.928Z" transform="translate(12823.321 10351)"/>
    <rect id="Rectángulo_411995" data-name="Rectángulo 411995" width="182" height="50" transform="translate(1095.321 886)" fill="#cfd1ea"/>
    <text id="Fuente" transform="translate(1186.321 917)" fill="#12263f" font-size="16" font-family="SegoeUI, Segoe UI"><tspan x="-24.039" y="0">Fuente</tspan></text>
    <rect id="Rectángulo_411996" data-name="Rectángulo 411996" width="182" height="50" transform="translate(1095.333 946)" fill="#cfd1ea"/>
    <text id="Bordes" transform="translate(1186.333 977)" fill="#12263f" font-size="16" font-family="SegoeUI, Segoe UI"><tspan x="-24.344" y="0">Bordes</tspan></text>
    <rect id="Rectángulo_411997" data-name="Rectángulo 411997" width="182" height="50" transform="translate(1095.321 1006)" fill="#cfd1ea"/>
    <text id="Relleno" transform="translate(1196.321 1037)" fill="#12263f" font-size="16" font-family="SegoeUI, Segoe UI"><tspan x="-26.008" y="0">Relleno</tspan></text>
    <path id="Trazado_1279576" data-name="Trazado 1279576" d="M-12045.971-9113.035h-1V-9156.8h1Z" transform="translate(12751.471 10267.036)" fill="#1c1c1c"/>
  </g>
</svg>
